<svg id="Layer_1" data-name="Layer 1" xmlns="http://www.w3.org/2000/svg" viewBox="0 0 63.09 55.19"><defs><style>.cls-1{fill:#cf202e;stroke:#fff;stroke-miterlimit:10;}.cls-2{fill:#2d2a26;}.cls-3{fill:#fff;}</style></defs><title>Money Mark Knockedout</title><path class="cls-1" d="M22.42,59s-4.74-7.61-10.3-15.22S1,28.4,1,28.4L1.82,27S6,24.36,7,24a6.33,6.33,0,0,1,4.33.21c1.23.61,13.45,13.78,13.45,13.78s7.52-12.62,12.67-17.77,11.95-11.72,13.8-13S55,5,55,5a23.53,23.53,0,0,1,3.3.2c.82.21,3.71,4.11,4.32,4.94s.62.82-.61,2.05-13.19,15-16.07,19.54-9.27,19.13-9.48,20.57S35,54.52,33.75,55.14,22.42,59,22.42,59Z" transform="translate(-0.41 -4.46)"/><path class="cls-2" d="M30.37,27.87c2.85.18,8.26,1.68,8.26,5.08a2.21,2.21,0,0,1-2.28,2.33,2.91,2.91,0,0,1-3-2.59,1.78,1.78,0,0,0-1.18-1.61,7.59,7.59,0,0,0-3.5-.73A6.38,6.38,0,0,0,25.6,31a2.62,2.62,0,0,0-1.29,2.19c0,2.63,3.73,3.11,5.75,3.55l1.79.36c4.08.92,8.08,2,8.08,6.84s-5.15,7-9.53,7.41V56.7H28V51.36c-3.31-.07-9.87-1.64-9.87-5.66a2.8,2.8,0,0,1,3.09-3c1.37,0,3,.95,3,2.41a.86.86,0,0,1-.08.44,8.81,8.81,0,0,0-.11.88c0,1.86,3.28,2.26,4.69,2.26,2.28,0,5.75-.69,5.75-3.47,0-2.23-1.94-2.45-3.81-2.85l-2.51-.55c-4.16-1-9.22-1.6-9.22-6.8,0-4.78,4.72-7,9.1-7.16v-5h2.37v4.94Z" transform="translate(-0.41 -4.46)"/><path class="cls-2" d="M27.6,57.1V51.74c-2.59-.14-6.62-1-8.68-3.2h0a4.05,4.05,0,0,1-1.18-2.84h0a3.22,3.22,0,0,1,1-2.45h0a3.55,3.55,0,0,1,2.53-.91h0a3.83,3.83,0,0,1,2.24.74h0a2.59,2.59,0,0,1,1.13,2.07h0a1.43,1.43,0,0,1-.09.55h0a6.8,6.8,0,0,0-.1.77h0a1.06,1.06,0,0,0,.4.84h0a3.15,3.15,0,0,0,1.14.61h0a9.3,9.3,0,0,0,2.75.42h0a9.29,9.29,0,0,0,3.57-.66h0A2.6,2.6,0,0,0,34,45.26h0a1.75,1.75,0,0,0-1-1.76h0a10.27,10.27,0,0,0-2.5-.7h0L28,42.25a27.13,27.13,0,0,1-6.27-1.84h0a5.61,5.61,0,0,1-3.26-5.35h0a6.59,6.59,0,0,1,3.08-5.63h0a12.29,12.29,0,0,1,6-1.9h0v-5h3.16v5c2.23.22,5.56,1.08,7.28,3h0A3.67,3.67,0,0,1,39,33h0a2.8,2.8,0,0,1-.72,1.93h0a2.65,2.65,0,0,1-2,.8h0A3.32,3.32,0,0,1,33,32.76h0a1.93,1.93,0,0,0-.26-.81h0a2,2,0,0,0-.71-.52h0a7.32,7.32,0,0,0-3.32-.68h0a6,6,0,0,0-2.87.59h0a2.25,2.25,0,0,0-1.1,1.85h0a2,2,0,0,0,.51,1.34h0a4,4,0,0,0,1.37.89h0a20,20,0,0,0,3.56.93h0l1.8.36a17.7,17.7,0,0,1,5.7,2h0A5.8,5.8,0,0,1,40.33,44h0A6.71,6.71,0,0,1,37,49.69h0a14.42,14.42,0,0,1-6.23,2h0V57.1Zm-6.38-14a2.74,2.74,0,0,0-2,.68h0a2.49,2.49,0,0,0-.71,1.88h0a3.31,3.31,0,0,0,1,2.3h0A7.57,7.57,0,0,0,22,49.65h0A17.29,17.29,0,0,0,28,51h.39V56.3H30V51l.36,0A13.78,13.78,0,0,0,36.59,49h0A5.85,5.85,0,0,0,39.53,44h0a5,5,0,0,0-2.33-4.54h0a16.63,16.63,0,0,0-5.43-1.91h0L30,37.13c-1.5-.34-4-.64-5.35-2.06h0a2.73,2.73,0,0,1-.72-1.87h0a3,3,0,0,1,1.48-2.53h0a6.81,6.81,0,0,1,3.3-.72h0a8.17,8.17,0,0,1,3.69.78h0a2.67,2.67,0,0,1,1,.76h0a2.76,2.76,0,0,1,.41,1.14h0a2.5,2.5,0,0,0,2.58,2.26h0a1.82,1.82,0,0,0,1.38-.55h0a2,2,0,0,0,.5-1.39h0A2.81,2.81,0,0,0,37.44,31h0a6.34,6.34,0,0,0-2-1.45h0a14.72,14.72,0,0,0-5.06-1.3h0l-.37,0V23.33H28.4v5l-.38,0a11.76,11.76,0,0,0-6,1.79h0a5.79,5.79,0,0,0-2.74,5h0a4.81,4.81,0,0,0,2.84,4.64h0a26.73,26.73,0,0,0,6.07,1.78h0l2.51.54a10.47,10.47,0,0,1,2.71.78h0a2.59,2.59,0,0,1,1.42,2.46h0a3.4,3.4,0,0,1-2.26,3.14h0a9.92,9.92,0,0,1-3.89.73h0c-1.12,0-3.25-.19-4.42-1.23h0a1.93,1.93,0,0,1-.67-1.43h0a8.59,8.59,0,0,1,.12-.93h0v0l0-.05c.06-.16,0-.09,0-.29h0A1.77,1.77,0,0,0,23,43.72h0a3,3,0,0,0-1.75-.58h0Z" transform="translate(-0.41 -4.46)"/><path class="cls-2" d="M29.68,27.07c2.85.18,8.27,1.68,8.27,5.08a2.21,2.21,0,0,1-2.29,2.34,2.91,2.91,0,0,1-3-2.6,1.79,1.79,0,0,0-1.19-1.6,7.57,7.57,0,0,0-3.5-.74,6.38,6.38,0,0,0-3.09.66,2.63,2.63,0,0,0-1.29,2.2c0,2.63,3.73,3.1,5.75,3.54l1.79.37c4.08.91,8.08,2,8.08,6.83s-5.14,7.05-9.53,7.42V55.9h-2.4V50.57c-3.31-.08-9.86-1.65-9.86-5.67a2.81,2.81,0,0,1,3.08-3c1.37,0,3,1,3,2.42a1,1,0,0,1-.07.44,6.28,6.28,0,0,0-.12.87c0,1.86,3.28,2.27,4.69,2.27,2.29,0,5.75-.7,5.75-3.47,0-2.23-1.94-2.45-3.81-2.86l-2.51-.54c-4.15-1-9.22-1.61-9.22-6.8,0-4.79,4.72-7,9.1-7.16v-5h2.37v4.93Z" transform="translate(-0.41 -4.46)"/><path class="cls-2" d="M26.92,56.3V51c-2.6-.15-6.63-1-8.69-3.2h0a4.12,4.12,0,0,1-1.18-2.85h0A3.33,3.33,0,0,1,18,42.45h0a3.59,3.59,0,0,1,2.53-.9h0a3.89,3.89,0,0,1,2.24.73h0a2.59,2.59,0,0,1,1.13,2.08h0a1.25,1.25,0,0,1-.09.54h0a7.1,7.1,0,0,0-.1.77h0a1.11,1.11,0,0,0,.4.85h0a3.49,3.49,0,0,0,1.14.61h0a9.59,9.59,0,0,0,2.75.41h0a9.11,9.11,0,0,0,3.57-.66h0a2.59,2.59,0,0,0,1.79-2.41h0a1.79,1.79,0,0,0-1-1.77h0a10.27,10.27,0,0,0-2.5-.7h0l-2.52-.55a26.71,26.71,0,0,1-6.26-1.84h0a5.6,5.6,0,0,1-3.27-5.34h0a6.6,6.6,0,0,1,3.08-5.64h0a12.54,12.54,0,0,1,6-1.9h0v-5h3.15v5c2.23.21,5.57,1.07,7.28,3h0a3.69,3.69,0,0,1,1,2.47h0a2.8,2.8,0,0,1-.72,1.93h0a2.57,2.57,0,0,1-2,.8h0A3.31,3.31,0,0,1,32.29,32h0a1.93,1.93,0,0,0-.26-.8h0a1.9,1.9,0,0,0-.71-.52h0A7.2,7.2,0,0,0,28,30h0a5.91,5.91,0,0,0-2.87.6h0A2.24,2.24,0,0,0,24,32.41h0a1.9,1.9,0,0,0,.52,1.33h0a3.84,3.84,0,0,0,1.36.9h0a20.78,20.78,0,0,0,3.56.92h0l1.8.37A17.46,17.46,0,0,1,37,38h0a5.8,5.8,0,0,1,2.69,5.2h0a6.7,6.7,0,0,1-3.3,5.74h0a14.43,14.43,0,0,1-6.23,2h0V56.3Zm-6.39-14a2.8,2.8,0,0,0-2,.68h0a2.56,2.56,0,0,0-.71,1.88h0a3.34,3.34,0,0,0,1,2.3h0a7.46,7.46,0,0,0,2.49,1.65h0a17,17,0,0,0,6,1.32h.39v5.33h1.61V50.2l.36,0a13.77,13.77,0,0,0,6.22-1.94h0a5.87,5.87,0,0,0,2.94-5.08h0a5,5,0,0,0-2.33-4.54h0a16.93,16.93,0,0,0-5.43-1.91h0l-1.79-.36c-1.5-.34-4-.64-5.35-2.07h0a2.7,2.7,0,0,1-.72-1.86h0a3,3,0,0,1,1.49-2.54h0A6.76,6.76,0,0,1,28,29.16h0a7.92,7.92,0,0,1,3.69.78h0a2.5,2.5,0,0,1,1,.75h0a2.62,2.62,0,0,1,.41,1.14h0a2.5,2.5,0,0,0,2.58,2.26h0A1.81,1.81,0,0,0,37,33.54h0a2,2,0,0,0,.51-1.39h0a2.87,2.87,0,0,0-.79-1.94h0a6.54,6.54,0,0,0-2-1.45h0a14.63,14.63,0,0,0-5.06-1.29h0l-.37,0V22.53H27.71v5h-.38a11.76,11.76,0,0,0-6,1.79h0a5.79,5.79,0,0,0-2.74,5h0a4.81,4.81,0,0,0,2.84,4.64h0a26.87,26.87,0,0,0,6.07,1.77h0l2.52.55a10.4,10.4,0,0,1,2.7.78h0a2.56,2.56,0,0,1,1.42,2.46h0A3.39,3.39,0,0,1,31.9,47.6h0a9.82,9.82,0,0,1-3.9.73h0c-1.11,0-3.24-.19-4.42-1.23h0a1.87,1.87,0,0,1-.66-1.43h0a6.45,6.45,0,0,1,.11-.92h0v-.06l0,0c.06-.15,0-.09.05-.28h0a1.79,1.79,0,0,0-.81-1.44h0a3.09,3.09,0,0,0-1.76-.58h0Z" transform="translate(-0.41 -4.46)"/><path class="cls-3" d="M29.68,27.07c2.85.18,8.27,1.68,8.27,5.08a2.21,2.21,0,0,1-2.29,2.34,2.91,2.91,0,0,1-3-2.6,1.79,1.79,0,0,0-1.19-1.6,7.57,7.57,0,0,0-3.5-.74,6.38,6.38,0,0,0-3.09.66,2.63,2.63,0,0,0-1.29,2.2c0,2.63,3.73,3.1,5.75,3.54l1.79.37c4.08.91,8.08,2,8.08,6.83s-5.14,7.05-9.53,7.42V55.9h-2.4V50.57c-3.31-.08-9.86-1.65-9.86-5.67a2.81,2.81,0,0,1,3.08-3c1.37,0,3,1,3,2.42a1,1,0,0,1-.07.44,6.28,6.28,0,0,0-.12.87c0,1.86,3.28,2.27,4.69,2.27,2.29,0,5.75-.7,5.75-3.47,0-2.23-1.94-2.45-3.81-2.86l-2.51-.54c-4.15-1-9.22-1.61-9.22-6.8,0-4.79,4.72-7,9.1-7.16v-5h2.37v4.93Z" transform="translate(-0.41 -4.46)"/><path class="cls-3" d="M39.05,51.12a1.73,1.73,0,1,1,1.74,1.78,1.71,1.71,0,0,1-1.74-1.78Zm1.74,2.14a2.13,2.13,0,1,0-2.17-2.14,2.13,2.13,0,0,0,2.17,2.14Zm-.45-2h.42l.65,1.07h.42l-.7-1.09a.63.63,0,0,0,.64-.67c0-.49-.29-.7-.87-.7H40v2.46h.37V51.29Zm0-.31v-.77h.5c.26,0,.53.06.53.36s-.28.41-.59.41Z" transform="translate(-0.41 -4.46)"/></svg>