<svg width="24" height="24" viewBox="0 0 24 24" fill="none" xmlns="http://www.w3.org/2000/svg">
<ellipse cx="12.2917" cy="12.5" rx="6.84226" ry="6.84226" fill="#FFBC70"/>
<path d="M8.5 12.5C8.5 15 10.7656 16.3 12.6094 16.3C14.4531 16.3 16.2 14.15 16.2 14.15L18 16.15C16.9488 17.2568 13.6859 18.5 12 18.5C8.82629 18.5 6.3999 15.5376 6.3999 12.5C6.3999 9.46243 9.32629 6.5 12.5 6.5C14.1859 6.5 16.9488 7.54316 18 8.65L16.2 10.6C16.2 10.6 14.6719 8.65 12.6094 8.65C10.5469 8.65 8.5 10.4 8.5 12.5Z" fill="#C95308"/>
<path d="M18.8798 6.92927L19.187 6.59528L18.8843 6.25723C17.22 4.39862 14.8208 3.29166 12.162 3.29166C7.14089 3.29166 3.08325 7.42147 3.08325 12.5C3.08325 17.5785 7.14089 21.7083 12.162 21.7083C14.8282 21.7083 17.2251 20.5421 18.8843 18.6891L19.1721 18.3678L18.8964 18.036L17.7521 16.659L17.3815 16.2131L16.9955 16.6445L16.9954 16.6446L16.9952 16.6449L16.9951 16.6449L16.9949 16.6451L16.9913 16.6491L16.9716 16.6701C16.9532 16.6895 16.9244 16.7194 16.8856 16.7579C16.8079 16.835 16.6905 16.9464 16.5367 17.0782C16.2283 17.3423 15.7777 17.6848 15.2116 17.9959C14.0793 18.6183 12.512 19.1025 10.6911 18.6228C7.77627 17.855 5.98 15.1444 5.98 12.5C5.98 9.86438 7.76961 7.21769 10.7019 6.37419C12.6183 5.82292 14.1843 6.26959 15.2824 6.85819C15.8338 7.15369 16.2651 7.48435 16.5575 7.74025C16.7034 7.86792 16.8138 7.97615 16.8863 8.05081C16.9225 8.08811 16.9491 8.11695 16.966 8.13553L16.9838 8.15547L16.9865 8.15863L16.9868 8.15895L16.987 8.1592L16.987 8.15923L16.9873 8.15948L17.3527 8.58947L17.7355 8.17331L18.8798 6.92927Z" fill="white" stroke="#C95308"/>
</svg>
