<svg width="88" height="88" viewBox="0 0 88 88" fill="none" xmlns="http://www.w3.org/2000/svg">
<path d="M67.0833 12.8931H24.9167C24.8108 12.8931 24.725 12.9873 24.725 13.1034V21.5172H23V13.1034C23 11.9417 23.8581 11 24.9167 11H67.0833C68.1419 11 69 11.9417 69 13.1034V69.8966C69 71.0583 68.1419 72 67.0833 72H24.9167C23.8581 72 23 71.0583 23 69.8966V53.069H24.725V69.8966C24.725 70.0127 24.8108 70.1069 24.9167 70.1069H67.0833C67.1892 70.1069 67.275 70.0127 67.275 69.8966V13.1034C67.275 12.9873 67.1892 12.8931 67.0833 12.8931Z" fill="#419B81"/>
<path fill-rule="evenodd" clip-rule="evenodd" d="M46 51H36V49H46V51Z" fill="#419B81"/>
<path fill-rule="evenodd" clip-rule="evenodd" d="M43 55H36V53H43V55Z" fill="#419B81"/>
<path fill-rule="evenodd" clip-rule="evenodd" d="M64 33H29V31H64V33Z" fill="#419B81"/>
<path fill-rule="evenodd" clip-rule="evenodd" d="M64 28H28V26H64V28Z" fill="#419B81"/>
<path fill-rule="evenodd" clip-rule="evenodd" d="M64 23H28V21H64V23Z" fill="#419B81"/>
<path fill-rule="evenodd" clip-rule="evenodd" d="M64 18H28V16H64V18Z" fill="#419B81"/>
<path d="M12.866 26.2321C12.5899 25.7538 12.7538 25.1422 13.2321 24.866L15.8301 23.366C16.3084 23.0899 16.92 23.2538 17.1962 23.7321L32.9601 51.036C33.0377 51.1704 33.083 51.3211 33.0923 51.4761L34.0905 51.4162L33.0923 51.4761L33.4131 56.8205L28.945 53.8705L28.394 54.705L28.945 53.8705C28.8154 53.785 28.7076 53.6704 28.63 53.536L12.866 26.2321Z" fill="white" stroke="#E1671E" stroke-width="2"/>
<line x1="14.366" y1="28.8301" x2="17.8301" y2="26.8301" stroke="#E1671E" stroke-width="2"/>
<path d="M20.0623 26.6962L21.7943 25.6962L26.2943 33.4904" stroke="#E1671E" stroke-width="2"/>
<path d="M66 55C59.373 55 54 60.373 54 67C54 73.627 59.373 79 66 79C72.627 79 78 73.627 78 67C78 60.373 72.627 55 66 55Z" fill="white"/>
<path d="M57.4004 66.9984C57.4004 62.2491 61.2511 58.3984 66.0004 58.3984C70.7497 58.3984 74.6004 62.2491 74.6004 66.9984C74.6004 71.7478 70.7497 75.5984 66.0004 75.5984C61.2511 75.5984 57.4004 71.7478 57.4004 66.9984Z" fill="#FFE1BF" stroke="#E1671E" stroke-width="2"/>
<path d="M65.1722 70.8161L70.8197 65.0715C71.0601 64.8261 71.0601 64.4294 70.8197 64.184C70.5794 63.9387 70.1908 63.9387 69.9505 64.184L64.7376 69.485L62.0495 66.7616C61.8092 66.5162 61.4206 66.5162 61.1803 66.7616C60.9399 67.007 60.9399 67.4036 61.1803 67.649L64.303 70.8161C64.418 70.9341 64.5747 71 64.7376 71C64.9005 71 65.0567 70.9341 65.1722 70.8161Z" fill="#FFBC70" stroke="#E1671E" stroke-width="1.7"/>
</svg>
