<svg width="88" height="88" viewBox="0 0 88 88" fill="none" xmlns="http://www.w3.org/2000/svg">
<path d="M10.7759 24H63.6379C65.7197 24 67.4138 25.346 67.4138 27V29H69.931C72.0128 29 73.7069 30.346 73.7069 32V34H76.2241C78.3059 34 80 35.346 80 37V61C80 62.654 78.3059 64 76.2241 64H23.3621C21.2803 64 19.5862 62.654 19.5862 61V59H17.069C14.9872 59 13.2931 57.654 13.2931 56V54H10.7759C8.69411 54 7 52.654 7 51V27C7 25.346 8.69411 24 10.7759 24ZM21.5 61C21.5 61.551 21.8052 62 22.5 62H77C77.6948 62 78 61.551 78 61V37C78 36.449 77.6948 36 77 36H22.5C21.8052 36 21.5 36.449 21.5 37V61ZM15.3416 56C15.3416 56.551 15.8052 57 16.5 57H19.5862V37C19.5862 35.346 21.2803 34 23.3621 34H71.7209V32C71.7209 31.449 71.3823 31 70.6875 31H16.5C15.8052 31 15.3416 31.449 15.3416 32V56ZM9 51C9 51.551 9.30524 52 10 52H13.2931V32C13.2931 30.346 14.9872 29 17.069 29H65.3341V27C65.3341 26.449 64.976 26 64.2812 26H10C9.30524 26 9 26.449 9 27V51Z" fill="#419B81"/>
<path fill-rule="evenodd" clip-rule="evenodd" d="M26.3281 34H23.7969C21.7035 34 20 35.346 20 37V61C20 62.654 21.7035 64 23.7969 64H76.9531C79.0465 64 80.75 62.654 80.75 61V59V57V37C80.75 35.346 79.0465 34 76.9531 34H28.8594H26.3281ZM78.5 61C78.5 61.551 78.1986 62 77.5 62H23.5C22.8014 62 22 61.551 22 61V37C22 36.449 22.8014 36 23.5 36H77.5C78.1986 36 78.5 36.449 78.5 37V61Z" fill="#419B81"/>
<path fill-rule="evenodd" clip-rule="evenodd" d="M79 61C79 61.551 78.4196 62 77.7045 62H23.2955C22.5804 62 22 61.551 22 61V37C22 36.449 22.5804 36 23.2955 36H77.7045C78.4196 36 79 36.449 79 37V61Z" fill="white"/>
<path d="M71.625 38V39C71.625 40.387 72.2842 42 74.4219 42H75.6875V56H74.4219C72.2842 56 71.625 57.613 71.625 59V60H56V58H70C70.5316 56.103 71.6004 54.53 74 54.11V43.89C71.5991 43.47 70.5316 41.897 70 40H56V38H71.625Z" fill="#419B81"/>
<path d="M29.125 39V38H44V40H31C30.4684 41.897 29.3996 43.47 27 43.89V54.11C29.4009 54.53 30.4684 56.103 31 58H44V60H29.125V59C29.125 57.613 28.4658 56 26.3281 56H25.0625V42H26.3281C28.4658 42 29.125 40.387 29.125 39Z" fill="#419B81"/>
<path d="M50 37C43.373 37 38 42.373 38 49C38 55.627 43.373 61 50 61C56.627 61 62 55.627 62 49C62 42.373 56.627 37 50 37Z" fill="white"/>
<path d="M41.4004 48.9984C41.4004 44.2491 45.2511 40.3984 50.0004 40.3984C54.7497 40.3984 58.6004 44.2491 58.6004 48.9984C58.6004 53.7478 54.7497 57.5984 50.0004 57.5984C45.2511 57.5984 41.4004 53.7478 41.4004 48.9984Z" fill="#FFE1BF" stroke="#E1671E" stroke-width="2"/>
<path d="M49.1722 52.8161L54.8197 47.0715C55.0601 46.8261 55.0601 46.4294 54.8197 46.184C54.5794 45.9387 54.1908 45.9387 53.9505 46.184L48.7376 51.485L46.0495 48.7616C45.8092 48.5162 45.4206 48.5162 45.1803 48.7616C44.9399 49.007 44.9399 49.4036 45.1803 49.649L48.303 52.8161C48.418 52.9341 48.5747 53 48.7376 53C48.9005 53 49.0567 52.9341 49.1722 52.8161Z" fill="#FFBC70" stroke="#E1671E" stroke-width="1.7"/>
</svg>
