<svg width="88" height="88" viewBox="0 0 88 88" fill="none" xmlns="http://www.w3.org/2000/svg">
<path fill-rule="evenodd" clip-rule="evenodd" d="M45.5 29H43.5V43.5L35.5 49L36.7917 51L45.5 45V29Z" fill="#419B81"/>
<path fill-rule="evenodd" clip-rule="evenodd" d="M67 45H64V43H67V45Z" fill="#419B81"/>
<path fill-rule="evenodd" clip-rule="evenodd" d="M25 45H22V43H25V45Z" fill="#419B81"/>
<path fill-rule="evenodd" clip-rule="evenodd" d="M45.5 64V67H43.5V64H45.5Z" fill="#419B81"/>
<path fill-rule="evenodd" clip-rule="evenodd" d="M45.5 21V24H43.5V21H45.5Z" fill="#419B81"/>
<path fill-rule="evenodd" clip-rule="evenodd" d="M71 44C71 58.9117 58.9117 71 44 71C29.0883 71 17 58.9117 17 44C17 29.0883 29.0883 17 44 17C58.9117 17 71 29.0883 71 44ZM44 69C57.8071 69 69 57.8071 69 44C69 30.1929 57.8071 19 44 19C30.1929 19 19 30.1929 19 44C19 57.8071 30.1929 69 44 69Z" fill="#419B81"/>
<path d="M61 51C54.373 51 49 56.373 49 63C49 69.627 54.373 75 61 75C67.627 75 73 69.627 73 63C73 56.373 67.627 51 61 51Z" fill="white"/>
<path d="M52.4004 62.9984C52.4004 58.2491 56.2511 54.3984 61.0004 54.3984C65.7497 54.3984 69.6004 58.2491 69.6004 62.9984C69.6004 67.7478 65.7497 71.5984 61.0004 71.5984C56.2511 71.5984 52.4004 67.7478 52.4004 62.9984Z" fill="#FFE1BF" stroke="#E1671E" stroke-width="2"/>
<path d="M60.1722 66.8161L65.8197 61.0715C66.0601 60.8261 66.0601 60.4294 65.8197 60.184C65.5794 59.9387 65.1908 59.9387 64.9505 60.184L59.7376 65.485L57.0495 62.7616C56.8092 62.5162 56.4206 62.5162 56.1803 62.7616C55.9399 63.007 55.9399 63.4036 56.1803 63.649L59.303 66.8161C59.418 66.9341 59.5747 67 59.7376 67C59.9005 67 60.0567 66.9341 60.1722 66.8161Z" fill="#FFBC70" stroke="#E1671E" stroke-width="1.7"/>
</svg>
