<svg xmlns="http://www.w3.org/2000/svg" fill="none" viewBox="0 0 24 24"><path fill="#25836B" d="M12 1.6a.8.8 0 0 0-.8.8v.137c0 .383-.27.724-.647.785a8.7 8.7 0 0 0-.544.105.787.787 0 0 1-.892-.477l-.053-.125a.8.8 0 1 0-1.478.612l.053.129a.785.785 0 0 1-.295.97c-.157.098-.31.2-.46.306a.788.788 0 0 1-1.009-.098l-.097-.097a.8.8 0 1 0-1.131 1.131l.097.097c.27.27.32.698.098 1.01-.106.149-.208.302-.306.459a.788.788 0 0 1-.972.297l-.127-.054a.8.8 0 0 0-.614 1.478l.125.052a.788.788 0 0 1 .479.892c-.041.18-.077.36-.107.544a.786.786 0 0 1-.783.647H2.4a.8.8 0 0 0 0 1.6h.137c.383 0 .724.27.785.647a8.7 8.7 0 0 0 .105.544.787.787 0 0 1-.477.892l-.125.053a.8.8 0 1 0 .612 1.478l.129-.053a.789.789 0 0 1 .971.295c.098.157.2.31.307.461.221.31.17.74-.099 1.01l-.098.096a.8.8 0 1 0 1.131 1.132l.099-.097a.786.786 0 0 1 1.007-.1c.15.107.304.21.461.308a.79.79 0 0 1 .297.971l-.053.127a.8.8 0 0 0 1.478.614l.052-.125a.788.788 0 0 1 .892-.478c.18.04.36.077.544.106.375.059.645.4.645.781v.138a.8.8 0 0 0 1.6 0v-.138c0-.382.27-.723.647-.784a8.7 8.7 0 0 0 .544-.105.787.787 0 0 1 .892.477l.053.125a.8.8 0 1 0 1.478-.613l-.053-.128a.789.789 0 0 1 .295-.972c.157-.097.31-.199.461-.306a.788.788 0 0 1 1.01.099l.096.098a.8.8 0 1 0 1.132-1.131l-.097-.099a.786.786 0 0 1-.1-1.007c.107-.15.21-.305.308-.461a.79.79 0 0 1 .971-.297l.127.053a.8.8 0 0 0 .614-1.478l-.125-.052a.788.788 0 0 1-.478-.892c.04-.18.077-.36.106-.544.059-.375.4-.645.781-.645h.138a.8.8 0 0 0 0-1.6h-.138a.788.788 0 0 1-.784-.647 8.7 8.7 0 0 0-.105-.544.787.787 0 0 1 .477-.892l.125-.053a.8.8 0 1 0-.613-1.478l-.128.053a.789.789 0 0 1-.972-.295c-.097-.157-.199-.31-.306-.461a.788.788 0 0 1 .099-1.01l.098-.096a.8.8 0 1 0-1.131-1.132l-.097.099a.788.788 0 0 1-1.01.1 8.877 8.877 0 0 0-.46-.308.789.789 0 0 1-.296-.972l.053-.127a.8.8 0 0 0-1.478-.614l-.053.125a.788.788 0 0 1-.892.479c-.18-.041-.36-.077-.544-.107a.786.786 0 0 1-.645-.783V2.4a.8.8 0 0 0-.8-.8zm0 4a6.398 6.398 0 0 1 6.345 5.6h-4.962A1.6 1.6 0 0 0 12 10.4h-.002l-2.48-4.3A6.377 6.377 0 0 1 12 5.6zM8.136 6.906l2.48 4.294a1.6 1.6 0 0 0-.216.8c0 .28.075.555.216.797l-2.482 4.295a6.384 6.384 0 0 1 .002-10.186zm5.248 5.894h4.961a6.398 6.398 0 0 1-8.828 5.1l2.481-4.3H12a1.6 1.6 0 0 0 1.384-.8z"/></svg>