<svg xmlns="http://www.w3.org/2000/svg" fill="none" viewBox="0 0 24 24"><path fill="#25836B" d="M22.242 11.414l-.727-.436a1.389 1.389 0 0 1-.614-.84l-.005-.02a1.387 1.387 0 0 1 .108-1.044l.412-.742a1.15 1.15 0 0 0-.985-1.706l-.856-.014a1.39 1.39 0 0 1-.963-.432 1.383 1.383 0 0 1-.423-.954l-.014-.856a1.15 1.15 0 0 0-1.707-.986l-.742.412a1.386 1.386 0 0 1-1.064.103 1.392 1.392 0 0 1-.84-.614l-.436-.727a1.149 1.149 0 0 0-1.97 0l-.435.724a1.404 1.404 0 0 1-.846.618l-.011.004a1.396 1.396 0 0 1-1.053-.11l-.74-.41a1.148 1.148 0 0 0-1.706.984l-.014.856a1.39 1.39 0 0 1-.423.955l-.008.008a1.383 1.383 0 0 1-.955.423l-.856.014a1.15 1.15 0 0 0-.985 1.708l.412.741a1.387 1.387 0 0 1 .103 1.064 1.392 1.392 0 0 1-.614.84l-.727.436a1.149 1.149 0 0 0 0 1.97l.727.437a1.389 1.389 0 0 1 .62.86c.096.352.067.725-.11 1.044l-.411.744a1.15 1.15 0 0 0 .985 1.706l.856.014a1.39 1.39 0 0 1 .963.432c.256.256.417.592.423.954l.014.855a1.15 1.15 0 0 0 1.707.986l.741-.412a1.386 1.386 0 0 1 1.045-.109l.02.006c.347.095.654.304.84.613l.435.727a1.149 1.149 0 0 0 1.97 0l.437-.727a1.389 1.389 0 0 1 .859-.619 1.387 1.387 0 0 1 1.045.109l.741.412a1.15 1.15 0 0 0 1.707-.986l.014-.855a1.39 1.39 0 0 1 .423-.954l.008-.008c.256-.257.592-.418.955-.424l.856-.014a1.15 1.15 0 0 0 .985-1.706l-.412-.742a1.387 1.387 0 0 1-.103-1.064c.095-.348.304-.654.614-.84l.727-.437a1.149 1.149 0 0 0 .003-1.971zm-5.277-.849l-5.248 5.248a.8.8 0 0 1-1.131 0l-2.762-2.762a.8.8 0 1 1 1.13-1.131l2.198 2.196 4.682-4.682a.8.8 0 1 1 1.131 1.131z"/></svg>