<svg width="24" height="24" viewBox="0 0 24 24" fill="none" xmlns="http://www.w3.org/2000/svg">
<path d="M10.4004 2.40039C5.99159 2.40039 2.40039 5.99159 2.40039 10.4004C2.40039 14.8092 5.99159 18.4004 10.4004 18.4004C12.3176 18.4004 14.0783 17.7196 15.4582 16.5895L20.2348 21.366C20.3085 21.4428 20.3968 21.5041 20.4945 21.5463C20.5922 21.5886 20.6973 21.6109 20.8038 21.6119C20.9102 21.613 21.0158 21.5929 21.1143 21.5526C21.2129 21.5124 21.3024 21.4529 21.3776 21.3776C21.4529 21.3024 21.5124 21.2129 21.5526 21.1143C21.5929 21.0158 21.613 20.9102 21.6119 20.8038C21.6109 20.6973 21.5886 20.5922 21.5463 20.4945C21.5041 20.3968 21.4428 20.3085 21.366 20.2348L16.5895 15.4582C17.7196 14.0783 18.4004 12.3176 18.4004 10.4004C18.4004 5.99159 14.8092 2.40039 10.4004 2.40039ZM10.4004 4.00039C13.9445 4.00039 16.8004 6.85629 16.8004 10.4004C16.8004 13.9445 13.9445 16.8004 10.4004 16.8004C6.85629 16.8004 4.00039 13.9445 4.00039 10.4004C4.00039 6.85629 6.85629 4.00039 10.4004 4.00039Z" fill="#25836B"/>
</svg>
