<svg xmlns="http://www.w3.org/2000/svg" fill="none" viewBox="0 0 24 24"><path fill="#FF8300" d="M18.204 8.77l.097-.028.083-.055.29-.028.29-.042.291-.042.29-.041.291-.028.29-.042.29-.041.305-.042.29-.042.29-.028.291-.041.29-.042.29-.041.291-.042.29-.042.291-.041.138-.014.028-.013.042-.07.028-.013h.028l.194-.028.235-.013.263-.04-.097.25-.013.068v.014l.055.083.013.027-.027.138-.055.167v.069l.042.056.055.041v.014l.013.028h-.013v.013h-.097l-.152-.028h-.014l-.013.014-.194.18-.069.069-.013.013-.194.581-.028.042-.027.028-.014.013-.041.056-.028.013-.028.014H22.962l-.028-.014-.013-.013v-.014l-.014-.014v-.013l-.013-.014V9.74l-.014-.014-.014-.014h-.013l-.014-.013h-.084l-.041-.014h-.042l-.028.014-.069.083-.013.014h-.07l-.013.013-.069.042-.096.041-.028.014-.042.028-.042.042-.083.124-.028.042-.028.097v.013l-.041.084-.028.027-.014.014-.014.014-.124.11-.028.014h-.069l-.014-.014-.013-.014-.014-.013-.014-.014-.013-.041-.014-.014v-.056l.014-.042v-.027l-.055-.069-.014-.013h-.028l-.028.014-.125.083-.055.041-.18.139h-.014v.027l.014.042-.014.027v.014l-.028.042-.013.028v.028l-.014.028-.014.01h-.042l-.027-.027-.042-.014-.041-.013h-.055l-.042.013-.014.014-.013.014-.015.013v.028l-.013.014v.041l.013.014v.014l.042.055v.041l-.027.042-.014.028v.056l-.013.028-.056.11-.055.097-.028.027h-.221l-.014.014-.138.097-.097.041-.028.014-.014.014-.055.068-.027.027-.069.042-.014.014-.028.013v.014l-.055.069-.041.083-.028.014h-.055l-.041.013-.014.014-.042.041-.028.042-.028.042-.152.083-.013.013-.028.027-.014.042-.055.069-.027.014-.014.013-.18.055h-.055l-.014-.013-.013-.014h-.056l-.055.028h-.028l-.028.014h-.013l-.014-.014-.028.014h-.013l-.028.013h-.014v.014h-.124l-.055.028-.055.028-.056.042-.041.041-.028.028-.028.014-.087.03-.041.028-.028.014-.014.013-.041.097v.028l-.028.027-.014.014-.11.055-.028.014-.014.028-.055.069-.014.027V13l.014.055v.068l-.042.083-.013.014V13.428l-.028.027-.042.07-.028.027-.014.014h-.013l-.069.013-.152.028-.042.014-.028-.014h-.013l-.014-.013-.028-.014h-.041l-.042.014-.014.013-.027.028-.041.056-.028.041-.013.028V14.065l.013.194v.165l.014.167-.263.027-.263.014-.207.014h-.123l-.36.055-.36.041-.36.042-.36.042-.36.041-.36.042-.36.041-.36.028-.458.055-.456.042-.443.041-.457.042-.456.041-.457.042-.443.028-.456.041-.457.042-.457.042-.442.028-.457.041-.453.03-.456.041-.457.028-.442.042h-.139l.042.097h-.028l-.11.013-.374.028-.374.028-.373.028-.374.028-.373.028-.374.026-.374.028-.373.028-.373.027-.374.014-.373.028-.374.027-.373.028-.374.014-.387.028-.374.028L0 16.088l.042-.028.055-.028.055-.028.11-.069.042-.041.027-.056.014-.068v-.07l.028-.054.069-.014.068.028h.07l.054-.097-.013-.138-.042-.152-.055-.166-.028-.07-.014-.166.014-.083.028-.055.152-.139.042-.055.027-.069.013-.055-.013-.083.013-.069.028-.028.07-.028.068-.013.069-.028.027-.042-.038-.084-.055-.069-.013-.041.013-.028.055-.042.042-.069v-.041l-.083-.097-.055-.083v-.056l.041-.055.415-.221.18-.167-.042-.054-.069-.055-.083-.028.028-.07.042-.04.041-.042h.069l.083.055.042.014.028-.07-.055-.11-.084-.069-.055-.083v-.028l.028-.124.069-.153.014-.055.013-.041.042-.042.055-.027.042-.014.027-.069-.083-.138-.18-.221.055-.014.262-.028.029-.014.028-.028.014-.028-.028-.028-.07-.013-.069-.056-.041-.068-.014-.07.055-.027h.069l.069-.014.055-.041.028-.084-.028-.068-.068-.153v-.055l.014-.056-.028-.055v-.013l.18-.014-.014.027-.014.07v.054l.084.014.028-.014.054-.055.055-.083v-.028l.498-.028.484-.042.484-.028.484-.041.497-.028.484-.042.486-.04.484-.042V10.166l-.014-.054-.055-.18-.055-.166-.014-.028V9.71H6.543l.028.013.014.014.028.042.013.028.014.015.014-.014.11-.013h.042l.11-.014.166-.014.207-.013.263-.027.277-.028.304-.042.318-.028.319-.029.304-.041.276-.028.25-.028.222-.028.165-.013.11-.014h.028l.125-.013.096-.028.028-.014h.125l.083-.014.25-.013.373-.028.484-.028.567-.042.636-.041.692-.056.706-.055.705-.055.678-.055.65-.055.567-.056.484-.041.374-.027.235-.028.097-.014.124-.015z"/></svg>