<svg xmlns="http://www.w3.org/2000/svg" fill="none" viewBox="0 0 24 24"><path fill="#25836B" fill-rule="evenodd" d="M12 21.6a9.6 9.6 0 1 0 0-19.2 9.6 9.6 0 0 0 0 19.2zM8.763 7.522c.14 0 .282 0 .406.006.17.004.357.017.536.411.124.275.334.793.499 1.2.116.285.209.515.233.564.06.12.102.26.02.416l-.027.054c-.063.129-.107.22-.208.344-.04.046-.08.095-.12.144-.083.1-.166.199-.238.269-.12.119-.242.25-.105.487.138.238.616 1.017 1.322 1.646.76.678 1.42.963 1.755 1.108.065.029.119.052.158.071.238.12.376.1.514-.06.141-.155.594-.69.754-.929.156-.238.316-.197.532-.119.219.079 1.388.655 1.626.774l.13.064c.166.08.277.133.325.21.061.1.062.577-.136 1.132-.198.554-1.168 1.09-1.603 1.128l-.126.014c-.406.048-.914.108-2.729-.606-2.24-.882-3.713-3.07-4.014-3.518a2.518 2.518 0 0 0-.05-.073c-.12-.156-.969-1.288-.969-2.456 0-1.09.532-1.663.78-1.93l.05-.054a.874.874 0 0 1 .685-.297z" clip-rule="evenodd"/></svg>