<svg xmlns="http://www.w3.org/2000/svg" fill="none" viewBox="0 0 24 24"><path fill="#25836B" d="M11.988.789a.8.8 0 0 0-.788.811v.84c-4.655.388-8.374 4.106-8.76 8.76H1.6a.8.8 0 1 0 0 1.6h.84c.388 4.654 4.106 8.372 8.76 8.76v.84a.8.8 0 1 0 1.6 0v-.84c4.654-.388 8.372-4.106 8.76-8.76h.84a.8.8 0 1 0 0-1.6h-.839c-.387-4.654-4.106-8.372-8.76-8.76V1.6a.8.8 0 0 0-.813-.811zm-.788 3.25V4.8a.8.8 0 1 0 1.6 0v-.761a7.987 7.987 0 0 1 7.16 7.161h-.76a.8.8 0 1 0 0 1.6h.761a7.989 7.989 0 0 1-7.16 7.16v-.76a.8.8 0 1 0-1.6 0v.76a7.99 7.99 0 0 1-7.162-7.16H4.8a.8.8 0 1 0 0-1.6h-.76a7.987 7.987 0 0 1 7.16-7.161zM12 8.8a3.2 3.2 0 1 0 0 6.4 3.2 3.2 0 0 0 0-6.4z"/></svg>