<svg width="24" height="24" viewBox="0 0 24 24" fill="none" xmlns="http://www.w3.org/2000/svg">
<g clip-path="url(#clip0)">
<rect x="1" y="15" width="22" height="5" fill="white"/>
<rect x="1" y="3" width="22" height="12" fill="#FFDE2E"/>
<path d="M17.2741 8.34905V7H18.7259V8.35603C19.9969 8.5796 20.8364 9.3814 20.8611 10.4835H19.1782C19.1382 9.98568 18.6573 9.63811 18.017 9.63811C17.3768 9.63811 16.9551 9.93684 16.9551 10.4054C16.9551 10.7911 17.2727 11.0144 18.0269 11.1616L18.9499 11.3373C20.364 11.6059 21 12.2368 21 13.3546C21.0007 14.6182 20.153 15.4465 18.7259 15.6565V17H17.2741V15.6621C15.8804 15.4671 15.0261 14.6851 15 13.5151H16.7382C16.7832 14.0279 17.3025 14.3563 18.0567 14.3563C18.7369 14.3563 19.2037 14.0338 19.2037 13.5695C19.2037 13.1788 18.8911 12.9685 18.0723 12.8078L17.1295 12.6222C15.8192 12.3779 15.1446 11.6744 15.1446 10.5658C15.1446 9.39228 15.9639 8.56834 17.2741 8.34905Z" fill="#1F1D1C"/>
<path fill-rule="evenodd" clip-rule="evenodd" d="M12 17.5C12 17.7761 11.7761 18 11.5 18H2.5C2.22386 18 2 17.7761 2 17.5C2 17.2239 2.22386 17 2.5 17H11.5C11.7761 17 12 17.2239 12 17.5Z" fill="#1F1D1C"/>
<path d="M0.617773 3.80275C0.617773 3.24944 1.08053 2.77628 1.68206 2.77628L22.2535 2.77628C22.855 2.77628 23.3178 3.24944 23.3178 3.80275V19.4498C23.3178 20.0031 22.855 20.4763 22.2535 20.4763H1.68206C1.08053 20.4763 0.617773 20.0031 0.617773 19.4498L0.617773 3.80275Z" stroke="#A6A4A3" stroke-width="1.3"/>
<rect x="3" y="8" width="2" height="2" fill="#1F1D1C"/>
<rect x="7" y="8" width="2" height="2" fill="#1F1D1C"/>
<rect x="11" y="8" width="2" height="2" fill="#1F1D1C"/>
</g>
<defs>
<clipPath id="clip0">
<rect width="24" height="24" fill="white"/>
</clipPath>
</defs>
</svg>
