<svg width="24" height="24" viewBox="0 0 24 24" fill="none" xmlns="http://www.w3.org/2000/svg">
<path d="M4.99996 18.54H18C18.4084 18.54 18.8001 18.3777 19.0889 18.0889C19.3777 17.8001 19.54 17.4084 19.54 17V10.46H3.45996V17C3.45996 17.4084 3.62221 17.8001 3.91102 18.0889C4.19982 18.3777 4.59153 18.54 4.99996 18.54ZM4.49996 13C4.57346 12.9342 4.6592 12.8836 4.75228 12.8511C4.84536 12.8185 4.94395 12.8046 5.0424 12.8102C5.14086 12.8157 5.23725 12.8407 5.32606 12.8835C5.41487 12.9264 5.49435 12.9864 5.55996 13.06L7.07996 14.8L9.38996 11.56C9.50666 11.3982 9.68284 11.2894 9.87975 11.2575C10.0767 11.2257 10.2782 11.2733 10.44 11.39C10.6017 11.5067 10.7105 11.6829 10.7424 11.8798C10.7743 12.0767 10.7267 12.2782 10.61 12.44L7.74996 16.44C7.68422 16.531 7.59888 16.6062 7.50022 16.6598C7.40156 16.7135 7.29212 16.7443 7.17996 16.75C7.07447 16.7489 6.97033 16.7262 6.874 16.6832C6.77767 16.6402 6.6912 16.5778 6.61996 16.5L4.43996 14.1C4.36926 14.025 4.31454 13.9365 4.27912 13.8397C4.24371 13.743 4.22834 13.64 4.23395 13.5371C4.23956 13.4342 4.26604 13.3336 4.31177 13.2412C4.3575 13.1489 4.42153 13.0668 4.49996 13Z" fill="#68FF58"/>
<path d="M2 17C2 17.7956 2.31607 18.5587 2.87868 19.1213C3.44129 19.6839 4.20435 20 5 20H18C18.7956 20 19.5587 19.6839 20.1213 19.1213C20.6839 18.5587 21 17.7956 21 17V9H2V17ZM3.46 10.46H19.54V17C19.54 17.4084 19.3778 17.8001 19.0889 18.0889C18.8001 18.3778 18.4084 18.54 18 18.54H5C4.59157 18.54 4.19986 18.3778 3.91106 18.0889C3.62225 17.8001 3.46 17.4084 3.46 17V10.46Z" fill="#008300"/>
<path d="M6.58005 16.5002C6.65128 16.578 6.73775 16.6403 6.83408 16.6833C6.93042 16.7263 7.03456 16.7491 7.14005 16.7502C7.2522 16.7445 7.36165 16.7137 7.4603 16.66C7.55896 16.6064 7.64431 16.5312 7.71005 16.4402L10.57 12.4402C10.6867 12.2784 10.7344 12.0769 10.7025 11.88C10.6706 11.6831 10.5618 11.5069 10.4 11.3902C10.2383 11.2735 10.0368 11.2258 9.83984 11.2577C9.64292 11.2896 9.46674 11.3984 9.35005 11.5602L7.08005 14.8002L5.56005 13.1002C5.49724 13.0237 5.41991 12.9604 5.33252 12.9139C5.24513 12.8675 5.14941 12.8388 5.05087 12.8295C4.95233 12.8202 4.85293 12.8305 4.75839 12.8598C4.66386 12.8891 4.57605 12.9368 4.50005 13.0002C4.42161 13.067 4.35758 13.1491 4.31185 13.2414C4.26613 13.3337 4.23965 13.4344 4.23404 13.5373C4.22843 13.6402 4.24379 13.7431 4.27921 13.8399C4.31462 13.9367 4.36934 14.0252 4.44005 14.1002L6.58005 16.5002Z" fill="#008300"/>
<path d="M19 5H4C3.46957 5 2.96086 5.21071 2.58579 5.58579C2.21071 5.96086 2 6.46957 2 7H21C21 6.46957 20.7893 5.96086 20.4142 5.58579C20.0391 5.21071 19.5304 5 19 5V5Z" fill="#008300"/>
<rect x="2" y="7" width="19" height="2" fill="white"/>
</svg>
