<svg width="64" height="64" viewBox="0 0 64 64" fill="none" xmlns="http://www.w3.org/2000/svg">
<path d="M43 58H28V56H43C44.654 56 46 54.652 46 52.996C46 51.344 44.654 50 43 50H38C35.794 50 34 48.204 34 45.996C34 43.793 35.794 42 38 42H50C52.206 42 54 40.204 54 37.996C54 35.793 52.206 34 50 34H40C37.794 34 36 32.204 36 29.996C36 27.793 37.794 26 40 26H50V28H40C38.897 28 38 28.896 38 29.998C38 31.102 38.897 32 40 32H50C53.309 32 56 34.69 56 37.998C56 41.308 53.309 44 50 44H38C36.897 44 36 44.896 36 45.998C36 47.102 36.897 48 38 48H43C45.757 48 48 50.242 48 52.998C48 55.756 45.757 58 43 58Z" fill="#1281D3"/>
<path fill-rule="evenodd" clip-rule="evenodd" d="M26.3115 22C26.3115 21.4477 26.7592 21 27.3115 21H30.8115C31.3638 21 31.8115 21.4477 31.8115 22C31.8115 22.3011 31.8358 22.9187 31.8697 23.7821C31.8894 24.2849 31.9125 24.8712 31.9359 25.5268C31.9986 27.2819 32.0615 29.4828 32.0615 31.75C32.0615 34.0139 31.9988 36.3614 31.8072 38.4058C31.6196 40.4066 31.2978 42.2635 30.706 43.4472C30.459 43.9412 29.8583 44.1414 29.3643 43.8944C28.8703 43.6474 28.6701 43.0468 28.9171 42.5528C29.3252 41.7365 29.6285 40.2184 29.8159 38.2192C29.9992 36.2636 30.0615 33.9861 30.0615 31.75C30.0615 29.5172 29.9995 27.3431 29.9372 25.5982C29.9156 24.9951 29.8937 24.4367 29.8744 23.9432C29.8607 23.5939 29.8483 23.2771 29.8382 23H27.3115C26.7592 23 26.3115 22.5523 26.3115 22Z" fill="#5E5C5B"/>
<path fill-rule="evenodd" clip-rule="evenodd" d="M20.8115 7H21.8115C23.4684 7 24.8115 8.34315 24.8115 10V12C24.8115 13.6569 23.4684 15 21.8115 15H20.8115C19.1547 15 17.8115 13.6569 17.8115 12V10C17.8115 8.34315 19.1547 7 20.8115 7ZM20.8115 9C20.2592 9 19.8115 9.44772 19.8115 10V12C19.8115 12.5523 20.2592 13 20.8115 13H21.8115C22.3638 13 22.8115 12.5523 22.8115 12V10C22.8115 9.44772 22.3638 9 21.8115 9H20.8115Z" fill="#5E5C5B"/>
<path fill-rule="evenodd" clip-rule="evenodd" d="M16.5087 17H26.1142L26.3661 17.1679C26.7472 17.422 27.0152 17.7979 27.2101 18.1638C27.411 18.5408 27.5757 18.986 27.7141 19.4683C27.991 20.4332 28.1939 21.6584 28.3374 23.0371C28.6251 25.8019 28.6869 29.3203 28.5609 32.9101C28.4349 36.5029 28.1196 40.1986 27.6439 43.3224C27.4061 44.8839 27.1262 46.3159 26.8056 47.5273C26.4894 48.7221 26.117 49.7678 25.669 50.5145L25.3777 51H17.2452L16.9539 50.5145C16.5059 49.7678 16.1335 48.7221 15.8173 47.5273C15.4967 46.3159 15.2168 44.8839 14.979 43.3224C14.5033 40.1986 14.1881 36.5029 14.062 32.9101C13.936 29.3203 13.9978 25.8019 14.2855 23.0371C14.429 21.6584 14.6319 20.4332 14.9088 19.4683C15.0472 18.986 15.2119 18.5408 15.4128 18.1638C15.6078 17.7979 15.8757 17.422 16.2568 17.1679L16.5087 17ZM17.2374 19C17.2191 19.0297 17.1992 19.0643 17.1779 19.1043C17.0653 19.3156 16.9467 19.6175 16.8312 20.02C16.6003 20.8247 16.4126 21.9197 16.2748 23.2441C15.9999 25.8856 15.9367 29.3047 16.0608 32.8399C16.1847 36.3721 16.4945 39.9889 16.9562 43.0213C17.1872 44.5379 17.4542 45.8951 17.7508 47.0156C17.9695 47.842 18.1957 48.5058 18.4188 49H24.2041C24.4272 48.5058 24.6534 47.842 24.8721 47.0156C25.1687 45.8951 25.4357 44.5379 25.6667 43.0213C26.1285 39.9889 26.4382 36.3721 26.5621 32.8399C26.6862 29.3047 26.623 25.8856 26.3481 23.2441C26.2103 21.9197 26.0226 20.8247 25.7917 20.02C25.6762 19.6175 25.5577 19.3156 25.445 19.1043C25.4237 19.0643 25.4038 19.0297 25.3855 19H17.2374Z" fill="#026AB9"/>
<path fill-rule="evenodd" clip-rule="evenodd" d="M17.2374 19C17.2191 19.0297 17.1992 19.0643 17.1779 19.1043C17.0652 19.3156 16.9467 19.6175 16.8312 20.02C16.6003 20.8247 16.4126 21.9197 16.2748 23.2441C15.9999 25.8856 15.9367 29.3047 16.0608 32.8399C16.1847 36.3721 16.4945 39.9889 16.9562 43.0213C17.1872 44.5379 17.4542 45.8951 17.7508 47.0156C17.9695 47.842 18.1957 48.5058 18.4188 49H24.2041C24.4272 48.5058 24.6534 47.842 24.8721 47.0156C25.1687 45.8951 25.4357 44.5379 25.6667 43.0213C26.1285 39.9889 26.4382 36.3721 26.5621 32.8399C26.6862 29.3047 26.623 25.8856 26.3481 23.2441C26.2103 21.9197 26.0226 20.8247 25.7917 20.02C25.6762 19.6175 25.5576 19.3156 25.445 19.1043C25.4237 19.0643 25.4038 19.0297 25.3855 19H17.2374Z" fill="#DCF5FF"/>
<path fill-rule="evenodd" clip-rule="evenodd" d="M17.8115 13H24.8115C26.4684 13 27.8115 14.3431 27.8115 16C27.8115 17.6569 26.4684 19 24.8115 19H17.8115C16.1547 19 14.8115 17.6569 14.8115 16C14.8115 14.3431 16.1547 13 17.8115 13ZM17.8115 15C17.2592 15 16.8115 15.4477 16.8115 16C16.8115 16.5523 17.2592 17 17.8115 17H24.8115C25.3638 17 25.8115 16.5523 25.8115 16C25.8115 15.4477 25.3638 15 24.8115 15H17.8115Z" fill="#5E5C5B"/>
<path fill-rule="evenodd" clip-rule="evenodd" d="M17.8115 51C17.9689 51.6779 18.1758 52.3557 18.401 53C18.8914 54.4029 19.0011 54.6466 19.3438 55.3846C20.2702 57.3801 22.42 57.3406 23.3281 55.3846C23.6708 54.6466 23.7316 54.4029 24.222 53C24.4473 52.3557 24.6542 51.6779 24.8115 51H17.8115ZM20.5305 53C20.7942 53.6894 21.0709 54.3267 21.3115 54.8589C21.5521 54.3267 21.8289 53.6894 22.0925 53H20.5305Z" fill="#5E5C5B"/>
</svg>
