<svg xmlns="http://www.w3.org/2000/svg" fill="none" viewBox="0 0 24 24"><path fill="#757372" fill-rule="evenodd" d="M7.2 3.8v.8H5.6c-.88 0-1.6.72-1.6 1.6V19c0 .88.72 1.6 1.6 1.6h13.6c.88 0 1.6-.72 1.6-1.6V6.2c0-.88-.72-1.6-1.6-1.6h-1.6v-.8c0-.48-.32-.8-.8-.8H16c-.48 0-.8.32-.8.8v.8H9.6v-.8c0-.48-.32-.8-.8-.8H8c-.48 0-.8.32-.8.8zm11.2 4.8h-12c-.48 0-.8-.32-.8-.8 0-.48.32-.8.8-.8h12c.48 0 .8.32.8.8 0 .48-.32.8-.8.8zm-12 3.198h12c.48 0 .8-.32.8-.8 0-.48-.32-.8-.8-.8h-12c-.48 0-.8.32-.8.8 0 .48.32.8.8.8zm12 3.203h-12c-.48 0-.8-.32-.8-.8 0-.48.32-.8.8-.8h12c.48 0 .8.32.8.8 0 .48-.32.8-.8.8zM6.4 18.2h12c.48 0 .8-.32.8-.8 0-.48-.32-.8-.8-.8h-12c-.48 0-.8.32-.8.8 0 .48.32.8.8.8z" clip-rule="evenodd"/></svg>