<svg xmlns="http://www.w3.org/2000/svg" fill="none" viewBox="0 0 24 24"><path fill="#431C75" d="M17.837 18.413h.017v.034l-.017.017h-.017l-.05.017-.034-.017-.017-.05-.017-.017h-.033l-.017.017h-.017l-.017-.017-.016-.017-.017-.017v-.034h-.017l-.05.017-.05.017-.034-.017-.068-.067-.016-.05.033-.017h.067l.05-.017.085.034.017.017.016.016h.034l.05.017.034.017.017.034v.016h-.05v.017l.05.034.033.017.017-.017h.017v-.017h.017v.034zm-6.473-.183l.034.034-.034.066-.134.084-.05.034-.017.084v.084l-.033.017h-.05l-.134.033-.234-.133-.034-.017-.033-.034-.385-.15-.067-.05v-.068l.084-.066.067-.034.067-.017.1-.033.017-.017.034-.05.016-.017h.05l.202.034.066.033.1.1.118.035v.016l.116.017h.084l.05.015zm7.945-3.11l.033.016.034.017-.034.067-.1.066-.116.05-.068-.05h.034l.034-.016.033-.017-.033-.05h-.05l-.068.033-.066.034-.117-.017h-.067l-.05.033-.034-.016-.067-.017-.033-.017-.017-.034v-.1l-.034-.084h-.067l-.117.05h-.084l-.133-.1-.084-.033-.05.017-.068.017-.034.017-.166-.034-.034-.034-.1-.15-.017-.05-.034-.017-.184-.134-.133-.05-.184-.034-.168-.017-.116.034-.084.05-.084.1-.117.218-.084.133-.267.252-.084.133v.201l.084.15.133.101.15.05.268.018.135.066.234.066.1-.017.134-.05.251-.034.084-.033.067-.034.25-.2.085-.117.067-.15.084.016.034.017.016.067.034.05.05.034.05.017.051.017h.034l.017-.017v-.034l.084-.117.016-.05.034-.05v-.067h.034l.033.05-.033.067-.05.1-.018.05.017.017h.017l.017.017v.017l.047-.1v-.017h.101l.05-.05.017-.017v-.05l-.034-.017-.016.017v.016h-.034l-.034-.016.017-.034.1-.034.05.017.068.067.05.017-.05.084-.05.05-.034.05v.102l-.117.05-.034.034v.033l.017.05v.034l-.033.034-.084-.066-.084-.034-.1.017-.084.033-.05.067-.018.067.017.067.034.084.033.084.05.034.068.017h.1l.05-.034.134-.067.034.017-.017.03-.05.084v.034l.083.1.084.067.084.017h.084l.084-.017.05-.05.051-.085.034-.1.017-.1-.017-.15.017-.051.05-.05.05-.018.067-.016.033-.034.034-.034.017-.016v-.034l.017-.034.016-.033-.016-.05.016-.034.017-.017.034.017.017.017h.033l.084.033.034.017v.034h-.021v.033h.017v.017h.033l.017-.017.084-.067.017-.017.05.017.034.034v.033l-.05.034-.05.017h-.102l-.05.034-.017.05v.034l.017.034.017.033-.034.034-.033.017-.017.017.067.016h.034l.116-.017h.05l.067.084-.05.068-.066.015-.033-.067-.084.067v.017l.05.067.034.017v.033h.016l.017-.033.05-.034.034-.017h.034l.017.05-.017.034-.067.05v.034l.05-.016.018-.017.033-.034.017.017.1.034-.066.05-.017.017.017.017h.016v.016l.017.017-.05.017-.034.017-.017.033-.016.034.033.05.017.05.034.034.05.034h-.036l-.1-.017h-.018l-.033.034-.034.084-.033.033.016-.033v-.084h-.05l-.017-.017-.05-.084-.034-.034-.033-.017-.05-.016h-.051l.017.084-.034.05-.05.05-.05.067-.034.084-.017.017-.05.017-.034.016-.084-.017-.034.017-.05.067v.084l.033.068.034.05h.084l.084-.017h.084l.036.046h-.05l-.017.017.05.017.134.1v.034h-.067l-.05-.034-.05-.033-.034-.034-.117-.017h-.117l-.1-.017-.184-.1-.116-.033.033.05.101.05.05.034v.017l-.033.017.067.034v.016l.017.034.1.084-.067.034-.317-.068-.134.034.1.017.034.033.033.034h-.05l.017.05.117.117.016.05.034.101.034.034.033.034.1.016.1.05.084-.016.05.034h-.016v.033l.067.017.1.05h.067v.034l-.033.05v.067l.016.033.05-.033v.067l-.033.034h-.05l-.017.016.034.034.033.017h.05l.218-.05.084-.017.084.033.017.017h.067l.017.017h.017l.033-.034h.134v.017l-.016.034h-.084l-.034.016-.016.034v.034l.016.016h.034l.05.034.05.017.018-.017.067-.017.067-.017.034-.017h.033l.05.017.017.017.017.084.017.034.05.016.067-.033.05-.067.034-.067.017-.017v.017l.016.017h.017v.034l.017.033v.05l.034-.016.016-.017.017.034.034.033.017.034.016.05.034-.033h.017l.033.033.017.05.017.034.034.017-.017.034-.017.033-.034.017-.05.017v.017l.167.033.017.05.05.034.068.017h.05l-.017-.017-.025-.058.068-.017.05.017.05.017.05.066h-.084v.034h.034l.016.017.034.033-.084-.017-.017.017-.017.034h-.033v-.084l-.05.017-.068.05-.05.066v.05h.033l.252-.016-.1.217-.05.05v-.05l-.034-.05-.033-.034h-.067l.033.05.017.034.017.05v.051l-.05-.033-.017-.017-.017-.034-.017.05-.034.068-.1.1v.084l.084.134-.05.033-.051-.017-.117-.133-.034-.05-.016-.051-.101-.15-.034-.034-.05-.034h-.017v.084l.017.034v.034l-.017.033-.05.017-.084.033-.084.017-.017.084-.017.05-.017.051-.15.284-.067.05-.084.034v-.133l.016-.034.017-.034.067-.05.017-.05.067-.101.017-.05v-.118l.017-.034.084-.017.034-.017.067-.15.017-.05.033-.1V19.5h-.066v.134l-.034.017-.033-.034V19.468l-.017-.05h-.034l-.017.033-.016.05.016.05.017.085.017.05-.05.067-.084.067-.084.017-.034-.034-.05-.117v-.033l.016-.05-.033-.018-.084-.016-.23-.37h.033l.066-.033-.066-.033h-.084l-.034.05.034.084-.217-.067h-.1l-.1-.017-.034-.067-.034-.067-.066-.05.05-.1v-.034l-.033-.034-.05.017-.102.1-.05.034-.518-.017.133-.067.05-.034.051-.034.017-.05v-.05l-.017-.05-.017-.051-.017.016-.016.017h-.017v.017l-.017-.031v-.034l.017-.033.017-.034-.017-.034-.05.017-.085.05-.016-.016-.017-.017-.017-.034-.017-.016v-.017h-.015v-.067l.017-.016.017-.017.016-.067v-.017l-.1-.017-.017-.017-.017.017v.067l-.034.084-.05-.017-.134-.1-.116.05-.117-.034-.419-.234-.084-.034h-.1l-.017.034.05.034-.033.033-.05-.067-.1-.117-.068-.05-.017.05-.05.067-.017.068h.101v.017l-.05.033-.034.017h-.034l.017.034.017.016h.017l.016-.033.05.033.168.134.034.017.033.017h.117l.084.016.1.05.084.085-.05.017-.034.033-.017.034.017.084.017.017.017.016.016.034V18.934v-.033l-.016-.034-.034-.017h-.034l.017.067.034.067.066.05.05.034.017.034-.084.033-.05-.067-.067-.017-.034.05.05.068-.116.017v.116l.066.117.117-.017-.017.067-.084.168-.017.033-.05.05-.05.051-.05.067-.068.017-.184.134-.117.067-.05-.017.017-.034.016-.033-.016-.067-.017-.05-.017-.034-.084-.067-.017-.033.017-.05.017-.051v-.052l.017-.05V19.366l-.017-.051-.017-.05h-.05v.033l-.017.067-.029.068-.017-.033-.033-.067-.15-.15v-.05l-.018-.017-.033.017-.034.016-.017.034v.067l-.016.05-.084.117-.017-.234-.017-.05L16.28 19l-.017-.017-.017-.017-.033-.033h-.034l-.017.067v.066l-.033.068-.067.1-.068-.067-.033.017-.034.034-.033.016-.13-.034-.051-.017.05-.017v-.033l-.033-.017-.034.017-.017.017-.017.05-.033-.017h-.017l-.017.034v.05h.017l.084.017v.066l-.034.067-.033.034.067.066-.05.05-.017-.016-.034-.05-.033-.034-.034.034-.017.05-.017.1.017.017-.017.167v.066l-.016-.05-.017-.034-.05-.016-.051.017v.033l.017.034-.017.05-.05.017v.033l-.017.017h-.034l-.017-.017-.066-.016h-.05l-.034.067h-.017l-.15-.034h-.034l.017-.05.067-.034.034-.017-.034-.084-.05.034-.067-.017-.068-.033-.067-.034.017.067v.05l-.084.034-.017.017v.017l-.017.033h-.03l-.184-.15-.1-.05-.1-.034-.1.05v-.083l.033-.017.033-.016-.033-.034-.067-.017h-.05l-.034.017v.067l-.033.034-.05.017-.067-.017-.034-.017-.084-.067-.05-.017-.402-.05-.217-.084-.167-.134-.05-.183.05.066.067.017.067-.034.05-.033.034-.084.034-.067.05-.05.084-.017-.017.067.05.084.1.05.1-.033v.201l-.033.066h.034l.033.034.017.034v.033l.084-.033.034-.017.033-.034-.017-.017-.016-.033-.034-.017v-.017l.067-.116-.05-.084-.218-.168-.117-.066-.05-.034v-.1l-.017-.034-.017-.017h-.05l-.017-.017-.067-.1-.034-.117.017-.117.05-.1.034-.034.034-.034.033-.034.017-.067-.017-.066-.033-.034-.05-.017h-.067l.05.101-.016.05-.117.1v.084l.017.034.016.017-.016.05-.05.084v.034l-.102-.05-.15-.05-.1-.018h-.085l-.05-.017-.017-.016.017-.05.017-.051.016-.034-.05-.033-.1.067-.134.05-.168.034-.084-.017.05-.05v-.084l-.016-.1-.034-.067-.016-.034v-.067l-.017-.033-.034-.017h-.033l-.084.05h-.134l-.017-.033.017-.067v-.1l.017-.201-.034-.05-.1-.034h-.084l-.351.034-.05.033-.134.084-.1.017-.034-.034v-.066l-.016-.034-.034-.033.017-.084.033-.084.034-.034.034.034.034.035.034.017v-.134l-.034-.034-.05-.033-.168-.017h-.05l-.1.084h-.034l-.05-.034-.034-.016-.067.016-.017.017.017.034-.017.05-.033.034-.318.133-.05.034-.084.084-.05.034H9.74l.05-.034v-.051l-.033-.034-.05-.017H9.69l-.034.068-.017.017h-.017l-.084-.05.017.066.034.1.033.084.034.034.034-.017.05-.034.084-.016.034-.017h.033l.034.017-.1.067-.05.034.116.2.034.084h.017l.066-.05.084-.034h.084l.05.034-.116.034-.034.016-.034.05.084.018-.05.066h-.1l-.234-.017-.1.034-.268.15-.117.034-.1.017-.569-.084-.1-.05-.034.033-.033-.017-.134.034-.619-.118-.402-.15-.133-.084-.201-.15-.452-.134-.267-.101-.402-.1-.2-.017-.2.017-.218.033-.067.05-.084-.033-.167.017-.067-.017-.084.05H4.34h.017-.034.017l-.318.017-.167.034-.117.067-.05.05-.117.05-.067.05-.067.033-.084-.05-.1-.134-.034-.184-.017-.1.034-.034.234-.034.068-.016.15-.301v-.268l-.017-.067-.067-.033h-.017l.067-.134.217-.251-.033-.05v-.034l.05-.1.017-.084v-.084l-.017-.05-.016-.082v-.034l-.034-.05-.016-.05v-.05l.033-.084.017-.034-.017-.1-.05-.067-.067-.05-.034-.067-.017-.184.017-.085.05-.1.084-.1.034-.067v-.117l-.05-.117v-.101l-.017-.015-.034-.017v-.101l.034-.084.05-.05.067-.017.017-.05.034-.218.033-.067.134-.1.034-.067.016-.201.134-.251.017-.067v-.134l-.034-.084v-.05l.017-.05.034-.034.05-.05.017-.051.017-.017-.034-.05-.034-.03-.05-.084-.034-.1.05-.05h.034l.1-.034.017-.034.017-.033-.017-.034-.051-.049-.1-.15v-.05l.034-.05.016-.051v-.184l-.016-.068-.067-.016-.067.016h-.034l-.016-.016h-.017v-.017l-.017-.034-.017-.1v-.034l-.017-.034-.016-.016-.017-.034v-.034l-.017-.014v-.017l-.016-.017-.034-.05-.1-.084-.017-.016-.017-.017v-.101l.017-.05.017-.017.033-.05v-.034l-.05-.034-.067-.05-.033-.05-.017-.034v-.034l-.017-.067-.017-.033v-.034l-.016-.017H3.72l-.05-.016h-.017l-.016-.017-.017-.017v-.017l-.017-.033.017-.017v-.017l.033-.034h.017v-.017l.017-.016v-.034l-.017-.017-.017-.017h-.016l-.1-.03H3.52l-.017-.016-.034-.017-.1-.117-.033-.05-.017-.034-.017-.016-.017-.05v-.067l.017-.034.017-.033v-.184l.017-.034.017-.067V9.38l-.017-.016-.017-.016-.017-.017v-.034l-.017-.05-.033-.15-.017-.05-.084-.134-.033-.05-.017-.034-.016-.05-.034-.05-.05-.067-.068-.067-.033-.034-.117-.05-.016-.016-.017-.017-.017-.017-.084-.133-.016-.017-.05-.033-.017-.017-.05-.033-.017-.017-.017-.017v-.334l-.016-.502v-.502l-.017-.502v-.502l-.016-.501-.017-.502V4.35L2.4 3.846l.652-.017h.636l.635-.016.635-.034.652-.017.636-.017.635-.016.637-.033.652-.017.635-.034.636-.016.635-.034.652-.034.636-.016.636-.033.635-.034h.05v.134l.034.033.05.034.051.017h.067l.05.017.034.05.084.084-.033.066-.05.084-.052.067-.05.017-.034.05-.034.2-.033.185.017.05.05.034.184.033.067.05.017.067-.05.101-.068.017h-.1l-.084.033-.033.05v.1l.033.085.034.067.034.05.05.034.084.05.034.034v.1l-.017.051v.218l.017.066.033.067.134.068.117.033.084.084.033.167.034.017.05.034h.134l.084.033.033.068-.016.067h-.034l.017.033-.169.163-.1.284-.1.217-.2.017-.034.034-.017.033v.05l.017.034.116.117v.15l-.067.15-.133.1-.117.05-.034.017-.017.05-.033.085-.017.033-.167.201-.067.067-.067.034-.15.034-.05.05-.068.066-.017.084-.05.15-.1.218v.068l-.018.084-.05.384.018.099-.016.05-.017.017-.235.2-.084.134.034.184.017.034.033.05.05.085V10.504l-.033.034-.033.284-.017.068-.05.05-.085.017h-.166l-.084.016-.05.034v.066l.033.085.067.067.05.033.018.017v.05l-.017.05-.017.018v.047l-.034.067v.05l.05.117.118.117.016.117-.267.251h.017l.167-.017H11.8l.334-.016.419-.017.485-.034.552-.034.602-.016.602-.034.619-.05.585-.034.57-.034.484-.016.418-.034.335-.017.2-.016h.068l.167-.017h.134l.016.05-.016.15-.034.168-.084.15-.034.251-.084.117-.033.084.033.067-.067.167-.017.101v.067l.034.067.067.067.034.066-.034.085.1.2.067.067.117.034.067.034.05.133.117.068.067.1.017.033V14.25l.033.067.117.15.017.084.017.167.066.117.134.251.084.1.033-.05.05-.017z"/></svg>