<svg width="24" height="24" viewBox="0 0 24 24" fill="none" xmlns="http://www.w3.org/2000/svg">
<path fill-rule="evenodd" clip-rule="evenodd" d="M12 22C17.5228 22 22 17.5228 22 12C22 6.47715 17.5228 2 12 2C6.47715 2 2 6.47715 2 12C2 17.5228 6.47715 22 12 22ZM12 20.3333C16.6024 20.3333 20.3333 16.6024 20.3333 12C20.3333 7.39763 16.6024 3.66667 12 3.66667C7.39763 3.66667 3.66667 7.39763 3.66667 12C3.66667 16.6024 7.39763 20.3333 12 20.3333Z" fill="#25836B"/>
<path d="M12 6.16667C9.93833 6.16667 9.08254 7.60081 9.08171 9.32747C9.08171 9.90831 9.33887 10.4928 9.33887 10.4928C9.23637 10.557 9.06687 10.7602 9.10937 11.1227C9.18937 11.7986 9.45934 11.9704 9.63184 11.9854C9.69767 12.6154 10.3233 13.4222 10.5417 13.5397V14.5928C10.1675 15.8086 8.35682 15.4211 7.09766 16.5036C8.31682 17.8294 10.0608 18.6667 12 18.6667C13.9392 18.6667 15.6832 17.8294 16.9023 16.5036C15.6432 15.4211 13.8325 15.807 13.4583 14.5911V13.5381C13.6775 13.4206 14.3023 12.6137 14.3682 11.9837C14.5407 11.9687 14.8106 11.7986 14.8906 11.1227C14.9331 10.7602 14.7628 10.5554 14.6595 10.4912C14.6595 10.4912 14.9167 9.96335 14.9167 9.32585C14.9167 8.04668 14.4533 6.95605 13.4583 6.95605C13.4583 6.95605 13.1133 6.16667 12 6.16667Z" fill="#25836B"/>
</svg>
