<svg width="64" height="64" viewBox="0 0 64 64" fill="none" xmlns="http://www.w3.org/2000/svg">
<path fill-rule="evenodd" clip-rule="evenodd" d="M31.8 39.5203C36.1194 39.5203 39.6 36.0422 39.6 31.7602C39.6 27.4782 36.1194 24 31.8 24C27.4806 24 24 27.4782 24 31.7602C24 36.0422 27.4806 39.5203 31.8 39.5203ZM37.7937 44.3089C35.9737 45.1804 33.9525 45.7033 31.8 45.7033C29.6475 45.7033 27.635 45.1804 25.8063 44.3089H25.08C19.515 44.3089 15 48.8056 15 54.348V56.8577C15 59.167 16.8813 61.0406 19.2 61.0406H44.4C46.7188 61.0406 48.6 59.167 48.6 56.8577V54.348C48.6 48.8056 44.085 44.3089 38.52 44.3089H37.7937ZM38.52 46.3089H38.2331C36.281 47.1789 34.1131 47.7033 31.8 47.7033C29.4842 47.7033 27.324 47.1777 25.3684 46.3089H25.08C20.6119 46.3089 17 49.9178 17 54.348V56.8577C17 58.0548 17.9781 59.0406 19.2 59.0406H44.4C45.6219 59.0406 46.6 58.0548 46.6 56.8577V54.348C46.6 49.9178 42.9881 46.3089 38.52 46.3089ZM41.6 31.7602C41.6 37.1544 37.2162 41.5203 31.8 41.5203C26.3837 41.5203 22 37.1544 22 31.7602C22 26.3659 26.3837 22 31.8 22C37.2162 22 41.6 26.3659 41.6 31.7602Z" fill="#757372"/>
<path fill-rule="evenodd" clip-rule="evenodd" d="M51.6 36.7317C53.5919 36.7317 55.2 35.1184 55.2 33.1545C55.2 31.1905 53.5919 29.5772 51.6 29.5772C49.6081 29.5772 48 31.1905 48 33.1545C48 35.1184 49.6081 36.7317 51.6 36.7317ZM44.8538 43.1412C45.4641 43.4746 46.0438 43.8544 46.588 44.2761C49.1876 46.2904 50.9764 49.2591 51.425 52.6748H57.2C58.7488 52.6748 60 51.4286 60 49.8862V47.0976C60 44.0214 57.4888 41.5203 54.4 41.5203H48.8C48.0624 41.5203 47.3589 41.6623 46.7146 41.9203C46.0136 42.201 45.3826 42.6191 44.8538 43.1412ZM48.7885 43.5203C50.8438 45.4152 52.3558 47.8782 53.0724 50.6748H57.2C57.6519 50.6748 58 50.3164 58 49.8862V47.0976C58 45.1336 56.3919 43.5203 54.4 43.5203H48.8C48.7962 43.5203 48.7924 43.5203 48.7885 43.5203ZM57.2 33.1545C57.2 36.2307 54.6888 38.7317 51.6 38.7317C48.5113 38.7317 46 36.2307 46 33.1545C46 30.0783 48.5113 27.5772 51.6 27.5772C54.6888 27.5772 57.2 30.0783 57.2 33.1545Z" fill="#7F41DB"/>
<path fill-rule="evenodd" clip-rule="evenodd" d="M51.6 36.7317C53.5919 36.7317 55.2 35.1184 55.2 33.1545C55.2 31.1905 53.5919 29.5772 51.6 29.5772C49.6081 29.5772 48 31.1905 48 33.1545C48 35.1184 49.6081 36.7317 51.6 36.7317ZM48.7885 43.5203C50.8438 45.4152 52.3558 47.8782 53.0724 50.6748H57.2C57.6519 50.6748 58 50.3164 58 49.8862V47.0976C58 45.1336 56.3919 43.5203 54.4 43.5203H48.8C48.7962 43.5203 48.7924 43.5203 48.7885 43.5203Z" fill="#FFE6FF"/>
<path fill-rule="evenodd" clip-rule="evenodd" d="M12.4 36.7317C14.3919 36.7317 16 35.1184 16 33.1545C16 31.1905 14.3919 29.5772 12.4 29.5772C10.4081 29.5772 8.8 31.1905 8.8 33.1545C8.8 35.1184 10.4081 36.7317 12.4 36.7317ZM15.2113 43.5203C15.2075 43.5203 15.2038 43.5203 15.2 43.5203H9.6C7.60813 43.5203 6 45.1336 6 47.0976V49.8862C6 50.3164 6.34813 50.6748 6.8 50.6748H10.9217C11.6423 47.8787 13.1553 45.4155 15.2113 43.5203ZM17.2854 41.9203C16.6411 41.6623 15.9376 41.5203 15.2 41.5203H9.6C6.51125 41.5203 4 44.0214 4 47.0976V49.8862C4 51.4286 5.25125 52.6748 6.8 52.6748H12.5662C13.0221 49.2591 14.8121 46.2904 17.412 44.276C17.9562 43.8544 18.5359 43.4746 19.1463 43.1412C18.6174 42.619 17.9864 42.201 17.2854 41.9203ZM18 33.1545C18 36.2307 15.4887 38.7317 12.4 38.7317C9.31125 38.7317 6.8 36.2307 6.8 33.1545C6.8 30.0783 9.31125 27.5772 12.4 27.5772C15.4887 27.5772 18 30.0783 18 33.1545Z" fill="#026AB9"/>
<path fill-rule="evenodd" clip-rule="evenodd" d="M12.4 36.7317C14.3919 36.7317 16 35.1184 16 33.1545C16 31.1905 14.3919 29.5772 12.4 29.5772C10.4081 29.5772 8.8 31.1905 8.8 33.1545C8.8 35.1184 10.4081 36.7317 12.4 36.7317ZM15.2113 43.5203C15.2075 43.5203 15.2038 43.5203 15.2 43.5203H9.6C7.60813 43.5203 6 45.1336 6 47.0976V49.8862C6 50.3164 6.34813 50.6748 6.8 50.6748H10.9217C11.6423 47.8787 13.1553 45.4155 15.2113 43.5203Z" fill="#DCF5FF"/>
<g clip-path="url(#clip0)">
<path d="M39.9063 2.51172C37.6484 0.613283 34.1602 0.898439 32 3.09766C29.8398 0.898439 26.3516 0.609376 24.0938 2.51172C21.1563 4.98438 21.5859 9.01563 23.6797 11.1523L30.5313 18.1328C30.9219 18.5313 31.4453 18.7539 32 18.7539C32.5586 18.7539 33.0781 18.5352 33.4688 18.1367L40.3203 11.1563C42.4102 9.01953 42.8477 4.98828 39.9063 2.51172Z" fill="#FFDEDA"/>
<path fill-rule="evenodd" clip-rule="evenodd" d="M30.5313 18.1328C30.9219 18.5313 31.4453 18.7539 32 18.7539C32.5586 18.7539 33.0781 18.5352 33.4688 18.1367L40.3203 11.1563C42.4102 9.01953 42.8477 4.98828 39.9063 2.51172C37.7031 0.659209 34.3282 0.88592 32.1591 2.94141C32.1053 2.99237 32.0523 3.04445 32 3.09766C31.9477 3.04438 31.8946 2.99223 31.8407 2.9412C29.6716 0.88572 26.2969 0.65546 24.0938 2.51172C21.1563 4.98438 21.5859 9.01563 23.6797 11.1523L30.5313 18.1328ZM38.6181 4.04165C37.2383 2.88247 34.9288 2.97006 33.4268 4.49914L32 5.95177L30.5732 4.49914C29.0692 2.96794 26.7599 2.88056 25.3824 4.0412C23.4799 5.64268 23.6911 8.30563 25.1075 9.7519C25.1078 9.75212 25.1073 9.75167 25.1075 9.7519L31.9594 16.7327C31.9717 16.7453 31.9805 16.7496 31.9841 16.7511C31.9874 16.7526 31.9918 16.7539 32 16.7539C32.0089 16.7539 32.0144 16.7531 32.0171 16.7525C32.0199 16.752 32.0214 16.7514 32.0222 16.751C32.0231 16.7507 32.0246 16.75 32.0271 16.7483C32.0296 16.7466 32.0342 16.7431 32.0406 16.7366L38.8905 9.75781C38.891 9.75733 38.8914 9.75686 38.8919 9.75638C40.3078 8.30709 40.5221 5.64479 38.6181 4.04165Z" fill="#CF0A2C"/>
</g>
<defs>
<clipPath id="clip0">
<rect width="20" height="20" fill="white" transform="translate(22)"/>
</clipPath>
</defs>
</svg>
