<svg width="24" height="24" viewBox="0 0 24 24" fill="none" xmlns="http://www.w3.org/2000/svg">
<path d="M12 1.59998C7.13995 1.59998 3.19995 5.53998 3.19995 10.4C3.19995 16.1872 8.92155 18.9576 9.63835 19.6024C10.3704 20.2616 10.9752 21.7368 11.2192 22.5736C11.3376 22.9792 11.6696 23.1848 12 23.1944C12.3296 23.1856 12.6624 22.98 12.7808 22.5736C13.0248 21.7368 13.6296 20.2608 14.3616 19.6024C15.0784 18.9576 20.8 16.1872 20.8 10.4C20.8 5.53998 16.86 1.59998 12 1.59998ZM12.8 13.9184V15.2H11.2V13.9224C10.0232 13.7016 9.28315 12.9784 9.23995 11.9216H10.6256C10.692 12.4768 11.252 12.8328 12.0592 12.8328C12.804 12.8328 13.3312 12.472 13.3312 11.9544C13.3312 11.5176 12.9896 11.2664 12.1496 11.0856L11.2576 10.896C10.0096 10.6352 9.39675 9.98478 9.39675 8.94078C9.39675 7.89038 10.092 7.14158 11.2 6.89518V5.59998H12.8V6.89278C13.88 7.13438 14.6016 7.87038 14.6368 8.86478H13.2888C13.2224 8.32398 12.7192 7.96318 12.0264 7.96318C11.3096 7.96318 10.8352 8.29518 10.8352 8.81758C10.8352 9.23998 11.1624 9.48238 11.9648 9.65278L12.7904 9.82878C14.1672 10.1184 14.76 10.712 14.76 11.7744C14.76 12.9184 14.0256 13.6856 12.8 13.9184Z" fill="#757372"/>
</svg>
