<svg xmlns="http://www.w3.org/2000/svg" fill="none" viewBox="0 0 24 24"><path fill="#25836B" d="M12 1.6a5.612 5.612 0 0 0-5.6 5.6v1.6H4.8a1.6 1.6 0 0 0-1.6 1.6V20a1.6 1.6 0 0 0 1.6 1.6h7.158a7.15 7.15 0 0 1-.758-3.2 7.2 7.2 0 0 1 7.2-7.2c.843 0 1.648.152 2.4.419V10.4a1.6 1.6 0 0 0-1.6-1.6h-1.6V7.2c0-2.983-2.37-5.385-5.316-5.542A.8.8 0 0 0 12 1.6zm0 1.6c2.219 0 4 1.781 4 4v1.6H8V7.2c0-2.219 1.781-4 4-4zm6.4 9.6a5.6 5.6 0 1 0 0 11.2 5.6 5.6 0 0 0 0-11.2zm2.4 3.2a.8.8 0 0 1 .566 1.366l-3.2 3.2a.798.798 0 0 1-1.132 0l-1.6-1.6a.8.8 0 1 1 1.132-1.132L17.6 18.87l2.634-2.635A.797.797 0 0 1 20.8 16z"/></svg>