<svg width="24" height="24" viewBox="0 0 24 24" fill="none" xmlns="http://www.w3.org/2000/svg">
<path d="M0 11.1809C2.59927 13.1238 10.3971 13.1238 12.9964 11.1809C13.0045 11.1891 12.9964 13.7714 12.9964 13.7714C10.3971 15.7143 2.59927 15.7143 0 13.7714V11.1809Z" fill="#CA9304"/>
<ellipse cx="6.49818" cy="8.59047" rx="6.49818" ry="2.59047" fill="#FACC2F"/>
<path d="M0 18.9524C2.59927 20.8952 10.3971 20.8952 12.9964 18.9524C13.0045 18.9606 12.9964 21.5428 12.9964 21.5428C10.3971 23.4857 2.59927 23.4857 0 21.5428V18.9524Z" fill="#CA9304"/>
<path d="M0 15.0667C2.59927 17.0095 10.3971 17.0095 12.9964 15.0667C13.0045 15.0748 12.9964 17.6571 12.9964 17.6571C10.3971 19.6 2.59927 19.6 0 17.6571V15.0667Z" fill="#CA9304"/>
<circle cx="15" cy="9" r="8.25" fill="white" stroke="#026AB9" stroke-width="1.5"/>
<path d="M12.8026 7.77049C13.1096 7.77049 13.3509 7.67213 13.5263 7.47541C13.7105 7.27869 13.8026 6.9959 13.8026 6.62705C13.8026 6.26639 13.7105 5.98771 13.5263 5.79098C13.3509 5.58607 13.1096 5.48361 12.8026 5.48361C12.4956 5.48361 12.25 5.58197 12.0658 5.77869C11.8816 5.97541 11.7895 6.2582 11.7895 6.62705C11.7895 7.0041 11.8816 7.29098 12.0658 7.48771C12.25 7.67623 12.4956 7.77049 12.8026 7.77049ZM12.7895 8.76639C12.4649 8.76639 12.1623 8.71311 11.8816 8.60656C11.6096 8.5 11.3684 8.35246 11.1579 8.16394C10.9561 7.96721 10.7939 7.7418 10.6711 7.48771C10.557 7.22541 10.5 6.94262 10.5 6.63934C10.5 6.33607 10.5614 6.05328 10.6842 5.79098C10.807 5.52869 10.9693 5.30328 11.1711 5.11475C11.3816 4.91803 11.6272 4.76639 11.9079 4.65984C12.1886 4.55328 12.4868 4.5 12.8026 4.5C13.1184 4.5 13.4123 4.55328 13.6842 4.65984C13.9649 4.76639 14.2061 4.91393 14.4079 5.10246C14.6184 5.28279 14.7807 5.5041 14.8947 5.76639C15.0175 6.02869 15.0789 6.31148 15.0789 6.61475C15.0789 6.92623 15.0175 7.21311 14.8947 7.47541C14.7807 7.73771 14.6184 7.96721 14.4079 8.16394C14.2061 8.35246 13.9649 8.5 13.6842 8.60656C13.4123 8.71311 13.114 8.76639 12.7895 8.76639ZM17.8553 4.58607H18.9605L12.9079 13.377H11.7895L17.8553 4.58607ZM17.9605 12.5041C18.2675 12.5041 18.5088 12.4057 18.6842 12.209C18.8684 12.0123 18.9605 11.7295 18.9605 11.3607C18.9605 11 18.8684 10.7213 18.6842 10.5246C18.5088 10.3197 18.2675 10.2172 17.9605 10.2172C17.6535 10.2172 17.4079 10.3156 17.2237 10.5123C17.0395 10.709 16.9474 10.9918 16.9474 11.3607C16.9474 11.7377 17.0395 12.0246 17.2237 12.2213C17.4079 12.4098 17.6535 12.5041 17.9605 12.5041ZM17.9474 13.5C17.6228 13.5 17.3202 13.4467 17.0395 13.3402C16.7675 13.2336 16.5263 13.0861 16.3158 12.8975C16.114 12.7008 15.9561 12.4754 15.8421 12.2213C15.7281 11.959 15.6711 11.6762 15.6711 11.373C15.6711 11.0697 15.7281 10.7869 15.8421 10.5246C15.9649 10.2623 16.1316 10.0369 16.3421 9.84836C16.5526 9.65164 16.7939 9.5 17.0658 9.39344C17.3465 9.28689 17.6447 9.23361 17.9605 9.23361C18.2763 9.23361 18.5702 9.28689 18.8421 9.39344C19.1228 9.5 19.3684 9.64754 19.5789 9.83607C19.7895 10.0164 19.9518 10.2377 20.0658 10.5C20.1886 10.7623 20.25 11.0451 20.25 11.3484C20.25 11.6598 20.1886 11.9467 20.0658 12.209C19.9518 12.4713 19.7895 12.7008 19.5789 12.8975C19.3772 13.0861 19.136 13.2336 18.8553 13.3402C18.5746 13.4467 18.2719 13.5 17.9474 13.5Z" fill="#25836B"/>
</svg>
