<svg width="64" height="64" viewBox="0 0 64 64" fill="none" xmlns="http://www.w3.org/2000/svg">
<path fill-rule="evenodd" clip-rule="evenodd" d="M60 18H4C2.89543 18 2 18.8954 2 20V44C2 45.1046 2.89543 46 4 46H60C61.1046 46 62 45.1046 62 44V20C62 18.8954 61.1046 18 60 18ZM4 16C1.79086 16 0 17.7909 0 20V44C0 46.2091 1.79086 48 4 48H60C62.2091 48 64 46.2091 64 44V20C64 17.7909 62.2091 16 60 16H4Z" fill="#757372"/>
<path fill-rule="evenodd" clip-rule="evenodd" d="M55 31H34C32.8954 31 32 31.8954 32 33V38C32 39.1046 32.8954 40 34 40H55C56.1046 40 57 39.1046 57 38V33C57 31.8954 56.1046 31 55 31ZM34 29C31.7909 29 30 30.7909 30 33V38C30 40.2091 31.7909 42 34 42H55C57.2091 42 59 40.2091 59 38V33C59 30.7909 57.2091 29 55 29H34Z" fill="#1281D3"/>
<path fill-rule="evenodd" clip-rule="evenodd" d="M5 22C5 21.4477 5.44772 21 6 21H21C21.5523 21 22 21.4477 22 22C22 22.5523 21.5523 23 21 23H6C5.44772 23 5 22.5523 5 22Z" fill="#25836B"/>
<path fill-rule="evenodd" clip-rule="evenodd" d="M5 26C5 25.4477 5.44772 25 6 25H21C21.5523 25 22 25.4477 22 26C22 26.5523 21.5523 27 21 27H6C5.44772 27 5 26.5523 5 26Z" fill="#25836B"/>
<path fill-rule="evenodd" clip-rule="evenodd" d="M5 30C5 29.4477 5.44772 29 6 29H21C21.5523 29 22 29.4477 22 30C22 30.5523 21.5523 31 21 31H6C5.44772 31 5 30.5523 5 30Z" fill="#25836B"/>
<rect x="32" y="31" width="25" height="9" rx="2" fill="#E0F6FE"/>
</svg>
