<svg width="64" height="64" viewBox="0 0 64 64" fill="none" xmlns="http://www.w3.org/2000/svg">
<path fill-rule="evenodd" clip-rule="evenodd" d="M38.5714 10C30.0639 10 23.1427 17.0006 23.1427 25.6667C23.1427 27.6586 23.5084 29.5613 24.1741 31.311L24.4127 31.9381L10 45.4336V52.0039L11.4755 54H20.4911L22.4569 52.5043V48.6667H26.3242L27.714 47.2567V42.6667H32.3197L35.0404 40.5966L38.6702 41.333C47.1324 41.279 54 34.2991 54 25.6667C54 17.0006 47.0788 10 38.5714 10ZM21.1427 25.6667C21.1427 15.9232 28.9323 8 38.5714 8C48.2104 8 56 15.9232 56 25.6667C56 35.4101 48.2104 43.3333 38.5714 43.3333H38.4709L35.5305 42.7368L32.9941 44.6667H29.714V48.0767L27.161 50.6667H24.4569V53.4957L21.1655 56H10.4668L8 52.6628V44.5664L22.0765 31.3857C21.4709 29.5907 21.1427 27.6665 21.1427 25.6667Z" fill="#757372"/>
<path fill-rule="evenodd" clip-rule="evenodd" d="M38.5714 10C30.0639 10 23.1427 17.0006 23.1427 25.6667C23.1427 27.6586 23.5084 29.5613 24.1741 31.311L24.4127 31.9381L10 45.4336V52.0039L11.4755 54H20.4911L22.4569 52.5043V48.6667H26.3242L27.714 47.2567V42.6667H32.3197L35.0404 40.5966L38.6702 41.333C47.1324 41.279 54 34.2991 54 25.6667C54 17.0006 47.0788 10 38.5714 10Z" fill="#FCF7E3"/>
<path fill-rule="evenodd" clip-rule="evenodd" d="M42.5 18C40.567 18 39 19.567 39 21.5C39 23.433 40.567 25 42.5 25C44.433 25 46 23.433 46 21.5C46 19.567 44.433 18 42.5 18ZM37 21.5C37 18.4624 39.4624 16 42.5 16C45.5376 16 48 18.4624 48 21.5C48 24.5376 45.5376 27 42.5 27C39.4624 27 37 24.5376 37 21.5Z" fill="#A57F00"/>
<path d="M42.5 18C40.567 18 39 19.567 39 21.5C39 23.433 40.567 25 42.5 25C44.433 25 46 23.433 46 21.5C46 19.567 44.433 18 42.5 18Z" fill="white"/>
<path fill-rule="evenodd" clip-rule="evenodd" d="M13.0898 46.1277L26.7071 34.2581L27.6927 35.3889L14.0754 47.2584L13.0898 46.1277Z" fill="#A57F00"/>
</svg>
