<svg xmlns="http://www.w3.org/2000/svg" fill="none" viewBox="0 0 24 24"><path fill="#F0B300" d="M9.289 1.704l.103-.458L9.494.8l.184.046.423.09.423.092.423.092.412.092h.023l-.068.332-.07.343-.08.332-.068.343-.069.332-.069.332-.08.343-.068.332-.034.137.011.023.011.034.035.046.034.091.011.046.035.068.011.035.011.023v.011l.023.023.024.034.01.034.012.012.046.045.01.011.012.035v.011l.011.149v.011l.011.023.046.046.011.011.011.034v.047l.012.011.045.058.011.01.012.024v.022l-.012.024-.01.068v.023l.034.092.01.034v.035l-.008.01-.011.024-.011.011-.012.011-.022.012-.046.01-.01.012-.012.011v.024l.046.046.01.023.012.034v.07l.022.01.024.023.01.023.011.011-.011.023h-.011l-.011.012H11.2l-.08-.012h-.011l-.013.012h-.011l-.011.012v.033l.01.011.035.024.069.045.126.126.01.022.046.08.023.058.011.045.011.046.011.011.012.011.023.024.103.034.16.114.011.012.011.022.014.037.011.045.011.024.012.01v.07l.01.01.012.012.011.022.013.012.011.012.011.034.024.023.045.046.011.023.046.091.012.07.138.239v.08l.01.012.012.011.023.023.035.024.01.01.012.012.046.091.01.011.012.012.046.045v.045l-.012.011v.025l-.01.011v.115l.01.046v.011l.024.023.045.058.023.023.024.035.01.023.035.023.058.023.011.011v.024l.011.023-.011.011v.023l-.023.069-.011.011.01.011v.012l.024.01h.034l.046-.045.046-.023.01-.011h.023l.023.011.012.011.045.046.011.011.012.034v.024l-.012.023-.034.022-.011.011v.046l.011.023.023.023.035.046.023.011.034.011.023.012.035-.012H13.028l.035.024H13.108l.023-.012.046-.01h.011l.138-.012h.034l.011.011.011.011.012.024v.022l-.012.023-.01.046-.012.034-.011.023-.011.024v.01l-.012.012v.046l-.01.023-.024.023v.011l-.011.011v.012l.011.023v.022l-.011.011v.012l-.011.01-.024.012h-.01l-.058.011h-.012l-.01.011v.012h-.012l.011.01v.012l.023.034v.024l.012.01v.035l-.012.023v.01l-.01.024-.07.091-.01.023-.012.035-.011.034v.035l-.011.023v.011l-.012.011-.057.058v.011l-.011.023-.012.035v.01l-.01.012-.024.023-.011.011v.069l.011.035v.022l-.011.058V9.882l-.011.012-.012.01-.01.012h-.024l-.069-.011-.011.011h-.011v.011l-.011.011v.045l.068.103V10.143l-.01.011-.012.024-.046.045-.01.011-.012.024v.034l.011.034v.024l-.011.01v.034l.011.024.046.034.045.023.024.011v.034l-.012.024-.023.034-.011.012-.011.022v.056l.034.08v.024l-.011.011-.011.011-.058.046h-.015l-.011.011h-.023l-.07-.011h-.022l-.023.011-.011.011-.011.012-.011.022-.035.023-.011.023-.011.024-.011.01-.014.018-.022.01-.012.012-.01.011v.023l.01.023.012.045v.012l.01.023.035.069.011.022v.011l-.01.035v.034l-.012.023v.011l-.012.012v.012l-.011.01-.035.023-.045.023-.011.012v.057l.01.023v.01l-.01.024-.012.011-.022.035-.011.01.011.012.022.011h.046l.091.046h.011l.058.069.011.023v.033l.011.012.024.023.057.045.011.024v.01l.012.024.023.011.045.011h.024l.01-.01h.023l.046-.024h.011l.011-.011.035-.058.01-.011.012-.011.011-.011.011-.012h.035l.034.012h.023l.057-.024.091-.022h.012l.01-.011v-.011l.012-.024.011-.01h.011l.035-.024h.011l.011-.011.011-.011.012-.024.01-.023.012-.011.011-.011h.023l.012-.011h.057l.011-.012.012-.01v-.092l.01-.023.012-.011h.011l.023.01.035.035.069.069.034.046.011.022v.046l.011.01.012.024.103.058.011.01.011.012.023.023v.058l-.012.011-.016.024-.012.011-.01.035-.013.034v.034l.011.012.058.045.023.023v.046l-.011.046v.01l-.012.024-.011.023-.011.011v.024l-.012.01v.012l.012.023-.012.035.012.023.045.057.011.024V12.527l-.023.08-.011.035v.068l.011.022.046.046.011.01v.08l.011.024.023.034.035.058.034.034.023.035v.022l.012.023V13.167l.01.035v.01l.012.012-.011.034v.012l.011.023h.011l.069.011.023.011v.023l.011.058v.011l.046.115.011.023.011.091V13.716l-.023.069-.011.011-.011.011-.011.011-.012.012-.045.01h-.011l-.012.012v.034l.012.012.01.023.012.023.011.034.011.08v.035l.024.023.01.023.092.069.023.023.011.023.012.012-.012.045.012.011.023.012h.069l.057-.035.011-.011h.022l.035.011.046.011.057.046.035.046.034.045v.011l.023.058.01.011.024.035v.022l.011.023V14.664l.023.023v.023l.012.045v.023l.023.035v.034l.011.011v.012l-.011.01-.011.012-.012.011-.023.023h-.011v.01l-.011.024v.011l.011.011.046.07v.034l-.012.034.012.011.01.023.035.023.011.011v.034l-.034.034-.011.034v.012l.011.045v.069l.023.011.035.023.01.012.012.01.023.058.011.012.012.01.08.046.01.012.012.01.034.08h.012l.023.012.034-.011.011-.011v-.018l-.022-.069v-.022l.011-.023.011-.012.012-.01.01-.012.138-.091.012-.011h.057l.023-.012.034-.01h.046l.057.034.252.08h.011l.012.01.01.024.012.011h.092l.034.023.024.012.01.01v.012l.012.011.022.011h.058l.023-.01.011-.012.058-.091.022-.069.012-.011.01-.011h.012l.022-.012.035-.01h.057l.012-.012h.01l.024-.023h.034l.023.023.034.034h.011l.024.012h.045l.035.01.057.024.046.034.023.012.206-.012.034.012h.057l.023-.012h.046l.08.012.034.023.023.011.011.011.012.035v.01l.01.012.012.011.011.011h.023l.046-.01.011-.012.046.011h.034l.011-.011.104-.046h.034l.229.035.022.011.058.046.023.023h.011l.023.011h.056l.012-.011v-.025l-.012-.011-.045-.023-.011-.012-.012-.01v-.012l-.01-.011v-.057l.01-.011v-.023l.012-.012.01-.034.012-.011.011-.023v-.01l.011-.012.058-.011.011-.011.011-.012.012-.01v-.046l-.012-.012v-.01l-.01-.024v-.011l.01-.011v-.012l.024-.023.034-.011h.092l.011-.011.035-.035.01-.01h.012l.023.01.069.058.023.023.011.058.058.137.011.046.011.011.012.011.023.012.011.023v.033l-.011.024V15.642l.011.024.011.01.011.012.024.023.023.023.023.034.022.069.046.08.034.034.092.046-.08.446-.07.447-.068.457-.069.447-.08.457-.069.447-.068.457-.07.447-.08.446-.068.458-.069.446-.069.458-.08.446-.068.446-.07.458-.071.44-.401-.058-.4-.068-.402-.07-.4-.068-.401-.069-.401-.057-.4-.08-.402-.07-.4-.068-.401-.069-.397-.067-.4-.08-.402-.069-.4-.08-.401-.069-.389-.08-.4-.08-.402-.068-.388-.08-.401-.08-.401-.08-.389-.08-.4-.08-.401-.08-.39-.08-.396-.092-.389-.08-.4-.08-.39-.092-.4-.08-.389-.091-.4-.092.069-.286.069-.298.057-.297.069-.298.069-.286.069-.298.057-.298.069-.297.069-.287.069-.297.057-.298.069-.297.069-.287.069-.297.057-.298.069-.298.023-.125.058-.252.011-.046v-.092l.046-.034.045-.023.035-.035.034-.057.023-.07.046-.09.045-.115.012-.023.022-.023.011-.023.011-.035-.014-.052-.034-.114.01-.046.035-.022.023.011h.058l.023-.023.011-.035.012-.034.01-.034.012-.012.011-.01.011-.024v-.023l-.033-.057-.023-.034-.046-.034v-.012l-.011-.046v-.034l.011-.034v-.023l-.023-.011-.045-.012-.046.011h-.035l-.045-.023-.012-.022v-.035l-.01-.022-.024-.012h-.034l-.023.023-.023.023-.022.011-.07-.068-.022-.046v-.092l.023-.034.011-.024v-.045l-.011-.058v-.034l.011-.069.046-.046.023-.057v-.08l.011-.011.023-.012.011-.01.023-.046h.011l.034-.012h.024l.034-.034.034-.034.035-.058.045-.103.035-.058.069-.091.09-.126.035-.034.046-.046.137-.045.045-.035.046-.023.149-.16.068-.092.024-.045.057-.126.011-.058v-.01l-.01-.023v-.057l.01-.023.024-.035.297-.274.058-.103.08-.172.034-.035.035-.045.034-.115.011-.068.046-.046.08-.058.057-.09.126-.104.011-.022.023-.07.057-.08.011-.022.08-.057.035-.035.034-.045.011-.069-.01-.058-.035-.16-.011-.114-.012-.069-.023-.034-.023-.035-.08-.034-.103-.103-.035-.058-.01-.023-.138-.058-.01-.045-.012-.046-.091-.149-.023-.172V9.401l-.012-.139-.08-.16v-.034l.07-.046.034-.034.034-.058.011-.057-.023-.092v-.149l-.011-.058-.035-.137-.068-.137-.012-.046.023-.057.045-.08.024-.08.102-.453.092-.446.103-.458.103-.446.104-.458.092-.446.103-.458.103-.458.103-.446.092-.458.103-.446.104-.458.09-.446.1-.456z"/></svg>