<svg xmlns="http://www.w3.org/2000/svg" fill="none" viewBox="0 0 24 24"><path fill="#E74A27" d="M17.234.909l.545-.047.56-.062-.031.42-.062.7-.016.234-.03.31-.063.607-.031.42-.032.264h-.016l-.155.016-.311.031-.404.032.015.17.047.576.062.575.046.575.047.56.046.576.047.575.046.575.046.575.063.575.046.576.047.575.046.575.046.575.047.575.046.56.063.576V13.348l-.187.109-.046.062-.016.078.016.077.077.125.016.171-.187.203.016.155.015.031.016.016.046.031.109.094.031.062.046.14.032.078.03.031.094.078.032.046.016.155-.016.047-.032.077v.047l.047.14.077.14.047.155-.063.295-.015.031-.031.016h-.046l-.032.016-.046.046-.046.062-.016.078.016.078v.03l-.016.016v.015h-.016.016l-.032.031-.046.032-.015.046-.015.062.015.063.062.077v.047l-.016.046h-.015l-.016-.016h-.028l-.016.031-.031.032-.031.03-.094.063-.094.032v.03l.063.047-.015.078-.032.093-.046.063-.031.016-.047.03-.03.017-.016.046-.016.094-.031.046v.131l-.016.032-.031-.016-.032-.047v-.031l-.016-.015-.015.015-.031.031-.015.032-.016.077-.031-.016-.047-.046v-.032l-.062.032-.016.046-.015.062-.016.063-.03.046-.017.031-.031.016v.046l.015.046.015.032.032.03.016.016.03.031.063.031.047.047-.032.077-.03.016-.063.016-.031.03-.063.078-.062.047.046.031.094-.016.046.031-.031.047-.046.03-.063.032-.046.015-.031.016.046.094-.031.062.016.031.015.063v.093l-.031.016v.046l.031.094v.046l.016.031v.031l-.046.032H16.718l.047.062.171.125.016.046-.031.016-.047.015h-.093v.032l.016.015h.077l.078.031-.016.046.016.078-.031.094-.047.062-.155.171-.031.047-.031.093-.015.094.03.077.047.11.031.014.094.094.078.171-.016.109-.093.078-.56.14-.171.124-.063.016-.14.016-.062.016-.047.03-.046.047-.031.063-.047.17v.156l.047.14.077.125.11.125.062.124.015.125-.063.171-.077.094-.125.031-.125-.031-.233-.125-.903-.357-.155-.016-.14.032-.125.062-.109.094-.03.046-.094.218-.094.124-.062.125.016.109.062.094.125.124-.063-.03-.03.014-.044.014-.031.016-.031-.016-.032-.031-.015-.031-.015-.047-.016-.046-.031-.031-.063-.032-.03-.016-.016-.046-.016-.094-.031-.016h-.078l-.046.016-.015.047.03.077.032.032.031.03.031.032.016.063-.016.03-.046.016-.125-.047-.171-.124-.046-.063v-.109l-.047-.108-.14-.172-.077-.124-.032-.063-.016-.062v-.063l-.046-.03-.031-.016-.063-.015-.016-.016-.015-.155.094-.125.093-.109.047-.155-.047-.155-.077-.14-.094-.125-.077-.125-.017-.076v-.078l.015-.062v-.078l-.015-.062-.031-.078-.016-.062.032-.046-.094-.078-.311-.109-.078-.077-.109-.218-.077-.109-.078-.046-.202-.063-.078-.046-.077-.094.077.094-.187-.188-.109-.077-.109-.016-.03-.016-.126.016-.046-.031-.186-.14-.11-.031-.093-.078-.077-.093-.078-.078-.125-.062-.062-.047-.031-.046-.016-.047-.094-.077-.015-.031-.187-.14-.03-.047-.016-.03-.031-.047-.016-.063-.047-.186.016-.14.032-.14.14-.249.124-.451.14-.265.047-.125v-.171l-.031-.155v-.094l.046-.046.031-.047.063-.093.046-.094.015-.077-.062-.11-.125-.093-.311-.155-.155-.031h-.078l-.062-.016-.11-.063-.062-.016-.155.032-.171.28-.125.062-.14-.046-.093-.11-.156-.28v-.124l-.015-.062-.031-.047-.031-.046.015-.063.016-.046.015-.031-.015-.047-.062-.093-.016-.047v-.155l-.016-.062-.015-.078-.046-.077-.078-.14-.077-.094-.078-.062-.732-.484-.046-.046-.032-.062-.015-.078-.046-.078-.047-.062-.793-.654-.078-.108-.031-.125-.016-.094-.016-.046-.015-.031-.094-.078-.016-.062-.046-.032-.015-.03v-.047l.015-.125v-.124l-.015-.032-.016-.031-.016-.031-.062-.061-.046-.063-.016-.046-.108-.654v-.357l.046-.203.062-.186.078-.078.186-.062.016-.046v-.063l-.016-.109-.016-.062.016-.125V9.59l-.03-.063-.094-.077V9.37l.03-.031v-.031l.047-.078.125-.077.125-.078.093-.016.125-.031.109-.047.109-.077.062-.125.063-.155V8.53l.016-.171v-.062l.03-.063.047-.077.28-.374.047-.14v-.186l-.032-.187-.063-.155-.093-.125-.156-.109-.03-.016-.063-.03-.047-.078-.016-.094-.015-.093.016-.17.047-.172.046-.155.062-.125L7 5.856l.84-.109.125-.062.062-.047.11-.155.062-.03.296-.063.108-.063.061-.047.016-.046.031-.032.125-.077.031-.063.016-.03.016-.047-.016-.094v-.03l-.016-.016v-.016l.032-.078v-.093l.03-.078.032-.094.046-.062.032-.046.124-.094.047-.031.046-.031.031-.094.032-.186v-.233l.046-.155.016-.156v-.047l-.078-.186-.016-.047v-.062l-.015-.046-.016-.032h-.047l-.031-.016-.078-.093-.031-.031-.265-.14h-.031l-.046-.016-.078-.093-.094-.047-.03-.093-.017-.234v.031l-.062-.124-.093-.093-.264-.155-.094-.063-.046-.062-.046-.047-.094-.046-.047-.047.031-.093h.016l.514-.015.528-.031.514-.032.529-.03.513-.016.513-.032.529-.031.514-.031.528-.032.514-.03.514-.047.528-.031.514-.032.512-.046.529-.031.513-.047.56-.046.56-.047z"/></svg>