<svg xmlns="http://www.w3.org/2000/svg" fill="none" viewBox="0 0 24 24"><path fill="#757372" d="M.008 6.419c-.028.113.354.893.33 1.598-.026.705-.27 1.175-.33 1.777-.06.602.242 1.506.529 2.255.287.75.805 1.693 1.196 2.119.391.425.63-.009.869.13.159.091.348.324.565.697l.957-.064v.125l1.54.565c.753.034 1.15.034 1.193 0 .063-.05-.088-.213 0-.245.088-.033.672-.033.724 0 .052.032.61.55.653.61.028.04.067.166.117.378.347.273.54.41.578.41.038 0 .125-.137.259-.41.284-.044.448-.044.49 0 .044.044.274.398.691 1.061h.088l.157.44c.493.229.76.329.8.3.06-.042-.133-.216-.098-.512.035-.297.167-.555.228-.59.06-.035.538-.23.723-.35.185-.12-.01-.188.256-.283.264-.095.21-.244.712-.066.502.18.89.302.988.295.1-.007.383-.613.596-.613.213 0 .996-.057 1.14 0 .145.057.32.358.41.384.088.027.436-.302.532-.247.097.055.552.595.552.699 0 .104-.09.288-.088.41.001.12.746 1.124.79 1.178.043.053.112.037.204-.058.093-.094.134-.37.136-.576.003-.207-.573-1.312-.522-1.931.052-.62.439-.826.84-1.226.4-.399 1.425-1.015 1.517-1.117.091-.103-.22-.557-.192-.835.012-.12.255-.322.538-.802.155-.261.354-.973.45-1.045.097-.071 1.218-.307 1.373-.517.155-.21-.32-.664 0-1.021.32-.357 1.43-.716 1.488-.795.038-.053-.005-.133-.128-.243-.032.001-.073-.07-.124-.213-.077-.215-.109-.79-.14-.895-.03-.105-.072-.184-.178-.193-.106-.01-.17.116-.249.116-.08 0-.08-.096-.108-.116-.028-.02 0-.065-.112 0-.051.029-.171.195-.271.388-.018.033.021.111 0 .163-.012.028-.05.065-.114.11-.048.179-.095.296-.14.353-.08.098-.24.182-.293.246-.053.063.01.14-.029.14H20.65l-.55.476-.206.32h-.807c-.135 0-.206.035-.214.105-.01.104.161.28.148.316-.013.035-.327.102-.989.354-.105.04-.285.127-.537.26-.106.017-.175.01-.207-.02-.048-.046-.077-.132 0-.24.077-.109.152-.11.226-.225.004-.006.015-.157.02-.164.029-.057.067-.175.114-.356-.077-.67-.128-1.027-.153-1.071-.024-.041-.127-.19-.649-.648a5.245 5.245 0 0 0-.293-.208c-.949-.616-1.457-.924-1.523-.924-.099 0-.352.205-.424.225-.071.02-.886.029-1.252-.071-.366-.1-.946-.532-1.15-.532H.537c-.2 0 .256.264.056.419-.2.154-.558-.114-.585 0z"/></svg>