<svg width="56" height="56" viewBox="0 0 56 56" fill="none" xmlns="http://www.w3.org/2000/svg">
<circle cx="34" cy="22" r="22" fill="white"/>
<path d="M0 17.1209C9 9.35686 29 11.2979 34 17.1209V50.382C30 54.7585 7 55.6337 0 50.382V17.1209Z" fill="white"/>
<path d="M4 26.3619C9.19854 30.2476 24.7942 30.2476 29.9927 26.3619C30.0091 26.3782 29.9927 31.5428 29.9927 31.5428C24.7942 35.4286 9.19854 35.4286 4 31.5428V26.3619Z" fill="#CA9304"/>
<ellipse cx="16.9964" cy="21.1809" rx="12.9964" ry="5.18095" fill="#FACC2F"/>
<path d="M4 41.9047C9.19854 45.7905 24.7942 45.7905 29.9927 41.9047C30.0091 41.9211 29.9927 47.0857 29.9927 47.0857C24.7942 50.9714 9.19854 50.9714 4 47.0857V41.9047Z" fill="#CA9304"/>
<path d="M4 34.1333C9.19854 38.0191 24.7942 38.0191 29.9927 34.1333C30.0091 34.1497 29.9927 39.3142 29.9927 39.3142C24.7942 43.2 9.19854 43.2 4 39.3142V34.1333Z" fill="#CA9304"/>
<circle cx="34" cy="22" r="17.25" fill="white" stroke="#026AB9" stroke-width="1.5"/>
<path d="M29.6053 19.541C30.2193 19.541 30.7018 19.3443 31.0526 18.9508C31.4211 18.5574 31.6053 17.9918 31.6053 17.2541C31.6053 16.5328 31.4211 15.9754 31.0526 15.582C30.7018 15.1721 30.2193 14.9672 29.6053 14.9672C28.9912 14.9672 28.5 15.1639 28.1316 15.5574C27.7632 15.9508 27.5789 16.5164 27.5789 17.2541C27.5789 18.0082 27.7632 18.582 28.1316 18.9754C28.5 19.3525 28.9912 19.541 29.6053 19.541ZM29.5789 21.5328C28.9298 21.5328 28.3246 21.4262 27.7632 21.2131C27.2193 21 26.7368 20.7049 26.3158 20.3279C25.9123 19.9344 25.5877 19.4836 25.3421 18.9754C25.114 18.4508 25 17.8852 25 17.2787C25 16.6721 25.1228 16.1066 25.3684 15.582C25.614 15.0574 25.9386 14.6066 26.3421 14.2295C26.7632 13.8361 27.2544 13.5328 27.8158 13.3197C28.3772 13.1066 28.9737 13 29.6053 13C30.2368 13 30.8246 13.1066 31.3684 13.3197C31.9298 13.5328 32.4123 13.8279 32.8158 14.2049C33.2368 14.5656 33.5614 15.0082 33.7895 15.5328C34.0351 16.0574 34.1579 16.623 34.1579 17.2295C34.1579 17.8525 34.0351 18.4262 33.7895 18.9508C33.5614 19.4754 33.2368 19.9344 32.8158 20.3279C32.4123 20.7049 31.9298 21 31.3684 21.2131C30.8246 21.4262 30.2281 21.5328 29.5789 21.5328ZM39.7105 13.1721H41.9211L29.8158 30.7541H27.5789L39.7105 13.1721ZM39.9211 29.0082C40.5351 29.0082 41.0175 28.8115 41.3684 28.418C41.7368 28.0246 41.9211 27.459 41.9211 26.7213C41.9211 26 41.7368 25.4426 41.3684 25.0492C41.0175 24.6393 40.5351 24.4344 39.9211 24.4344C39.307 24.4344 38.8158 24.6311 38.4474 25.0246C38.0789 25.418 37.8947 25.9836 37.8947 26.7213C37.8947 27.4754 38.0789 28.0492 38.4474 28.4426C38.8158 28.8197 39.307 29.0082 39.9211 29.0082ZM39.8947 31C39.2456 31 38.6404 30.8934 38.0789 30.6803C37.5351 30.4672 37.0526 30.1721 36.6316 29.7951C36.2281 29.4016 35.9123 28.9508 35.6842 28.4426C35.4561 27.918 35.3421 27.3525 35.3421 26.7459C35.3421 26.1393 35.4561 25.5738 35.6842 25.0492C35.9298 24.5246 36.2632 24.0738 36.6842 23.6967C37.1053 23.3033 37.5877 23 38.1316 22.7869C38.693 22.5738 39.2895 22.4672 39.9211 22.4672C40.5526 22.4672 41.1404 22.5738 41.6842 22.7869C42.2456 23 42.7368 23.2951 43.1579 23.6721C43.5789 24.0328 43.9035 24.4754 44.1316 25C44.3772 25.5246 44.5 26.0902 44.5 26.6967C44.5 27.3197 44.3772 27.8934 44.1316 28.418C43.9035 28.9426 43.5789 29.4016 43.1579 29.7951C42.7544 30.1721 42.2719 30.4672 41.7105 30.6803C41.1491 30.8934 40.5439 31 39.8947 31Z" fill="#25836B"/>
</svg>
