<svg width="32" height="32" viewBox="0 0 32 32" fill="none" xmlns="http://www.w3.org/2000/svg">
<path fill-rule="evenodd" clip-rule="evenodd" d="M15.5 27C21.8513 27 27 21.8513 27 15.5C27 9.14873 21.8513 4 15.5 4C9.14873 4 4 9.14873 4 15.5C4 21.8513 9.14873 27 15.5 27ZM15.5 25.0833C20.7927 25.0833 25.0833 20.7927 25.0833 15.5C25.0833 10.2073 20.7927 5.91667 15.5 5.91667C10.2073 5.91667 5.91667 10.2073 5.91667 15.5C5.91667 20.7927 10.2073 25.0833 15.5 25.0833Z" fill="#25836B"/>
<path d="M15.5 8.79167C13.1291 8.79167 12.1449 10.4409 12.144 12.4266C12.144 13.0946 12.4397 13.7668 12.4397 13.7668C12.3218 13.8406 12.1269 14.0743 12.1758 14.4911C12.2678 15.2683 12.5782 15.4659 12.7766 15.4832C12.8523 16.2077 13.5718 17.1355 13.8229 17.2707V18.4817C13.3926 19.8799 11.3103 19.4342 9.8623 20.6791C11.2643 22.2038 13.27 23.1667 15.5 23.1667C17.73 23.1667 19.7357 22.2038 21.1377 20.6791C19.6897 19.4342 17.6074 19.878 17.1771 18.4798V17.2688C17.4291 17.1337 18.1477 16.2058 18.2234 15.4813C18.4218 15.464 18.7322 15.2683 18.8242 14.4911C18.8731 14.0743 18.6773 13.8387 18.5584 13.7649C18.5584 13.7649 18.8542 13.1578 18.8542 12.4247C18.8542 10.9537 18.3213 9.69946 17.1771 9.69946C17.1771 9.69946 16.7803 8.79167 15.5 8.79167Z" fill="#25836B"/>
</svg>
