<svg xmlns="http://www.w3.org/2000/svg" fill="none" viewBox="0 0 24 24"><path fill="#E57200" d="M23.772 14.876l.046-.015.015.015.015.091.015.046.03.03v.015l-.03.016-.122.03h-.076l-.015-.06-.016-.046-.106-.046-.015-.015.137-.03.015.015h.045l.016-.03.046-.016zm.016-.107l.03.091-.045.015-.046.015-.03-.045.045-.046.046-.03zm-5.326-8.187l.03.03.06.076.016.015.03.046v.015l.092.396v.091l-.03.046-.046.015-.046.06-.03.016h-.03l-.016.015v.077h-.03l-.016-.016v-.06l-.061.03-.015.03v.046l.03.046.06.015v.046l-.014.03-.03.046-.046.03h-.03l-.031-.015-.015-.06-.03-.031h-.031l-.046.045v.122l-.015.06-.015.077-.03.045h.015l.015.03.015.016-.046.046-.015.015v.106l-.015.152v.167l.06.137-.075-.075-.046-.015-.045.045.045.03.137.092.03.03.03.046.016.03-.015.016-.107.015-.03.015v.03l.152-.015.122.015.197-.06.046-.03.091-.092.137-.076.06-.076.061-.046.076.03.03.031.031.061.015.06-.015.062-.015.015-.03.015h-.046l-.015.015.015.015.03.03h.016l.167.122h.03l.03.016.031.015.03.03v.076l.061.076.122.046.167.03h.122l.06-.015h.061l.046.015.03.046.046.045.06-.045.061-.046.03-.03h.061l.031.015.015.015.046-.015.045-.03.046-.016.03.016v.015l.016.091.015.015.091.046.122.06.045.031v.06l-.03.046.015.016v.045l.03.015.092-.045h.075l.031.03.03.015L21 9.67l-.015.015-.015.015.03.015.152.015.137.061.289.046.076.015.06.03.031.046.03.152.016.106-.03.046-.046.015-.122-.091-.046-.015-.026.049.046.076.076.106.03.06v.077l-.015.045v.016h-.046v.014l.03.046.107.06.015.046-.015.015-.046.015h-.03l-.03-.015.03.046-.015.03-.03.03v.016l.015.045.06.046.016.015h.03l-.03.061h-.092l-.182-.03-.015-.016-.046-.03-.03-.015-.015.015h-.016l-.03-.03-.03-.03-.016-.046-.045-.046-.015.06v.138l-.046.015-.046-.03-.045-.077v-.045l-.046-.046-.137-.121-.045-.061-.015-.03-.107-.046-.015-.03-.03-.031-.016-.015-.03.045-.03-.015-.03-.015-.016-.03-.015-.061-.03.045-.031.016-.046-.016-.045-.03-.152-.152-.061-.122-.213-.06-.06-.107-.137-.076-.03-.015-.122-.198-.076-.076-.046-.03-.06-.015h-.138l-.03.015-.03-.046-.046-.06-.046-.046-.045-.015h-.201l-.015.045.03.03.046.016h.106l.03-.03h.031l.015.03.015.046.016.03.03.03.03.03h.228l.03.031.031.015.061.061.015.015.076.213.015.015.03.03.031.016.046.015.03.015.046.076.045.046.061.03.046.016.091.015.03.03.03.076.016.03.106.122.03.015.016.016.03.045.016.015h.076l.045.03v-.015h.031l.015.015v.061h.137l.045.015.091.06.03.031.046.107v.015l.016.015.03.076.076.076.046.03.045.016h.198l.06-.016.031-.03.106.106.122.016.122-.016.136.016-.046.06-.046.03-.132.048-.076.03v.046l.06.015h.061l.122.061.06.015.031-.045v-.092h.046l.106.076v.016l-.03.03-.03.046-.031.045.015.03.03.016h.076l.03.076.031.106-.03.228.015.122h-.015l-.03-.046-.167-.135-.015-.06-.03.014-.046.03h-.061l-.122-.151-.06-.046-.03.107h.045l.03.03.015.03.016.03-.03-.014h-.076l-.016.03-.016.045.03.03.092.046h.015l.03.015.015.03-.015.016-.076.045v.03l.091-.03h.03l.031.03.046.046.015.046v.03l-.228.107-.076-.015-.122-.06-.106-.016-.03-.045-.03-.016h-.046l-.03-.015-.245-.258-.045-.03-.076-.016-.076-.076-.122-.152-.198-.121-.016.014-.015.03v.046l.015.03.016.03h.03l.03.016h.03l.183.213.107.03.045.061.091.106.228.168.228.136.137.061.076.015h.076l.122-.045h.045l.046.03v.107l.015.03.03.03.046.03h.03v-.044l.107.046.06.045.031.046-.03.03-.061.061-.015.046.045.015.122-.061.03.03.03.107v.076l-.014.076-.016.076-.06.03-.074.017-.046.015-.045.046-.061.091-.046.03-.045-.015-.061-.137-.046-.045-.32-.183-.06.016-.076-.046-.076-.046-.046-.045-.03-.03.015-.107-.046-.106-.06-.061-.077-.046-.045.046-.122.03-.045.03-.016.031v.03l-.015.03-.03-.014-.03-.03-.016-.031-.015-.03-.03-.016h-.062l-.122-.03h-.046l-.046-.03-.015-.061-.015-.092-.03-.076-.016.046v.03l.016.107v.045l-.03.046-.046.046-.076.03-.046-.046-.03-.06-.122-.122-.03-.03h-.046l-.03.03-.076.091-.016.03v.016l-.03-.03-.046-.046v-.015l-.045-.03-.03-.016-.016.015-.045.015-.061.046h-.061l-.06-.015-.016-.015-.122.03h-.046l-.06-.06-.077.09.03.061h.031l.03.015h.016l.03-.015.213.046.258-.061.015.015.03.03.031.031.03-.03.077-.092.03-.015.06.015.046.061.03.076.031.03h.076l.137.061.06.016.274-.061.046.015.122.106.06.016.061-.016.061-.121.046-.03.03.045.091.213.046.228.03.045.046.03.197.016v.015l-.015.03-.015.016v.015l.03.015h.091l.046.03.213.077v.015l-.046.045.016.046.03.03.03.061v.03l-.045.061-.061.076v.03l.076-.03.06-.045.046-.061.061-.06.076-.031.091-.015.076.015.076.03v.046l.046.03.06.03.046-.015-.076-.06-.03-.046v-.046l.03-.076-.015-.015-.043-.015-.015-.06.045-.077.107-.03.304.06.167-.03.122.03.106-.015.076-.045.076-.015.076.09.122.305.456.76.078.153-.046.016h-.045l-.03-.046v-.137l-.031-.015-.03-.046-.03-.03-.122-.258-.03-.03-.016-.016-.046-.015h-.03l-.015.045.045.396.061.198.015.015-.136.03-.138-.137.015.06.015.016.03.03.016.03-.076.031-.457.091-.533.107-.532.091-.533.106-.533.107-.533.106-.548.091-.533.107-.532.106-.533.091-.533.107-.533.091-.533.091-.548.091-.532.107-.533.091-.533.091-.533.091-.548.076-.533.092-.532.09-.533.092-.548.076-.533.091-.533.091-.533.076-.548.076-.532.092-.533.076-.548.076-.533.076-.533.076-.071.019h-.015l-.015-.015-.03-.046-.29.046-.258.015-.213.03h-.031l-.03.015-.046.077-.03.015-.152.016-.32.045-.32.046-.319.045-.32.046-.32.046-.319.045-.32.03-.32.046-.334.046-.32.045-.319.046-.32.03-.319.046-.32.046-.32.046-.32.03.106-.136.061-.03h.015l.259-.138.304-.076.03-.015.015-.015.03-.046.122-.076.304-.152.304-.09.03-.016.016-.015v-.047l-.015-.03v-.031l.03-.046.03-.03.031-.137.06-.076.016-.015h.015l.137-.03.182-.092.168-.106.045-.03.015-.016v-.03l.016-.03v-.076l-.016-.046v-.015l-.015-.061.015-.03.03-.046.062-.061.258-.167.03-.03v-.016l.016-.015v-.076l-.016-.091-.015-.046v-.03l.015-.046.046-.06.137-.122.304-.213.228-.152.197-.137.076-.06.228-.259.259-.304.152-.182.228-.259.152-.167.03.015.015.015.016.016v.091l-.061.076-.01.011v.03l.015.016v.015l.122.045.015.016.015.015.016.015v.015l.015.015v.166l.015.015v.015l.015.016.015.015.168.076.03.03.015.015.046.076.015.016v.015l.03.015.046.015h.214l.016.015.015.016.015.015.046.045.03.03.015.016.122.03.076.046H6.057l.076-.015.015-.015.03-.016.122-.197.015-.015.03-.03.046-.016.122-.03.015-.016.015-.03.03-.046.016-.03.015-.03.015-.061v-.013l.015-.03.016-.016h.093l.015.016.076.076.016.015.015.015.182.076.015.015.016.015.015.016.015.015.015.015.015.015.03-.015.229-.167.304-.091.03-.016.076-.06h.046l.045.03h.03l.016-.015.182-.152.016-.015.015-.03.015-.046v-.016l-.015-.03-.061-.076v-.016l-.013-.016v-.03l.015-.016v-.045l.016-.015.03-.016.03-.03h.03l.031-.015.091.015h.016l.015.015v.046h.075l.016.015h.015l.015.015v.015h.016l.015.016.03-.016.015-.015.122-.091.122-.106.136-.107.122-.076.06-.03.077-.015.015-.016.03.016h.016v.015l.015.015v.06l.015.016.015.015.015.015h.046l.015-.015.015-.015.076-.091.336-.274v-.015l.015-.03v-.046l-.017-.015-.046-.015-.015-.016h-.015v-.076l.015-.016.015-.045.03-.015.016-.016.046-.045.06-.046.016-.03.015-.015v-.03l-.015-.031-.016-.015-.015-.016-.091-.03-.03-.015-.046-.03-.015-.016v-.061l.076-.228.06-.167v-.03l.016-.091v-.016l.106-.167.091-.137.107-.182.121-.213.076-.121.076-.213.046-.152.03-.228v-.03l-.015-.031v-.076l.122-.152.045-.091.03-.03.062-.061.045-.061v-.091l-.03-.03v-.066l.015-.03.015-.046.015-.03v-.046l.016-.015v-.015l.06-.03.03-.03v-.016l.016-.122.015-.045.03-.061.016-.03v-.03l-.03-.153v-.06l.045-.092.015-.03v-.046l-.015-.03v-.061l.015-.076v-.03l.015-.016h.03l.26.046h.014v.015l.016.015.152.183.015.015v.091l.152.015.152.03.152.016.197.03h.03l.016-.015.015-.015.076-.167.046-.107.045-.09.016-.031.015-.046.015-.137V9.05l.015-.137v-.045l.03-.061.016-.03.03-.031.046-.03.015-.031.015-.015v-.015l-.015-.228v-.018l.015-.03.046-.092v-.075l.015-.031.015-.046.091-.182.016-.015h.015l.106.045.137.061.122.061h.015l.015-.015.015-.03.061-.137.076-.183.076-.152.046-.106.015-.015H13.538l.015.015v.015h.015l.015.015h.031l.03-.015.06-.046.016-.015.015-.015.015-.046.016-.076.015-.03.015-.015.015-.015.03-.016.046-.03.03-.015.016-.015.06-.122v-.108l.031-.091.091-.152.107-.122.06-.137.016-.03v-.046l-.03-.061v-.015l-.016-.016v-.03l.015-.016V6.11l-.005-.046v-.015l-.016-.015v-.061l.016-.015.06-.152.03-.076v-.046l.016-.015-.015-.046v-.046l-.046-.107V5.35l.03-.076.046-.015.046.015.197.106.183.107.197.106.198.106.182.107.198.106.198.091.182.107.046.015.015.03.015-.06.015-.046.03-.122.031-.182.03-.137.033-.167.015-.046V5.38l.061.015.152-.03h.061l.137.03h.137l.03.03.076.092.06.015.077.015.06.016.046.045v.076l-.03.077-.075.106-.016.062.03.06.046.046.06.03.122.092.076.015.274-.015h.092l.106.03.076.061.03.046.016.06.03.046.046.015h.045l.107.016h.09l.046.015.046.045.015.016.139.076z"/></svg>