<svg xmlns="http://www.w3.org/2000/svg" fill="none" viewBox="0 0 24 24"><path fill="#026B54" d="M5.25 7.5H4.125C3.504 7.5 3 8.004 3 8.625v11.25C3 20.496 3.504 21 4.125 21H5.25c.621 0 1.125-.504 1.125-1.125V8.625c0-.621-.504-1.125-1.125-1.125zm14.625 1.125v-2.91c0-.298-.119-.583-.33-.795l-1.59-1.59c-.211-.212-.498-.33-.796-.33H8.625C8.004 3 7.5 3.504 7.5 4.125v15.75c0 .621.504 1.125 1.125 1.125h11.25c.621 0 1.125-.504 1.125-1.125V9.75c0-.621-.504-1.125-1.125-1.125zm-6.75 9.563c0 .31-.252.562-.563.562h-1.124a.562.562 0 0 1-.563-.563v-1.125c0-.31.252-.562.563-.562h1.124c.311 0 .563.252.563.563v1.125zm0-4.5c0 .31-.252.562-.563.562h-1.124a.562.562 0 0 1-.563-.563v-1.124c0-.311.252-.563.563-.563h1.124c.311 0 .563.252.563.563v1.124zm4.5 4.5c0 .31-.252.562-.563.562h-1.125a.562.562 0 0 1-.562-.563v-1.125c0-.31.252-.562.563-.562h1.124c.311 0 .563.252.563.563v1.125zm0-4.5c0 .31-.252.562-.563.562h-1.125a.562.562 0 0 1-.562-.563v-1.124c0-.311.252-.563.563-.563h1.124c.311 0 .563.252.563.563v1.124zm.563-3.938h-9V4.687H16.5v1.125c0 .311.252.563.563.563h1.125V9.75z"/></svg>