<svg width="24" height="24" viewBox="0 0 24 24" fill="none" xmlns="http://www.w3.org/2000/svg">
<path d="M11.9996 21.6004C17.3012 21.6004 21.5996 17.302 21.5996 12.0004C21.5996 6.6988 17.3012 2.4004 11.9996 2.4004C6.69801 2.4004 2.39961 6.6988 2.39961 12.0004C2.39961 17.302 6.69801 21.6004 11.9996 21.6004ZM8.23401 11.4348L13.034 6.6348C13.19 6.4788 13.3948 6.4004 13.5996 6.4004C13.8044 6.4004 14.0092 6.4788 14.1652 6.6348C14.478 6.9476 14.478 7.4532 14.1652 7.766L9.93081 12.0004L14.1652 16.2348C14.478 16.5476 14.478 17.0532 14.1652 17.366C13.8524 17.6788 13.3468 17.6788 13.034 17.366L8.23401 12.566C7.92121 12.2532 7.92121 11.7476 8.23401 11.4348Z" fill="#C0BEBC"/>
</svg>
