<svg width="64" height="64" viewBox="0 0 64 64" fill="none" xmlns="http://www.w3.org/2000/svg">
<path fill-rule="evenodd" clip-rule="evenodd" d="M56 13.8H8C6.78497 13.8 5.8 14.785 5.8 16V21.2H58.2V16C58.2 14.785 57.215 13.8 56 13.8ZM8 12C5.79086 12 4 13.7909 4 16V23H60V16C60 13.7909 58.2091 12 56 12H8Z" fill="#A57F00"/>
<path fill-rule="evenodd" clip-rule="evenodd" d="M58.2 27.8H5.8V48C5.8 49.215 6.78497 50.2 8 50.2H56C57.215 50.2 58.2 49.215 58.2 48V27.8ZM4 26V48C4 50.2091 5.79086 52 8 52H56C58.2091 52 60 50.2091 60 48V26H4Z" fill="#757372"/>
<path fill-rule="evenodd" clip-rule="evenodd" d="M58.2001 27.8H5.80005V48C5.80005 49.215 6.78502 50.2 8.00005 50.2H56C57.2151 50.2 58.2001 49.215 58.2001 48V27.8Z" fill="#F7E6AE"/>
<rect x="8" y="31" width="47" height="4" fill="#757372"/>
<path d="M38.6656 46C37.691 46 36.9055 45.7293 36.3091 45.1879C35.72 44.6465 35.4255 43.8893 35.4255 42.9163V39.1523C35.4255 38.984 35.3527 38.823 35.2073 38.6694C35.0691 38.5085 35 38.3914 35 38.3182V38.2743C35 38.1573 35.0836 38.0988 35.2509 38.0988H37.3019C37.4692 38.0988 37.5528 38.1573 37.5528 38.2743V38.3182C37.5528 38.3914 37.4728 38.5085 37.3128 38.6694C37.1601 38.823 37.0837 38.984 37.0837 39.1523V42.9163C37.0837 43.6845 37.2546 44.2734 37.5964 44.6831C37.9383 45.0855 38.4146 45.2867 39.0256 45.2867C39.5056 45.2867 39.9238 45.0965 40.2802 44.716C40.6438 44.3283 40.8256 43.7284 40.8256 42.9163V39.1523C40.8256 38.984 40.7529 38.823 40.6074 38.6694C40.462 38.5085 40.3892 38.3914 40.3892 38.3182V38.2743C40.3892 38.1573 40.4729 38.0988 40.6402 38.0988H41.8838C42.0511 38.0988 42.1347 38.1573 42.1347 38.2743V38.3182C42.1347 38.3914 42.0547 38.5085 41.8947 38.6694C41.742 38.823 41.6656 38.984 41.6656 39.1523V42.9383C41.6656 43.904 41.3929 44.6575 40.8474 45.1989C40.302 45.733 39.5747 46 38.6656 46Z" fill="#757372"/>
<path d="M43.5148 46C43.2239 46 42.9839 45.9232 42.7948 45.7695C42.6057 45.6086 42.5111 45.3818 42.5111 45.0892C42.5111 44.7965 42.6057 44.5734 42.7948 44.4198C42.9839 44.2588 43.2239 44.1783 43.5148 44.1783C43.7984 44.1783 44.0348 44.2588 44.2239 44.4198C44.413 44.5734 44.5075 44.7965 44.5075 45.0892C44.5075 45.3818 44.413 45.6086 44.2239 45.7695C44.0348 45.9232 43.7984 46 43.5148 46Z" fill="#757372"/>
<path d="M48.4019 46C47.4346 46 46.6528 45.7952 46.0564 45.3855C45.4673 44.9684 45.1728 44.5149 45.1728 44.0247C45.1728 43.8198 45.2273 43.6589 45.3364 43.5418C45.4455 43.4175 45.6091 43.3553 45.8273 43.3553C46.0237 43.3626 46.191 43.4358 46.3292 43.5748C46.4746 43.7138 46.5983 43.882 46.7001 44.0796C46.8092 44.2771 46.9255 44.4746 47.0492 44.6722C47.1728 44.8624 47.3546 45.027 47.5946 45.166C47.8347 45.305 48.1256 45.3745 48.4674 45.3745C48.8529 45.3745 49.1583 45.2757 49.3838 45.0782C49.6165 44.8733 49.7329 44.6027 49.7329 44.2661C49.7329 43.9515 49.6493 43.6918 49.482 43.487C49.322 43.2821 49.1111 43.1285 48.8492 43.0261C48.5947 42.9163 48.311 42.8249 47.9983 42.7517C47.6856 42.6712 47.3728 42.5798 47.0601 42.4774C46.7474 42.3749 46.4601 42.2469 46.1982 42.0933C45.9364 41.9323 45.7219 41.7019 45.5546 41.4019C45.3946 41.0947 45.3146 40.7215 45.3146 40.2826C45.3146 39.6095 45.5728 39.0608 46.0892 38.6365C46.6128 38.2122 47.3183 38 48.2056 38C49.0783 38 49.802 38.1975 50.3765 38.5926C50.9584 38.9803 51.2457 39.4156 51.2384 39.8985C51.2384 40.3521 51.0057 40.5789 50.5402 40.5789C50.322 40.5789 50.1402 40.513 49.9947 40.3813C49.8565 40.2423 49.7402 40.0777 49.6456 39.8875C49.5583 39.6973 49.4638 39.5071 49.362 39.3169C49.2601 39.1267 49.1074 38.9657 48.9038 38.834C48.7074 38.695 48.4638 38.6255 48.1728 38.6255C47.7728 38.6255 47.4674 38.7316 47.2565 38.9438C47.0455 39.1559 46.9401 39.4266 46.9401 39.7558C46.9401 40.0704 47.0201 40.3338 47.1801 40.546C47.3474 40.7581 47.5583 40.9191 47.8128 41.0288C48.0747 41.1385 48.3619 41.2373 48.6747 41.3251C48.9874 41.4056 49.3002 41.5007 49.6129 41.6104C49.9256 41.7128 50.2093 41.8409 50.4638 41.9945C50.7256 42.1481 50.9366 42.3749 51.0966 42.6749C51.2638 42.9749 51.3475 43.337 51.3475 43.7613C51.3475 44.449 51.0638 44.9941 50.4965 45.3964C49.9293 45.7988 49.2311 46 48.4019 46Z" fill="#757372"/>
<path d="M53.0072 46C52.7163 46 52.4763 45.9232 52.2872 45.7695C52.0981 45.6086 52.0036 45.3818 52.0036 45.0892C52.0036 44.7965 52.0981 44.5734 52.2872 44.4198C52.4763 44.2588 52.7163 44.1783 53.0072 44.1783C53.2909 44.1783 53.5273 44.2588 53.7164 44.4198C53.9055 44.5734 54 44.7965 54 45.0892C54 45.3818 53.9055 45.6086 53.7164 45.7695C53.5273 45.9232 53.2909 46 53.0072 46Z" fill="#757372"/>
</svg>
