<svg width="64" height="64" viewBox="0 0 64 64" fill="none" xmlns="http://www.w3.org/2000/svg">
<path d="M22.143 23.5228C22.821 22.7378 22.761 21.5458 22.01 20.8108L18.434 17.3068C18.043 16.9228 17.496 16.6958 16.955 16.7338C16.409 16.7528 15.911 16.9848 15.551 17.3908C11.971 21.4188 10 26.6078 10 32.0008C10 37.5798 12.092 42.9018 15.906 46.9968L12.409 50.5848C7.631 45.5508 5 38.9588 5 32.0138C5 24.6988 7.878 17.8618 13.104 12.7408L11.704 11.3398C6.091 16.8398 3 24.2498 3 32.1068C3 39.5668 5.826 46.7608 10.958 52.1698C11.331 52.5628 11.836 52.9998 12.38 52.9998C12.385 52.9998 12.39 52.9998 12.395 52.9998C12.934 52.9998 13.458 52.5638 13.834 52.1808L17.334 48.3948C18.083 47.6308 18.091 46.4128 17.355 45.6218C13.901 41.9088 12 37.0708 12 31.9998C12 27.0968 13.792 22.3798 17.034 18.7358L20.628 22.2168C18.288 24.9348 17 28.4088 17 31.9998C17 35.9478 18.521 39.6748 21.282 42.4948L22.712 41.0948C20.318 38.6508 19 35.4218 19 31.9998C19 28.8878 20.116 25.8768 22.143 23.5228Z" fill="#757372"/>
<path d="M53.4429 12.4763C53.0789 12.0773 52.5789 11.8483 52.0349 11.8323C51.4789 11.8243 50.9569 12.0263 50.5689 12.4063L46.9959 15.9053C46.2309 16.6533 46.1969 17.8723 46.9189 18.6793C50.1949 22.3473 51.9999 27.0773 51.9999 32.0003C51.9999 36.9173 50.1989 41.6453 46.9369 45.2933L43.2099 41.9663C45.6539 39.2203 46.9999 35.6813 46.9999 32.0003C46.9999 27.9373 45.4009 24.1313 42.4979 21.2863L41.0979 22.7143C43.6139 25.1813 44.9999 28.4793 44.9999 32.0003C44.9999 35.1893 43.8339 38.2573 41.7169 40.6363C40.9989 41.4433 41.0749 42.6963 41.8889 43.4293L45.5969 46.7783C45.9919 47.1333 46.5049 47.3233 47.0549 47.2953C47.5839 47.2673 48.0699 47.0353 48.4209 46.6433C52.0189 42.6083 53.9999 37.4093 53.9999 32.0003C53.9999 26.5853 52.0149 21.3813 48.3949 17.3353L51.9649 13.8233C56.5019 18.8033 58.9999 25.2583 58.9999 32.0003C58.9999 39.3153 56.1219 46.1653 50.8959 51.2863L52.2959 52.7143C57.9089 47.2143 60.9999 39.8573 60.9999 32.0003C60.9999 24.7593 58.3159 17.8243 53.4429 12.4763Z" fill="#757372"/>
<path d="M32 23C27.037 23 23 27.037 23 32C23 36.963 27.037 41 32 41C36.963 41 41 36.963 41 32C41 27.037 36.963 23 32 23ZM32 39C28.141 39 25 35.859 25 32C25 28.141 28.141 25 32 25C35.859 25 39 28.141 39 32C39 35.859 35.859 39 32 39Z" fill="#7F41DB"/>
<path d="M32 37C34.7614 37 37 34.7614 37 32C37 29.2386 34.7614 27 32 27C29.2386 27 27 29.2386 27 32C27 34.7614 29.2386 37 32 37Z" fill="#FFE6FF"/>
<path fill-rule="evenodd" clip-rule="evenodd" d="M32 35C33.6569 35 35 33.6569 35 32C35 30.3431 33.6569 29 32 29C30.3431 29 29 30.3431 29 32C29 33.6569 30.3431 35 32 35ZM37 32C37 34.7614 34.7614 37 32 37C29.2386 37 27 34.7614 27 32C27 29.2386 29.2386 27 32 27C34.7614 27 37 29.2386 37 32Z" fill="#7F41DB"/>
</svg>
