<svg width="24" height="24" viewBox="0 0 24 24" fill="none" xmlns="http://www.w3.org/2000/svg">
<circle cx="12" cy="13" r="8.75" fill="white"/>
<path d="M12.0001 16.5C11.0718 16.5 10.1816 16.1313 9.52521 15.4749C8.86884 14.8185 8.50009 13.9283 8.50009 13C8.50009 12.0717 8.86884 11.1815 9.52521 10.5251C10.1816 9.86875 11.0718 9.5 12.0001 9.5V5.5C10.7974 5.4976 9.61172 5.78448 8.54313 6.33644C7.47455 6.8884 6.55439 7.68926 5.86025 8.67146C5.16612 9.65366 4.71838 10.7884 4.5548 11.9799C4.39122 13.1715 4.5166 14.3849 4.92036 15.5178C5.32413 16.6507 5.99443 17.6699 6.87473 18.4894C7.75503 19.3089 8.81951 19.9047 9.97838 20.2265C11.1372 20.5483 12.3565 20.5867 13.5333 20.3384C14.7101 20.0902 15.81 19.5625 16.7401 18.8L13.8801 15.94C13.3206 16.3041 12.6677 16.4986 12.0001 16.5Z" fill="#ABFFE8"/>
<path d="M14 4.23V3C14 2.73478 13.8946 2.48043 13.7071 2.29289C13.5196 2.10536 13.2652 2 13 2H11C10.7348 2 10.4804 2.10536 10.2929 2.29289C10.1054 2.48043 10 2.73478 10 3V4.23C8.01247 4.683 6.23759 5.79732 4.96592 7.39054C3.69425 8.98376 3.00113 10.9615 3 13C2.99959 13.9082 3.1344 14.8115 3.4 15.68C3.57816 16.2374 3.80921 16.7766 4.09 17.29C4.22673 17.5445 4.37694 17.7915 4.54 18.03C4.85928 18.5105 5.22795 18.9562 5.64 19.36C6.62536 20.3493 7.82739 21.0958 9.15102 21.5403C10.4746 21.9849 11.8836 22.1154 13.2663 21.9216C14.6491 21.7277 15.9678 21.2147 17.1181 20.4233C18.2684 19.6318 19.2188 18.5835 19.8941 17.3614C20.5694 16.1392 20.9511 14.7767 21.0089 13.3816C21.0668 11.9866 20.7992 10.5971 20.2274 9.32327C19.6557 8.04942 18.7953 6.92607 17.7145 6.04208C16.6337 5.15809 15.362 4.53771 14 4.23ZM12 20.5C10.2915 20.5049 8.63233 19.928 7.29552 18.8641C5.95871 17.8003 5.02401 16.3129 4.6453 14.647C4.26659 12.981 4.46645 11.2357 5.21197 9.69853C5.9575 8.16131 7.20424 6.92377 8.74694 6.18965C10.2896 5.45554 12.0363 5.26862 13.6994 5.65966C15.3626 6.05071 16.8429 6.9964 17.8969 8.34105C18.9508 9.6857 19.5154 11.3492 19.4978 13.0575C19.4802 14.7659 18.8814 16.4174 17.8 17.74L13.44 13.38C13.4801 13.2573 13.5004 13.1291 13.5 13C13.5 12.7033 13.412 12.4133 13.2472 12.1666C13.0824 11.92 12.8481 11.7277 12.574 11.6142C12.2999 11.5006 11.9983 11.4709 11.7074 11.5288C11.4164 11.5867 11.1491 11.7296 10.9393 11.9393C10.7296 12.1491 10.5867 12.4164 10.5288 12.7074C10.4709 12.9983 10.5006 13.2999 10.6142 13.574C10.7277 13.8481 10.92 14.0824 11.1666 14.2472C11.4133 14.412 11.7033 14.5 12 14.5C12.1291 14.5004 12.2573 14.4801 12.38 14.44L13.88 15.94L16.74 18.8C15.4056 19.9004 13.7296 20.5015 12 20.5Z" fill="#25836B"/>
<path d="M19.1799 6.73995C19.3205 6.88064 19.5111 6.95977 19.7099 6.95995C19.9079 6.95564 20.0971 6.87712 20.2399 6.73995C20.3804 6.59932 20.4593 6.4087 20.4593 6.20995C20.4593 6.0112 20.3804 5.82057 20.2399 5.67995L18.8199 4.25995C18.7513 4.18626 18.6685 4.12716 18.5765 4.08617C18.4845 4.04518 18.3852 4.02313 18.2845 4.02136C18.1838 4.01958 18.0837 4.03811 17.9904 4.07583C17.897 4.11355 17.8121 4.16969 17.7409 4.24091C17.6697 4.31213 17.6135 4.39696 17.5758 4.49035C17.5381 4.58374 17.5196 4.68377 17.5214 4.78447C17.5231 4.88517 17.5452 4.98449 17.5862 5.07649C17.6272 5.16849 17.6863 5.25129 17.7599 5.31995L19.1799 6.73995Z" fill="#25836B"/>
</svg>
