<svg xmlns="http://www.w3.org/2000/svg" fill="none" viewBox="0 0 24 24"><path fill="#900F10" d="M8.302 22.186l.148.05v.033l-.05.033h-.016l-.788.098.05-.033.328-.082.196-.017.05-.017.033-.017.017-.032.032-.016 2.33-1.28-.016-.066.017-.017v-.032l.05-.116.032-.115v-.246l-.017-.017-.032-.033-.312-.148-.05-.033-.066-.065-.082-.131-.017-.033-.197-.148-.05-.05-.032-.066-.017-.032-.017-.033v-.017l.017-.033v-.033l.066-.18v-.014l-.017-.197.017-.05.164-.016.558-.05.575-.065.574-.05.575-.05.558-.065.574-.05.575-.05.558-.065.575-.066.574-.05.558-.065.575-.065.574-.05.559-.066.574-.065.574-.066v-.017l.017-.032.017-.033-.017-.05-.033-.032-.065-.197-.116-.164-.115-.131-.065-.017-.05-.05-.017-.066v-.148l-.017-.05-.032-.081-.017-.033v-.033l.05-.082.016-.033-.017-.328v-.148l.066-.115-.05-.115.017-.082.017-.083.017-.098-.013-.06-.033-.083-.016-.017-.017-.115-.016-.066-.033-.066-.147-.147-.033-.065-.148-.46-.033-.083.017-.098v-.099l.017-.147.05-.164.082-.18.017-.017.016-.066v-.114l-.032-.099v-.099l.032-.066v-.065l-.016-.098v-.033l.05-.147.016-.033.017-.017.05-.017.065-.033.05-.032.032-.033-.05-.033v-.033l.05-.017.066.017.033-.033.033-.032v-.033l-.033-.05.033-.017.032-.017.017-.016.017-.033-.017-.033h-.017l-.017-.017-.032-.033-.033-.032-.18-.066-.083-.066-.017-.082.066-.082-.017-.05v-.05l.017-.05v-.099l-.033-.065-.05-.05-.033-.065-.035-.127-.016-.05-.05-.066-.279-.295.017-.05-.033-.032-.05-.017-.032-.05v-.114l-.05-.082-.032-.148-.033-.05-.05-.032-.016-.032.033-.05-.033-.032-.066-.066-.032-.017-.017-.033-.017-.032-.017-.033v-.115l-.148-.295.017-.033-.05-.164-.016-.033-.017-.066-.033-.114-.05-.148-.05-.18-.065-.215-.065-.262-.083-.28-.098-.294-.082-.328-.099-.328-.115-.361-.099-.36-.114-.378-.098-.395-.116-.377-.114-.394-.115-.378-.099-.377-.114-.378-.098-.345-.099-.345-.082-.327-.098-.296-.083-.279-.066-.246-.065-.23-.05-.18-.05-.148-.016-.115-.033-.066V1.6l-.542.066-.538.048-.525.05-.542.05-.542.05-.541.048-.526.033-.541.05-.542.05-.542.049-.525.033-.542.048-.542.032-.542.05-.542.033-.524.048H6.38l.05.115.065.165.098.115.116.066h.065v.263l-.017.097v.394l-.016.28v.345l-.016.377v.428l-.016.442-.017.493-.017.525-.016.542-.017.558-.017.574-.016.574-.017.591-.017.575-.017.591-.017.575-.014.559-.016.541-.017.51-.017.492-.016.46v.426l-.016.378-.017.328v.28l-.017.229V15.538l.05.394.05.394.049.394.05.378.05.394.049.394.05.394.049.394.05.394.05.378.049.394.05.395.049.393.05.395.05.394.049.377.098-.032.066-.05h.082l.066.099h.032V21.759l.017-.017v-.032l.099.05.23.032.098.033-.017.082v.05h.181l.017.017v.017l.017.016.033-.033.033-.05v-.311l-.017-.18v-.067l.017-.147.016-.065v-.033l.033-.05v-.033l-.017-.082v-.033l.017-.032.033-.05.033-.05V20.643l.017-.065.032-.05.017-.033-.039-.065.05-.033.016-.05v-.065l-.032-.066.05.017.032.033v.115l.017.05h.065l.05.016.082.033.05.05.131.312.033.082-.017.05-.033.065-.032.066-.017.082v.083l.017.017.032.032.017.05.017.05.017.05.017.032.016.05.033.032.033.017.033.033h.033l.05.017h.049v-.034l.033-.066.016-.016h.017l.033.017.017.032-.033.099v.05l.033.049.18.148.05.131-.082.082-.164.066-.131.05-.148-.017-.083-.066-.033.017-.016.033-.033.017-.131.05-.083.049-.033.033h.116l.312-.083.443-.032.476-.116.23-.115.082-.164-.033.017-.033.017h-.082l.017-.066-.017-.033-.033-.05-.017-.065h.033l.017.017.066.05.016.032.017.033.017.017h.05l.082-.017.033-.066.033-.05.05-.032.098-.033.032-.05.017-.082.033-.065.148-.164v-.033h.033l-.05-.033-.033-.017-.033-.032-.04-.039v-.016l.033.017v-.017l-.098-.197-2.331 1.28z"/></svg>