<svg xmlns="http://www.w3.org/2000/svg" viewBox="0 0 38 38"><circle cx="19" cy="19" r="19" fill="#fff"/><path fill="#1f1d1c" d="M26.1 26c.1 0 .2 0 .2.1s.1.2 0 .3c-.1.6-.5 1.1-1.2 1.5-.7.4-1.5.6-2.4.6-.7 0-1.3-.1-1.9-.4-.6-.2-1.2-.5-1.6-.8-.4-.3-1-.5-1.6-.8-.6-.2-1.3-.4-1.9-.4-.3 0-.5 0-.8.1-.3.1-.5.1-.6.1-.1 0-.3.1-.6.2l-.4.1c-.2 0-.3 0-.4-.3-.1-.2 0-.4.1-.6.6-.7 1.3-1.2 2.2-1.4-1.1-.6-2-1.5-2.7-2.6-.7-1.1-1-2.4-1-3.8 0-2.2.6-3.9 1.9-5.3 1.3-1.4 3-2.1 5.1-2.1 2 0 3.7.7 5 2.1 1.3 1.4 2 3.2 2 5.2s-.6 3.6-1.8 5c-1.2 1.3-2.7 2.1-4.5 2.2.1 0 .2.1.3.2.2.1.3.2.4.2.1 0 .2.1.3.2.2.1.3.2.4.2.1 0 .2.1.4.2s.3.1.4.2c.1 0 .2.1.4.1.2.1.3.1.5.1.1 0 .3 0 .5.1h.5c.4 0 .7 0 1-.1.3 0 .6-.1.7-.1.2 0 .3-.1.5-.2.4 0 .5 0 .6-.1zm-8.5-14.1c-.9 0-1.7.3-2.2 1-.5.7-.8 1.6-.8 2.7 0 1.4.2 2.7.6 4 .4 1.3 1 2.3 1.8 3.2.8.8 1.6 1.2 2.5 1.2.9 0 1.7-.3 2.2-1 .6-.7.8-1.5.8-2.6 0-1.3-.2-2.6-.7-3.9-.4-1.3-1.1-2.4-1.8-3.2-.7-1-1.5-1.4-2.4-1.4z"/><path fill="#8d8c8a" d="M19 2c9.4 0 17 7.6 17 17s-7.6 17-17 17S2 28.4 2 19 9.6 2 19 2m0-2C8.5 0 0 8.5 0 19s8.5 19 19 19 19-8.5 19-19S29.5 0 19 0z"/></svg>