<svg width="24" height="22" viewBox="0 0 24 22" fill="none" xmlns="http://www.w3.org/2000/svg">
<g clip-path="url(#clip0)">
<path d="M8.14836 21.0425C8.14836 21.0425 6.34522 18.1476 4.23015 15.2527C2.11507 12.3578 0 9.402 0 9.402L0.311935 8.86942C0.311935 8.86942 1.90204 7.86515 2.28245 7.7282C2.8238 7.56013 3.40708 7.58841 3.92962 7.80808C4.39753 8.04013 9.04612 13.0501 9.04612 13.0501C9.04612 13.0501 11.9068 8.24936 13.8659 6.29025C15.825 4.33115 18.4118 1.83186 19.1155 1.34494C19.8193 0.858012 20.5421 0.500428 20.5421 0.500428C20.9618 0.496324 21.3813 0.521747 21.7974 0.57651C22.1094 0.656395 23.2087 2.13999 23.4408 2.45573C23.6728 2.77147 23.6767 2.76767 23.2087 3.23557C22.7408 3.70347 18.1912 8.9417 17.0956 10.6688C16 12.3958 13.5692 17.946 13.4893 18.4938C13.4094 19.0416 12.9339 19.3383 12.4584 19.5741C11.9829 19.81 8.14836 21.0425 8.14836 21.0425Z" fill="#CF202E" stroke="white" stroke-miterlimit="10"/>
<path d="M11.3972 9.40536C12.4813 9.47383 14.5394 10.0444 14.5394 11.3378C14.5457 11.4543 14.5278 11.5708 14.4868 11.68C14.4457 11.7891 14.3824 11.8886 14.3008 11.9719C14.2192 12.0553 14.1212 12.1208 14.0129 12.1642C13.9047 12.2076 13.7886 12.2281 13.672 12.2242C13.3925 12.2345 13.1195 12.1387 12.9077 11.9559C12.696 11.7731 12.5614 11.517 12.5308 11.2389C12.5258 11.1037 12.4803 10.973 12.4003 10.8639C12.3203 10.7547 12.2094 10.672 12.0819 10.6265C11.6665 10.4292 11.2101 10.334 10.7505 10.3488C10.3467 10.3327 9.94525 10.4177 9.58262 10.596C9.43685 10.6819 9.31532 10.8033 9.22947 10.9491C9.14362 11.0948 9.09627 11.26 9.09189 11.4291C9.09189 12.4296 10.5108 12.6122 11.2792 12.7796L11.9602 12.9165C13.5122 13.2665 15.0339 13.6774 15.0339 15.5185C15.0339 17.3597 13.0748 18.1814 11.4086 18.3374V20.3726H10.4956V18.3412C9.23645 18.3145 6.74097 17.7173 6.74097 16.1881C6.7289 16.0321 6.75133 15.8755 6.80663 15.7292C6.86194 15.5829 6.94878 15.4506 7.06098 15.3417C7.17318 15.2328 7.30799 15.1499 7.45584 15.0989C7.60368 15.0479 7.76094 15.0302 7.91643 15.0468C8.43759 15.0468 9.05766 15.4082 9.05766 15.9636C9.06245 16.0211 9.05195 16.0789 9.02722 16.131C9.00766 16.2418 8.9937 16.3535 8.98538 16.4658C8.98538 17.1733 10.2331 17.3255 10.7695 17.3255C11.6368 17.3255 12.9568 17.063 12.9568 16.0055C12.9568 15.1571 12.2189 15.0735 11.5075 14.9213L10.5527 14.7121C8.97016 14.3317 7.04529 14.1034 7.04529 12.1253C7.04529 10.3069 8.84082 9.46242 10.507 9.40156V7.49951H11.4086V9.37873L11.3972 9.40536Z" fill="#2D2A26"/>
<path d="M10.3434 20.5248V18.4858C9.35816 18.4325 7.82511 18.1054 7.04147 17.2685C6.75561 16.9814 6.59435 16.5932 6.59259 16.1881C6.58635 16.0147 6.61705 15.8419 6.68263 15.6812C6.74821 15.5205 6.84718 15.3756 6.973 15.2561C7.23601 15.019 7.58164 14.8947 7.93543 14.9099C8.24201 14.9118 8.5402 15.0103 8.78755 15.1914C8.91641 15.2793 9.02257 15.3965 9.0973 15.5334C9.17203 15.6703 9.2132 15.823 9.21741 15.9789C9.21983 16.0502 9.20819 16.1213 9.18317 16.1881C9.16492 16.2849 9.15222 16.3827 9.14513 16.481C9.14452 16.5423 9.15791 16.603 9.18428 16.6584C9.21065 16.7137 9.2493 16.7624 9.29729 16.8006C9.42425 16.9071 9.57191 16.9861 9.73096 17.0326C10.0697 17.138 10.4223 17.1919 10.7771 17.1924C11.2419 17.1988 11.7034 17.1135 12.1351 16.9413C12.323 16.8711 12.4851 16.7455 12.5999 16.5811C12.7147 16.4167 12.7768 16.2212 12.778 16.0207C12.7918 15.8835 12.7626 15.7453 12.6945 15.6254C12.6263 15.5054 12.5226 15.4096 12.3976 15.3512C12.0932 15.2226 11.7736 15.1331 11.4466 15.0849L10.4956 14.8757C9.67523 14.7393 8.87437 14.5043 8.11042 14.1757C7.72472 13.9983 7.4007 13.7099 7.17979 13.3474C6.95888 12.9848 6.85112 12.5647 6.87029 12.1405C6.86689 11.7133 6.97274 11.2923 7.1778 10.9174C7.38286 10.5426 7.68032 10.2264 8.04194 9.99885C8.72713 9.5639 9.51374 9.3148 10.3244 9.27607V7.37402H11.5265V9.27607C12.3748 9.35976 13.6416 9.68691 14.2959 10.4173C14.5373 10.6712 14.6744 11.0066 14.6801 11.3569C14.6854 11.6275 14.5875 11.8901 14.4062 12.0911C14.3077 12.1923 14.1892 12.2716 14.0581 12.324C13.927 12.3765 13.7864 12.4008 13.6454 12.3954C13.3349 12.3934 13.036 12.2771 12.8058 12.0687C12.5757 11.8603 12.4304 11.5744 12.3976 11.2656C12.388 11.1568 12.3542 11.0516 12.2987 10.9575C12.2245 10.8723 12.1322 10.8047 12.0286 10.7597C11.6337 10.5758 11.2011 10.4872 10.7657 10.501C10.3888 10.4844 10.0137 10.5615 9.6739 10.7254C9.5509 10.7984 9.44816 10.9011 9.37507 11.024C9.30197 11.147 9.26084 11.2863 9.25545 11.4292C9.2549 11.6172 9.32401 11.7988 9.44946 11.9389C9.59804 12.0864 9.77546 12.2017 9.97062 12.2775C10.4102 12.4368 10.8635 12.5552 11.3249 12.6313L12.0096 12.7682C12.7706 12.8957 13.5041 13.1531 14.1779 13.529C14.5111 13.7431 14.7805 14.0429 14.9579 14.397C15.1353 14.7511 15.2141 15.1464 15.186 15.5414C15.179 15.9807 15.0587 16.4108 14.8368 16.79C14.6149 17.1692 14.2988 17.4847 13.9193 17.7059C13.198 18.1378 12.3872 18.3981 11.5493 18.4667V20.5248H10.3434ZM7.91641 15.199C7.77879 15.1897 7.64067 15.2077 7.51007 15.2521C7.37947 15.2965 7.25898 15.3664 7.15559 15.4577C7.06335 15.5516 6.9917 15.6637 6.94519 15.7868C6.89869 15.91 6.87836 16.0415 6.8855 16.1729C6.89263 16.5031 7.02925 16.8174 7.26591 17.0478C7.53544 17.3234 7.85755 17.542 8.21313 17.6907C8.93714 17.9969 9.71019 18.1709 10.4956 18.2043H10.6439V20.2204H11.2564V18.2043H11.3933C12.233 18.1446 13.0459 17.8837 13.7633 17.4434C14.099 17.251 14.3787 16.9744 14.5748 16.6408C14.771 16.3072 14.8767 15.9283 14.8817 15.5414C14.9026 15.2005 14.8314 14.8602 14.6754 14.5563C14.5195 14.2524 14.2845 13.9961 13.9953 13.8143C13.3543 13.4539 12.6553 13.2081 11.9297 13.0878L11.2564 12.928C10.6858 12.7987 9.73476 12.6845 9.22121 12.1444C9.04305 11.9505 8.94515 11.6963 8.94732 11.433C8.95101 11.2378 9.00471 11.0468 9.10328 10.8783C9.20185 10.7098 9.342 10.5694 9.51032 10.4706C9.89913 10.2753 10.3309 10.1811 10.7657 10.1967C11.2503 10.1847 11.731 10.2863 12.1694 10.4934C12.3174 10.5581 12.4478 10.6572 12.5498 10.7825C12.6333 10.9137 12.6865 11.0618 12.7058 11.2162C12.7289 11.4576 12.8434 11.6811 13.0258 11.8409C13.2082 12.0007 13.4448 12.0847 13.6872 12.0759C13.7845 12.0799 13.8816 12.0633 13.972 12.0273C14.0625 11.9912 14.1443 11.9365 14.2122 11.8667C14.3407 11.7211 14.4088 11.532 14.4024 11.3379C14.398 11.0589 14.2847 10.7927 14.0866 10.5961C13.8717 10.3641 13.6131 10.1767 13.3258 10.0445C12.7188 9.7662 12.0669 9.59872 11.401 9.54996H11.2602V7.67835H10.6477V9.5804H10.5032C9.69482 9.59694 8.90604 9.83226 8.22074 10.2613C7.89766 10.4615 7.63188 10.7419 7.44923 11.0752C7.26658 11.4085 7.17329 11.7833 7.17842 12.1634C7.15929 12.5323 7.25226 12.8983 7.44509 13.2133C7.63792 13.5284 7.92158 13.7777 8.25878 13.9285C8.99896 14.2448 9.77408 14.4721 10.5679 14.6056L11.5227 14.811C11.8781 14.863 12.2249 14.9628 12.5536 15.1077C12.725 15.1941 12.8674 15.3287 12.9634 15.495C13.0594 15.6612 13.1047 15.8519 13.0938 16.0435C13.0889 16.3064 13.004 16.5616 12.8504 16.775C12.6968 16.9884 12.4818 17.1499 12.2341 17.238C11.7644 17.4291 11.2612 17.5235 10.7543 17.5157C10.3282 17.5157 9.51793 17.4434 9.07285 17.0478C8.99442 16.9802 8.93116 16.8968 8.88723 16.8031C8.84331 16.7093 8.81971 16.6074 8.81798 16.5038C8.82674 16.3852 8.84198 16.2671 8.86363 16.1501V16.131C8.88645 16.0702 8.86363 16.0968 8.86363 16.0207C8.87124 15.9083 8.8505 15.7957 8.80331 15.6934C8.75612 15.591 8.68399 15.5021 8.59354 15.4349C8.40029 15.2933 8.16739 15.2161 7.92782 15.2143L7.91641 15.199Z" fill="#2D2A26"/>
<path d="M11.1344 9.10102C12.2186 9.16949 14.2804 9.74011 14.2804 11.0335C14.2874 11.1506 14.2698 11.2679 14.2287 11.3778C14.1877 11.4876 14.1241 11.5877 14.042 11.6716C13.96 11.7554 13.8613 11.8212 13.7523 11.8646C13.6433 11.908 13.5265 11.9281 13.4092 11.9237C13.1291 11.9339 12.8556 11.8375 12.6438 11.6539C12.432 11.4704 12.2977 11.2133 12.268 10.9346C12.2614 10.7997 12.2149 10.6698 12.1343 10.5614C12.0537 10.453 11.9426 10.3711 11.8153 10.3259C11.4004 10.1271 10.9438 10.0305 10.4839 10.0444C10.0772 10.0282 9.67301 10.1146 9.30844 10.2955C9.16237 10.3819 9.04069 10.5041 8.95484 10.6505C8.869 10.7969 8.82181 10.9627 8.81771 11.1324C8.81771 12.1329 10.2366 12.3117 11.0051 12.4791L11.686 12.6198C13.2381 12.966 14.7597 13.3806 14.7597 15.218C14.7597 17.0554 12.8044 17.8999 11.1344 18.0406V20.0682H10.2214V18.0406C8.96227 18.0102 6.47059 17.413 6.47059 15.8837C6.45929 15.7283 6.4821 15.5723 6.53743 15.4267C6.59275 15.281 6.67926 15.1492 6.79087 15.0405C6.90249 14.9318 7.03652 14.8488 7.18359 14.7973C7.33065 14.7458 7.48719 14.7271 7.64225 14.7425C8.16341 14.7425 8.78347 15.1229 8.78347 15.6631C8.7873 15.7202 8.77819 15.7774 8.75684 15.8305C8.73392 15.9396 8.71867 16.0502 8.7112 16.1614C8.7112 16.869 9.95894 17.0249 10.4953 17.0249C11.3664 17.0249 12.6827 16.7587 12.6827 15.7049C12.6827 14.8566 11.9447 14.7729 11.2333 14.6169L10.2785 14.4115C8.69978 14.0311 6.77111 13.7991 6.77111 11.8247C6.77111 10.0026 8.56664 9.16188 10.2328 9.10102V7.19897H11.1344V9.07439V9.10102Z" fill="#2D2A26"/>
<path d="M10.0848 20.2203V18.2041C9.09577 18.1471 7.56273 17.8237 6.77908 16.9868C6.49471 16.6972 6.33379 16.3086 6.3302 15.9027C6.32144 15.7278 6.34903 15.553 6.41123 15.3893C6.47343 15.2256 6.56889 15.0766 6.69159 14.9517C6.95603 14.7173 7.301 14.5946 7.65402 14.6093C7.95994 14.6115 8.25764 14.7086 8.50614 14.887C8.63552 14.9752 8.742 15.093 8.81675 15.2306C8.89151 15.3682 8.93239 15.5217 8.936 15.6782C8.93991 15.7484 8.92822 15.8186 8.90177 15.8837C8.88375 15.9805 8.87105 16.0783 8.86372 16.1766C8.8639 16.2383 8.87762 16.2993 8.90391 16.3551C8.9302 16.411 8.96843 16.4604 9.01589 16.4999C9.14473 16.6036 9.29181 16.6823 9.44955 16.732C9.78883 16.8345 10.1412 16.887 10.4957 16.8879C10.9606 16.8962 11.4225 16.8108 11.8537 16.6369C12.0484 16.5737 12.2186 16.4515 12.3406 16.2872C12.4626 16.1229 12.5304 15.9247 12.5347 15.7201C12.547 15.5825 12.5173 15.4444 12.4493 15.3242C12.3814 15.2039 12.2785 15.1072 12.1543 15.0468C11.8498 14.9181 11.5302 14.8286 11.2032 14.7805L10.2446 14.5712C9.4252 14.4361 8.62545 14.2011 7.86325 13.8713C7.47714 13.6951 7.15246 13.4076 6.93083 13.0457C6.7092 12.6838 6.60072 12.2639 6.61931 11.8399C6.61563 11.4121 6.72133 10.9904 6.92638 10.6149C7.13144 10.2394 7.42905 9.92257 7.79097 9.6944C8.47798 9.26337 9.26354 9.01461 10.0734 8.97162V7.06958H11.2717V8.97162C12.12 9.05151 13.3906 9.37866 14.0411 10.1129C14.2805 10.3677 14.4162 10.7028 14.4215 11.0525C14.4268 11.3231 14.3289 11.5856 14.1476 11.7867C14.0504 11.8894 13.932 11.9698 13.8006 12.0224C13.6693 12.0749 13.5281 12.0983 13.3868 12.091C13.0764 12.093 12.7763 11.9804 12.5439 11.7747C12.3115 11.569 12.1633 11.2847 12.1276 10.9764C12.1174 10.8689 12.0837 10.765 12.0287 10.6721C11.9554 10.5859 11.8629 10.5181 11.7586 10.4742C11.3642 10.2888 10.9312 10.2001 10.4957 10.2156C10.1184 10.1987 9.74288 10.2772 9.4039 10.4438C9.28064 10.5138 9.17678 10.6134 9.10172 10.7336C9.02666 10.8538 8.98278 10.9909 8.97404 11.1323C8.97168 11.3203 9.04264 11.5018 9.17186 11.6383C9.31781 11.7881 9.49424 11.9049 9.68921 11.9807C10.1294 12.1371 10.5826 12.2542 11.0435 12.3306L11.7282 12.4714C12.4993 12.6028 13.241 12.8694 13.9194 13.2588C14.25 13.4682 14.5191 13.7617 14.6989 14.1093C14.8787 14.4569 14.9629 14.8461 14.9427 15.237C14.9405 15.6785 14.8236 16.1119 14.6036 16.4946C14.3835 16.8774 14.0678 17.1965 13.6873 17.4205C12.966 17.8522 12.1552 18.1125 11.3174 18.1813V20.2203H10.0848ZM7.65402 14.8946C7.37637 14.8782 7.10331 14.971 6.89321 15.1533C6.80227 15.2481 6.73147 15.3603 6.68505 15.4832C6.63864 15.6061 6.61757 15.7372 6.62312 15.8684C6.63145 16.1984 6.76788 16.5122 7.00353 16.7434C7.27372 17.0143 7.59592 17.2278 7.95074 17.3711C8.67475 17.6757 9.4482 17.8458 10.2332 17.8732H10.3816V19.9008H10.994V17.8998H11.131C11.9674 17.8467 12.7788 17.5936 13.4971 17.1618C13.8367 16.9662 14.1189 16.6846 14.3152 16.3454C14.5115 16.0062 14.6151 15.6213 14.6155 15.2294C14.6365 14.8884 14.5652 14.5481 14.4092 14.2442C14.2533 13.9403 14.0184 13.6841 13.7292 13.5023C13.0871 13.144 12.3885 12.8982 11.6635 12.7757L10.9826 12.6388C10.412 12.5094 9.46097 12.3953 8.94741 11.8513C8.76916 11.6591 8.67117 11.4059 8.67352 11.1438C8.67696 10.9476 8.73093 10.7556 8.83021 10.5863C8.9295 10.4171 9.07075 10.2763 9.24033 10.1775C9.62817 9.97884 10.0601 9.88197 10.4957 9.89602C10.9806 9.88045 11.4622 9.98224 11.8994 10.1927C12.0483 10.2541 12.1792 10.3523 12.2798 10.478C12.365 10.6084 12.4184 10.757 12.4358 10.9117C12.4589 11.1531 12.5734 11.3766 12.7558 11.5364C12.9382 11.6962 13.1748 11.7803 13.4172 11.7714C13.5107 11.7725 13.6035 11.7545 13.6898 11.7185C13.7762 11.6825 13.8543 11.6294 13.9194 11.5622C14.0493 11.4173 14.1187 11.228 14.1134 11.0334C14.1097 10.7584 14.0024 10.4948 13.8128 10.2954C13.5966 10.0649 13.3384 9.87772 13.052 9.74385C12.445 9.46617 11.793 9.29995 11.1272 9.25313H10.9864V7.37391H10.3854V9.27595H10.2408C9.43243 9.2925 8.64366 9.52782 7.95835 9.95688C7.63527 10.1571 7.36949 10.4374 7.18684 10.7707C7.0042 11.104 6.9109 11.4789 6.91603 11.8589C6.89691 12.2278 6.98987 12.5938 7.1827 12.9089C7.37553 13.2239 7.6592 13.4732 7.99639 13.624C8.73691 13.9386 9.51196 14.1646 10.3055 14.2973L11.2641 14.5066C11.6183 14.5586 11.9638 14.6584 12.2912 14.8033C12.4636 14.8885 12.6069 15.0229 12.703 15.1894C12.7991 15.3559 12.8438 15.5472 12.8314 15.7391C12.823 15.9973 12.7373 16.247 12.5854 16.4559C12.4335 16.6648 12.2223 16.8233 11.9793 16.9108C11.5088 17.1033 11.004 17.1978 10.4957 17.1885C10.0734 17.1885 9.26315 17.1162 8.81427 16.7206C8.73538 16.6536 8.67204 16.5702 8.62867 16.4763C8.58531 16.3823 8.56297 16.28 8.5632 16.1766C8.56874 16.0591 8.58273 15.9421 8.60505 15.8266V15.8038C8.62787 15.7467 8.60505 15.7695 8.62407 15.6973C8.62049 15.5879 8.59062 15.481 8.53698 15.3857C8.48335 15.2903 8.40752 15.2093 8.31594 15.1495C8.12059 15.0092 7.88691 14.9321 7.64642 14.9288L7.65402 14.8946Z" fill="#2D2A26"/>
<path d="M11.1344 9.10102C12.2186 9.16949 14.2804 9.74011 14.2804 11.0335C14.2874 11.1506 14.2698 11.2679 14.2287 11.3778C14.1877 11.4876 14.1241 11.5877 14.042 11.6716C13.96 11.7554 13.8613 11.8212 13.7523 11.8646C13.6433 11.908 13.5265 11.9281 13.4092 11.9237C13.1291 11.9339 12.8556 11.8375 12.6438 11.6539C12.432 11.4704 12.2977 11.2133 12.268 10.9346C12.2614 10.7997 12.2149 10.6698 12.1343 10.5614C12.0537 10.453 11.9426 10.3711 11.8153 10.3259C11.4004 10.1271 10.9438 10.0305 10.4839 10.0444C10.0772 10.0282 9.67301 10.1146 9.30844 10.2955C9.16237 10.3819 9.04069 10.5041 8.95484 10.6505C8.869 10.7969 8.82181 10.9627 8.81771 11.1324C8.81771 12.1329 10.2366 12.3117 11.0051 12.4791L11.686 12.6198C13.2381 12.966 14.7597 13.3806 14.7597 15.218C14.7597 17.0554 12.8044 17.8999 11.1344 18.0406V20.0682H10.2214V18.0406C8.96227 18.0102 6.47059 17.413 6.47059 15.8837C6.45929 15.7283 6.4821 15.5723 6.53743 15.4267C6.59275 15.281 6.67926 15.1492 6.79087 15.0405C6.90249 14.9318 7.03652 14.8488 7.18359 14.7973C7.33065 14.7458 7.48719 14.7271 7.64225 14.7425C8.16341 14.7425 8.78347 15.1229 8.78347 15.6631C8.7873 15.7202 8.77819 15.7774 8.75684 15.8305C8.73392 15.9396 8.71867 16.0502 8.7112 16.1614C8.7112 16.869 9.95894 17.0249 10.4953 17.0249C11.3664 17.0249 12.6827 16.7587 12.6827 15.7049C12.6827 14.8566 11.9447 14.7729 11.2333 14.6169L10.2785 14.4115C8.69978 14.0311 6.77111 13.7991 6.77111 11.8247C6.77111 10.0026 8.56664 9.16188 10.2328 9.10102V7.19897H11.1344V9.07439V9.10102Z" fill="white"/>
<path d="M14.6987 18.2499C14.7025 18.1208 14.7441 17.9956 14.8185 17.89C14.8929 17.7844 14.9967 17.703 15.117 17.656C15.2373 17.609 15.3688 17.5984 15.4951 17.6256C15.6214 17.6528 15.7369 17.7166 15.8272 17.8089C15.9175 17.9013 15.9786 18.0182 16.0029 18.1451C16.0272 18.2719 16.0137 18.4032 15.9639 18.5224C15.9142 18.6416 15.8305 18.7435 15.7232 18.8155C15.6159 18.8875 15.4898 18.9263 15.3607 18.9271C15.272 18.9287 15.1839 18.9122 15.1019 18.8785C15.0198 18.8449 14.9455 18.7948 14.8835 18.7314C14.8215 18.668 14.7732 18.5925 14.7414 18.5097C14.7096 18.427 14.6951 18.3385 14.6987 18.2499ZM15.3607 19.064C15.5201 19.061 15.675 19.011 15.8062 18.9204C15.9373 18.8297 16.0388 18.7024 16.098 18.5543C16.1571 18.4062 16.1712 18.244 16.1385 18.0879C16.1059 17.9319 16.0279 17.7889 15.9144 17.677C15.8009 17.565 15.6568 17.489 15.5003 17.4585C15.3438 17.4281 15.1818 17.4444 15.0346 17.5056C14.8873 17.5668 14.7614 17.67 14.6726 17.8024C14.5837 17.9348 14.5359 18.0905 14.5352 18.2499C14.5346 18.3579 14.5557 18.465 14.5972 18.5647C14.6386 18.6645 14.6996 18.7549 14.7765 18.8308C14.8534 18.9066 14.9447 18.9663 15.045 19.0064C15.1453 19.0464 15.2527 19.066 15.3607 19.064ZM15.1895 18.3032H15.3492L15.5965 18.7102H15.7563L15.49 18.2956C15.5231 18.2962 15.556 18.2899 15.5865 18.2771C15.6171 18.2644 15.6447 18.2454 15.6676 18.2215C15.6905 18.1975 15.7081 18.1691 15.7195 18.138C15.7308 18.1069 15.7356 18.0738 15.7335 18.0407C15.7335 17.8543 15.6231 17.7744 15.4025 17.7744H15.0601V18.7102H15.2009V18.3146L15.1895 18.3032ZM15.1895 18.1853V17.8923H15.3797C15.4786 17.8923 15.5813 17.9152 15.5813 18.0293C15.5813 18.1434 15.4748 18.1853 15.3568 18.1853H15.1895Z" fill="white"/>
</g>
<defs>
<clipPath id="clip0">
<rect width="24" height="20.9948" fill="white" transform="translate(0 0.5)"/>
</clipPath>
</defs>
</svg>
