<svg width="64" height="64" viewBox="0 0 64 64" fill="none" xmlns="http://www.w3.org/2000/svg">
<mask id="mask0" mask-type="alpha" maskUnits="userSpaceOnUse" x="18" y="14" width="28" height="33">
<path d="M18 14H46V47H18V14Z" fill="#C4C4C4"/>
</mask>
<g mask="url(#mask0)">
<path fill-rule="evenodd" clip-rule="evenodd" d="M32 18C24.8203 18 19 23.8203 19 31C19 38.1797 24.8203 44 32 44C39.1797 44 45 38.1797 45 31C45 23.8203 39.1797 18 32 18ZM17 31C17 22.7157 23.7157 16 32 16C40.2843 16 47 22.7157 47 31C47 39.2843 40.2843 46 32 46C23.7157 46 17 39.2843 17 31Z" fill="#25836B"/>
</g>
<path d="M42.3 6H21.7C19.7 6 18 7.7 18 9.7V14V47V54.3C18 56.3 19.7 58 21.7 58H42.3C44.3 58 46 56.3 46 54.3V47V14V9.7C46 7.7 44.3 6 42.3 6ZM21.7 8H42.3C43.2 8 44 8.8 44 9.7V12H20V9.7C20 8.8 20.8 8 21.7 8ZM44 47H20V14H44V47ZM42.3 56H21.7C20.8 56 20 55.2 20 54.3V49H44V54.3C44 55.2 43.2 56 42.3 56Z" fill="#757372"/>
<path d="M37.1 53H26.9C26.4 53 26 52.6 26 52.1V52C26 51.4 26.4 51 26.9 51H37C37.5 51 37.9 51.4 37.9 51.9V52C38 52.6 37.6 53 37.1 53Z" fill="#757372"/>
<path d="M32 11C32.5523 11 33 10.5523 33 10C33 9.44772 32.5523 9 32 9C31.4477 9 31 9.44772 31 10C31 10.5523 31.4477 11 32 11Z" fill="#757372"/>
<path d="M34.0978 35.8947C33.8044 36.0663 33.5403 36.0282 33.3056 35.7803C33.0513 35.5324 33.0416 35.2846 33.2763 35.0367C33.8631 34.4647 34.2738 34.0071 34.5086 33.6639C34.7433 33.3207 34.89 32.9489 34.9487 32.5485C35.0073 32.1862 34.8998 32.0051 34.6259 32.0051C34.0978 32.0051 33.6479 31.7858 33.2763 31.3472C32.9046 30.9087 32.7188 30.3462 32.7188 29.6598C32.7188 28.859 32.9535 28.2107 33.423 27.715C33.8924 27.2383 34.5183 27 35.3007 27C36.044 27 36.6797 27.2669 37.2078 27.8008C37.7359 28.3537 38 29.0974 38 30.0316C38 32.3387 36.6993 34.2931 34.0978 35.8947ZM27.3496 35.8947C27.0562 36.0663 26.7922 36.0282 26.5575 35.7803C26.3032 35.5324 26.3032 35.2846 26.5575 35.0367C27.1443 34.4647 27.555 34.0071 27.7897 33.6639C28.0244 33.3207 28.1614 32.9489 28.2005 32.5485C28.2592 32.1862 28.1516 32.0051 27.8778 32.0051C27.3496 32.0051 26.9095 31.7858 26.5575 31.3472C26.1858 30.9087 26 30.3462 26 29.6598C26 28.859 26.2347 28.2107 26.7042 27.715C27.1736 27.2383 27.7897 27 28.5526 27C29.3154 27 29.9609 27.2669 30.489 27.8008C30.9976 28.3537 31.2518 29.0974 31.2518 30.0316C31.2518 32.3387 29.9511 34.2931 27.3496 35.8947Z" fill="#25836B"/>
</svg>
