<svg width="24" height="24" viewBox="0 0 24 24" fill="none" xmlns="http://www.w3.org/2000/svg">
<g clip-path="url(#clip0)">
<path d="M0.65 9.65H23.35V19C23.35 19.7456 22.7456 20.35 22 20.35H2C1.25442 20.35 0.65 19.7456 0.65 19V9.65Z" fill="#FFF7CF" stroke="#C6A70E" stroke-width="1.3"/>
<path d="M24 8H25V7V5C25 3.34315 23.6569 2 22 2H2C0.343146 2 -1 3.34315 -1 5V7V8H0H24Z" fill="#C6A70E" stroke="white" stroke-width="2"/>
<path d="M7.81118 18C7.06376 18 6.46137 17.797 6.00399 17.3909C5.5522 16.9849 5.3263 16.417 5.3263 15.6872V12.8642C5.3263 12.738 5.27052 12.6173 5.15897 12.5021C5.05299 12.3813 5 12.2936 5 12.2387V12.2058C5 12.118 5.06414 12.0741 5.19243 12.0741H6.76535C6.89364 12.0741 6.95779 12.118 6.95779 12.2058V12.2387C6.95779 12.2936 6.89643 12.3813 6.77372 12.5021C6.65659 12.6173 6.59802 12.738 6.59802 12.8642V15.6872C6.59802 16.2634 6.7291 16.7051 6.99125 17.0123C7.25341 17.3141 7.61875 17.465 8.08728 17.465C8.45541 17.465 8.77613 17.3224 9.04944 17.037C9.32833 16.7462 9.46777 16.2963 9.46777 15.6872V12.8642C9.46777 12.738 9.41199 12.6173 9.30044 12.5021C9.18888 12.3813 9.1331 12.2936 9.1331 12.2387V12.2058C9.1331 12.118 9.19725 12.0741 9.32554 12.0741H10.2793C10.4076 12.0741 10.4718 12.118 10.4718 12.2058V12.2387C10.4718 12.2936 10.4104 12.3813 10.2877 12.5021C10.1706 12.6173 10.112 12.738 10.112 12.8642V15.7037C10.112 16.428 9.90283 16.9931 9.4845 17.3992C9.06617 17.7997 8.5084 18 7.81118 18Z" fill="#1F1D1C"/>
<path d="M11.5301 18C11.307 18 11.123 17.9424 10.9779 17.8272C10.8329 17.7064 10.7604 17.5364 10.7604 17.3169C10.7604 17.0974 10.8329 16.93 10.9779 16.8148C11.123 16.6941 11.307 16.6337 11.5301 16.6337C11.7477 16.6337 11.9289 16.6941 12.074 16.8148C12.219 16.93 12.2915 17.0974 12.2915 17.3169C12.2915 17.5364 12.219 17.7064 12.074 17.8272C11.9289 17.9424 11.7477 18 11.5301 18Z" fill="#1F1D1C"/>
<path d="M15.2782 18C14.5363 18 13.9367 17.8464 13.4794 17.5391C13.0276 17.2263 12.8017 16.8861 12.8017 16.5185C12.8017 16.3649 12.8435 16.2442 12.9272 16.1564C13.0108 16.0631 13.1363 16.0165 13.3037 16.0165C13.4543 16.0219 13.5825 16.0768 13.6885 16.1811C13.8001 16.2853 13.8949 16.4115 13.973 16.5597C14.0567 16.7078 14.1459 16.856 14.2407 17.0041C14.3355 17.1468 14.475 17.2702 14.6591 17.3745C14.8431 17.4787 15.0662 17.5309 15.3284 17.5309C15.624 17.5309 15.8583 17.4568 16.0312 17.3086C16.2097 17.155 16.2989 16.952 16.2989 16.6996C16.2989 16.4636 16.2348 16.2689 16.1065 16.1152C15.9838 15.9616 15.822 15.8464 15.6212 15.7695C15.426 15.6872 15.2085 15.6187 14.9686 15.5638C14.7288 15.5034 14.4889 15.4348 14.2491 15.358C14.0092 15.2812 13.7889 15.1852 13.5881 15.07C13.3873 14.9492 13.2228 14.7764 13.0945 14.5514C12.9718 14.321 12.9104 14.0412 12.9104 13.7119C12.9104 13.2071 13.1084 12.7956 13.5045 12.4774C13.9061 12.1591 14.4471 12 15.1276 12C15.7969 12 16.3519 12.1481 16.7925 12.4444C17.2388 12.7353 17.4591 13.0617 17.4535 13.4239C17.4535 13.7641 17.275 13.9342 16.918 13.9342C16.7507 13.9342 16.6113 13.8848 16.4997 13.786C16.3937 13.6818 16.3045 13.5583 16.232 13.4156C16.165 13.273 16.0925 13.1303 16.0144 12.9877C15.9364 12.845 15.8192 12.7243 15.663 12.6255C15.5124 12.5213 15.3256 12.4691 15.1025 12.4691C14.7957 12.4691 14.5614 12.5487 14.3997 12.7078C14.2379 12.8669 14.1571 13.07 14.1571 13.3169C14.1571 13.5528 14.2184 13.7503 14.3411 13.9095C14.4694 14.0686 14.6312 14.1893 14.8264 14.2716C15.0272 14.3539 15.2475 14.428 15.4873 14.4938C15.7272 14.5542 15.967 14.6255 16.2069 14.7078C16.4467 14.7846 16.6643 14.8807 16.8595 14.9959C17.0603 15.1111 17.222 15.2812 17.3447 15.5062C17.473 15.7311 17.5372 16.0027 17.5372 16.321C17.5372 16.8368 17.3196 17.2455 16.8846 17.5473C16.4495 17.8491 15.914 18 15.2782 18Z" fill="#1F1D1C"/>
<path d="M18.8101 18C18.587 18 18.4029 17.9424 18.2579 17.8272C18.1129 17.7064 18.0403 17.5364 18.0403 17.3169C18.0403 17.0974 18.1129 16.93 18.2579 16.8148C18.4029 16.6941 18.587 16.6337 18.8101 16.6337C19.0276 16.6337 19.2089 16.6941 19.3539 16.8148C19.4989 16.93 19.5714 17.0974 19.5714 17.3169C19.5714 17.5364 19.4989 17.7064 19.3539 17.8272C19.2089 17.9424 19.0276 18 18.8101 18Z" fill="#1F1D1C"/>
</g>
<defs>
<clipPath id="clip0">
<rect width="24" height="24" fill="white"/>
</clipPath>
</defs>
</svg>
