<svg xmlns="http://www.w3.org/2000/svg" viewBox="0 0 1024 1024"><circle fill="#FFF" cx="512" cy="512" r="512"/><path fill="#6F7ABA" d="M776 375.5c-2.2-2.9-2.8-6.2-2.7-9.7 1.6 3 2.1 6.4 2.7 9.7zM761.4 320.1c-2.1-2.7-2.7-5.8-2.4-9.1 1.4 2.9 2 6 2.4 9.1z"/><path fill="#9EBBE2" d="M251.8 347.1c.4 2.8 0 5.5-2.1 7.6.3-2.7.7-5.3 2.1-7.6z"/><path fill="#6F7ABA" d="M780.2 391.4c-1.6-2.1-2.2-4.4-1.9-7 1.3 2.2 1.7 4.6 1.9 7z"/><path fill="#9EBBE2" d="M246.9 365.7c.5 2.6 0 5-1.9 6.9.3-2.3.6-4.7 1.9-6.9z"/><path fill="#6F7ABA" d="M785.7 412.2c-1.7-2-2.4-4.3-1.9-7 1.2 2.2 1.6 4.6 1.9 7zM770.6 354.7c-1.7-2-2.3-4.4-1.9-7 1.2 2.2 1.6 4.6 1.9 7z"/><path fill="#9EBBE2" d="M232.9 419c.3 2.6.1 5-1.9 7 .2-2.5.6-4.8 1.9-7zM260.7 313.1c.8 2.7.1 5-1.9 7 .4-2.4.7-4.8 1.9-7zM227.4 439.8c1.2 1.8.1 3-1.1 4.2 0-1.5.2-3 1.1-4.2zM237.1 403.1c.6 1.7.5 3.2-1.2 4.2-.2-1.6.3-2.9 1.2-4.2zM255.8 331.8c.6 1.7.5 3.2-1.2 4.2-.2-1.6.3-2.9 1.2-4.2z"/><path fill="#6F7ABA" d="M789.8 428.1c-1.4-1.1-1.6-2.6-1.1-4.2.9 1.2 1.3 2.7 1.1 4.2zM765.6 336c-1.4-1.1-1.6-2.6-1.1-4.2.9 1.3 1.3 2.7 1.1 4.2z"/><path fill="#9EBBE2" d="M233.7 416.3c1 .9.3 1.2-.5 1.4-.2-.6-.1-1.1.5-1.4zM235.7 408.6c1 1 .3 1.2-.6 1.4-.1-.5.1-1 .6-1.4zM230.9 427.3c1.1 1 .3 1.2-.5 1.4-.2-.6-.1-1 .5-1.4z"/><path fill="#6F7ABA" d="M790.6 430.8c-.9-.2-1.5-.6-.5-1.4.5.4.7.9.5 1.4z"/><path fill="#9EBBE2" d="M229.6 432.2c.9 1 .1 1.2-.6 1.4-.2-.6 0-1.1.6-1.4z"/><path fill="#6F7ABA" d="M783.5 403.9c-.7-.3-1.2-.7-.4-1.4.5.3.7.7.4 1.4z"/><path fill="#9EBBE2" d="M237.8 400.3c1 .9.3 1.2-.5 1.4-.2-.5-.1-1 .5-1.4z"/><path fill="#6F7ABA" d="M781 394.1c-.9-.2-1.5-.5-.5-1.4.4.4.6.9.5 1.4z"/><path fill="#9EBBE2" d="M239.9 392.7c1 .9.3 1.2-.5 1.4-.2-.6 0-1 .5-1.4zM240.6 389.9c1 .9.3 1.2-.5 1.4-.2-.5 0-1 .5-1.4z"/><path fill="#6F7ABA" d="M793.8 443.3c-.7-.3-1.1-.7-.3-1.4.5.4.7.8.3 1.4z"/><path fill="#9EBBE2" d="M264.1 300.6c1.1 1 .3 1.2-.5 1.4-.2-.5-.1-1 .5-1.4zM262.8 305.5c.9.9.2 1.2-.6 1.4-.1-.6 0-1.1.6-1.4z"/><path fill="#6F7ABA" d="M758.7 309.7c-.8-.2-1.4-.5-.5-1.4.5.3.8.8.5 1.4z"/><path fill="#9EBBE2" d="M258.6 321.4c1 1 .2 1.2-.6 1.4-.1-.6 0-1.1.6-1.4z"/><path fill="#6F7ABA" d="M762.9 325.6c-.8-.2-1.5-.5-.6-1.4.6.4.8.8.6 1.4z"/><path fill="#9EBBE2" d="M257.3 326.3c.9.9.2 1.2-.5 1.4-.3-.6-.1-1.1.5-1.4z"/><path fill="#6F7ABA" d="M764.2 330.5c-.8-.3-1.3-.6-.5-1.4.6.3.8.8.5 1.4z"/><path fill="#9EBBE2" d="M254.4 337.3c1 .9.3 1.2-.6 1.4-.1-.5.1-1 .6-1.4z"/><path fill="#6F7ABA" d="M766.4 338.8c-.9-.2-1.4-.6-.5-1.4.4.3.6.8.5 1.4zM767.1 341.5c-.8-.2-1.5-.5-.6-1.4.5.4.8.8.6 1.4zM768.4 346.4c-.8-.2-1.4-.6-.5-1.4.5.3.8.8.5 1.4zM771.3 357.5c-.9-.2-1.5-.5-.5-1.4.4.3.6.8.5 1.4z"/><path fill="#9EBBE2" d="M248.2 360.9c1 .9.2 1.2-.6 1.4-.1-.6.1-1.1.6-1.4z"/><path fill="#6F7ABA" d="M772.6 362.3c-.8-.2-1.4-.5-.6-1.4.5.4.8.8.6 1.4z"/><path fill="#9EBBE2" d="M244.1 376.8c.9 1 .2 1.2-.6 1.4-.1-.6 0-1.1.6-1.4z"/><path fill="#6F7ABA" d="M776.8 378.2c-.8-.2-1.5-.5-.6-1.4.5.4.7.8.6 1.4zM778.1 383.1c-.8-.2-1.4-.6-.5-1.4.4.3.7.8.5 1.4z"/><path fill="#9EBBE2" d="M242 384.4c1 .8.4 1.2-.4 1.4-.3-.5-.2-1 .4-1.4zM241.2 387.2c1 .8.4 1.2-.4 1.4-.2-.6-.1-1.1.4-1.4z"/><path fill="#86A9D8" d="M265.1 718.7l.3.9-.3-.9z"/><path fill="#EBECEC" d="M692.8 590.8c-6.8 6.8-13.4 13.4-20.1 20.2-3.8-3.1-8-6-12.8-7.8-23.7-8.7-49.5 6-55.2 31.4-6.4 28.7 18 55.1 47.2 51.1 16.4-2.2 27.6-11.2 31.3-25.2.2-.6.3-1.3.5-2.5h-37.9v-26.9c2.7-.6 61.5-.8 66.6-.2 1.3 5.6 1.7 11.5 1.4 17.3-.8 15.6-5 30-14.9 42.3-10.8 13.5-25.1 20.8-41.9 23.1-22.4 3.1-42.5-2.5-59.2-17.9-17.9-16.5-25.5-37.3-22.4-61.4 3-23.8 15.6-41.4 36.3-53.3 24.7-14.2 59.2-10.4 80 8.6.4.4.7.8 1.1 1.2z"/><path fill="none" d="M645.8 631.2v26.9h37.9c-.2 1.1-.3 1.8-.5 2.5-3.8 14-14.9 22.9-31.3 25.2-29.2 4-53.6-22.5-47.2-51.1 5.6-25.4 31.5-40.1 55.2-31.4 4.8 1.8 8.9 4.6 12.8 7.8 6.8-6.8 13.3-13.4 20.1-20.2-.3-.4-.6-.8-.9-1.1-20.8-19.1-55.4-22.8-80-8.6-20.7 11.9-33.4 29.5-36.3 53.3-3 24.2 4.5 44.9 22.4 61.4 16.7 15.4 36.8 21 59.2 17.9 16.8-2.3 31.1-9.6 41.9-23.1 9.9-12.4 14.1-26.8 14.9-42.3.3-5.8-.1-11.7-1.4-17.3-5.3-.7-64.1-.5-66.8.1z"/><path fill="#5381DE" d="M755.3 507.6c-6.4 1.7-12.4 4.6-19.1 5.8-17.7 3.2-34.3.3-49.7-8.9-18.3-10.9-29.1-27.3-33.3-48-.5-2.5-.3-5.2-1.5-7.6-1.2 14.9-6.4 28.1-15.9 39.6-11.8 14.3-27 22.8-45.3 25.1-21.9 2.8-41.3-3.3-57.6-18.5-11.2-10.4-18.4-23.1-21.4-38.1-.5-2.5-.7-5-1.1-7.5-1.5 5.4-2.3 10.9-4 16.3-2.7 8.4-6.8 16.1-12.6 22.8-10 11.7-22.2 20.1-37.3 23.5-23 5.2-44.1 1-62.7-14.1-13.1-10.6-20.9-24.5-24.5-40.8-.6-3-.5-6.1-1.5-9-2.1 19.4-9.6 36.1-24.6 48.9-11.3 9.8-24.5 15.4-39.5 16.9-10.7 1-20.8-.3-30.7-3.8l239.4 243.1h204.9c20.2 0 37.9-17.8 37.9-38.1V511.4c.2-1.3.1-2.5.1-3.8zm-41.5 140.7c-.8 15.6-5 30-14.9 42.3-10.8 13.5-25.1 20.8-41.9 23.1-22.4 3.1-42.5-2.5-59.2-17.9-17.9-16.5-25.5-37.3-22.4-61.4 3-23.8 15.6-41.4 36.3-53.3 24.7-14.2 59.2-10.4 80 8.6.3.3.6.7.9 1.1-6.8 6.8-13.4 13.4-20.1 20.2-3.8-3.1-8-6-12.8-7.8-23.7-8.7-49.5 6-55.2 31.4-6.4 28.7 18 55.1 47.2 51.1 16.4-2.2 27.6-11.2 31.3-25.2.2-.6.3-1.3.5-2.5h-37.9v-26.9c2.7-.6 61.5-.8 66.6-.2 1.5 5.7 1.9 11.6 1.6 17.4z"/><path fill="#588CEE" d="M267.7 508c-.9-.4-1.8-.5-2.7-.3 0 .2-.1.5-.1.7v207.9c0 .8.1 1.6.1 2.4l.3.9c0 3.3 1.4 6.4 2.5 9.4 4.9 13.9 20 24.3 34.8 24.3h209.9L273.2 510.2c-1.9-.7-3.7-1.4-5.5-2.2z"/><path fill="#4356B0" d="M793.5 441.9c-.3.3-.4.5-.4.7H651.8v-.5c-1.1-9.8-2.3-19.6-3.6-29.4-1.5-11.7-3.1-23.4-4.6-35.2-1.5-11.3-2.9-22.5-4.3-33.8-1.7-13.1-3.3-26.2-5.1-39.3-.4-3.1-.9-6.2-1.3-9.4-1.3-9.4-2.6-18.8-3.5-28.2-.2-.3-.4-.5-.6-.8 0-1.1 0-2.3.1-3.4 30.7 0 61.5-.5 92.2.4 13.3.4 23.4 8.4 29.8 20.1 3.2 5.8 4.8 12.4 5.8 19 .5 2.1 1 4.1 1.5 6.2-.9.9-.2 1.2.5 1.4.1.4.2.9.3 1.3-.2 3.3.3 6.4 2.4 9.1.3 1.4.6 2.7.9 4.1-.9.9-.2 1.2.5 1.4.3 1.1.5 2.3.8 3.4-.9.8-.3 1.1.5 1.4.1.4.2.9.3 1.3-.6 1.6-.3 3.1 1.1 4.2.1.4.2.9.3 1.3-.9.9-.4 1.2.5 1.4.1.5.1.9.2 1.3-.9.9-.3 1.2.6 1.4.2 1.2.5 2.3.8 3.4-.9.8-.3 1.2.5 1.4.1.4.2.9.3 1.3-.4 2.6.2 4.9 1.9 7 .1.4.2.9.2 1.3-1 .9-.3 1.2.5 1.4.2 1.1.5 2.3.8 3.4-.9.9-.2 1.2.6 1.4.3 1.1.5 2.3.8 3.5-.2 3.5.4 6.8 2.7 9.7.1.5.1.9.2 1.3-.9.9-.3 1.2.6 1.4.2 1.2.5 2.3.8 3.4-.8.8-.2 1.2.5 1.4.1.4.2.9.2 1.3-.4 2.6.3 4.9 1.9 7 .1.4.2.9.2 1.3-1 .9-.4 1.2.5 1.4.7 2.8 1.4 5.5 2.1 8.3-.8.8-.3 1.1.5 1.4.1.4.2.9.3 1.3-.5 2.6.1 4.9 1.9 7l3 11.7c-.6 1.6-.3 3.1 1.1 4.2.1.4.2.9.3 1.3-.9.9-.4 1.2.5 1.4.8 4.3 1.7 8 2.7 11.7z"/><path fill="#4051A1" d="M793.1 442.6H651.8c.2 2.1-.1 4.2-.1 6.3 1.2 2.4 1 5.1 1.5 7.6 4.2 20.8 15 37.1 33.3 48 15.3 9.2 32 12 49.7 8.9 6.6-1.2 12.6-4.1 19.1-5.8.4-1.2 1.5-1.6 2.5-2.2 14-7.8 24.1-19 30.4-33.7 3.9-9 6.5-18.4 5.6-28.4-.4-.2-.7-.4-.7-.7z"/><path fill="#80A1DE" d="M368.3 442.6H227.6c-.3.5-.7.9-1.2 1.4-.5 2.4 0 4.8.3 7.2 3.1 23.9 15 42.1 35.9 54.2 1 .6 2.1 1 2.4 2.3.9-.2 1.8-.1 2.7.3 11.5 5.1 23.5 7.1 36.2 5.9 15.1-1.4 28.2-7.1 39.5-16.9 14.9-12.8 22.5-29.5 24.6-48.9 0-1.8.1-3.7.3-5.5z"/><path fill="#87ADF1" d="M391 266h.3c-1.8 13.2-3.6 26.4-5.3 39.5-1.8 13.9-3.4 27.8-5.2 41.6-1.7 13.5-3.6 27.1-5.3 40.6-1.5 11.5-3.2 22.9-4.5 34.4-.2 2.2-.6 4.3-.9 6.5-.7 4.6-1.4 9.3-1.8 13.9H227.6c.5-.8.6-1.7-.1-2.8 0-2.2 1-4.1 1.5-6.2.8-.2 1.5-.4.6-1.4-.3-1.2.5-2.3.7-3.5.9-.2 1.6-.5.5-1.4 0-.5.1-.9.1-1.4 2.1-1.9 2.2-4.4 1.9-7 .1-.4.2-.9.2-1.3.8-.2 1.5-.5.5-1.4l1.5-6.2c.9-.2 1.6-.5.6-1.4.1-.4.1-.9.2-1.3 1.7-1 1.8-2.5 1.2-4.2.1-.4.2-.9.3-1.3.8-.2 1.5-.5.5-1.4.5-2.1 1-4.1 1.5-6.2.8-.2 1.5-.5.5-1.4 0-.5.1-.9.1-1.4.9-.2 1.6-.5.5-1.4.1-.5.2-.9.2-1.3.8-.3 1.4-.6.4-1.4.1-.4.2-.9.3-1.3.8-.3 1.4-.6.4-1.4 0-2.2 1-4.2 1.5-6.2.8-.2 1.5-.5.6-1.4.3-1.4.6-2.8.9-4.1 1.9-2 2.5-4.3 1.9-6.9-.2-1.2.5-2.3.8-3.5.8-.2 1.5-.5.6-1.4.5-2.1 1-4.2 1.4-6.2 2.1-2.2 2.5-4.8 2.1-7.6.1-2.9 1.6-5.5 2.1-8.3.8-.2 1.6-.5.6-1.4 0-.4.1-.9.2-1.3 1.7-1 1.8-2.5 1.2-4.2.3-1.4.6-2.7 1-4.1.8-.2 1.4-.5.6-1.4-.2-1.3.5-2.3.8-3.5.8-.2 1.6-.4.6-1.4 0-.5.1-.9.1-1.4 2-2 2.7-4.2 1.9-7 .5-2.1 1-4.1 1.6-6.2.8-.2 1.5-.5.6-1.4-.2-1.3.5-2.3.7-3.4.9-.2 1.6-.5.5-1.4 0-.5.1-.9.2-1.3 2.2-18.8 14.4-32.3 32.6-36.4 2-.4 4.1-.4 6.2-.4h86.8c.6 0 1.1.1 1.7.2-.3 1.1-.5 2.2-.8 3.3l.3-.2zM651.8 442.6H510c-.1-7.6-.1-15.2-.1-22.8V266h.6c0-1.1-.1-2.2-.1-3.3.9-.1 1.8-.2 2.7-.2h114c.6 0 1.2.1 1.7.1 0 1.1-.1 2.3-.1 3.4.2.3.4.5.6.8.9 9.4 2.2 18.8 3.5 28.2.4 3.1.9 6.2 1.3 9.4l5.1 39.3c1.5 11.3 2.9 22.6 4.3 33.8 1.5 11.7 3.1 23.4 4.6 35.2 1.3 9.8 2.5 19.6 3.6 29.4.1.1.1.3.1.5z"/><path fill="#80A1DE" d="M651.8 442.6H510v1.4c0 1.8.3 3.6.5 5.5.4 2.5.6 5 1.1 7.5 3 15 10.1 27.7 21.4 38.1 16.3 15.2 35.7 21.3 57.6 18.5 18.3-2.3 33.5-10.8 45.3-25.1 9.5-11.5 14.7-24.8 15.9-39.6-.1-2.1.2-4.2 0-6.3z"/><path fill="#86A9D8" d="M632.9 295c-1.3-9.4-2.6-18.8-3.5-28.2.9 9.4 2.2 18.8 3.5 28.2z"/><path fill="#4051A1" d="M510 442.6H368.3c-.2 1.8-.3 3.7-.3 5.5 1 2.9.9 6.1 1.5 9 3.5 16.4 11.4 30.2 24.5 40.8 18.5 15.1 39.7 19.3 62.7 14.1 15.1-3.4 27.3-11.8 37.3-23.5 5.7-6.7 9.8-14.3 12.6-22.8 1.7-5.3 2.5-10.9 4-16.3-.2-1.8-.5-3.6-.5-5.5-.1-.3-.1-.8-.1-1.3z"/><path fill="#4356B0" d="M509.9 419.8c0 7.6 0 15.2.1 22.8H368.3c.4-4.7 1.2-9.3 1.8-13.9.3-2.2.6-4.3.9-6.5 1.3-11.5 3-23 4.5-34.4 1.8-13.5 3.6-27 5.3-40.6 1.8-13.9 3.4-27.8 5.2-41.6 1.7-13.2 3.5-26.4 5.3-39.5h-.6c.3-1.1.6-2.2.8-3.3 1.4-.1 2.8-.2 4.1-.2h110.6c1.4 0 2.8.1 4.1.2 0 1.1.1 2.2.1 3.3h-.6c.1 51.2.1 102.5.1 153.7z"/><path fill="#4857A6" d="M368.3 442.6a50.68 50.68 0 010 0zM368.3 442.6c.4-4.7 1.1-9.3 1.8-13.9-.7 4.6-1.4 9.2-1.8 13.9z"/></svg>