<svg width="64" height="64" viewBox="0 0 64 64" fill="none" xmlns="http://www.w3.org/2000/svg">
<path d="M20.8117 14.5761C22.3765 13.6373 23.7848 13.8459 25.0367 15.202C26.3928 16.5582 26.445 17.9144 25.1932 19.2705C22.0636 22.4001 19.8729 24.9038 18.621 26.7815C17.3692 28.6593 16.5868 30.6935 16.2738 32.8842C15.9609 34.8663 16.5346 35.8573 17.9951 35.8573C20.8117 35.8573 23.2111 37.057 25.1932 39.4563C27.1752 41.8557 28.1663 44.9331 28.1663 48.6886C28.1663 53.07 26.9144 56.6169 24.4108 59.3292C21.9071 61.9372 18.5689 63.2412 14.3961 63.2412C10.4319 63.2412 7.04157 61.7807 4.22494 58.8597C1.40831 55.8345 0 51.766 0 46.6544C0 34.0317 6.93725 23.339 20.8117 14.5761ZM56.802 14.5761C58.3667 13.6373 59.7751 13.8459 61.0269 15.202C62.383 16.5582 62.383 17.9144 61.0269 19.2705C57.8973 22.4001 55.7066 24.9038 54.4548 26.7815C53.2029 28.6593 52.4727 30.6935 52.2641 32.8842C51.9511 34.8663 52.5249 35.8573 53.9853 35.8573C56.802 35.8573 59.1491 37.057 61.0269 39.4563C63.009 41.8557 64 44.9331 64 48.6886C64 53.07 62.7482 56.6169 60.2445 59.3292C57.7408 61.9372 54.4548 63.2412 50.3863 63.2412C46.3179 63.2412 42.8753 61.7807 40.0587 58.8597C37.3464 55.8345 35.9902 51.766 35.9902 46.6544C35.9902 34.0317 42.9275 23.339 56.802 14.5761Z" fill="#F5F3F1"/>
</svg>
