<svg xmlns="http://www.w3.org/2000/svg" fill="none" viewBox="0 0 24 24"><g clip-path="url(#clip0)"><path fill="#185396" d="M15.363 2.705l-.577.128-.258 1.38-.384.546.289 1.09-.611 1.029-1.124-1.22.514-.514-1.796-.77-.9 1.22.032.673 1.927 1.574-1.51 1.251-1.509-.834-.192-.514-2.472.48-.384.707.064.547-.547.128-.32 1.252.93.547-.45.898-.8.673.93.354.096 1.348.803-.45-.322 1.092-1.283.738-2.118.064-1.708-.374-1.056-.536-.629.408 3.713 1.594 3.723-.194 1.446.066.673-.931 1.028-.097 1.38-.643.962.194.033.481-1.22.032-1.027.61-.289.738 1.797.32 1.028-.415 1.027.095.256 1.316.803.964.899.898 1.284 2.247v-2.119l-.578-.93 7.062-9.855-.803-1.541-.706-.481-.481-.932-.417-.48-.193-1.06-.45-.353-.192-1.155h-.834l-1.54-.706-2.088.095-.931-.673z"/></g><defs><clipPath id="clip0"><path fill="#fff" d="M0 0h24v24H0z"/></clipPath></defs></svg>