<svg width="64" height="64" viewBox="0 0 64 64" fill="none" xmlns="http://www.w3.org/2000/svg">
<path d="M55 15H46V13C46 11.897 45.103 11 44 11H38C38 9.346 36.654 8 35 8H29C27.346 8 26 9.346 26 11H19C17.897 11 17 11.897 17 13V15H9C7.346 15 6 16.346 6 18V47V49V53C6 54.654 7.346 56 9 56H55C56.654 56 58 54.654 58 53V49V47V18C58 16.346 56.654 15 55 15ZM44 13V15H38V13H44ZM28 11C28 10.448 28.448 10 29 10H35C35.552 10 36 10.448 36 11V13V19H28V11ZM19 13H26V15H19V13ZM55 54H9C8.448 54 8 53.552 8 53V51.816C8.314 51.928 8.648 52 9 52H55C55.352 52 55.686 51.928 56 51.816V53C56 53.552 55.552 54 55 54ZM56 49C56 49.552 55.552 50 55 50H9C8.448 50 8 49.552 8 49V47V18C8 17.448 8.448 17 9 17H26V21H38V17H55C55.552 17 56 17.448 56 18V47V49Z" fill="#757372"/>
<path fill-rule="evenodd" clip-rule="evenodd" d="M19 13H26V11H19C17.897 11 17 11.897 17 13V15H19V13ZM38 13V11H44C45.103 11 46 11.897 46 13V15H44V13H38Z" fill="#A57F00"/>
<path fill-rule="evenodd" clip-rule="evenodd" d="M36 11C36 10.4506 35.5494 10 35 10H29C28.4506 10 28 10.4506 28 11V19H36V11ZM38 11C38 9.346 36.654 8 35 8H29C27.346 8 26 9.346 26 11V21H38V11Z" fill="#A57F00"/>
<path d="M21.5 38.3571C22.7172 38.3571 23.8602 38.0625 24.8893 37.5714H25.3C28.4469 37.5714 31 40.1054 31 43.2286V44.6429C31 45.9442 29.9362 47 28.625 47H14.375C13.0638 47 12 45.9442 12 44.6429V43.2286C12 40.1054 14.5531 37.5714 17.7 37.5714H18.1107C19.1448 38.0625 20.2828 38.3571 21.5 38.3571Z" fill="#D7FFF4"/>
<path d="M27.0417 30.5C27.0417 33.5397 24.5628 36 21.5 36C18.4372 36 15.9583 33.5397 15.9583 30.5C15.9583 27.4603 18.4372 25 21.5 25C24.5628 25 27.0417 27.4603 27.0417 30.5Z" fill="#D7FFF4"/>
<path fill-rule="evenodd" clip-rule="evenodd" d="M25.317 39.5715C24.1577 40.0616 22.8721 40.3571 21.5 40.3571C20.1254 40.3571 18.8438 40.0606 17.6843 39.5715C15.6351 39.5799 14 41.2292 14 43.2286V44.6429C14 44.8254 14.1541 45 14.375 45H28.625C28.8459 45 29 44.8254 29 44.6429V43.2286C29 41.2297 27.3656 39.5806 25.317 39.5715ZM24.8893 37.5714C23.8602 38.0625 22.7172 38.3571 21.5 38.3571C20.2828 38.3571 19.1448 38.0625 18.1107 37.5714H17.7C14.5531 37.5714 12 40.1054 12 43.2286V44.6429C12 45.9442 13.0638 47 14.375 47H28.625C29.9362 47 31 45.9442 31 44.6429V43.2286C31 40.1054 28.4469 37.5714 25.3 37.5714H24.8893ZM21.5 34C23.4724 34 25.0417 32.421 25.0417 30.5C25.0417 28.579 23.4724 27 21.5 27C19.5276 27 17.9583 28.579 17.9583 30.5C17.9583 32.421 19.5276 34 21.5 34ZM21.5 36C24.5628 36 27.0417 33.5397 27.0417 30.5C27.0417 27.4603 24.5628 25 21.5 25C18.4372 25 15.9583 27.4603 15.9583 30.5C15.9583 33.5397 18.4372 36 21.5 36Z" fill="#25836B"/>
<path d="M38.5 26.5V25.5H51.5V26.5H38.5Z" fill="#419B81" stroke="#25836B"/>
<path fill-rule="evenodd" clip-rule="evenodd" d="M52 25V27H38V25H52Z" fill="#757372"/>
<path d="M38.5 30.5V29.5H51.5V30.5H38.5Z" fill="#419B81" stroke="#25836B"/>
<path fill-rule="evenodd" clip-rule="evenodd" d="M52 29V31H38V29H52Z" fill="#757372"/>
<path d="M38.5 34.5V33.5H49.5V34.5H38.5Z" fill="#419B81" stroke="#25836B"/>
<path fill-rule="evenodd" clip-rule="evenodd" d="M50 33V35H38V33H50Z" fill="#757372"/>
<path d="M38.5 38.5V37.5H47.5V38.5H38.5Z" fill="#419B81" stroke="#25836B"/>
<path fill-rule="evenodd" clip-rule="evenodd" d="M48 37V39H38V37H48Z" fill="#757372"/>
<path d="M38.5 45.5V43.5H39.5V45.5H38.5Z" fill="#419B81" stroke="#25836B"/>
<path fill-rule="evenodd" clip-rule="evenodd" d="M40 43V46H38V43H40Z" fill="#CF0A2C"/>
<path d="M42.5 45.5V43.5H43.5V45.5H42.5Z" fill="#419B81" stroke="#25836B"/>
<path fill-rule="evenodd" clip-rule="evenodd" d="M44 43V46H42V43H44Z" fill="#CF0A2C"/>
<path d="M46.5 45.5V43.5H47.5V45.5H46.5Z" fill="#419B81" stroke="#25836B"/>
<path fill-rule="evenodd" clip-rule="evenodd" d="M48 43V46H46V43H48Z" fill="#CF0A2C"/>
<path d="M50.5 45.5V43.5H51.5V45.5H50.5Z" fill="#419B81" stroke="#25836B"/>
<path fill-rule="evenodd" clip-rule="evenodd" d="M52 43V46H50V43H52Z" fill="#CF0A2C"/>
<path d="M34 17H30V13C30 12.448 30.448 12 31 12H33C33.552 12 34 12.448 34 13V17Z" fill="#A57F00"/>
</svg>
