<svg width="24" height="24" viewBox="0 0 24 24" fill="none" xmlns="http://www.w3.org/2000/svg">
<path d="M11.9999 2.40039C6.6983 2.40039 2.3999 6.69879 2.3999 12.0004C2.3999 17.302 6.6983 21.6004 11.9999 21.6004C17.3015 21.6004 21.5999 17.302 21.5999 12.0004C21.5999 6.69879 17.3015 2.40039 11.9999 2.40039ZM11.9999 4.00039C16.4111 4.00039 19.9999 7.58919 19.9999 12.0004V13.2004C19.9999 14.7444 18.7439 16.0004 17.1999 16.0004C16.2351 16.0004 15.3828 15.5101 14.8796 14.7645C14.1508 15.5229 13.1319 16.0004 11.9999 16.0004C9.7943 16.0004 7.9999 14.206 7.9999 12.0004C7.9999 9.79479 9.7943 8.00039 11.9999 8.00039C14.2055 8.00039 15.9999 9.79479 15.9999 12.0004V13.2004C15.9999 13.862 16.5383 14.4004 17.1999 14.4004C17.8615 14.4004 18.3999 13.862 18.3999 13.2004V12.0004C18.3999 8.47159 15.5287 5.60039 11.9999 5.60039C8.4711 5.60039 5.5999 8.47159 5.5999 12.0004C5.5999 15.5292 8.4711 18.4004 11.9999 18.4004C12.4423 18.4004 12.7999 18.7588 12.7999 19.2004C12.7999 19.642 12.4423 20.0004 11.9999 20.0004C7.5887 20.0004 3.9999 16.4116 3.9999 12.0004C3.9999 7.58919 7.5887 4.00039 11.9999 4.00039ZM11.9999 9.60039C11.3634 9.60039 10.7529 9.85325 10.3028 10.3033C9.85276 10.7534 9.5999 11.3639 9.5999 12.0004C9.5999 12.6369 9.85276 13.2474 10.3028 13.6974C10.7529 14.1475 11.3634 14.4004 11.9999 14.4004C12.6364 14.4004 13.2469 14.1475 13.697 13.6974C14.147 13.2474 14.3999 12.6369 14.3999 12.0004C14.3999 11.3639 14.147 10.7534 13.697 10.3033C13.2469 9.85325 12.6364 9.60039 11.9999 9.60039V9.60039Z" fill="#757372"/>
</svg>
