<svg xmlns="http://www.w3.org/2000/svg" viewBox="0 0 56 56"><g fill="#fff"><path d="M1.7 34.8c0 2 .3 4.1.9 6 .3 1.2.8 2.5 1.4 3.6.3.5.6 1.1 1 1.7.7 1.1 1.5 2 2.4 3 2.1 2.2 4.8 3.9 7.7 4.9s6 1.3 9 .9 5.9-1.6 8.4-3.4 4.6-4.1 6.1-6.8 2.3-5.7 2.5-8.9c.1-3.1-.4-6.2-1.7-9-.5-1.1-.5-1.1-1.1-2 0 0 2.1-1.8 1.8-2.7-.6-1.5-3.2-3.9-3.2-3.9s-1.8-2.2-3.4-2.7c-1.3-.4-3.1 1.8-3.1 1.8-1.2-.7-1.9-1-3.4-1.4v-1.2c0-1-.4-1.9-1.1-2.6S24.3 11 23.3 11h-4c-1 0-1.9.4-2.6 1.1-.7.7-1.1 1.7-1.1 2.6v1.2c-3.8 1.1-7.2 3.5-9.7 6.7-2.7 3.3-4.2 7.7-4.2 12.2z"/><path d="M30.9 1.9c15.8-.2 23.5 9.6 23.5 23.2 0 .4-.3.7-.7.7H40.2c-.4 0-.7-.4-.7-.7 0-6.1-4.6-9.2-8.6-9.2-.4 0-.7-.4-.7-.7V2.7c0-.5.2-.7.7-.8z"/></g><path fill="#25836b" d="M37.4 22.5c-.6.6-1.5.6-1.9.2l-2.3-2.3c-.4-.4-.4-1.2 0-1.7l.2-.2c.4-.4 1.2-.4 1.7 0l2.3 2.3c.4.7.4 1.3 0 1.7z"/><ellipse cx="21.2" cy="34.9" fill="#fff" rx="17.1" ry="17"/><path fill="#abffe8" d="M32.1 48.3c-2.9 2.3-6.5 3.9-10.7 3.9-9.6 0-17.3-7.6-17.3-17s7.7-17 17.3-17h.2v10.4h-.2c-3.8 0-6.9 3.1-6.9 6.8s3.1 6.8 6.9 6.8c1.5 0 2.7-.4 4-1.2l6.7 7.3z"/><path fill="#25836b" d="M24.9 18.2v-2.3c0-1-.8-1.7-1.7-1.7h-4.4c-1 0-1.7.8-1.7 1.7v2.5C9.5 20.2 3.9 27.1 3.9 35.2c0 9.6 7.7 17.3 17.3 17.3s17.3-7.7 17.3-17.3c.2-8.3-5.7-15.4-13.6-17zM32 44.6l-7.9-7.9c.2-.4.4-.8.4-1.5 0-1.7-1.5-3.1-3.1-3.1s-3.1 1.5-3.1 3.1c0 1.7 1.5 3.1 3.1 3.1h.6l8.1 8.1c-2.5 1.9-5.6 3.1-8.9 3.1-7.9 0-14.4-6.5-14.4-14.4s6.7-14.4 14.6-14.4 14.4 6.5 14.4 14.4c0 3.7-1.5 7-3.8 9.5zM32.1 11.2v2.5s0 .4.4.4c4.8 0 10 2.5 10 8.9 0 .4.4.4.4.4h2.5s.4 0 .4-.4c0-8.1-6.5-11.9-13.1-11.9-.6-.1-.6.1-.6.1z"/><path fill="#25836b" d="M32.1 7.7V5.4s0-.4.4-.4c9.8 0 19.1 6.5 19.1 17.9 0 .4-.4.4-.4.4h-2.5s-.4 0-.4-.4c0-8.9-6.9-14.8-16-14.8-.2 0-.2-.4-.2-.4z"/></svg>