<svg width="24" height="24" viewBox="0 0 24 24" fill="none" xmlns="http://www.w3.org/2000/svg">
<path d="M12.0016 2.40002C11.3363 2.40002 10.7664 2.8054 10.525 3.38284L1.84219 18.3578V18.3594C1.68548 18.6118 1.60216 18.9029 1.60156 19.2C1.60156 19.6244 1.77013 20.0313 2.07019 20.3314C2.37025 20.6315 2.77722 20.8 3.20156 20.8C3.23911 20.7998 3.27663 20.7982 3.31406 20.7953L3.31719 20.8H12.0016H20.6859L20.6891 20.7938C20.7265 20.7972 20.764 20.7993 20.8016 20.8C21.2259 20.8 21.6329 20.6315 21.9329 20.3314C22.233 20.0313 22.4016 19.6244 22.4016 19.2C22.4012 18.9024 22.3179 18.6107 22.1609 18.3578L22.1484 18.336C22.1479 18.3354 22.1474 18.3349 22.1469 18.3344L13.4781 3.38284C13.2367 2.8054 12.6668 2.40002 12.0016 2.40002ZM11.0312 9.08752H12.9719L12.8109 14.2656H11.1922L11.0312 9.08752ZM12.0047 15.8485C12.6623 15.8485 13.0562 16.2023 13.0562 16.8063C13.0562 17.3991 12.6623 17.7516 12.0047 17.7516C11.3423 17.7516 10.9453 17.3991 10.9453 16.8063C10.9453 16.2023 11.3415 15.8485 12.0047 15.8485Z" fill="#B13F01"/>
</svg>
