<svg width="64" height="64" viewBox="0 0 64 64" fill="none" xmlns="http://www.w3.org/2000/svg">
<rect x="1" y="23" width="52" height="27" fill="#DCF5FF"/>
<path fill-rule="evenodd" clip-rule="evenodd" d="M51 23.8H3C2.33726 23.8 1.8 24.3373 1.8 25V48C1.8 48.6627 2.33726 49.2 3 49.2H51C51.6627 49.2 52.2 48.6627 52.2 48V25C52.2 24.3373 51.6627 23.8 51 23.8ZM3 22C1.34315 22 0 23.3431 0 25V48C0 49.6569 1.34315 51 3 51H51C52.6569 51 54 49.6569 54 48V25C54 23.3431 52.6569 22 51 22H3Z" fill="#1281D3"/>
<path d="M56 18.8H8C7.33726 18.8 6.8 19.3373 6.8 20V22H5V20C5 18.3431 6.34315 17 8 17H56C57.6569 17 59 18.3431 59 20V43C59 44.6569 57.6569 46 56 46H54V44.2H56C56.6627 44.2 57.2 43.6627 57.2 43V20C57.2 19.3373 56.6627 18.8 56 18.8Z" fill="#757372"/>
<path d="M61 13.8H13C12.3373 13.8 11.8 14.3373 11.8 15V17H10V15C10 13.3431 11.3431 12 13 12H61C62.6569 12 64 13.3431 64 15V38C64 39.6569 62.6569 41 61 41H59V39.2H61C61.6627 39.2 62.2 38.6627 62.2 38V15C62.2 14.3373 61.6627 13.8 61 13.8Z" fill="#757372"/>
<path d="M42.4112 30.1585V28H44.5888V30.1696C46.4954 30.5274 47.7546 31.8102 47.7916 33.5737H45.2672C45.2074 32.7771 44.4859 32.221 43.5255 32.221C42.5652 32.221 41.9327 32.6989 41.9327 33.4487C41.9327 34.0658 42.4091 34.4231 43.5404 34.6585L44.9249 34.9397C47.0459 35.3694 48 36.3788 48 38.1674C48.0011 40.1891 46.7295 41.5144 44.5888 41.8504V44H42.4112V41.8594C40.3206 41.5474 39.0392 40.2961 39 38.4241H41.6073C41.6748 39.2447 42.4538 39.7701 43.5851 39.7701C44.6053 39.7701 45.3055 39.254 45.3055 38.5112C45.3055 37.886 44.8367 37.5496 43.6085 37.2924L42.1942 36.9955C40.2289 36.6047 39.2169 35.4791 39.2169 33.7054C39.2169 31.8276 40.4458 30.5093 42.4112 30.1585Z" fill="#1281D3"/>
<path fill-rule="evenodd" clip-rule="evenodd" d="M37 36H7V34.2H37V36Z" fill="#757372"/>
<path fill-rule="evenodd" clip-rule="evenodd" d="M28 40H7V38.2H28V40Z" fill="#757372"/>
<path fill-rule="evenodd" clip-rule="evenodd" d="M9 46H7V44.2H9V46Z" fill="#757372"/>
<path fill-rule="evenodd" clip-rule="evenodd" d="M13 46H11V44.2H13V46Z" fill="#757372"/>
<path fill-rule="evenodd" clip-rule="evenodd" d="M17 46H15V44.2H17V46Z" fill="#757372"/>
<path fill-rule="evenodd" clip-rule="evenodd" d="M21 46H19V44.2H21V46Z" fill="#757372"/>
<path fill-rule="evenodd" clip-rule="evenodd" d="M25 46H23V44.2H25V46Z" fill="#757372"/>
</svg>
