<svg width="64" height="64" viewBox="0 0 64 64" fill="none" xmlns="http://www.w3.org/2000/svg">
<path d="M51.626 17.1237L45 13.0757V12.9997H44.88L34.627 6.73872C33.008 5.74972 30.995 5.74772 29.373 6.73772L19.12 12.9997H19V13.0757L12.374 17.1237C10.887 18.0317 10 19.6057 10 21.3347V26.2287V30.0027V36.0027C10 48.1337 19.869 58.0027 32 58.0027C44.131 58.0027 54 48.1337 54 36.0027V30.0027V26.2287V21.3347C54 19.6057 53.113 18.0317 51.626 17.1237ZM52 21.3347V22.2407C51.88 22.1517 51.762 22.0597 51.634 21.9807L51 21.5877V19.1627C51.625 19.7157 52 20.4877 52 21.3347ZM49 17.8627V20.3487L45 17.8727V15.4197L49 17.8627ZM39 14.1587V11.7547L43 14.1977V16.6347L39 14.1587ZM37 10.5327V12.9207L34.629 11.4527C34.117 11.1357 33.565 10.9307 33 10.8137V8.19072C33.199 8.26172 33.399 8.33272 33.584 8.44572L37 10.5327ZM30.415 8.44672C30.601 8.33272 30.801 8.26172 31 8.19072V10.8147C30.435 10.9317 29.882 11.1367 29.371 11.4537L27 12.9207V10.5327L30.415 8.44672ZM21 16.6347V14.1977L25 11.7547V14.1597L21 16.6347ZM19 17.8737L15 20.3497V17.8637L19 15.4207V17.8737ZM13 19.1627V21.5877L12.366 21.9797C12.237 22.0597 12.119 22.1507 12 22.2397V21.3337C12 20.4877 12.375 19.7157 13 19.1627ZM52 36.0027C52 47.0307 43.028 56.0027 32 56.0027C20.972 56.0027 12 47.0307 12 36.0027V30.0027V26.2287C12 25.1837 12.53 24.2317 13.419 23.6817L30.423 13.1557C30.909 12.8537 31.454 12.7037 32 12.7037C32.546 12.7037 33.09 12.8537 33.577 13.1557L50.581 23.6817C51.47 24.2307 52 25.1827 52 26.2277V30.0017V36.0027Z" fill="#757372"/>
<path d="M46.542 25.562L33.544 17.763C32.591 17.191 31.407 17.191 30.454 17.763L17.457 25.562C16.559 26.1 16 27.087 16 28.136V36.002C16 44.824 23.178 52.002 32 52.002C40.822 52.002 48 44.824 48 36.002V28.136C48 27.087 47.441 26.1 46.542 25.562ZM46 36.003C46 43.723 39.72 50.003 32 50.003C24.28 50.003 18 43.723 18 36.003V28.137C18 27.786 18.187 27.457 18.487 27.278L31.485 19.479C31.644 19.383 31.822 19.335 32.001 19.335C32.18 19.335 32.357 19.383 32.517 19.479L45.515 27.278C45.815 27.458 46.001 27.787 46.001 28.137V36.003H46Z" fill="#A57F00"/>
<path d="M46 36.003C46 43.723 39.72 50.003 32 50.003C24.28 50.003 18 43.723 18 36.003V28.137C18 27.786 18.187 27.457 18.487 27.278L31.485 19.479C31.644 19.383 31.822 19.335 32.001 19.335C32.18 19.335 32.357 19.383 32.517 19.479L45.515 27.278C45.815 27.458 46.001 27.787 46.001 28.137L46 36.003Z" fill="#F7E6AE"/>
<path d="M33 26H31V38H33V26Z" fill="#A57F00"/>
<path d="M32 44.0039C30.897 44.0039 30 43.1069 30 42.0039C30 40.9009 30.897 40.0039 32 40.0039C33.103 40.0039 34 40.9009 34 42.0039C34 43.1069 33.103 44.0039 32 44.0039Z" fill="#A57F00"/>
</svg>
