<svg xmlns="http://www.w3.org/2000/svg" fill="none" viewBox="0 0 24 24"><path fill="#E31D36" d="M14.344 22.334v.032l-.016.034-.033-.017.017-.032.032-.017zm1.8-.412l-.067.017-.083.016v-.016l.1-.017h.05zm-.512-.1v.1l-.066.132h-.016v-.017h-.017l-.017-.017.017-.017.017-.017.016-.016-.032-.033-.017.033-.033-.05-.05-.017-.115.017-.017-.033h.199l.082-.032.05-.067h.017v.017l-.018.018zm2.046-.05h.281l-.017.034-.131.017-.116-.017-.017-.033zm-.197-.016l.082.017-.032.033-.033.017-.744-.067v-.033l.083-.032h.247l.082.05.083.032.232-.017zm.016-19.81h.066v.266l-.017.099v.396l-.017.28v.347l-.017.38v.429l-.017.445-.017.495-.016.528-.014.545-.017.562-.017.577-.016.578-.017.594-.017.578-.017.594-.017.578-.016.56-.017.546-.017.511-.017.496-.017.462v.429l-.016.38-.017.33v.281l-.013.231V14.757l.05.396.05.396.049.396.05.38.05.396.049.396.05.396.049.396.05.396.05.38.049.396.05.396.049.396.05.396.05.396.049.38-.017.033.017.05v.049l-.033.017-.05.017-.017.016-.016.033-.033.033-.066.05-.066-.017-.082-.05-.1-.017h-.083l-.033-.017-.032-.082-.05-.033-.017-.05h-.033l-.066.1-.149.082-.181.033h-.116l-.396-.264-.297-.066-.099.05-.05.016-.049.017v.017l.446.032-.05.067-.116.017h-.231l-.05.017-.099.066-.05.017-.065.017-.248.099-.231.082-.215.082-.05.017-.066-.017-.017-.032.033-.033.05-.033-.066-.033-.116-.082-.082-.017-.033.017-.05.05-.032.032v.05h.115l.017.017.017.082-.017.05-.033.032-.313.214.033.05-.017.05-.05.082-.016.05v.032l-.017.033-.033.033-.033-.033.017-.017v-.016l-.033-.017-.033.05-.05.017h-.066l-.032-.033-.033.017-.033-.017-.033-.017-.05.017-.032.05-.082-.1-.133-.248-.066-.115-.017-.165-.017-.082-.115-.149-.033-.066V21.13l-.016-.033-.066-.1-.115-.066-.05-.132-.067-.033-.115-.033-.066-.066-.099-.198.033-.082-.034-.067-.065-.066-.033-.066v-.066l.017-.1.066-.164-.033-.067.033-.082.082-.115.033-.248.083-.15.033-.164.016-.149-.016-.05h-.133l-.164.018h-.066l-.198.016-.33.017-.413.033-.479.017-.562.032-.577.033-.61.05-.595.033-.594.017-.545.032-.479.033-.412.017-.33.017H6.205l-.165.017h-.017l.264-.248-.016-.116-.115-.116-.05-.115v-.05l.033-.065v-.05l.017-.016.017-.05v-.05l-.017-.016-.05-.033-.066-.067-.033-.082v-.066l.05-.033.082-.017h.165l.082-.017.05-.05.017-.066.032-.28.033-.034V17.43l-.05-.083-.032-.05-.017-.032-.033-.182.083-.132.23-.197.018-.017.016-.05-.016-.099.05-.38.016-.082v-.066l.1-.214.049-.15.017-.082.066-.066.05-.05.148-.032.066-.033.066-.066.165-.199.017-.033.033-.082.017-.05.032-.017.116-.05.132-.098.066-.15v-.148l-.115-.115-.017-.033v-.048l.017-.033.031-.033.198-.017.1-.214.099-.281.165-.165-.017-.033h.033l.016-.066-.032-.066-.083-.033h-.132l-.05-.033-.032-.016-.033-.165-.082-.082-.116-.033-.132-.066-.032-.066-.017-.067v-.214l.017-.05v-.099l-.033-.033-.083-.05-.05-.032-.032-.05-.033-.066-.033-.083V12.1l.033-.05.083-.032h.099L7.725 12l.05-.1-.017-.066-.067-.05-.181-.032-.05-.033-.017-.05.033-.18.033-.2.033-.049.05-.017.049-.065.05-.083.032-.066-.082-.082-.033-.05-.05-.017h-.064l-.05-.017-.05-.033-.032-.032V10.2l.032-.05.067-.032.065-.033.05-.033.017-.066-.017-.083-.05-.132v-.214l-.032-.05-.05-.032-.1-.033-.049-.017-.05-.067.033-.099.132-.181v-.083l.017-.115-.017-.132v-.066l-.132-.115-.065-.066-.067-.017-.066-.033-.05-.066-.016-.066.05-.033h.082l.082-.016.05-.05.032-.082-.032-.115-.048-.05-.15-.066-.066-.067v-.033l.05-.033.066-.05.132-.197.017-.033.033-.017.066-.083.033-.016.033-.017h.1l.032-.033.05-.082-.033-.083-.05-.066-.017-.132.05-.098.05-.116-.067-.116-.05-.016-.048-.017-.034-.033-.017-.05.033-.032.182-.05.197-.115.067-.017h.082l.067-.017.065-.033.033-.082-.015-.165-.248-.1-.016-.131.05-.033.164-.115.05-.033.05-.033.115-.313.016-.033h.017l.05-.017.05.033h.032l.017-.017.017-.05.033-.082.016-.033-.016-.05-.033-.082-.017-.05v-.034l.017-.032.05.032.032.017H8.6l.149-.033.082-.032.115-.067.1-.132.032-.132-.016-.149.016-.346-.082-.297.017-.165.05-.165.05-.082.049-.017.065.033h.083l.066-.017.033-.05.05-.049-.033-.082-.034-.083-.033-.067.05-.066.363-.165.165-.115.1-.15v-.18l-.117-.116-.017-.016.446-.033.462-.033.446-.016.446-.033.445-.033.446-.033.446-.017.446-.033.445-.033.446-.033.445-.032.446-.033.446-.033.446-.034.446-.033.445-.033.132-.017h.033l.066.165.1.115.115.067z"/></svg>