<svg width="64" height="64" viewBox="0 0 64 64" fill="none" xmlns="http://www.w3.org/2000/svg">
<path fill-rule="evenodd" clip-rule="evenodd" d="M29.8965 29.366L30.0439 34.2202H27.9822C26.8732 34.2202 25.2228 35.1946 25.2274 37.3186L25.2274 37.3229L25.2274 50H10.34C8.17764 50 6.5 48.2527 6.5 46.1665V39.683C6.5 34.0263 11.0802 29.366 16.78 29.366H29.8965ZM33.5 15.317C33.5 20.9737 28.9198 25.634 23.22 25.634C17.5202 25.634 12.94 20.9737 12.94 15.317C12.94 9.66028 17.5202 5 23.22 5C28.9198 5 33.5 9.66028 33.5 15.317ZM27.9563 32.2203C27.8904 32.2208 27.8238 32.223 27.7565 32.2271C26.8505 32.2815 25.8301 32.6599 24.9875 33.366C23.9778 34.2122 23.2235 35.529 23.2274 37.3229V48H10.34C9.3007 48 8.5 47.1667 8.5 46.1665V39.683C8.5 35.1169 12.1987 31.366 16.78 31.366H27.9563L27.9822 32.2202C27.9736 32.2202 27.965 32.2203 27.9563 32.2203ZM31.5 15.317C31.5 19.8831 27.8013 23.634 23.22 23.634C18.6387 23.634 14.94 19.8831 14.94 15.317C14.94 10.7508 18.6387 7 23.22 7C27.8013 7 31.5 10.7508 31.5 15.317Z" fill="#25836B"/>
<path fill-rule="evenodd" clip-rule="evenodd" d="M34.4545 38.24H29.7273C29.32 38.24 29 38.5668 29 38.96V55.28C29 55.6732 29.32 56 29.7273 56H54.2725C54.4286 56 54.5215 55.9671 54.5807 55.9369C54.6462 55.9035 54.716 55.8492 54.7852 55.7637C54.8568 55.6753 54.9163 55.567 54.9561 55.4567C54.9926 55.3557 54.9988 55.2914 54.9998 55.2809C55 55.2793 54.9998 55.2799 54.9998 55.2809L55 38.96C55 38.5668 54.68 38.24 54.2727 38.24H49.5455V33.52C49.5455 29.5357 46.1332 26 42 26C37.8436 26 34.4545 29.3877 34.4545 33.52V38.24ZM42 24C36.7441 24 32.4545 28.2781 32.4545 33.52V36.24H29.7273C28.2205 36.24 27 37.4572 27 38.96V55.28C27 56.7828 28.2205 58 29.7273 58H54.2725C56.1475 58 57 56.3 57 55.28V38.96C57 37.4572 55.7795 36.24 54.2727 36.24H51.5455V33.52C51.5455 28.4494 47.2559 24 42 24Z" fill="#A57F00"/>
<path fill-rule="evenodd" clip-rule="evenodd" d="M34.4545 38.24H29.7273C29.32 38.24 29 38.5668 29 38.96V55.28C29 55.6732 29.32 56 29.7273 56H54.2725C54.4286 56 54.5215 55.9671 54.5807 55.9369C54.6462 55.9035 54.716 55.8492 54.7852 55.7637C54.8568 55.6753 54.9163 55.567 54.9561 55.4567C54.9926 55.3557 54.9988 55.2914 54.9998 55.2809L55 38.96C55 38.5668 54.68 38.24 54.2727 38.24H49.5455V33.52C49.5455 29.5357 46.1332 26 42 26C37.8436 26 34.4545 29.3877 34.4545 33.52V38.24Z" fill="#F7E6AE"/>
<path fill-rule="evenodd" clip-rule="evenodd" d="M39.663 32.1242C39.1689 33.1554 39 33.6874 39 35.4946V36.3H45V35.4946C45 33.6874 44.8311 33.1554 44.337 32.1242C44.1096 31.6497 43.8432 31.347 43.5417 31.1523C43.2444 30.9602 42.7772 30.7852 42 30.7852C41.2228 30.7852 40.7556 30.9602 40.4583 31.1523C40.1568 31.347 39.8904 31.6497 39.663 32.1242ZM37 38.3V35.4946C37 31.8148 37.625 28.7852 42 28.7852C46.375 28.7852 47 31.8148 47 35.4946V38.3H37Z" fill="#A57F00"/>
<path fill-rule="evenodd" clip-rule="evenodd" d="M39.663 32.1242C39.1689 33.1554 39 33.6874 39 35.4946V36.3H45V35.4946C45 33.6874 44.8311 33.1554 44.337 32.1242C44.1096 31.6497 43.8432 31.347 43.5417 31.1523C43.2444 30.9602 42.7772 30.7852 42 30.7852C41.2228 30.7852 40.7556 30.9602 40.4583 31.1523C40.1568 31.347 39.8904 31.6497 39.663 32.1242Z" fill="white"/>
<path fill-rule="evenodd" clip-rule="evenodd" d="M41 51L40.5 43L43.5 43L43 51L41 51Z" fill="#A57F00"/>
</svg>
