<svg xmlns="http://www.w3.org/2000/svg" viewBox="0 0 56 56"><path fill="#fffffd" d="M36.6 52H6.5C3.3 52 .6 49.4.6 46.1V22.7c0-3.2 2.6-5.9 5.9-5.9l24.9-.1V5.8c0-1.6.8-1.9 2.3-1.7 12.4.8 21.7 7 21.7 20 .1 3.5-1.5 3.7-3.2 3.7h-9.7v18.3c0 3.3-2.7 5.9-5.9 5.9z"/><path fill="#008300" d="M34.9 49.3H8.5c-3 0-5.4-2.4-5.4-5.4V25.1c0-3 2.4-5.4 5.4-5.4h26.4c3 0 5.4 2.4 5.4 5.4v18.8c0 3.1-2.4 5.4-5.4 5.4z"/><path fill="#68ff58" d="M34 46.5H9.3c-2.4 0-3.5-1.3-3.5-3.5V30.7h31.6V43c.1 2.2-1 3.5-3.4 3.5z"/><path fill="#fff" d="M3 23.6h37.3v3.9H3z"/><path fill="#008300" d="M13.2 39.2l4.3-6.1s.6-1.1 1.9 0 .4 1.9.4 1.9-5 7.1-5.4 7.4c-.4.6-1.5.6-2.2 0-.3-.4-4.2-4.7-4.2-4.7s-.6-.7.5-1.6 1.7-.2 1.7-.2l3 3.3zM33.4 13v2.6s0 .4.4.4c5 0 10.4 2.6 10.4 9.3 0 .4.4.4.4.4h2.6s.4 0 .4-.4C47.7 16.9 41 13 34 13c-.6-.3-.6 0-.6 0z"/><path fill="#008300" d="M33.4 9.3V6.9s0-.4.4-.4c10.2 0 19.9 6.7 19.9 18.6 0 .4-.4.4-.4.4h-2.6s-.4 0-.4-.4c0-9.3-7.1-15.4-16.7-15.4-.2 0-.2-.4-.2-.4z"/></svg>