<svg width="24" height="24" viewBox="0 0 24 24" fill="none" xmlns="http://www.w3.org/2000/svg">
<path d="M12.0004 2.39999C6.69879 2.39999 2.40039 6.69839 2.40039 12C2.40039 17.3016 6.69879 21.6 12.0004 21.6C17.302 21.6 21.6004 17.3016 21.6004 12C21.6004 6.69839 17.302 2.39999 12.0004 2.39999ZM15.766 12.5656L10.966 17.3656C10.81 17.5216 10.6052 17.6 10.4004 17.6C10.1956 17.6 9.99079 17.5216 9.83479 17.3656C9.52199 17.0528 9.52199 16.5472 9.83479 16.2344L14.0692 12L9.83479 7.76559C9.52199 7.45279 9.52199 6.94719 9.83479 6.63439C10.1476 6.32159 10.6532 6.32159 10.966 6.63439L15.766 11.4344C16.0788 11.7472 16.0788 12.2528 15.766 12.5656Z" fill="#C0BEBC"/>
</svg>
