<svg xmlns="http://www.w3.org/2000/svg" fill="none" viewBox="0 0 24 24"><mask id="a" fill="#fff"><path fill-rule="evenodd" d="M4 12a8 8 0 1 0 16 0 8 8 0 0 0-16 0zm8-9a9 9 0 1 0 0 18 9 9 0 0 0 0-18z" clip-rule="evenodd"/></mask><path fill="#757372" fill-rule="evenodd" d="M4 12a8 8 0 1 0 16 0 8 8 0 0 0-16 0zm8-9a9 9 0 1 0 0 18 9 9 0 0 0 0-18z" clip-rule="evenodd"/><path fill="#757372" d="M12 19a7 7 0 0 1-7-7H3a9 9 0 0 0 9 9v-2zm7-7a7 7 0 0 1-7 7v2a9 9 0 0 0 9-9h-2zm-7-7a7 7 0 0 1 7 7h2a9 9 0 0 0-9-9v2zm-7 7a7 7 0 0 1 7-7V3a9 9 0 0 0-9 9h2zm-1 0a8 8 0 0 1 8-8V2C6.477 2 2 6.477 2 12h2zm8 8a8 8 0 0 1-8-8H2c0 5.523 4.477 10 10 10v-2zm8-8a8 8 0 0 1-8 8v2c5.523 0 10-4.477 10-10h-2zm-8-8a8 8 0 0 1 8 8h2c0-5.523-4.477-10-10-10v2z" mask="url(#a)"/><circle cx="12" cy="12" r="5" fill="#25836B"/></svg>