<svg xmlns="http://www.w3.org/2000/svg" fill="none" viewBox="0 0 24 24"><path fill="#25836B" d="M12 1.6a8.8 8.8 0 0 0-8.8 8.8c0 5.787 5.722 8.558 6.438 9.202.732.66 1.337 2.135 1.581 2.972.119.405.45.61.781.62a.83.83 0 0 0 .78-.62c.245-.837.85-2.313 1.582-2.972.716-.644 6.438-3.415 6.438-9.202A8.8 8.8 0 0 0 12 1.6zm.8 12.318V15.2h-1.6v-1.278c-1.177-.22-1.917-.944-1.96-2h1.386c.066.555.626.91 1.433.91.745 0 1.272-.36 1.272-.878 0-.436-.341-.688-1.181-.868l-.892-.19c-1.248-.26-1.861-.911-1.861-1.955 0-1.05.695-1.8 1.803-2.046V5.6h1.6v1.293c1.08.241 1.802.977 1.837 1.972h-1.348c-.067-.541-.57-.902-1.263-.902-.716 0-1.19.332-1.19.855 0 .422.326.664 1.129.835l.825.176c1.377.29 1.97.883 1.97 1.945 0 1.144-.734 1.912-1.96 2.144z"/></svg>