<svg width="64" height="64" viewBox="0 0 64 64" fill="none" xmlns="http://www.w3.org/2000/svg">
<rect x="20" y="40" width="8" height="12" fill="#FFA99F"/>
<path d="M26 44H24V48H26V44Z" fill="#757372"/>
<path d="M34 46H48C49.1 46 50 45.1 50 44V36C50 34.9 49.1 34 48 34H34C32.9 34 32 34.9 32 36V44C32 45.1 32.9 46 34 46ZM34 36H48V44H34V36Z" fill="#757372"/>
<path d="M54 51V50V48V29.6C56.4 28.8 58 26.4 58 23.7C58 22.4 57.7 21.2 57.2 20L54 12.9C53.2 11.1 51.4 10 49.4 10H47H46H38H26H18H17H14.6C12.6 10 10.9 11.1 10 12.9L6.8 20C6.3 21.2 6 22.4 6 23.8C6 26.5 7.7 28.8 10 29.7V51C10 51.4 10.1 51.7 10.2 52H6V54H13H18H30H51H58V52H53.8C53.9 51.7 54 51.4 54 51ZM28 38H20V36H28V38ZM28 34H20C18.9 34 18 34.9 18 36V48H12V30C13.5 30 14.9 29.4 16 28.4C16.4 28.1 16.7 27.7 17 27.3C18.1 28.9 19.9 30 22 30C24.1 30 25.9 28.9 27 27.3C28.1 28.9 29.9 30 32 30C34.1 30 35.9 28.9 37 27.3C38.1 28.9 39.9 30 42 30C44.1 30 45.9 28.9 47 27.3C47.3 27.8 47.7 28.2 48.2 28.6C49.3 29.5 50.6 30 52 30V48H30V36C30 34.9 29.1 34 28 34ZM52.2 13.8L55.4 20.9C55.8 21.8 56 22.8 56 23.8C56 25.8 54.7 27.6 52.8 27.9C51.6 28.1 50.4 27.8 49.4 27.1C48.5 26.3 48 25.2 48 24V12H49.4C50.6 12 51.7 12.7 52.2 13.8ZM46 12V24C46 26.2 44.2 28 42 28C39.8 28 38 26.2 38 24V12H46ZM36 24C36 26.2 34.2 28 32 28C29.8 28 28 26.2 28 24V12H36V24ZM26 12V24C26 26.2 24.2 28 22 28C19.8 28 18 26.2 18 24V12H26ZM8 23.7C8 22.7 8.2 21.7 8.6 20.8L11.8 13.7C12.3 12.6 13.4 11.9 14.5 11.9H16V23.9C16 25 15.5 26.1 14.7 26.9C13.9 27.7 12.8 28 11.6 27.9C9.6 27.8 8 25.9 8 23.7ZM13 52C12.4 52 12 51.6 12 51V50H18V52H13ZM20 52V40H28V52H20ZM30 52V50H52V51C52 51.6 51.6 52 51 52H30Z" fill="#757372"/>
<path d="M54 29.6C56.4 28.8 58 26.4 58 23.7C58 22.4 57.7 21.2 57.2 20L54 12.9C53.2 11.1 51.4 10 49.4 10H47H46H38H26H18H17H14.6C12.6 10 10.9 11.1 10 12.9L6.8 20C6.3 21.2 6 22.4 6 23.8C6 26.5 7.7 28.8 10 29.7C10.6 29.9 11.3 30 12 30.1C13.5 30.1 14.9 29.5 16 28.5C16.4 28.2 16.7 27.8 17 27.4C18.1 29 19.9 30.1 22 30.1C24.1 30.1 25.9 29 27 27.4C28.1 29 29.9 30.1 32 30.1C34.1 30.1 35.9 29 37 27.4C38.1 29 39.9 30.1 42 30.1C44.1 30.1 45.9 29 47 27.4C47.3 27.9 47.7 28.3 48.2 28.7C49.3 29.6 50.6 30.1 52 30.1C52.8 30 53.4 29.9 54 29.6ZM52.2 13.8L55.4 20.9C55.8 21.8 56 22.8 56 23.8C56 25.8 54.7 27.6 52.8 27.9C51.6 28.1 50.4 27.8 49.4 27.1C48.5 26.3 48 25.2 48 24V12H49.4C50.6 12 51.7 12.7 52.2 13.8ZM46 12V24C46 26.2 44.2 28 42 28C39.8 28 38 26.2 38 24V12H46ZM36 24C36 26.2 34.2 28 32 28C29.8 28 28 26.2 28 24V12H36V24ZM26 12V24C26 26.2 24.2 28 22 28C19.8 28 18 26.2 18 24V12H26ZM8 23.7C8 22.7 8.2 21.7 8.6 20.8L11.8 13.7C12.3 12.6 13.4 11.9 14.5 11.9H16V23.9C16 25 15.5 26.1 14.7 26.9C13.9 27.7 12.8 28 11.6 27.9C9.6 27.8 8 25.9 8 23.7Z" fill="#25836B"/>
<path d="M52.2 13.8L55.4 20.9C55.8 21.8 56 22.8 56 23.8C56 25.8 54.7 27.6 52.8 27.9C51.6 28.1 50.4 27.8 49.4 27.1C48.5 26.3 48 25.2 48 24V12H49.4C50.6 12 51.7 12.7 52.2 13.8ZM46 12V24C46 26.2 44.2 28 42 28C39.8 28 38 26.2 38 24V12H46ZM36 24C36 26.2 34.2 28 32 28C29.8 28 28 26.2 28 24V12H36V24ZM26 12V24C26 26.2 24.2 28 22 28C19.8 28 18 26.2 18 24V12H26ZM8 23.7C8 22.7 8.2 21.7 8.6 20.8L11.8 13.7C12.3 12.6 13.4 11.9 14.5 11.9H16V23.9C16 25 15.5 26.1 14.7 26.9C13.9 27.7 12.8 28 11.6 27.9C9.6 27.8 8 25.9 8 23.7Z" fill="#D7FFF4"/>
</svg>
