<svg width="24" height="24" viewBox="0 0 24 24" fill="none" xmlns="http://www.w3.org/2000/svg">
<path d="M12 1.59998C11.7988 1.6006 11.6052 1.67704 11.4578 1.81404C11.452 1.81865 11.4463 1.82333 11.4406 1.8281L2.71409 8.9656C2.70401 8.97318 2.69411 8.98099 2.6844 8.98904L2.65471 9.01404V9.0156C2.57447 9.09035 2.51046 9.1808 2.46665 9.28132C2.42284 9.38185 2.40016 9.49031 2.40002 9.59998C2.40002 9.81215 2.48431 10.0156 2.63434 10.1657C2.78437 10.3157 2.98785 10.4 3.20002 10.4H4.00002V19.2C4.00002 20.084 4.71602 20.8 5.60002 20.8H18.4C19.284 20.8 20 20.084 20 19.2V10.4H20.8C21.0122 10.4 21.2157 10.3157 21.3657 10.1657C21.5157 10.0156 21.6 9.81215 21.6 9.59998C21.5999 9.49031 21.5772 9.38185 21.5334 9.28132C21.4896 9.1808 21.4256 9.09035 21.3453 9.0156C21.3453 9.01508 21.3453 9.01456 21.3453 9.01404L21.3328 9.00466C21.3153 8.98876 21.297 8.97364 21.2781 8.95935L20 7.91404V4.79998C20 4.35838 19.6416 3.99998 19.2 3.99998H18.4C17.9584 3.99998 17.6 4.35838 17.6 4.79998V5.95154L12.5531 1.82341L12.5422 1.81404C12.3948 1.67704 12.2012 1.6006 12 1.59998V1.59998ZM6.43752 12H10.1156V12.775L7.86409 15.7547V15.8187H10.186V16.8H6.40002V16.025L8.65159 13.0437V12.9812H6.43752V12ZM11.3891 12H12.611V16.8H11.3891V12ZM14.4 12H16.5031C17.5343 12 18.2313 12.6711 18.2313 13.7031C18.2313 14.7239 17.4969 15.3922 16.4297 15.3922H15.6219V16.8H14.4V12ZM15.6203 12.9375V14.4718H16.1735C16.6927 14.4718 16.9969 14.2046 16.9969 13.7062C16.9977 13.2006 16.6949 12.9375 16.1797 12.9375H15.6203Z" fill="#026B54"/>
</svg>
