<svg xmlns="http://www.w3.org/2000/svg" fill="none" viewBox="0 0 24 24"><path fill="#757372" d="M11.27 1a1.6 1.6 0 0 0-1.6 1.6v1.6h4.8V2.6a1.6 1.6 0 0 0-1.6-1.6h-1.6zm3.2 3.2V5a1.6 1.6 0 0 1-1.6 1.6h-1.6A1.6 1.6 0 0 1 9.67 5v-.8h-6.4a1.6 1.6 0 0 0-1.6 1.6v12.8a1.6 1.6 0 0 0 1.6 1.6h17.6a1.6 1.6 0 0 0 1.6-1.6V5.8a1.6 1.6 0 0 0-1.6-1.6h-6.4zm-6.4 4c.763 0 1 .542 1 .542.682 0 1 .747 1 1.624 0 .437-.177.8-.177.8.07.044.188.184.16.432-.055.464-.24.582-.358.591-.045.432-.473.986-.624 1.066v.723c.3.974 1.76.496 2.2 2.222H4.87c.44-1.726 1.9-1.248 2.2-2.222v-.723c-.15-.08-.579-.634-.624-1.066-.117-.01-.303-.127-.357-.59-.03-.25.086-.39.157-.433 0 0-.175-.401-.175-.8 0-1.184.585-2.166 1.999-2.166zm5.6 3.2h4.8a.8.8 0 0 1 0 1.6h-4.8a.8.8 0 0 1 0-1.6zm0 3.2h4.8a.8.8 0 0 1 0 1.6h-4.8a.8.8 0 0 1 0-1.6z"/></svg>