<svg width="27" height="27" viewBox="0 0 27 27" fill="none" xmlns="http://www.w3.org/2000/svg">
<path d="M4.16663 22.45H15C15.3403 22.45 15.6667 22.3148 15.9074 22.0741C16.1481 21.8334 16.2833 21.507 16.2833 21.1667V15.7167H2.8833V21.1667C2.8833 21.507 3.01851 21.8334 3.25918 22.0741C3.49985 22.3148 3.82627 22.45 4.16663 22.45ZM3.74997 17.8333C3.81121 17.7785 3.88267 17.7364 3.96023 17.7092C4.0378 17.6821 4.11996 17.6705 4.202 17.6751C4.28405 17.6798 4.36438 17.7006 4.43839 17.7363C4.51239 17.772 4.57863 17.822 4.6333 17.8833L5.89997 19.3333L7.82497 16.6333C7.92221 16.4985 8.06903 16.4078 8.23313 16.3813C8.39722 16.3547 8.56515 16.3944 8.69997 16.4917C8.83478 16.5889 8.92545 16.7357 8.95202 16.8998C8.97859 17.0639 8.93888 17.2318 8.84163 17.3667L6.4583 20.7C6.40352 20.7759 6.3324 20.8385 6.25018 20.8832C6.16797 20.9279 6.07676 20.9536 5.9833 20.9583C5.89539 20.9574 5.80861 20.9385 5.72833 20.9026C5.64806 20.8668 5.576 20.8148 5.51663 20.75L3.69997 18.75C3.64105 18.6875 3.59545 18.6137 3.56594 18.5331C3.53642 18.4525 3.52362 18.3667 3.52829 18.2809C3.53297 18.1952 3.55503 18.1113 3.59314 18.0344C3.63125 17.9574 3.6846 17.889 3.74997 17.8333Z" fill="#68FF58"/>
<path d="M1.66675 21.1667C1.66675 21.8297 1.93014 22.4656 2.39898 22.9344C2.86782 23.4033 3.50371 23.6667 4.16675 23.6667H15.0001C15.6631 23.6667 16.299 23.4033 16.7678 22.9344C17.2367 22.4656 17.5001 21.8297 17.5001 21.1667V14.5H1.66675V21.1667ZM2.88341 15.7167H16.2834V21.1667C16.2834 21.507 16.1482 21.8334 15.9075 22.0741C15.6669 22.3148 15.3404 22.45 15.0001 22.45H4.16675C3.82639 22.45 3.49997 22.3148 3.25929 22.0741C3.01862 21.8334 2.88341 21.507 2.88341 21.1667V15.7167Z" fill="#008300"/>
<path d="M5.48329 20.7501C5.54266 20.815 5.61471 20.8669 5.69499 20.9028C5.77526 20.9386 5.86205 20.9576 5.94996 20.9585C6.04342 20.9537 6.13463 20.928 6.21684 20.8833C6.29905 20.8386 6.37017 20.776 6.42496 20.7001L8.80829 17.3668C8.90554 17.232 8.94524 17.0641 8.91868 16.9C8.89211 16.7359 8.80144 16.5891 8.66662 16.4918C8.53181 16.3946 8.36388 16.3549 8.19978 16.3814C8.03569 16.408 7.88887 16.4987 7.79162 16.6335L5.89996 19.3335L4.63329 17.9168C4.58095 17.8531 4.51651 17.8003 4.44368 17.7616C4.37086 17.7229 4.29109 17.699 4.20898 17.6912C4.12686 17.6835 4.04403 17.692 3.96525 17.7165C3.88647 17.7409 3.8133 17.7807 3.74996 17.8335C3.68459 17.8892 3.63124 17.9576 3.59313 18.0345C3.55502 18.1115 3.53296 18.1953 3.52828 18.2811C3.52361 18.3668 3.53641 18.4526 3.56593 18.5333C3.59544 18.6139 3.64104 18.6877 3.69996 18.7501L5.48329 20.7501Z" fill="#008300"/>
<path d="M15.8334 11.1667H3.33341C2.89139 11.1667 2.46746 11.3423 2.1549 11.6548C1.84234 11.9674 1.66675 12.3913 1.66675 12.8333H17.5001C17.5001 12.3913 17.3245 11.9674 17.0119 11.6548C16.6994 11.3423 16.2754 11.1667 15.8334 11.1667V11.1667Z" fill="#008300"/>
<rect x="1.66675" y="12.8333" width="15.8333" height="1.66667" fill="white"/>
<path d="M22.8901 11.9089C22.5091 7.88564 19.0834 4.46133 15.0617 4.08049C14.9104 4.06617 14.7929 4.18046 14.802 4.33152L14.85 5.13463C14.8586 5.27874 14.9799 5.40298 15.1242 5.41727C18.4236 5.7454 21.2253 8.54645 21.5534 11.8465C21.5677 11.9908 21.6921 12.1121 21.8361 12.1207L22.6392 12.1688C22.7901 12.1777 22.9044 12.0602 22.8901 11.9089ZM20.2333 11.7755C19.9335 9.21009 17.7577 7.03675 15.1951 6.73727C15.0416 6.7193 14.9211 6.83425 14.9308 6.98746L14.9811 7.79327C14.9899 7.93364 15.1055 8.05815 15.2463 8.07623C17.0962 8.31322 18.658 9.87852 18.8942 11.7242C18.9123 11.865 19.0367 11.9807 19.1772 11.9894L19.983 12.0397C20.1363 12.0495 20.2513 11.9288 20.2333 11.7755Z" fill="#008300"/>
</svg>
