<svg xmlns="http://www.w3.org/2000/svg" fill="none" viewBox="0 0 24 24"><mask id="a" fill="#fff"><path fill-rule="evenodd" d="M19 4H5a1 1 0 0 0-1 1v14a1 1 0 0 0 1 1h14a1 1 0 0 0 1-1V5a1 1 0 0 0-1-1zM5 3a2 2 0 0 0-2 2v14a2 2 0 0 0 2 2h14a2 2 0 0 0 2-2V5a2 2 0 0 0-2-2H5z" clip-rule="evenodd"/></mask><path fill="#757372" fill-rule="evenodd" d="M19 4H5a1 1 0 0 0-1 1v14a1 1 0 0 0 1 1h14a1 1 0 0 0 1-1V5a1 1 0 0 0-1-1zM5 3a2 2 0 0 0-2 2v14a2 2 0 0 0 2 2h14a2 2 0 0 0 2-2V5a2 2 0 0 0-2-2H5z" clip-rule="evenodd"/><path fill="#757372" d="M5 5h14V3H5v2zm0 0V3a2 2 0 0 0-2 2h2zm0 14V5H3v14h2zm0 0H3a2 2 0 0 0 2 2v-2zm14 0H5v2h14v-2zm0 0v2a2 2 0 0 0 2-2h-2zm0-14v14h2V5h-2zm0 0h2a2 2 0 0 0-2-2v2zM4 5a1 1 0 0 1 1-1V2a3 3 0 0 0-3 3h2zm0 14V5H2v14h2zm1 1a1 1 0 0 1-1-1H2a3 3 0 0 0 3 3v-2zm14 0H5v2h14v-2zm1-1a1 1 0 0 1-1 1v2a3 3 0 0 0 3-3h-2zm0-14v14h2V5h-2zm-1-1a1 1 0 0 1 1 1h2a3 3 0 0 0-3-3v2zM5 4h14V2H5v2z" mask="url(#a)"/></svg>