<svg xmlns="http://www.w3.org/2000/svg" fill="none" viewBox="0 0 24 24"><path fill="#BF5701" d="M16.128 20.479l.014-.008-.014-.014-.007-.015V20.406h.014l.007-.007v-.007l-.007-.014-.007-.008-.007-.021-.044-.073.014-.066.007-.058-.014-.182-.014-.066v-.037l.014-.073v-.028l-.014-.037.014-.037.007-.087.029-.03-.014.037.007.482.051.32.168.584v.021l.014.03.008.037.014.117.022.072.007.044V21.436l.021.058.022.095v.037l-.014.03-.015-.008-.014-.037-.029-.379-.014-.032-.03-.051-.014-.051-.014-.146-.014-.037-.037-.072-.015-.044-.021-.103-.007-.022-.015-.028-.014-.037-.022-.08-.023-.05zm1.846-3.26l.065-.022v.014h-.007l-.007.008h-.007v.007l-.015.007-.029.029-.014.014-.044.015-.044.036-.022.022h-.036v-.007l.094-.087.066-.037zm2.392-1.641l.094.037-.24.204-.074.03-.233.174-.03.037h-.007l.014-.044.03-.037.072-.058.117-.073.021-.03v-.028l.015-.007.021-.008h.022l.007-.014.066-.051.014-.03.007-.006.037-.015.022-.014.007-.022-.007-.021-.03-.008v-.014h.015v-.014.014-.007l.007-.007.007.014h.026-.015.015v-.002zm-3.69 2.815l.014.021-.022.015-.211.306-.16.3-.103.255-.036.16-.03.058-.014.029-.015.007-.014-.014.014-.03.029-.204.058-.117.015-.08.007-.021.029-.066.007-.021.014-.037.037-.044.037-.052-.007-.036.021-.022.008-.014-.008-.022-.007-.03.037.015.014.014.015.022h.007l.094-.197.052-.058.065-.066.015-.014.015-.05.022-.007zm1.086-1v.059l-.008.014-.014.022v.007l-.124.059-.051.014-.059.037-.087.08-.16.08-.037.044-.088.066-.05.044-.022.021-.008.037h-.014l.007-.037.015-.037.014-.028.022-.015v-.014l-.015-.022v-.037l.007-.03.022-.014h.037l.051-.021h.03l.021-.008.066-.043.007-.008.022-.037.065-.036.015-.015.014-.014.08-.03.029-.037.021-.014h.037l.066.007.021-.014.015-.037.007-.014-.007-.037.007-.007.014-.008h.022l.01.024zm-.737.489l.007.014-.007.022-.007.037v.021l-.153.16-.066.102-.058.066-.022.037-.014.037-.015-.03.022-.058.066-.087.05-.052.008-.014.007-.022v-.007l-.03-.014v-.008l.095-.167h.022l.014-.015.007-.021.015-.015.021-.014.022.007.016.02zm5.003-3.581l-.03.058H21.918l-.015.008-.007.036-.014.037-.124.183-.008.072.037.066.087.102.03.059-.022.03h-.022l-.044-.008h-.234l-.072.022-.044.021-.139.08-.19.08-.517.241-.058.044-.08.102-.037.022-.037-.007-.007-.022.014-.021.124-.132.044-.021.037-.007.022-.008.014-.007.014-.007.052-.058.014-.008.014-.007.08.008.03-.008.02-.014.008-.037v-.024l-.014.014-.022.015-.037-.014-.021-.022-.03-.007h-.029l-.233.072-.088.008h-.021l-.015-.008-.014-.014.007-.014.015-.008h.021l.022-.014.021-.021.022-.066.022-.066.021-.087.015-.044-.015-.037v-.021l-.007-.022-.03-.007-.014-.007-.007-.037-.015-.007h-.014l-.037.021-.058.03-.029.013-.007.015-.022.066-.021.058-.052.037-.05-.022-.052-.044-.051-.03h-.095l-.007.008.022.029.014.007.015.007H20.034l.007.007.007.014-.03.022-.007.037.007.029.059.03-.015.028-.021.037-.015.014-.014.051.051.037.124.037-.014.022-.015.021-.021.015-.029.007v.007l.029.022.007.03.007.028h.037v-.014l-.007-.008v-.006h.007v-.007l.051.073.015.014h.021l.073.037h-.012v.007l-.007.007-.022-.021-.037-.008-.03.008-.014.044-.007.037-.014.036-.03.015-.021-.022h-.015l-.007.022-.014.021-.037.022h-.022v.029l-.102.124-.037.028-.051.022-.015-.03-.014-.013h-.03l-.028-.014.014.014.022.051-.015.037V16l.015.073V16.13l-.015.03-.117.093-.05.022-.088.102-.087.073-.015.015-.036.007-.03.007-.109.08-.19.124-.072.037-.073.014-.073.008-.073-.008-.065.008-.219.087.008.021v.015l-.008.021v.03l-.007.007v.007l.007.008.008.007h.014l.007-.008h.007l.227-.13.058-.03h.059l-.19.124-.11.058-.168.037-.102.08-.094.03-.11.065-.044.022.037-.044.058-.044.234-.117.037-.007.014-.015.007-.03-.007-.029-.03-.014h-.036l-.066.037-.022.007-.03.007-.102.051-.072.022h-.037l.007-.03.03-.014.072-.014.03-.021h.006v-.008l-.03-.007-.02.007-.022.008h-.059l-.007-.015.007-.021.044-.059.007-.021-.014-.008h-.037l-.021.008-.022.01-.037.02.007-.02-.03.014-.05.05-.03.022-.029.008h-.007v-.015l-.007-.021-.051-.044-.008-.022.015-.022.007-.021-.007-.03-.03-.029-.007.015-.014.007-.008.007-.03-.051-.006-.015h-.006v.03l.007.029.015.03.007.014h.014l.015-.015.014-.007V16.803l-.014.008-.008.007-.007.007v.014l.007.015V16.883l-.007.028.022.015.058.014-.102.058-.051.022-.052.007.022-.021h.03l.028-.008.008-.036-.015-.037-.058.044-.015-.044-.007-.015h-.021l-.015.008-.021-.008-.008-.007h-.028l-.008-.014v-.022l-.007-.014-.007-.03v-.014l-.007-.007-.015-.022-.014-.014-.022-.007-.021.007-.022.007-.007-.007-.007-.007-.022-.008v.044l.007.037.015.029.051.058v.015l.007.021v.015l-.007.044-.007.014.014.022h.015l.021-.022.015.007.05.037.03.015.014.007.007.014.015.014.007.037-.08.044h-.015l.008.03h.028l.03-.015.014-.014.052-.014.058.021.051.044.007.044-.124.066-.028.007-.059.037-.021.007-.183.102-.029-.028-.03.007-.014-.014-.007-.03-.007-.065-.007-.022-.015-.014h-.028l-.01-.01v-.028l-.007-.015-.007-.007-.022-.014-.007-.008-.03-.043-.007-.016-.014.008-.015.014-.007.021.007.008h.015l.036.03.015.02v.03l-.015.022-.028-.014-.03-.03-.03-.014-.021.028.03.052.05.058.022.044-.007.037-.022.029-.007.037.037.065-.022.03-.058.029-.029.03-.058.08-.022.02-.058.015-.029.007.022-.065.014-.03.022-.029-.022-.037.014-.036.015-.03v-.03h-.022l-.021.03-.044.058.021.022.007.03-.007.03-.021.036-.022.037-.022.007-.058-.014.007-.008.007-.007.008-.007v-.008l-.008-.014.008-.059-.008-.03h-.014l-.022.037-.058.037-.066.03-.044.007.008-.014-.015-.015-.021-.007h-.015l-.014.014-.007.022.007.022.021.007-.065.066-.037.043.014.015.037.007.029.014.03.022.014.022v.021l-.007.022v.007l.014-.007.015-.015.014-.021.007-.022v-.029l.022-.03.08-.029.021-.037v-.007l-.007-.007h.007l.015-.007.014.014.007.022-.014.073.007.021v.015l-.007.007-.014.014-.015.022-.021.051h-.015v-.014l-.065.11-.132.189-.036.03-.044-.008v-.014h.036l-.021-.029-.022-.03-.021-.021-.03-.007h-.037l-.065.029h-.044l.014-.008v-.014l.007-.014-.044.014-.094-.007-.044.007h-.007l-.008.022h-.021l-.015-.008-.007-.007v-.007l-.007-.014h-.022l-.03.007.03.05.027.024.037.007.058-.007.014.007h.022l.015-.007.015-.014.007.03-.015.05.008.022-.015.015.044.05.029.03.146.059.007.03v.028l-.022.03-.014.021-.015.015v.021l-.007.044-.007.015-.051.094-.029.08-.007.037-.007.021-.022.022-.073.197-.007.037-.014.014-.11.044-.037.037-.021.007-.037-.021.065-.03.022-.02h-.014v-.008l-.008-.007-.007-.008h.051l.015-.007.014-.014v-.007h-.007l-.016-.01v.007h-.014l-.008-.007-.007-.021v-.037l.007-.037-.03.014-.036.037-.022.014.008.03-.015.007-.014.008-.029.021-.007-.029-.015.008-.036.044.007.014v.007l-.007.014h-.022l-.022-.007-.007-.007v-.014l-.007-.022-.124-.19-.044-.044-.051-.036.007.044.051.058.022.037h-.03l.059.066.021.036-.037.015.008.014v.007l.007.008.03-.015.021.007.014.022-.021.021-.044.015-.037-.007-.037-.008-.044-.007.022.037.037.014.087-.007.037.008.03.014.02.014.038.015.087.021.037.008.036-.015.03-.021.109-.037.014.03-.007.02-.007.023-.022.007.007.021v.03l-.007.036-.007.014-.014.008.007.03.007.029.007.021-.014.022-.022.014-.029.008-.021.007v.007l.014.022.007.03-.014.013.014.052v.03l-.021.014-.095.007-.014.007-.008.024.007.08.007.037.015.021.014.022.073.037.022.021-.022.037-.073-.072-.021-.008-.008.022-.014.029v.067l.007.02.022.008h.021l.03.007.02.022.008.03.007.028.015.08.036.124.015.124.037.124.014.059-.007-.015-.015-.014v-.008l-.014.022-.014.015-.044.014.058.014v.022l-.014.03-.008.05v.023h.022l.037.007.007.022v.03l.008.021h.014l.037.007.007.008v.014l-.014.037.007.007.007.007.015-.007.007-.007v-.008l.007-.014.015.014.007.008-.007.014-.015.015-.014.036v.044l.014.015h.015l.014-.008h.007l.015.008.014.021-.007.015-.015.014-.007.015.007.021.008.014.021.044-.007.037-.007.059.007.044.022.021.007.008.014.007.015.007.021.007h.044l.022.007.021.008-.007.03-.007.014-.022.007-.021-.015v.037l-.022.044v.022l.007.03v.014l.015.007.014.007h.007v-.007l.008-.015.044-.014.014-.014.014-.015.008-.03v-.036l.014-.03.014-.007h.022l.014.051v.059l.008.08v.014l-.117.007-.08-.007-.022.007-.007.03-.029.03-.044.014-.029-.022-.036.03-.008.007.008.037.007.044v.037l-.037.014-.014-.007-.008-.014-.007-.015-.007-.007h-.012l-.007.007v.015l-.007.007-.037-.008-.015-.028-.007-.03-.014-.014h-.037l-.03-.008-.021-.014-.037-.021-.073-.073-.051-.03-.014-.021-.015-.03-.014-.029-.03-.021-.037-.015-.03-.007-.145-.015-.029-.007v-.029l-.036-.007-.124-.007-.11.014-.094-.014h-.03l-.051.022-.037.014-.014-.007-.015-.044-.037-.014-.08.021-.058-.007-.058-.014-.132-.073-.014-.015-.044-.065-.007-.015h-.044l-.022-.007v-.014l.015-.037-.044-.015-.052-.036-.05-.015-.03.03-.03-.044-.05-.014-.052-.015-.05-.03-.095.037-.022-.007-.021-.014-.037-.03-.007-.007h-.015l-.007-.015.022-.021-.015-.014-.021-.015h-.044l.008-.029-.015-.021-.057-.042-.022-.037-.014-.007h-.015l-.007.007-.014.008-.022-.015-.007.014h-.015l-.014-.007-.022-.007-.036.007-.059-.05-.029.028-.014-.029-.014-.014h-.044l-.03.007-.007.007-.007-.007-.015-.014-.007-.008h-.068l-.029-.007-.037-.03v-.021l.008-.022.014-.021.007-.022v-.021l-.014-.059-.022-.021-.044-.015-.044-.014-.007-.046-.007-.094-.007-.03-.059-.204-.014-.087-.022-.08-.029-.037-.021-.03-.022-.03-.051-.065-.022-.03-.065-.058-.015-.014-.007-.022V19.865l-.007-.014h-.014l-.015-.008h-.014l-.03-.021v-.015l-.03-.044.03-.058.007-.014v-.015l-.007-.014-.007-.015-.007-.007.007-.037.029-.08.007-.037v-.036l-.014-.037-.015-.03-.021-.028h-.008l-.021-.015v-.007l-.007-.014-.008-.008-.05-.021.014-.022.03-.03.006-.014v-.021l.015-.022v-.037l.021-.044v-.022l.008-.072v-.008l-.008-.028-.007-.015-.007-.007h-.032l-.007-.007v-.022l.007-.044v-.073l-.014-.03-.03-.029-.036-.021-.022-.008-.014-.007-.014-.037-.022-.007h-.014l-.037.022h-.022l-.007-.007-.014-.037-.008-.007-.058-.008-.007-.007-.029-.044-.014-.007-.008-.021v-.022l-.007-.014-.007-.008-.03-.014-.016-.009-.022-.021-.014-.03-.022-.022-.037-.007v-.007l-.021-.022-.022-.021H12v-.022l.007-.037L12 18.27l-.007-.014-.015-.008-.014-.014-.007-.022.021-.03v-.021l-.021-.014-.03-.03-.029-.037-.014-.029.022-.03-.022-.014-.037-.007-.021-.007-.022-.029-.014-.03-.008-.02-.014-.03v-.015l.007-.014v-.008l-.007-.007-.022-.021-.021-.022-.007-.014v-.03l-.008-.037-.028-.037-.161-.087-.03-.007-.014-.007v-.03l-.007-.021v-.022h-.015l-.044-.014-.03-.022-.021-.03-.014-.036.007-.037v-.03l-.022-.044-.044-.058-.014-.073v-.066l-.007-.007-.015-.014-.007-.015v-.021l.007-.014.051-.022-.072-.03-.03-.021-.022-.044v-.022l.008-.044-.01-.016-.014-.014-.044-.022-.015-.014v-.03l-.051-.087-.022-.037-.028-.182-.008-.022-.007-.007-.007-.022-.007-.007-.015-.007-.021-.007h-.009l-.007-.015.007-.021v-.015l-.007-.007-.029-.014v-.008l-.007-.03-.022-.02-.014-.015-.007-.015v-.021l-.008-.022-.007-.014-.007-.015.014-.036v-.044l-.028-.073-.008-.11-.014-.021-.016-.01-.022-.007-.014-.007-.007-.008-.007-.014-.08-.073-.015-.03.015-.036-.03-.066-.02-.029-.03-.03-.08-.036-.008-.014-.028-.044-.037-.037-.117-.059-.022-.014-.014-.014-.007-.015-.015-.021v-.03l-.007-.05-.007-.03-.051-.021-.103-.044-.05-.022-.03-.044-.015-.014h-.014l-.015-.008-.014-.014-.007-.03.014-.05v-.052l-.021-.022h-.037l-.044.022-.03.021-.014-.007v-.03l.014-.036.007-.03-.014-.007-.044-.007-.022-.007-.014-.015-.007-.021-.015-.044-.014-.037-.022-.037-.007-.03-.007-.021.007-.022-.014.008h-.015l-.014.007-.022-.007-.014-.008-.007-.03h-.015l-.028.008-.03.021-.029.015-.03-.014v-.015l.022-.03v-.028l-.014-.015-.007-.007-.008.007-.007.037-.021.022-.034.01-.08.006-.262-.058-.015-.007v-.022H8.99l-.015.015-.058-.008-.03-.014h-.014l-.014.007-.015.008-.014.007H8.8l-.022-.015-.021-.021-.022-.008-.03.022-.043-.014-.154.007-.058-.029-.015-.014-.073-.044-.058-.015-.022-.007-.007-.037-.03.007-.014-.021-.021-.022-.03-.007-.014.007-.022.03-.014.007-.022.007-.014.008-.008.021-.007.044-.007.022-.044.05v.008l-.175-.021h-.017l-.014.021-.022.014v.008h-.022l-.008-.022-.007-.007-.03.014-.065.03h-.095l-.015.007-.007.014v.015l-.007.02-.051.08-.015.03h-.007l-.03.05-.014.03-.014.015-.022.007.007.021v.008l-.014.007.007.021-.015.016-.014.015-.059.131-.014.014-.007.022-.008.022v.021l.008.022v.021l-.022.022v.014l.007.022v.007l-.014.007-.008.01-.015-.007-.007.007-.021.014-.008.008-.007.021v.037l-.03.066v.029l.008.014.037.03.014.021-.014.008-.052.007-.072.052-.015.014-.029-.022-.036.022-.052.095-.015.014-.014.015-.066.03-.014.007-.007.014-.015.037-.007-.007-.014.007-.015.058-.021.052-.045.021-.066-.014-.087-.037h-.095l-.022-.022.007-.037-.021.008-.007.007-.022-.037h-.016l-.014.022-.022.007-.022-.014-.044-.045-.014-.014-.014-.007-.066-.044-.08-.087-.008-.014-.007-.014v-.015l-.015-.014H6.02l-.138-.051-.044-.03-.073-.073-.015-.007-.022-.008-.007-.007.014-.044-.007-.014-.014-.015-.015-.007-.117-.022-.102-.03-.138-.058-.059-.044-.073-.094-.05-.029-.038-.037-.05-.065-.022-.066-.008-.007-.014-.007-.037-.037-.021-.037-.044-.014h-.044l-.03.014-.014-.03-.124-.094-.014-.007-.007-.007-.007-.015v-.021l-.008-.008-.022-.03-.073-.057-.021-.03v-.065l-.008-.022-.028-.058-.008-.08-.014-.03-.029-.028-.021-.037-.008-.014-.014-.088-.029-.044-.007-.014v-.014l-.022-.022v-.014l-.007-.015.007-.03v-.014l-.014-.11v-.043l.007-.037.029-.066.007-.044.007-.066v-.043l-.021-.03-.022-.065-.014-.021-.029-.015-.007-.007-.015-.037-.014-.058-.022-.044-.028-.022-.008-.007v-.045l-.007-.014-.007-.015-.022-.014-.007-.014-.02-.023v-.007l.007-.014v-.044l-.014-.03V12.828l.014-.021v-.015l-.007-.008-.021-.022V12.704l-.008-.014-.014-.037-.044-.059-.007-.021-.007-.007-.052-.015L4 12.544l-.008-.015v-.022l-.007-.021v-.015l-.015-.028-.028-.03-.037-.022-.03-.007-.029-.016-.065-.102-.007.014-.022-.021-.008-.008h-.007v-.021l-.007-.008-.008-.007-.014-.007-.022-.007-.007-.03-.015-.007h-.007l-.015-.007h-.007l-.014.014h-.015l-.015-.007-.007-.007-.007-.014-.015-.008-.087-.058-.044-.014-.015-.023-.058-.087-.117-.11-.051-.072-.037-.022-.015-.03-.014-.065-.014-.037-.022-.022-.03-.021-.028-.03L3 11.5l-.014-.014-.022-.008-.117-.094-.014-.021-.007-.037-.103-.161-.03-.022-.021-.014v-.007l-.022-.015-.03-.021-.006-.015-.008-.037-.007-.014L2.578 11l-.059-.052-.03-.014-.036-.007-.029-.016-.051-.044-.066-.022-.037-.021-.014-.023-.051-.044-.007-.007v-.022l-.008-.021-.014-.03-.058-.087-.015-.03-.021-.138-.03-.058-.029-.073-.051-.059-.051-.03h-.073l-.03-.014-.087-.11-.014-.013-.023-.008-.021-.007-.007-.022-.008-.021.008-.015-.03-.058-.006-.037v-.044l-.008-.036-.022-.074v-.028h.03l.036.007.35.037.351.036.35.037.351.037.35.037.35.037.351.03.35.036.351.029.35.037.35.03.343.028.35.03.351.03.358.02.35.03.014-.262.022-.255.022-.255.021-.263.022-.255.014-.262.022-.256.021-.262.019-.26.015-.255.022-.263.021-.255.022-.262.021-.255.015-.263.021-.255.024-.256.021-.262.022-.256.014-.262.022-.255.023-.263.022-.256.014-.255.022-.262.022-.255.022-.263.021-.255.015-.262.022-.256.022-.255.022-.263V1.88h.116l.14.015.21.015.284.021.328.022.372.021.394.022.409.029.4.021.401.022.365.014.335.022.277.007.219.015.138.007H12.45l-.008.094-.007.211-.007.212-.007.21-.005.217-.015.211-.007.211-.008.211-.007.212-.007.21-.014.212-.008.211-.007.211-.007.212-.008.221-.007.211-.015.212v.101h.022l.073-.007.021.007.015.007.029.008.014.014.248.255.03.051.021.022.029.007.087.015.03-.008.014-.007.015-.021.014-.008.014-.007.073.015.059.036.03.015.036.007.022-.014.014-.03.014-.087.015-.022h.021l.03.022.006.014.008.007v.015l.014.014.014.007.015.008h.029l.03.014.014.03.007.028.014.03.044.051.03.03-.007.013-.008.022v.102l.008.03.021.02.037.008h.073l.029.007.058.022h.066l.022-.015h.03l.028.008.117.08.029.014.19.044.021.014.103-.044.036-.007.022.007.044.008.022.014.021.044.007.007.022.015.051.065.022.015h.073l.044-.008.007-.014.021-.029.022-.037.022-.03.036-.006.212.028h.044l.072-.028h.037l.03.021-.003.05-.008.057.008.037.007.066.058.03.073.014.051.021h.015l.014.015v.014l-.007.022.007.021V7l-.007.037-.007.021v.008l-.008.03.015.014.037.021.065.022.066-.007.065-.037.132-.131.058-.044.058-.022.059.03.014.036-.007.066.014.037.022.014.102-.007.037.007.022.015.014.021v.044l.007.044.03.015.094-.008.022-.007.007-.007.007-.007.022-.007.007-.008v-.007l.015-.021v-.008l.021-.015.022.007.044.037.007-.014.029-.044V7.11l.007-.008.007-.007.025-.007.007-.007.022.014.014.022.015.014.007.03-.007.029-.037.044-.007.036.007.044.021.052.03.036.036.03.051-.008.03-.03.014-.044v-.058l.007-.014.038-.022v-.03l-.014-.007-.008-.014-.007-.03.059.015.028-.008.03-.03.022-.05.007-.052v-.02l.007-.015h.007l.007-.007.059-.007H17.018l.014.007.014.014.008.008.007.014.007.058.007.015.007.014.022.022.007.007h.023l.059-.007.014.007.015.007.036.03.008.007h.064l.015-.007.007-.007h.007l.007-.008.008-.007v-.014l.021-.059.015-.014v-.007h.05l.037.021.014.015v.007l-.014.037-.005.007v.007l.007.015v.007l.007.007.022.022.058.014.037.022.007.007.008.014v.015l.007.014.014.007.103-.007.028.007.037.044.044.073.044.044.044-.029.007-.044v-.02l.015-.021h.037l.065.007.03-.007.03-.015.014-.03.03-.065.014-.007.014-.007.037-.015.014-.007h.095l.058-.022.029-.021.022-.015h.007l.007-.014.014-.014.022-.015.014.007.022.015.087.058.015.007.044-.007.007-.014.007-.007.014-.008.008.015.007.007.014.007.015-.014-.006-.053.014-.014h.088l.007-.015.021-.007.015-.014h.014l.037-.022h.007l.022.007h.014l.022-.037.014-.014.022.007.021.015.015.014.021.014.008.03-.015.022.022.014h.051v.007l.007.007.007.008h.008l.007-.008.007-.007h.014l.008.007.014.008.007.014H19.427l.007-.007.008-.007.007-.008v-.028h.014l.015.007.021-.007.015-.008.007-.007.007-.014.022.014.007-.021v-.038l.007-.029.029-.021h.03l.102.03.014.014.007.007.014.014.007.015.051.007.03.021.051.044.021.022.022.007h.065l.015.015.007.007.007.007v.03l.014.014h.015l.014.014.007.008.022.044.058.058.103.014.037.015h.021l.022.007.021.044.03.014.014.015.008.007.014-.007.014-.007h.015l.021.007.015.007.021.007.015.015.037-.008.036.008-.007.007-.007.007.022.014.08.022v-.013l.021.015h.051l.03.007.014.037.008.036.03.03.043.007.037-.007v.014l-.02.015.014.021.03.008.029-.022.037.022.014-.022.007-.03.015-.021h.03l.072.037.022-.008.021-.021.022-.007.051.03.03.006h.036l.03-.014.043.03.022.014.014.007.007.117.008.226.007.219v.226l.007.219.007.218v.218l.007.219.008.218v.219l.007.218v.219l.007.218V10.63l.007.007.007.007.022.014.007.007.022.015.007.007.037.058.007.008.007.007.007.007.052.022.014.014.029.029.021.03.015.021.007.022.007.014.015.022.036.058.008.022.014.065.007.022v.014l.007.008.008.007.007.007v.021l-.007.03-.008.014v.08l-.007.014-.007.014V11.348l.007.022.007.007.008.014.014.022.044.051.014.008.008.007h.007l.044.014h.007l.007.007.007.008v.014l-.007.007v.007h-.007l-.014.015v.007l-.008.007.008.014v.008l.007.007.007.007h.007l.022.007h.007l.007.008v.014l.007.014.008.03v.014l.007.014.014.021.03.022.021.014v.015l-.014.021-.007.008-.007.021v.043l.007.008.007.007.044.037.014.021.008.008v.007l.007.007v.014l.007.015.007.007.007.014v.015l.008.044.007.014v.007h.007l.007.008h.015l.03-.008.028.008.007.028v.08l-.007.022-.014.022v.021l.044.066.021.021.013.031-.007.015-.007.014-.044.015h-.015l-.021.021.014.044.022.037.014.014.014.022-.007.007-.007.022-.022.021-.014.017-.007.021v.022l.014.037v.057l-.007.03-.058.11-.008.086-.014.03-.058.044-.015.03-.015.094-.007.022-.029.007-.022.022-.014.036v.044l.014.008.008.007v.044l.021.05v.052l-.014.03-.037.044-.022.044-.007.037.007.08.015.03.03.02.021.03.007.043-.007.015-.014.037v.021l.007.022.014.021v.015l.007.037.008.021v.037l-.008.037-.021.044v.014l.014.022-.095.108z"/></svg>