<svg xmlns="http://www.w3.org/2000/svg" fill="none" viewBox="0 0 24 24"><path fill="#fff" d="M12 2.398c-5.302 0-9.6 4.299-9.6 9.6 0 5.302 4.298 9.6 9.6 9.6s9.6-4.298 9.6-9.6c0-5.301-4.299-9.6-9.6-9.6zM8.397 6.721c.673 0 1.122.449 1.122 1.047 0 .598-.449 1.047-1.197 1.047C7.65 8.816 7.2 8.366 7.2 7.768c0-.598.449-1.047 1.197-1.047zM9.6 15.998H7.2v-6.4h2.4v6.4zm8 0h-2.26v-3.497c0-.967-.602-1.19-.827-1.19-.226 0-.98.148-.98 1.19v3.497H11.2v-6.4h2.334v.893c.301-.52.903-.893 2.033-.893s2.033.893 2.033 2.903v3.497z"/></svg>