<svg xmlns="http://www.w3.org/2000/svg" viewBox="0 0 56 56"><path fill="#fff" d="M48 50.1H8c-3.8 0-7-3.2-7-7V12.9c0-3.8 3.2-7 7-7h40c3.8 0 7 3.2 7 7v30.3c0 3.8-3.2 6.9-7 6.9z"/><path fill="#008300" d="M46.5 47h-37C6.4 47 4 44.6 4 41.6V14.4C4 11.4 6.4 9 9.5 9h37c3.1 0 5.5 2.4 5.5 5.5v27.1c0 3-2.4 5.4-5.5 5.4z"/><path fill="#68ff58" d="M43.9 43.3H12.1c-3.1 0-4.4-1.8-4.4-4.4V23h40.5v16c0 2.6-1.3 4.3-4.3 4.3z"/><path fill="#fff" d="M4 14h47.9v5H4z"/><path fill="#008300" d="M16.9 33.9l5.7-7.9s.9-1.3 2.6 0c1.8 1.3.4 2.4.4 2.4s-6.3 9.2-6.8 9.6c-.7.9-2 .9-2.8 0-.4-.4-5.5-6.1-5.5-6.1s-.9-.9.4-2c1.3-1.3 2.2-.4 2.2-.4l3.8 4.4z"/></svg>