<svg xmlns="http://www.w3.org/2000/svg" fill="none" viewBox="0 0 24 24"><path fill="#757372" d="M12 1.6a.8.8 0 0 0-.56.228L2.715 8.966a.798.798 0 0 0-.03.023l-.03.025v.002A.8.8 0 0 0 3.2 10.4H4v8.8a1.6 1.6 0 0 0 1.6 1.6h12.8a1.6 1.6 0 0 0 1.6-1.6v-8.8h.8a.8.8 0 0 0 .545-1.384v-.002l-.012-.01a.789.789 0 0 0-.055-.045L20 7.914V4.8a.8.8 0 0 0-.8-.8h-.8a.8.8 0 0 0-.8.8v1.152l-5.047-4.129-.01-.009A.8.8 0 0 0 12 1.6zM6.438 12h3.678v.775l-2.252 2.98v.064h2.322v.981H6.4v-.775l2.252-2.981v-.063H6.438V12zm4.951 0h1.222v4.8h-1.222V12zm3.011 0h2.103c1.031 0 1.728.671 1.728 1.703 0 1.02-.734 1.69-1.801 1.69h-.808V16.8H14.4V12zm1.22.938v1.534h.554c.519 0 .823-.267.823-.766 0-.505-.302-.768-.817-.768h-.56z"/></svg>