<svg width="24" height="24" viewBox="0 0 24 24" fill="none" xmlns="http://www.w3.org/2000/svg">
<g clip-path="url(#clip0)">
<rect x="1" y="15" width="22" height="5" fill="#ABFFE8"/>
<rect x="1" y="3" width="22" height="12" fill="white"/>
<path d="M16.2741 8.34905V7H17.7259V8.35603C18.9969 8.5796 19.8364 9.3814 19.8611 10.4835H18.1782C18.1382 9.98568 17.6573 9.63811 17.017 9.63811C16.3768 9.63811 15.9551 9.93684 15.9551 10.4054C15.9551 10.7911 16.2727 11.0144 17.0269 11.1616L17.9499 11.3373C19.364 11.6059 20 12.2368 20 13.3546C20.0007 14.6182 19.153 15.4465 17.7259 15.6565V17H16.2741V15.6621C14.8804 15.4671 14.0261 14.6851 14 13.5151H15.7382C15.7832 14.0279 16.3025 14.3563 17.0567 14.3563C17.7369 14.3563 18.2037 14.0338 18.2037 13.5695C18.2037 13.1788 17.8911 12.9685 17.0723 12.8078L16.1295 12.6222C14.8192 12.3779 14.1446 11.6744 14.1446 10.5658C14.1446 9.39228 14.9639 8.56834 16.2741 8.34905Z" fill="#25836B"/>
<path fill-rule="evenodd" clip-rule="evenodd" d="M12 8.5C12 8.77614 11.7761 9 11.5 9H2.5C2.22386 9 2 8.77614 2 8.5C2 8.22386 2.22386 8 2.5 8H11.5C11.7761 8 12 8.22386 12 8.5Z" fill="#25836B"/>
<path fill-rule="evenodd" clip-rule="evenodd" d="M10 10.5C10 10.7761 9.77614 11 9.5 11H2.5C2.22386 11 2 10.7761 2 10.5C2 10.2239 2.22386 10 2.5 10H9.5C9.77614 10 10 10.2239 10 10.5Z" fill="#25836B"/>
<path d="M0.617773 3.80275C0.617773 3.24944 1.08053 2.77628 1.68206 2.77628L22.2535 2.77628C22.855 2.77628 23.3178 3.24944 23.3178 3.80275V19.4498C23.3178 20.0031 22.855 20.4763 22.2535 20.4763H1.68206C1.08053 20.4763 0.617773 20.0031 0.617773 19.4498L0.617773 3.80275Z" stroke="#25836B" stroke-width="1.3"/>
<path fill-rule="evenodd" clip-rule="evenodd" d="M5.93769 16.7678C5.93772 16.7677 5.9387 16.7696 5.94054 16.7742C5.93858 16.7702 5.93766 16.7679 5.93769 16.7678ZM6.06424 17.4034C6.06949 17.5131 6.08631 17.6029 6.09947 17.6699C6.10068 17.6761 6.10184 17.682 6.10296 17.6876C6.11712 17.7595 6.12355 17.7921 6.12597 17.8333C6.13826 18.0423 6.26082 18.1796 6.36018 18.2497C6.44862 18.3121 6.53838 18.3383 6.58945 18.3506C6.69584 18.3762 6.80768 18.38 6.88329 18.3803C6.96694 18.3806 7.04993 18.3764 7.11176 18.3727L7.19114 18.3678C7.2102 18.3666 7.21699 18.3664 7.21699 18.3664C7.21699 18.3664 7.21641 18.3664 7.21538 18.3664C7.62406 18.3664 7.91608 18.091 8.06953 17.9257C8.15224 17.8367 8.22676 17.7431 8.28735 17.6656C8.31223 17.7092 8.3411 17.7518 8.37471 17.7923C8.58461 18.0457 8.88002 18.1164 9.15636 18.1164C9.68324 18.1164 10.0405 17.9123 10.343 17.7394L10.3454 17.738C10.4285 17.6905 10.5099 17.6339 10.571 17.5914C10.5761 17.5878 10.581 17.5844 10.5857 17.5811C10.6568 17.5318 10.7058 17.4987 10.7496 17.4747C10.7582 17.47 10.7656 17.4662 10.7718 17.4632C11.0062 17.5458 11.2708 17.443 11.3848 17.215C11.5083 16.968 11.4082 16.6677 11.1612 16.5442C10.7943 16.3607 10.4582 16.494 10.2687 16.5979C10.1718 16.6511 10.0816 16.7137 10.0152 16.7598C9.94022 16.8119 9.8926 16.845 9.84926 16.8698C9.55124 17.0401 9.39681 17.1164 9.15636 17.1164C9.15072 17.1164 9.14547 17.1163 9.14058 17.1162C9.13434 17.0873 9.12789 17.0483 9.12168 16.9955C9.10509 16.8544 9.06133 16.6065 8.86584 16.4394C8.59383 16.2069 8.29036 16.3115 8.16436 16.3789C8.03933 16.4458 7.93753 16.5448 7.87659 16.6073C7.82685 16.6584 7.77415 16.7178 7.73557 16.7613C7.72387 16.7745 7.71348 16.7862 7.70485 16.7958C7.64589 16.8613 7.58365 16.9414 7.53186 17.0081C7.52441 17.0177 7.51717 17.027 7.5102 17.036C7.44821 17.1155 7.39262 17.1851 7.33676 17.2452C7.25075 17.3379 7.20588 17.3616 7.19703 17.3666C7.17298 17.3671 7.14879 17.3685 7.13211 17.3695L7.06428 17.3737C7.06313 17.3606 7.06261 17.3481 7.06261 17.3351C7.06261 17.2631 7.04554 17.1513 7.0331 17.0751C7.01737 16.9788 6.99527 16.8605 6.9693 16.7461C6.94479 16.6381 6.91145 16.5089 6.86944 16.4039C6.85253 16.3616 6.81357 16.2681 6.741 16.1854C6.7052 16.1445 6.61936 16.0573 6.47701 16.0185C6.31069 15.9731 6.15273 16.0157 6.03843 16.0966C6.03142 16.099 6.02175 16.102 6.00506 16.1071C6.00292 16.1078 6.00057 16.1085 5.99802 16.1092C5.98101 16.1144 5.9556 16.122 5.93062 16.1304C5.79284 16.1765 5.58409 16.2707 5.44098 16.5211C5.41261 16.5708 5.38269 16.6169 5.34772 16.6694C5.3421 16.6778 5.33615 16.6867 5.32993 16.6959C5.30032 16.7401 5.26486 16.7931 5.23213 16.8463C5.14511 16.988 5.06186 17.1558 5.01173 17.3842C4.95253 17.6539 5.12318 17.9206 5.3929 17.9798C5.66262 18.039 5.92927 17.8683 5.98848 17.5986C6.00537 17.5216 6.02945 17.4644 6.06424 17.4034ZM9.15645 17.1713C9.15645 17.1713 9.15642 17.1712 9.15636 17.1711C9.15642 17.1712 9.15645 17.1713 9.15645 17.1713Z" fill="#25836B"/>
</g>
<defs>
<clipPath id="clip0">
<rect width="24" height="24" fill="white"/>
</clipPath>
</defs>
</svg>
