<svg xmlns="http://www.w3.org/2000/svg" fill="none" viewBox="0 0 24 24"><path fill="#fff" fill-rule="evenodd" d="M12 22c5.523 0 10-4.477 10-10S17.523 2 12 2 2 6.477 2 12s4.477 10 10 10zm0-1.667a8.333 8.333 0 1 0 0-16.666 8.333 8.333 0 0 0 0 16.666z" clip-rule="evenodd"/><path fill="#fff" d="M12 6.167c-2.062 0-2.917 1.434-2.918 3.16 0 .581.257 1.166.257 1.166-.103.064-.272.267-.23.63.08.676.35.847.523.862.066.63.691 1.437.91 1.555v1.053c-.374 1.216-2.185.828-3.444 1.91A6.645 6.645 0 0 0 12 18.668c1.94 0 3.683-.838 4.902-2.163-1.259-1.083-3.07-.697-3.444-1.913v-1.053c.22-.117.844-.924.91-1.554.173-.015.443-.185.523-.861.042-.363-.128-.568-.232-.632 0 0 .258-.528.258-1.165 0-1.28-.464-2.37-1.459-2.37 0 0-.345-.79-1.458-.79z"/></svg>