<svg width="64" height="64" viewBox="0 0 64 64" fill="none" xmlns="http://www.w3.org/2000/svg">
<path d="M19 14C17.346 14 16 15.346 16 17V19H14C12.346 19 11 20.346 11 22V46C11 47.654 12.346 49 14 49H56C57.654 49 59 47.654 59 46V44H61C62.654 44 64 42.654 64 41V39L19 14ZM57 46C57 46.551 56.552 47 56 47H14C13.448 47 13 46.551 13 46V22C13 21.449 13.448 21 14 21H56C56.552 21 57 21.449 57 22V46ZM62 41C62 41.551 61.552 42 61 42H59V22C59 20.346 57.654 19 56 19H18V17C18 16.449 18.448 16 19 16H61C61.552 16 62 16.449 62 17V41ZM64 39C64 31.1895 64 17 64 17C64 15.346 62.654 14 61 14C61 14 35.402 14 19 14L64 39Z" fill="#757372"/>
<path fill-rule="evenodd" clip-rule="evenodd" d="M16 19H14C12.346 19 11 20.346 11 22V46C11 47.654 12.346 49 14 49H56C57.654 49 59 47.654 59 46V44V42V22C59 20.346 57.654 19 56 19H18H16ZM57 46C57 46.551 56.552 47 56 47H14C13.448 47 13 46.551 13 46V22C13 21.449 13.448 21 14 21H56C56.552 21 57 21.449 57 22V46Z" fill="#25836B"/>
<path fill-rule="evenodd" clip-rule="evenodd" d="M57 46C57 46.551 56.552 47 56 47H14C13.448 47 13 46.551 13 46V22C13 21.449 13.448 21 14 21H56C56.552 21 57 21.449 57 22V46Z" fill="#D7FFF4"/>
<path d="M35 27C31.141 27 28 30.14 28 34C28 37.86 31.141 41 35 41C38.859 41 42 37.86 42 34C42 30.14 38.859 27 35 27ZM35 39C32.243 39 30 36.757 30 34C30 31.243 32.243 29 35 29C37.757 29 40 31.243 40 34C40 36.757 37.757 39 35 39Z" fill="#25836B"/>
<path d="M51 24V23H19V24C19 25.387 17.689 27 16 27H15V41H16C17.689 41 19 42.613 19 44V45H51V44C51 42.613 52.311 41 54 41H55V27H54C52.311 27 51 25.387 51 24ZM53 39.11C51.104 39.53 49.53 41.103 49.11 43H20.89C20.47 41.103 18.897 39.53 17 39.11V28.89C18.896 28.47 20.47 26.897 20.89 25H49.11C49.53 26.897 51.103 28.47 53 28.89V39.11Z" fill="#25836B"/>
<path d="M35 37C36.6569 37 38 35.6568 38 34C38 32.3431 36.6569 31 35 31C33.3431 31 32 32.3431 32 34C32 35.6568 33.3431 37 35 37Z" fill="#25836B"/>
<path fill-rule="evenodd" clip-rule="evenodd" d="M10 23C10 23.5523 9.55228 24 9 24L1 24C0.447715 24 3.91405e-08 23.5523 8.74228e-08 23C1.35705e-07 22.4477 0.447715 22 1 22L9 22C9.55228 22 10 22.4477 10 23Z" fill="#C95308"/>
<path fill-rule="evenodd" clip-rule="evenodd" d="M10 30C10 30.5523 9.55228 31 9 31L3 31C2.44772 31 2 30.5523 2 30C2 29.4477 2.44772 29 3 29L9 29C9.55228 29 10 29.4477 10 30Z" fill="#C95308"/>
<path fill-rule="evenodd" clip-rule="evenodd" d="M10 37C10 37.5523 9.55228 38 9 38L5 38C4.44772 38 4 37.5523 4 37C4 36.4477 4.44772 36 5 36L9 36C9.55228 36 10 36.4477 10 37Z" fill="#C95308"/>
<path fill-rule="evenodd" clip-rule="evenodd" d="M10 44C10 44.5523 9.55228 45 9 45L7 45C6.44772 45 6 44.5523 6 44C6 43.4477 6.44772 43 7 43L9 43C9.55228 43 10 43.4477 10 44Z" fill="#C95308"/>
</svg>
