<svg xmlns="http://www.w3.org/2000/svg" fill="none" viewBox="0 0 24 24"><path fill="#1395D8" d="M8.195 18.324l.016.008.016.016.008.016v.024l-.097-.024-.048-.016-.041-.04-.024.023-.016-.016.008-.016.04-.016.05.008.023-.008.024-.032.008.016.008.024.008.016.017.017zm2.717 2.014l-.024-.016-.04-.024-.033-.032-.016-.032.016-.024.049.008.04.016.09.096.032.016.13.09.015.031.065.17-.016.024-.024.008-.032-.016-.049-.049-.024-.008h-.016l-.049.008h-.016l-.04-.016-.016-.032-.008-.032.008-.049.016-.089-.008-.031-.05-.017zM9.505 18.72l-.024.024-.041.008-.388-.016-.057-.024-.057-.049-.032-.049.032-.04-.008-.032-.016-.024-.016-.024-.024-.016-.008-.008.008-.008.024-.008.008-.008h.016l.05.016.072.072.032.016.065.008.032.016.13.097.023.008.008-.008.081-.04.032-.009.016.008.008.008.041.05v.007l-.007.025zm-.825-.258l-.016.049.008.056.024.032h.057l-.016.049-.024.024-.024.016-.105.032-.016.008-.024-.016-.016-.008h-.016l-.024.008h-.032l-.032-.032-.032-.032-.008-.024-.008-.04-.016-.058-.024-.048-.024-.041.032-.008.065.032.04.008h.025l.024-.008h.016l.104.016h.032l.03-.015zm.502 1.77l.048.032.041.057.008.049-.065.008-.056-.024-.05-.041-.031-.057v-.064l.016.016.024.008.016-.008.024-.008.024.024v.008zm1.738 1.383l-.024.008h-.024l-.04-.016h-.017l-.008.008h-.032l-.032-.024-.032-.032-.032-.04-.016-.081-.04-.105-.009-.08-.024-.058-.008-.065.008-.04.024.008.016.008.024.016v.064l.008.016.008.016.016.064.024.041.065.081.041.097.04.032.064.082zm7.731-1.48v.041l-.016.024-.065.032-.064.049-.065.057H18.4l-.194.088-.064.008-.032.024-.024.032-.032.09-.024.031-.032.024-.033.024-.073.032-.032.024-.024.041v.024l.016.024.024.049-.008.016-.016.016-.032.024v.024l-.016.057v.049l.016.023v.04l-.008.024-.008.008-.008.008v.024l.016.041-.016.024-.024.024-.024.024-.024.049-.008.04v.025l-.008.008-.016.008-.008.024v.049l-.008.024-.008.016-.032.024-.04.024-.017.024-.032.04-.08.105-.041.024h-.041l-.081-.008-.024.008.008.024.008.024.008.024.008.024-.008.016-.024.016-.024.049-.008.032.04.073.009.032-.008.121-.024.081-.041.073-.016.073.032.08.065.041.153.041.05.041.031.08v.049l-.008.016-.008.024v.137l-.008.041-.024.024-.073.032-.032.024-.008.032-.008.041-.008.032-.024.025-.078.015-.178-.073-.072.032-.008.024-.073-.008-.13-.016-.121-.016-.13-.008-.13-.016-.13-.016-.12-.016-.13-.008-.13-.016-.13-.016-.13-.016-.12-.016-.13-.008-.13-.016-.13-.016-.121-.016-.13-.016-.13-.016-.129-.016-.122-.016-.13-.016-.129-.008-.13-.016-.129-.016-.122-.016-.13-.016-.129-.016-.13-.016-.121-.016-.13-.024-.13-.016-.129-.016-.121-.016-.016-.016.008-.057.016-.048v-.05l-.016-.072-.016-.049-.032-.04-.05-.009.025-.015.016-.017h.024l.032.024-.008.024.024.024.008.041.016.049.008.032.016.008.016-.016v-.044l-.008-.049-.024-.049-.016-.016-.032-.032-.024-.016-.024-.016h-.04l-.024.024-.016.057-.016.016v-.024l-.008-.04v-.025l.032-.08.008-.041.008-.032-.032-.073.008-.049.016-.016.024-.016.032-.04.008-.033v-.21l-.008-.032v-.032l-.008-.114-.049-.21-.162-.388-.13-.146-.08-.13-.016-.023-.065-.065-.032-.032-.049-.105-.064-.08-.178-.154-.04-.057-.178-.283-.024-.016-.05-.016-.031-.008h-.032l-.032-.041h-.064l-.016.016-.024.057-.008.016v.016l-.016.008h-.016l-.016-.008-.016-.016-.016-.008-.016-.016-.008-.024-.016-.024h-.016l-.016.008-.024-.008-.016-.008-.008-.008-.024-.057.016-.032.032-.016.016-.024.024-.065V19.5l-.016-.081-.016-.105-.041-.113-.04-.057-.042-.049-.04-.016-.032.008h-.032l-.008-.016-.024-.008-.25-.032-.042.008-.032.016-.024-.04-.056-.04-.081-.032-.154-.09-.113-.12-.057-.025v.024h.016l.016.008.016.008-.049-.017-.04-.032-.058-.088-.008-.008-.016-.008-.008-.016v-.04l-.016-.032v-.056l.008-.024-.016-.016v-.016l.008-.024-.008-.016-.008-.016-.016-.008-.04-.008-.024-.016-.154-.227-.057-.032-.089-.08-.032-.041-.016-.016h-.016l-.04-.008-.032-.024h-.086l-.024.008-.016.016-.024.008-.024-.008-.04-.032-.033-.032-.016-.024-.024-.016h-.032l-.04.008h-.033l-.153-.13-.081-.065-.097.008-.057-.049-.08-.024-.25-.048-.162-.008-.073-.016-.016-.09-.032-.08-.049-.065-.032-.008-.049-.032-.04-.024-.017-.024v-.024l.024-.032.032-.056.016-.033.024-.023.024-.033.016-.048v-.041l-.008-.041-.016-.032.024-.049.041-.073.016-.04v-.048l-.008-.016-.008-.016-.032-.057-.008-.016.024-.049.081-.113.032-.073.024-.08.008-.073v-.065l-.008-.008-.024-.024-.016-.008-.016-.04-.016-.017-.024-.008h-.064l-.008.008-.04-.04-.082-.065-.034-.066-.008-.032v-.032l.024-.073.08-.113.009.008-.024.032.008.016h.024l.032-.008-.008-.032-.016-.05-.008-.023v-.065l-.008-.024-.008-.032-.041-.032-.105-.049-.032-.04-.032-.057-.032-.073-.04-.081-.025-.114-.032-.064-.056-.024-.073-.073-.041-.016-.024-.138.008-.097-.008-.048-.049-.05-.016-.023-.024-.073-.04-.064-.017-.032v-.04l.008-.05.008-.048-.008-.041-.008-.032-.008-.032-.024-.032-.024-.024-.04-.016-.024-.016-.008-.041-.008-.08-.042-.163-.032-.065-.122-.146-.048-.024-.016-.024-.008-.024v-.048l-.008-.016-.016-.016-.016-.016-.008-.024v-.024l.008-.024-.008-.064v-.016l.024-.09.008-.088-.016-.105.008-.04.008-.017.032.008.016-.016v-.032l-.016-.016-.016-.016-.016-.024-.024-.016.056-.064.024-.024.032-.008.024.016.024.032.016.024.041-.008.032-.024.032-.032.024-.041.033-.089.016-.016.024.008.032.016.008-.008.008-.016v-.024h-.032l-.008-.008-.016-.008.065-.114-.016-.064-.049-.203-.024-.073-.04-.032-.042-.008-.064.016-.024-.032H6.974l-.032-.016-.032-.024-.097-.105-.032-.065-.057-.146-.08-.104-.009-.032v-.032l-.016-.032-.032-.057-.016-.081.024-.073.032-.08.032-.081.008-.041.008-.049-.008-.04-.008-.042-.008-.04.008-.09-.016-.048-.016-.008-.016-.008-.024-.008-.008-.024.008-.089.024-.049.041-.048.024-.032.016-.081v-.089l.016-.089.049-.072.032-.008h.032l.065.016.032.016.008.024v.105l-.008.016.008.008.024.008h-.032l-.008.008-.016.024-.041.122-.008.016.008.032-.008.016v.016l.016.024.016.008.024.008.008.008.008.016.016.048.016.008h.057l.008.008v.041l.008.008.016.008.016.024v.04l.008.016h.032l.016.016.016.016.008.024h.024l.008.032.008.041.016.032.024.016.032.016h.032l.032-.016-.024-.016-.008-.008-.008-.008.008-.008v-.016l.008-.008-.008-.024-.008-.008-.008-.008-.041-.008-.016-.032-.005-.051v-.25l-.008-.09-.008-.015-.016-.016-.04-.008-.009-.008.016-.024-.024-.024h-.008l.073-.008-.024-.032-.073-.05-.032-.015-.016-.024.008-.049.049-.065.008-.105-.04-.05-.058-.049-.024-.08h.032l.032-.017.024-.024.024-.04h.016l.008.016.016.008h.04l.097-.057.024-.008h.041l.032.024.04.065.033.016h.04l.081-.024.041-.008.186.08.065.05.185.072.057.04.032.017.04-.008-.048-.032-.008-.008.016-.008.016-.008h.032l.008-.008.008-.016.008-.016.008-.016.008-.016h.016l.04.008h.009l.016-.008.016-.008h.016l.008.016.008.016-.008.016.008.016.04.065.033.024h.024l.008.032.024.04.024.032.024.016v-.008l-.008-.04-.016-.041-.016-.024-.024-.016-.081-.122-.016-.016-.024-.016-.041-.008H8.28l-.016.016h-.008l-.008-.008-.016-.008-.008-.008-.008.008-.032.016-.008.016-.008.025-.024.016-.04.008-.074-.008-.008-.008-.008-.016.008-.016.008-.016.016-.008h.056l.041-.016.024-.024.024-.032.024-.049h-.008l-.073.065-.04.032-.041.008-.065-.008h-.016L7.92 9.63h-.016l-.008.016-.024.008H7.84l-.024-.008L7.8 9.63h.008l.016-.008.016-.024-.08-.024-.066-.04.05-.057.007-.024-.024-.032h-.056l-.032.008-.016.008-.008.008-.024.04-.008.017-.016.008-.065.04h-.048l-.032-.008-.064-.056-.05-.024-.015-.016-.016-.016v-.024l-.016-.041-.146-.146-.04.05-.041.023-.041-.008-.065-.008v.049l-.032.113v.048l.032.041.008.016-.049.008-.016.008-.008.024.008.024-.016.008-.016.008h-.008l.008.032.041.057.008.032-.008.032-.016.008-.016-.016v-.032l-.032.016.008.024.008.032-.008.04-.024.009h-.045l-.032-.024L6.7 9.8l-.016-.024-.04-.057-.033-.065-.064-.097v.032l-.016.024-.024.008-.016-.016-.024-.064-.016-.024-.032-.032-.008-.016v-.065L6.4 9.38l-.016-.024-.008-.008-.089-.08-.032-.05-.008-.072-.016.016-.008.008-.016.008h-.016l.008.032.008.008.008.008-.024.008-.024.016-.008.016-.024.024h-.008v.008h-.024l-.04-.016.015-.024.065-.065.105-.186.016-.057-.016-.13.024.042.057.104.008.041v.057l.024.049.024.049.015.048.008-.048-.016-.05-.04-.096-.033-.146-.032-.064V8.733l-.016-.041-.073-.089-.016.041v.016l-.008-.04.032-.098-.032-.048v-.13l-.032-.065-.161-.153-.041-.065-.154-.427-.032-.065-.05-.057-.024-.04V7.44l-.008-.024-.065-.09-.073-.154-.024-.08.016-.066.024-.024.032-.016.024-.016.016-.048.008-.024-.008-.041.008-.024.018-.065.008-.024-.016-.154-.024-.024v-.048l.008-.09V6.34l-.016-.024.016-.032-.008-.08.048-.066.057-.129.04-.08.033-.042.024-.008.016-.016-.008-.13.04-.137v-.08L5.858 5.5l-.016-.016v-.008l-.008-.032v-.05l.016-.088v-.04l-.113-.38-.041-.066-.008-.008-.032-.024-.008-.016-.008-.016.016-.049v-.008l-.032-.113-.024-.032-.066-.074-.145-.242-.016-.024-.024-.024.016-.049.04-.089.009-.049-.008-.137-.01-.049v-.024l.025-.032.024-.024.016-.032.008-.032.032-.049.032-.049.016-.024.065-.064.016-.024.008-.008h.016v-.008l-.008-.008V3.43l.042-.059.04-.04.066-.05-.008.017-.024.032v.008l.016.032.024.024.032-.032.024-.08.024-.008.056-.073.032-.016h.082l.032-.008.032-.041L6.1 3.12h-.016l-.057-.024-.016.008-.097.098-.04.024-.032.008.032-.041.096-.081.178-.267.016-.049v-.047L6.14 2.66l.008-.024v-.032l.008-.032.016-.032.032-.024.04-.065.05-.065.073-.122.049-.106.057-.104.024-.057.016-.13.008-.065.032-.024-.016-.016-.008-.016-.008-.016-.008-.024.008-.016.016-.056v-.008l-.008-.024v-.05l-.008-.057.008-.024.016-.065-.04-.08-.057-.073-.04-.04v-.008l.057-.049.057-.065.024-.024.064-.185V.8l.041.008.388.122.388.113.38.122.388.113.388.105.388.113.38.114.388.104.388.114.388.105.388.105.388.104.388.106.388.105.388.097.388.104-.097.364-.088.364-.097.372-.097.364-.088.364-.097.372-.097.364-.088.364-.097.372-.097.364-.089.372-.097.364-.098.364-.089.372-.097.364-.088.364-.032.112-.008.032.283.421.283.413.283.42.283.422.292.42.283.421.291.413.291.42.227.349.226.34.234.348.227.348.234.34.227.348.234.34.234.348.203.307.21.315.203.307.21.316.202.307.21.315.211.307.21.307.235.348.258.372.25.348.251.348v.016l-.032.243.008.024.024.016.024.016.008.032.008.032v.032l-.008.057.016.04.032.032.041.016.065.243.008.008v.024l-.008.049v.016l.008.04.024.016.008.024v.05h.008l.008.023-.008.024-.016.032-.008.016.008.032v.008l.008.016h.008l.024.008h.008l.008.008v.008l.008.016.008.008.032.024.008.008.016.041.121.13.024.016.016.016.016.032.041.04v.033z"/></svg>