<svg xmlns="http://www.w3.org/2000/svg" fill="none" viewBox="0 0 24 24"><path fill="#0351BA" d="M23.185 16.992l.015.477v.492h-.7l-.702.015h-.7l-.7.015h-2.804l-.698-.015h-.7l-.702-.015h-.7l-.701-.015-.7-.016-.701-.015-.7-.015-.702-.015-.7-.015-.701-.03-.7-.014-.701-.03-.7-.03-.702-.03-.7-.029-.698-.03-.7-.029-.7-.03-.686-.044-.7-.03-.701-.045-.701-.045-.7-.044.015-.358.03-.358.015-.342.03-.358.014-.357.015-.358.03-.357.015-.358.03-.358.015-.357.03-.358.015-.357.03-.358.014-.358.015-.358.03-.358.015-.342.03-.358.014-.357.03-.358.015-.357.015-.358.03-.358.015-.357.03-.358.015-.357.03-.358.015-.358.03-.357.015-.358.014-.345.03-.357.61.03.612.044.611.03.596.03.611.029.612.045.61.03.612.015.611.03.611.029.612.03.61.015.612.03.596.014.611.016.611.015.612.03.61.015.612.015h.611l.611.015.612.015h.61l.612.015h1.222l.612.016H20.387l.611-.016.18.164.03.06h.029l.045.016h.03l.014.03.016.044.015.03.015.015.03.015h.06l.03.015.029.015.09.104.059.03.06-.03.074-.03.074-.089.042-.016.06-.015h.06l.044.015.015.045v.044l-.03.045.045.059.135.074.03.03v.045l-.017.075v.09l.03.03.015.029v.03l-.059.06-.06-.016-.134-.03-.03.016-.014.03-.016.029v.09l-.015.03-.03.014-.029.016-.09.104-.044.06-.03.074.015.074v.045l-.015.03-.03.03h-.074l-.032.013v.074l.03.075.059.06.045.03.015.015.074.148.03.03.015.015.06.03.12.09.014.029.016.06.015.015.134.03-.031.059.03.164.059.149.104.06.03.045v.074l.015.09.06.03.06.014.133.09.06.03.09-.016.045.016.03-.016h.014l.016.016.015.03v.014h.074l.045.016.015.044-.044.045v.031h.015v.03l.015.282v.477l.015.492v.969l.015.492v.477l.015.492v.492l.016.477v.49l.015.492v.477l.015.492-.003.491z"/></svg>