<svg width="24" height="24" viewBox="0 0 24 24" fill="none" xmlns="http://www.w3.org/2000/svg">
<path fill-rule="evenodd" clip-rule="evenodd" d="M4 5C2.89543 5 2 5.89543 2 7V18C2 19.1046 2.89543 20 4 20H20C21.1046 20 22 19.1046 22 18V7C22 5.89543 21.1046 5 20 5H4ZM15.7646 13.5C15.96 13.6465 16.0576 13.8581 16.0576 14.1348C16.0576 14.3887 15.96 14.5872 15.7646 14.7305C15.5693 14.8704 15.2975 14.9404 14.9492 14.9404C14.0117 14.9404 13.543 14.5482 13.543 13.7637H12.0732C12.0732 14.2227 12.1904 14.6263 12.4248 14.9746C12.6624 15.3229 13.0059 15.598 13.4551 15.7998C13.9043 15.9984 14.4023 16.0977 14.9492 16.0977C15.737 16.0977 16.3636 15.9235 16.8291 15.5752C17.2946 15.2236 17.5273 14.7402 17.5273 14.125C17.5273 13.5716 17.3369 13.1094 16.9561 12.7383C16.5752 12.3672 15.9681 12.0563 15.1348 11.8057C14.6823 11.6689 14.3389 11.5225 14.1045 11.3662C13.8734 11.21 13.7578 11.0163 13.7578 10.7852C13.7578 10.5378 13.8571 10.3392 14.0557 10.1895C14.2542 10.0365 14.5326 9.95996 14.8906 9.95996C15.2617 9.95996 15.5498 10.0511 15.7549 10.2334C15.96 10.4124 16.0625 10.6647 16.0625 10.9902H17.5273C17.5273 10.5638 17.4167 10.1829 17.1953 9.84766C16.9772 9.51237 16.6696 9.25358 16.2725 9.07129C15.8753 8.88574 15.4229 8.79297 14.915 8.79297C14.4105 8.79297 13.9548 8.8776 13.5479 9.04688C13.1442 9.21615 12.8333 9.45215 12.6152 9.75488C12.4004 10.0544 12.293 10.3962 12.293 10.7803C12.293 11.5192 12.6966 12.1068 13.5039 12.543C13.8001 12.7025 14.2021 12.8652 14.71 13.0312C15.2178 13.194 15.5693 13.3503 15.7646 13.5ZM8.21094 12.9189H11.0234V11.7715H8.21094V10.0771H11.502V8.89062H6.74609V16H11.5117V14.8232H8.21094V12.9189Z" fill="#25836B"/>
</svg>
