<svg xmlns="http://www.w3.org/2000/svg" fill="none" viewBox="0 0 24 24"><path fill="#F1B82E" d="M20.85 20.482l-.076.17-.03.137h-.016l-.445.046-.46.03-.445.046-.444.03-.23.03-.016-.014-.015-.015v-.016l.015-.03.092-.23.03-.03.046-.108.03-.03.03-.046v-.015h.016l.015-.015.062-.016.03-.015h.015v-.015l.016-.015.015-.03v-.077l.015-.015v-.015l.015-.015.015-.015.03-.03h.016l.03-.016.077-.046.092-.061h.015v-.015l.016-.03v-.016l.015-.077v-.015l.015-.015.015-.015.077-.03.015-.016h.015l.016-.015v-.015l.015-.03v-.061l-.015-.108v-.03l.015-.092V19.41l-.015-.016v-.015l-.016-.015-.015-.015-.015-.015-.015-.016-.107-.061v-.017l-.016-.015v-.016l-.015-.015v-.091h-.015l-.015-.016-.015-.015h-.016v-.016l-.045-.092-.015-.03-.016-.016-.215.015-.859.047-.86.046-.858.045-.86.046-.859.045-.859.03-.86.046-.858.03-.86.031-.859.03-.859.03-.874.016-.86.015-.854.034-.86.016-.858.015-.016-.491v-.981l-.015-.492v-.506l-.015-.491v-.507l-.015-.506v-.49l-.015-.507v-.507l-.016-.49v-.505l-.015-.507v-.491l-.015-.507v-.997l-.016-.505v-.491l-.015-.291v-.03h-.015v-.031l.045-.046-.015-.047-.046-.015h-.077v-.015l-.015-.03-.016-.016H4.96l-.03.015-.047-.015-.092.015-.061-.03-.138-.092-.061-.016-.062-.03-.015-.093v-.076l-.03-.046-.108-.062-.061-.153-.03-.169.03-.062-.139-.03-.015-.015-.015-.062-.015-.03-.123-.092-.061-.031-.016-.016-.03-.03-.078-.154-.015-.015-.045-.03-.062-.062-.03-.077V7.43l.03-.016h.077l.03-.03.015-.031v-.046l-.015-.077.03-.076.047-.062.092-.107.03-.015.03-.016.016-.03V6.83l.016-.03.015-.03.03-.016.139.03.062.016.061-.062v-.03l-.015-.03-.031-.032v-.092l.015-.077v-.045l-.03-.031-.139-.077-.045-.06.03-.047v-.046l-.015-.046-.046-.016h-.061l-.062.016-.046.016-.076.092-.077.03-.062.03-.06-.03-.093-.107-.03-.015-.031-.016h-.062l-.03-.016-.015-.015-.016-.03-.016-.047-.015-.03h-.03l-.047-.015h-.03l-.03-.062-.184-.169-.077-.076-.047-.016-.138-.03-.046-.046V5.51l.016-.092.03-.077v-.061l-.092-.092-.015-.061-.046-.062-.092-.107.046-.092.015-.046-.03-.046-.062-.015-.107-.015-.046-.016-.031-.061-.03-.047-.03-.045-.047-.047h-.062l-.06.016-.047-.016-.015-.045.03-.03.03-.03.017-.032v-.015l-.047-.108-.045-.077-.016-.03v-.108l-.016-.061-.06-.077-.016-.046-.016-.061.016-.046v-.046l-.046-.047-.077-.015-.061-.015-.03-.046-.016-.092.015-.107h.736l.721-.015.736-.015.72-.016.722-.015.72-.015.721-.015.721-.015.72-.03.737-.031.72-.015.721-.03.721-.031.721-.03.72-.03.722-.047.29-.015h.108l.03.062.016.015.061.03.015.03v.076l.016.031.03.03.03.016.062.015.077.046v.016l.015.045.015.03.015.016h.061l.015.015v.03l.016.016.03.015.062.03.015.015.03.03v.076l.03.031.108.107.045.03.077.031.03.03-.07.08-.061.184-.047.2v.352l.107.644.016.045.045.062.062.062.015.03.015.03.015.03v.123l-.015.123v.045l.015.03.047.031.015.062.092.076.015.03.015.046.016.092.03.123.077.107.782.644.046.062.045.076.016.077.03.062.046.045.72.476.077.061.077.092.077.139.045.076.016.077.015.062v.153l.015.046.062.092.015.046-.015.03-.016.046-.015.061.03.046.031.045.015.062v.123l.154.276.092.107.137.046.124-.062.168-.276.154-.03.062.015.107.062.061.015h.077l.154.03.306.154.123.092.061.107-.015.077-.046.092-.061.092-.03.046-.046.045v.092l.03.154v.169l-.045.122-.138.26-.12.451-.138.246-.03.138-.015.138.045.184.016.061.03.046.015.03.03.046.185.138.015.03.092.077.015.046.03.045.062.046.122.062.077.077.077.092.092.077.107.03.184.139.046.03.122-.015.03.015.108.015.107.077.184.184.077.046.199.061.077.046.077.107.107.214.077.077.306.107.092.077-.028.049.015.062.03.076.016.062v.077l-.015.061v.077l.015.077.077.122.092.123.076.138.046.154-.046.153-.092.107-.092.123.016.154.015.015.061.015.03.015.047.03v.062l.015.062.03.061.078.123.137.169.047.107v.107l.045.061.169.123.122.046.047-.016.015-.03-.015-.062-.03-.03-.031-.03-.03-.03-.03-.078.014-.045.046-.015h.077l.03.015.015.092.016.045.03.015.062.03.03.031.015.047.015.045.016.03.03.031.03.015.03-.015.046-.015.03-.015.062.03.016.062v.337l-.016.03-.015.031-.03.046-.015.046.015.077.061.137.018.078-.015.107-.107.291-.062.23-.062.108-.076.046-.108-.03-.076-.062-.092-.092-.077-.062-.03.03-.016.016-.03.076-.03.138v.062l-.046.184-.015.045v.03l-.062.093-.062.061-.03.015-.092-.015v-.061l.015-.077.015-.03.016-.062-.062-.154-.107-.046-.092.062-.015.138.03.046.03.03v.015l.03.062-.014.061v.062l.076.169.03.076-.03.093-.061.045-.077.015h-.077l-.061.03.015.077.045.077.077.062.077.015.03.03-.015.03-.03.031-.03.015-.292.03-.061.016.199.246.092.153-.03.077-.046.015-.062.03-.045.047-.016.046-.016.065z"/></svg>