<svg width="64" height="64" viewBox="0 0 64 64" fill="none" xmlns="http://www.w3.org/2000/svg">
<path d="M58 12H16C14.346 12 13 13.346 13 15V17H11C9.346 17 8 18.346 8 20V22H6C4.346 22 3 23.346 3 25V49C3 50.654 4.346 52 6 52H48C49.654 52 51 50.654 51 49V47H53C54.654 47 56 45.654 56 44V42H58C59.654 42 61 40.654 61 39V15C61 13.346 59.654 12 58 12ZM49 49C49 49.551 48.552 50 48 50H6C5.448 50 5 49.551 5 49V25C5 24.449 5.448 24 6 24H48C48.552 24 49 24.449 49 25V49ZM54 44C54 44.551 53.552 45 53 45H51V25C51 23.346 49.654 22 48 22H10V20C10 19.449 10.448 19 11 19H53C53.552 19 54 19.449 54 20V44ZM59 39C59 39.551 58.552 40 58 40H56V20C56 18.346 54.654 17 53 17H15V15C15 14.449 15.448 14 16 14H58C58.552 14 59 14.449 59 15V39Z" fill="#757372"/>
<path fill-rule="evenodd" clip-rule="evenodd" d="M8 22H6C4.346 22 3 23.346 3 25V49C3 50.654 4.346 52 6 52H48C49.654 52 51 50.654 51 49V47V45V25C51 23.346 49.654 22 48 22H10H8ZM49 49C49 49.551 48.552 50 48 50H6C5.448 50 5 49.551 5 49V25C5 24.449 5.448 24 6 24H48C48.552 24 49 24.449 49 25V49Z" fill="#25836B"/>
<path fill-rule="evenodd" clip-rule="evenodd" d="M49 49C49 49.551 48.552 50 48 50H6C5.448 50 5 49.551 5 49V25C5 24.449 5.448 24 6 24H48C48.552 24 49 24.449 49 25V49Z" fill="#D7FFF4"/>
<path d="M27 30C23.141 30 20 33.14 20 37C20 40.86 23.141 44 27 44C30.859 44 34 40.86 34 37C34 33.14 30.859 30 27 30ZM27 42C24.243 42 22 39.757 22 37C22 34.243 24.243 32 27 32C29.757 32 32 34.243 32 37C32 39.757 29.757 42 27 42Z" fill="#25836B"/>
<path d="M43 27V26H11V27C11 28.387 9.689 30 8 30H7V44H8C9.689 44 11 45.613 11 47V48H43V47C43 45.613 44.311 44 46 44H47V30H46C44.311 30 43 28.387 43 27ZM45 42.11C43.104 42.53 41.53 44.103 41.11 46H12.89C12.47 44.103 10.897 42.53 9 42.11V31.89C10.896 31.47 12.47 29.897 12.89 28H41.11C41.53 29.897 43.103 31.47 45 31.89V42.11Z" fill="#25836B"/>
<path d="M27 40C28.6569 40 30 38.6569 30 37C30 35.3431 28.6569 34 27 34C25.3431 34 24 35.3431 24 37C24 38.6569 25.3431 40 27 40Z" fill="#25836B"/>
</svg>
