<svg width="24" height="24" viewBox="0 0 24 24" fill="none" xmlns="http://www.w3.org/2000/svg">
<path d="M21.7281 19.2914L17.8332 15.3973C17.6574 15.2215 17.4191 15.1238 17.1691 15.1238H16.5324C17.6105 13.7449 18.2512 12.0109 18.2512 10.1242C18.2512 5.63633 14.6141 2 10.1258 2C5.6375 2 2 5.63633 2 10.1242C2 14.6121 5.63711 18.2484 10.1258 18.2484C12.0125 18.2484 13.7473 17.6078 15.1262 16.5297V17.1664C15.1262 17.4164 15.2238 17.6547 15.3996 17.8305L19.2945 21.7246C19.6617 22.0918 20.2555 22.0918 20.6188 21.7246L21.7242 20.6191C22.0914 20.252 22.0914 19.6586 21.7281 19.2914ZM10.1258 15.7484C7.01875 15.7484 4.50078 13.2352 4.50078 10.1242C4.50078 7.01758 7.01445 4.5 10.1258 4.5C13.2328 4.5 15.7508 7.01328 15.7508 10.1242C15.7508 13.2309 13.2371 15.7484 10.1258 15.7484ZM10.1266 6.375C8.53359 6.375 7.24219 7.66602 7.24219 9.25898C7.24219 10.5465 9.12734 12.8938 9.84961 13.7457C9.88348 13.7862 9.92585 13.8188 9.9737 13.8412C10.0216 13.8636 10.0737 13.8752 10.1266 13.8752C10.1794 13.8752 10.2316 13.8636 10.2794 13.8412C10.3273 13.8188 10.3696 13.7862 10.4035 13.7457C11.1258 12.8938 13.0109 10.5469 13.0109 9.25898C13.0109 7.66602 11.7195 6.375 10.1266 6.375ZM10.1266 10.125C9.60859 10.125 9.18906 9.70508 9.18906 9.1875C9.18906 8.66953 9.60898 8.25 10.1266 8.25C10.6441 8.25 11.0641 8.66953 11.0641 9.1875C11.0641 9.70508 10.6441 10.125 10.1266 10.125Z" fill="#25836B"/>
</svg>
