<svg width="64" height="64" viewBox="0 0 64 64" fill="none" xmlns="http://www.w3.org/2000/svg">
<path fill-rule="evenodd" clip-rule="evenodd" d="M12 6H52C55.3137 6 58 8.68629 58 12V52C58 55.3137 55.3137 58 52 58H12C8.68629 58 6 55.3137 6 52V12C6 8.68629 8.68629 6 12 6ZM14 10C11.7909 10 10 11.7909 10 14V50.5C10 52.7091 11.7909 53.5 14 53.5H51C53.2091 53.5 53.5 51.7091 53.5 49.5L54 13.5C54 11.2909 51.2091 10 49 10H14Z" fill="#DCF5FF"/>
<path fill-rule="evenodd" clip-rule="evenodd" d="M12 6H52C55.3137 6 58 8.68629 58 12V52C58 55.3137 55.3137 58 52 58H12C8.68629 58 6 55.3137 6 52V12C6 8.68629 8.68629 6 12 6ZM12 8C9.79086 8 8 9.79086 8 12V52C8 54.2091 9.79086 56 12 56H52C54.2091 56 56 54.2091 56 52V12C56 9.79086 54.2091 8 52 8H12Z" fill="#1281D3"/>
<path fill-rule="evenodd" clip-rule="evenodd" d="M50 12H14C12.8954 12 12 12.8954 12 14V50C12 51.1046 12.8954 52 14 52H50C51.1046 52 52 51.1046 52 50V14C52 12.8954 51.1046 12 50 12ZM14 10C11.7909 10 10 11.7909 10 14V50C10 52.2091 11.7909 54 14 54H50C52.2091 54 54 52.2091 54 50V14C54 11.7909 52.2091 10 50 10H14Z" fill="#757372"/>
<path fill-rule="evenodd" clip-rule="evenodd" d="M46.5 20.5L50.5 25L28.0012 46L13 32.5L17.5 28L28.0012 37.5L46.5 20.5Z" fill="#1281D3"/>
</svg>
