<svg xmlns="http://www.w3.org/2000/svg" fill="none" viewBox="0 0 24 24"><path fill="#BB2130" d="M10.095 19.811l.024.024.145.181-.036-.036-.024-.012-.109-.012-.072-.012h-.06l-.073-.012-.072-.012h-.06l-.072-.012-.06-.012h-.072l-.06-.012-.072-.012h-.073l-.06-.012-.072-.012h-.06l-.073-.012-.072-.012h-.06l-.072-.012-.06-.012h-.073l-.072-.012-.06-.012h-.073l-.062-.013-.072-.012h-.06l-.072-.012-.073-.012h-.06l-.072-.012-.06-.012h-.073l-.072-.012-.06-.012h-.072l-.06-.012-.074-.013-.06-.012h-.072l-.073-.012-.06-.012h-.072l-.06-.012-.072-.012h-.073l-.06-.012-.072-.012-.06-.012h-.074l-.06-.012-.072-.012h-.072l-.06-.012-.073-.012-.06-.012h-.072l-.06-.012-.073-.012h-.072l-.06-.012-.072-.012-.06-.012h-.074l-.072-.012v.084l-.012.024V19.594l-.012.024v.06l-.012.024V19.786l-.012.024v.06l-.012.024v.084l-.012.024v.06l-.012.024V20.158l-.012.012v.084l-.012.024V20.35l-.012.012V20.434l-.012.024v.084l-.012.012V20.626l-.012.024V20.71l-.012.024v.066l-.109-.012-.121-.012-.11-.024-.108-.012-.109-.012-.119-.013-.109-.012-.109-.024-.12-.012-.11-.012-.108-.012-.109-.024-.119-.012-.109-.012-.109-.012-.108-.024-.121-.012-.109-.012-.109-.012-.048-.012V20.5l.073-.542.072-.543.072-.542.073-.542.085-.53.072-.543.072-.543.072-.542.072-.542.085-.543.072-.542.073-.53.072-.543.073-.542.072-.543.085-.542.072-.543.072-.542.072-.53.072-.543.085-.542.073-.543.072-.542.072-.542.073-.53.072-.543.085-.543.072-.542.072-.542.072-.543.074-.545.084-.53.458.06.458.06.458.06.459.06.458.06.459.06.458.049.458.06.47.06.46.048.458.06.458.048.458.048.47.06.46.048.458.048.458.048.458.048.47.048.46.036.458.048.458.048.47.036.459.048.458.036.459.036.47.048.458.036.459.036.47.036.459.036.458.036-.024.373-.024.386-.036.386-.024.385h-.109V6.424l-.036.434-.036.422-.036.422-.024.433-.036.422-.036.433-.036.422-.036.434-.024.422-.036.422-.036.433-.036.422-.024.434-.036.422-.036.433-.036.422-.036.422-.024.433-.036.422-.036.434-.036.422-.036.433-.024.422-.036.422-.036.434-.036.422-.024.433-.036.422-.036.433-.036.422-.036.422-.024.434-.578-.048-.59-.036-.579-.048-.578-.048-.567-.048-.578-.048-.579-.06-.578-.048-.578-.06-.579-.048-.578-.06-.579-.06-.578-.06-.578-.06-.579-.06-.578-.06-.06-.012H9.92v.048l.036.12.012.06v.073l.012.06.048.096-.012.024.012.037.012.035.036.012.018.022z"/></svg>