<svg xmlns="http://www.w3.org/2000/svg" fill="none" viewBox="0 0 24 24"><path fill="#757372" fill-rule="evenodd" d="M7.2 4v.8H5.6c-.88 0-1.6.72-1.6 1.6v12.8c0 .88.72 1.6 1.6 1.6h13.6c.88 0 1.6-.72 1.6-1.6V6.4c0-.88-.72-1.6-1.6-1.6h-1.6V4c0-.48-.32-.8-.8-.8H16c-.48 0-.8.32-.8.8v.8H9.6V4c0-.48-.32-.8-.8-.8H8c-.48 0-.8.32-.8.8zm-.8 14.4a.8.8 0 1 0 0-1.6.8.8 0 0 0 0 1.6zm4.8-.8a.8.8 0 1 1-1.6 0 .8.8 0 0 1 1.6 0zm-.8-8.8a.8.8 0 1 0 0-1.6.8.8 0 0 0 0 1.6zm4.8 8.8a.8.8 0 1 1-1.6 0 .8.8 0 0 1 1.6 0zm-.8-8.8a.8.8 0 1 0 0-1.6.8.8 0 0 0 0 1.6zm4.8-.8a.8.8 0 1 1-1.6 0 .8.8 0 0 1 1.6 0zm-.8 3.998h-12c-.48 0-.8-.32-.8-.8 0-.48.32-.8.8-.8h12c.48 0 .8.32.8.8 0 .48-.32.8-.8.8zm-12 3.204h12c.48 0 .8-.32.8-.8 0-.48-.32-.8-.8-.8h-12c-.48 0-.8.32-.8.8 0 .48.32.8.8.8z" clip-rule="evenodd"/></svg>