<svg width="66" height="48" viewBox="0 0 66 48" fill="none" xmlns="http://www.w3.org/2000/svg">
<path d="M0.841797 7.4713H65.1475V33.954L0.841797 33.9489V7.4713Z" fill="white"/>
<path d="M0.734375 34.0566V7.47135V7.36374H65.2502V34.0566H0.734375ZM0.949599 33.8465H65.0401V7.57896H0.949599V33.8465Z" fill="white"/>
<path d="M0.93457 13.2464H65.1481V34.2102H0.93457V13.2464Z" fill="#25836B"/>
<path d="M0.724609 34.3026V7.3484H65.2712V34.2001V34.3231L0.724609 34.3026ZM65.1482 34.2052V34.0822V34.2052ZM0.970579 34.0566L65.0252 34.0822V7.59437H0.970579V34.0566Z" fill="#1F1D1C"/>
<path d="M35.1446 36.5214C35.1446 36.5214 31.9521 31.3817 28.2011 26.247C24.4551 21.1073 20.7041 15.8343 20.7041 15.8343L21.2575 14.8607C21.2575 14.8607 24.0606 13.103 24.7524 12.8263C25.4493 12.5496 26.838 12.5496 27.6681 12.9647C28.5034 13.3797 36.7383 22.2705 36.7383 22.2705C36.7383 22.2705 41.8063 13.7487 45.2806 10.2744C48.7549 6.80004 53.3361 2.35721 54.5864 1.52706C55.8368 0.69179 57.0871 0 57.0871 0C57.0871 0 58.7526 -1.52718e-08 59.3111 0.138358C59.8645 0.276716 61.8118 2.91577 62.2269 3.4692C62.6419 4.02776 62.6419 4.02776 61.8118 4.8579C60.9765 5.68805 52.9261 14.9939 50.9789 18.048C49.0367 21.1022 44.7271 30.9615 44.5888 31.9351C44.4504 32.9087 43.6152 33.4621 42.785 33.8823C41.9549 34.3025 35.1446 36.5214 35.1446 36.5214Z" fill="#CF0A2C"/>
<path d="M15.9236 26.2368C14.8987 28.9219 12.2648 30.4388 9.41564 30.4388C5.34689 30.4388 2.37988 27.5384 2.37988 23.5106C2.37988 19.4829 4.93694 16.521 9.12355 16.521C10.2407 16.521 11.3834 16.7721 12.3878 17.2999L12.6235 16.8541H13.8021L15.5495 21.4455L14.0378 21.9887L13.961 21.8913C13.4895 21.0919 13.0181 20.2566 12.3519 19.5956C11.6447 18.8935 10.6814 18.3299 9.65649 18.3299C6.96107 18.3299 6.17704 21.3276 6.17704 23.4491C6.17704 24.4996 6.47425 25.9396 7.06356 26.8363C7.69385 27.8509 8.7546 28.471 9.9742 28.471C11.9215 28.471 13.4536 27.0105 14.3197 25.3964L15.9236 26.2368Z" fill="#5D4900"/>
<path d="M16.5074 26.5391L16.1589 26.3598C16.1641 26.3495 16.1641 26.3444 16.1692 26.3342L16.2563 26.1138L16.0462 26.0062L14.2014 25.048L14.0784 25.2786C13.238 26.8466 11.7725 28.2148 9.96869 28.2097C9.1488 28.2097 8.41601 27.9074 7.84721 27.3795C7.81646 27.3334 7.77546 27.2873 7.74472 27.2361C7.19641 26.411 6.8992 24.9916 6.8992 23.9923C6.8992 22.9623 7.09392 21.7171 7.60123 20.7589C8.11367 19.8006 8.8772 19.1447 10.1122 19.1396C11.0346 19.1344 11.9416 19.6571 12.618 20.3284C12.6334 20.3438 12.6436 20.3592 12.659 20.3745C13.0536 20.887 13.3866 21.4609 13.7249 22.0348L13.7351 22.0502L13.9452 22.3115L14.0169 22.2859C14.0733 22.3833 14.1297 22.4755 14.1861 22.5729L14.1963 22.5883L14.4115 22.8496L16.3588 22.1476L14.4474 17.1257H14.1861L13.9811 16.5876H12.454L12.2644 16.9463C11.2805 16.48 10.189 16.2545 9.11805 16.2545C6.96069 16.2545 5.19278 17.0232 3.98343 18.3248C2.76895 19.6264 2.10791 21.4404 2.10791 23.5106C2.10791 25.5194 2.83045 27.2668 4.05517 28.5377C4.23965 28.7734 4.43437 29.004 4.64447 29.2141C5.94606 30.4952 7.78059 31.2433 9.87646 31.2433C9.88158 31.2433 9.88158 31.2433 9.88158 31.2433C12.8178 31.2433 15.5645 29.665 16.6304 26.8671L16.7175 26.6416L16.5074 26.5391Z" fill="#1F1D1C"/>
<path d="M29.113 26.6673C29.6255 27.9126 29.6665 28.2456 31.0193 28.4967L31.2345 28.5172V30.1109H24.0809V28.5172C24.4909 28.4609 25.7105 28.4967 25.7105 27.8921C25.7105 27.6205 25.5106 27.1132 25.4338 26.8416L24.9008 25.4016H20.6732L20.1198 26.8416C20.0224 27.0978 19.8841 27.4872 19.8841 27.7383C19.8841 28.4199 20.9653 28.4199 21.4367 28.4967L21.6315 28.5172V30.1109H15.5693V28.5172C17.2962 28.343 17.6703 27.272 18.2596 25.8884L22.0722 16.8593H25.1212L29.113 26.6673ZM24.2551 23.7054L22.7998 19.9288L21.2881 23.7054H24.2551Z" fill="#5D4900"/>
<path d="M31.5165 28.7683C31.5114 28.7683 31.5062 28.7683 31.5011 28.7632V28.2712L31.0502 28.2302C30.63 28.1482 30.3686 28.0662 30.1893 27.9689C30.0817 27.7588 29.9741 27.4821 29.8203 27.1029L25.7618 17.1257H25.5158L25.2955 16.5876H21.8929L18.0086 25.7808C17.7114 26.4777 17.4757 27.067 17.1324 27.4821C16.7839 27.892 16.3535 28.1585 15.5387 28.2507L15.2979 28.2763V30.3825H15.759V30.9205H22.3695V28.8144L21.9339 28.7734C21.9237 28.7734 21.9134 28.7683 21.9032 28.7683V28.2763L21.4727 28.2353C21.2319 28.1995 20.909 28.1738 20.6374 28.1072C20.6784 27.9176 20.7656 27.6563 20.8322 27.4821L21.319 26.2112H24.9112L25.1776 26.9286C25.2186 27.0772 25.2853 27.2668 25.3416 27.4462C25.398 27.6307 25.439 27.8203 25.439 27.892C25.4339 27.9484 25.4287 27.9586 25.357 28.015C25.2494 28.0919 24.9983 28.1585 24.7369 28.1841C24.4756 28.2148 24.2194 28.2251 24.0349 28.2456L23.8043 28.2763V30.3722H24.2706V30.9103H31.9623V28.8041L31.5165 28.7683ZM23.8658 23.4389H22.3644L23.1279 21.5275L23.8658 23.4389Z" fill="#1F1D1C"/>
<path d="M40.0334 14.9323C41.9602 15.0553 45.6088 16.0648 45.6088 18.3605C45.6088 19.2471 45.0195 19.9389 44.0663 19.9389C42.9595 19.9389 42.2164 19.2009 42.0627 18.1863C41.9602 17.5919 41.8321 17.3972 41.2684 17.1C40.5766 16.731 39.7004 16.608 38.9061 16.608C38.2655 16.608 37.3636 16.7054 36.8256 17.0538C36.3132 17.351 35.9544 17.9403 35.9544 18.5348C35.9544 20.3129 38.4705 20.6306 39.8336 20.9279L41.0429 21.1738C43.7896 21.7887 46.4902 22.5574 46.4902 25.7858C46.4902 29.091 43.021 30.5463 40.0693 30.7923V34.3947H38.4449V30.7923C36.2107 30.741 31.7935 29.6803 31.7935 26.9695C31.7935 25.7345 32.5877 24.971 33.874 24.971C34.8015 24.971 35.8776 25.6115 35.8776 26.6005C35.8776 26.7235 35.8776 26.7748 35.8263 26.8977C35.8007 27.1181 35.7495 27.2667 35.7495 27.4922C35.7495 28.7528 37.9581 29.0244 38.9061 29.0244C40.4485 29.0244 42.7852 28.558 42.7852 26.6825C42.7852 25.176 41.4734 25.0274 40.2179 24.7558L38.5218 24.3868C35.7239 23.7463 32.3059 23.3004 32.3059 19.7954C32.3059 16.5619 35.4933 15.0809 38.4449 14.958V11.6015H40.0334V14.9323Z" fill="#5D4900"/>
<path d="M46.0337 23.3261C45.7365 22.9059 45.3675 22.5625 44.9371 22.2807C43.861 21.5735 42.4723 21.2251 41.0938 20.9176L39.8793 20.6716C39.1927 20.523 38.2395 20.3693 37.4811 20.0465C37.23 19.9388 37.0046 19.8159 36.815 19.6724C36.7278 19.5033 36.6766 19.3085 36.6766 19.0779C36.6715 18.5963 36.9841 18.0736 37.4145 17.8327L37.4196 17.8276L37.4248 17.8225C37.8706 17.5304 38.7468 17.4177 39.3618 17.4228C40.1304 17.4228 40.9657 17.5458 41.596 17.884C41.6472 17.9096 41.6882 17.9352 41.7292 17.9557C41.7497 18.0326 41.7702 18.1248 41.7907 18.2427C41.8727 18.832 42.1648 19.3495 42.5952 19.7031C42.9847 20.3334 43.6662 20.7587 44.522 20.7536C45.0601 20.7536 45.5264 20.5538 45.8441 20.2104C46.1618 19.8722 46.3309 19.4059 46.3309 18.9037C46.3309 18.258 46.0696 17.6944 45.6647 17.2383C45.6084 17.1768 45.5418 17.1256 45.4803 17.0641C45.3983 16.936 45.306 16.813 45.2036 16.7002C44.1582 15.5421 42.2314 14.958 40.7607 14.7479V11.8731H40.2944V11.335H38.1678V14.7069C36.7278 14.8042 35.2623 15.209 34.1093 15.9931C32.8897 16.813 32.0288 18.0889 32.0288 19.8005C32.0185 21.0611 32.4695 21.9783 33.151 22.6394C33.5405 23.2031 34.0785 23.6335 34.6935 23.9461C35.9541 24.602 37.5272 24.8685 38.9159 25.1913L40.6121 25.5603C41.2527 25.6935 41.8727 25.8062 42.298 26.0368C42.3339 26.0573 42.3698 26.083 42.4056 26.1035C42.4671 26.2572 42.503 26.4468 42.503 26.6876C42.4979 27.4973 42.0264 27.979 41.2988 28.3172C40.5762 28.6451 39.6334 28.763 38.8903 28.763C38.4394 28.763 37.6656 28.6964 37.0404 28.4863C36.8355 28.4197 36.6458 28.3326 36.4921 28.2352C36.4767 28.1737 36.4614 28.1122 36.4614 28.0405C36.4614 27.8765 36.5024 27.7484 36.5331 27.5229C36.5895 27.3897 36.5946 27.2564 36.5946 27.154C36.5946 26.6005 36.3076 26.1393 35.9182 25.8267C35.7798 25.5859 35.5851 25.3809 35.3648 25.2169C34.9292 24.8992 34.3809 24.725 33.8582 24.7199C33.1664 24.7199 32.572 24.93 32.1518 25.3297C31.7316 25.7294 31.5112 26.3136 31.5112 26.9849C31.5112 27.7381 31.8238 28.3838 32.3106 28.9014C32.3568 28.9475 32.408 28.9936 32.4541 29.0397C32.5515 29.1781 32.654 29.3113 32.7718 29.4394C34.0427 30.7871 36.4255 31.3969 38.1627 31.566V34.6817H38.6239V35.2197H40.7761V31.5917C42.216 31.4431 43.7534 31.0126 44.973 30.2132C46.2592 29.3779 47.2021 28.0917 47.1969 26.3392C47.2226 24.9915 46.7562 24.023 46.0337 23.3261ZM39.7666 11.868H38.711H39.7666Z" fill="#1F1D1C"/>
<path d="M57.1795 22.0913V20.3798C57.1795 19.0167 57.1385 18.5709 55.468 18.453V16.8593H62.4474V18.453C60.7563 18.5504 60.6589 18.9603 60.6589 20.3593V26.6059C60.6589 26.9953 60.6794 27.6974 60.9152 28.0253C61.1714 28.3738 61.899 28.4916 62.3141 28.4916L62.4525 28.5121V30.1058H55.4731V28.5173C57.1231 28.4199 57.1846 27.9741 57.1846 26.5905V23.9258H52.3882V26.5905C52.3882 27.0004 52.3523 27.6974 52.6034 28.0304C52.8597 28.3789 53.5053 28.4968 53.9409 28.4968L54.0998 28.5173V30.1109H47.1152V28.5173C47.6277 28.4968 48.3143 28.3994 48.6269 28.1073C48.96 27.7947 48.9036 27.0363 48.9036 26.611V20.3593C48.9036 19.9698 48.9446 19.2678 48.6884 18.9398C48.4322 18.5914 47.684 18.494 47.2741 18.4735L47.1152 18.453V16.8593H54.0946V18.453C53.5617 18.4735 52.9724 18.5709 52.6803 18.8629C52.3267 19.1755 52.3831 19.9339 52.3831 20.3798V22.0913H57.1795Z" fill="#5D4900"/>
<path d="M61.5914 19.6213C61.6683 19.5291 61.781 19.4522 61.9963 19.3856C62.2064 19.3241 62.5138 19.278 62.9289 19.2523L63.18 19.237V17.1206H62.7137V16.5825H55.2014V18.6938L55.4524 18.7092C55.5293 18.7143 55.5959 18.7194 55.6677 18.7297V19.2318L55.9188 19.2472C56.3236 19.278 56.6208 19.3241 56.8258 19.3907C56.8412 19.3958 56.8514 19.401 56.8616 19.4061C56.9078 19.6264 56.918 19.9441 56.918 20.3695V21.8145H53.1209V20.9075C53.1209 20.7897 53.1157 20.6615 53.1157 20.5334C53.1157 20.3336 53.126 20.1184 53.1619 19.9441C53.1977 19.7699 53.2592 19.6469 53.3258 19.5906L53.331 19.5854L53.3361 19.5803C53.5206 19.3805 54.0689 19.2575 54.5711 19.2472L54.8273 19.237V17.1155H54.3661V16.5774H46.8486V18.6784L47.2535 18.7297H47.2637C47.2791 18.7297 47.2996 18.7297 47.3149 18.7348V19.2165L47.7146 19.2677H47.7249C47.9196 19.278 48.1963 19.3036 48.4372 19.3702C48.4936 19.3856 48.5448 19.401 48.5909 19.4163C48.6268 19.6008 48.6422 19.8263 48.637 20.0312C48.637 20.144 48.637 20.2567 48.637 20.349V26.5956C48.637 26.7134 48.6422 26.8415 48.6422 26.9799C48.6422 27.1746 48.6319 27.3796 48.6012 27.5487C48.5704 27.7178 48.5089 27.8408 48.4474 27.8972C48.2578 28.097 47.5917 28.2251 47.1049 28.2354L46.8486 28.2456V30.3671H47.3149V30.9052H54.8273V28.8042L54.4173 28.7529H54.402C54.3917 28.7529 54.3763 28.7529 54.3661 28.7478V28.261L53.9561 28.2097H53.9408C53.746 28.2097 53.5001 28.1841 53.2797 28.1175C53.2387 28.1073 53.2029 28.0919 53.1619 28.0765C53.126 27.8869 53.1055 27.6461 53.1106 27.4257C53.1106 27.313 53.1106 27.2054 53.1106 27.108V24.7252H56.9078V26.5853C56.9129 27.2771 56.8719 27.6922 56.7233 27.8715C56.6516 27.9689 56.5491 28.0458 56.3441 28.1124C56.1442 28.179 55.847 28.2251 55.4473 28.2456L55.1962 28.261V30.3774H55.6574V30.9154H63.1697V28.8195L62.7854 28.7632H62.7649C62.7444 28.7632 62.7239 28.7632 62.7034 28.7632V28.2815L62.3191 28.2251H62.2986C62.1141 28.2251 61.8477 28.1995 61.6119 28.1329C61.5607 28.1175 61.5095 28.1021 61.4582 28.0816C61.4377 28.0048 61.4223 27.9228 61.4121 27.8408C61.3813 27.5948 61.3762 27.3335 61.3762 27.1439V20.8973C61.3813 20.1952 61.4326 19.8007 61.5914 19.6213Z" fill="#1F1D1C"/>
<path d="M15.9236 26.2368C14.8987 28.9219 12.2648 30.4387 9.41564 30.4387C5.34689 30.4387 2.37988 27.5383 2.37988 23.5106C2.37988 19.4828 4.93694 16.521 9.12355 16.521C10.2407 16.521 11.3834 16.772 12.3878 17.2999L12.6235 16.854H13.8021L15.5495 21.4455L14.0378 21.9887L13.961 21.8913C13.4895 21.0919 13.0181 20.2566 12.3519 19.5956C11.6447 18.8935 10.6814 18.3299 9.65649 18.3299C6.96107 18.3299 6.17704 21.3276 6.17704 23.4491C6.17704 24.4996 6.47425 25.9395 7.06356 26.8363C7.69385 27.8509 8.7546 28.471 9.9742 28.471C11.9215 28.471 13.4536 27.0105 14.3197 25.3964L15.9236 26.2368Z" fill="white"/>
<path d="M29.113 26.6673C29.6255 27.9126 29.6665 28.2456 31.0193 28.4967L31.2345 28.5172V30.1109H24.0809V28.5172C24.4909 28.4609 25.7105 28.4967 25.7105 27.8921C25.7105 27.6205 25.5106 27.1132 25.4338 26.8416L24.9008 25.4016H20.6732L20.1198 26.8416C20.0224 27.0978 19.8841 27.4872 19.8841 27.7383C19.8841 28.4199 20.9653 28.4199 21.4367 28.4967L21.6315 28.5172V30.1109H15.5693V28.5172C17.2962 28.343 17.6703 27.272 18.2596 25.8884L22.0722 16.8593H25.1212L29.113 26.6673ZM24.2551 23.7054L22.7998 19.9288L21.2881 23.7054H24.2551Z" fill="white"/>
<path d="M40.0334 14.9324C41.9602 15.0554 45.6088 16.0649 45.6088 18.3606C45.6088 19.2471 45.0195 19.9389 44.0663 19.9389C42.9595 19.9389 42.2164 19.201 42.0627 18.1864C41.9602 17.592 41.8321 17.3972 41.2684 17.1C40.5766 16.7311 39.7004 16.6081 38.9061 16.6081C38.2655 16.6081 37.3636 16.7054 36.8256 17.0539C36.3132 17.3511 35.9544 17.9404 35.9544 18.5348C35.9544 20.313 38.4705 20.6307 39.8336 20.9279L41.0429 21.1739C43.7896 21.7888 46.4902 22.5575 46.4902 25.7858C46.4902 29.091 43.021 30.5464 40.0693 30.7923V34.3948H38.4449V30.7923C36.2107 30.7411 31.7935 29.6803 31.7935 26.9696C31.7935 25.7346 32.5877 24.971 33.874 24.971C34.8015 24.971 35.8776 25.6116 35.8776 26.6006C35.8776 26.7236 35.8776 26.7748 35.8263 26.8978C35.8007 27.1182 35.7495 27.2668 35.7495 27.4922C35.7495 28.7528 37.9581 29.0244 38.9061 29.0244C40.4485 29.0244 42.7852 28.5581 42.7852 26.6826C42.7852 25.176 41.4734 25.0274 40.2179 24.7558L38.5218 24.3869C35.7239 23.7463 32.3059 23.3005 32.3059 19.7954C32.3059 16.562 35.4933 15.081 38.4449 14.958V11.6016H40.0334V14.9324Z" fill="white"/>
<path d="M57.1795 22.0913V20.3797C57.1795 19.0166 57.1385 18.5708 55.468 18.453V16.8593H62.4474V18.453C60.7563 18.5503 60.6589 18.9603 60.6589 20.3592V26.6058C60.6589 26.9953 60.6794 27.6973 60.9152 28.0253C61.1714 28.3737 61.899 28.4916 62.3141 28.4916L62.4525 28.5121V30.1058H55.4731V28.5172C57.1231 28.4199 57.1846 27.974 57.1846 26.5905V23.9258H52.3882V26.5905C52.3882 27.0004 52.3523 27.6973 52.6034 28.0304C52.8597 28.3789 53.5053 28.4967 53.9409 28.4967L54.0998 28.5172V30.1109H47.1152V28.5172C47.6277 28.4967 48.3143 28.3994 48.6269 28.1073C48.96 27.7947 48.9036 27.0363 48.9036 26.611V20.3592C48.9036 19.9698 48.9446 19.2677 48.6884 18.9398C48.4322 18.5913 47.684 18.494 47.2741 18.4735L47.1152 18.453V16.8593H54.0946V18.453C53.5617 18.4735 52.9724 18.5708 52.6803 18.8629C52.3267 19.1755 52.3831 19.9339 52.3831 20.3797V22.0913H57.1795Z" fill="white"/>
<path d="M8.38558 9.91059C8.27284 9.67487 8.0525 9.23417 6.86877 9.23417C6.1821 9.23417 5.16748 9.49551 5.16748 10.5973C5.16748 11.2993 5.65429 11.9296 6.86877 11.9296C7.66305 11.9296 8.21648 11.6734 8.38558 11.1968H9.81528C9.52832 12.0423 8.55469 12.6368 6.83802 12.6368C5.01375 12.6368 3.70703 11.9347 3.70703 10.587C3.70703 9.22392 5.09061 8.52701 6.85852 8.52701C8.91339 8.52701 9.74354 9.33153 9.81528 9.90546H8.38558V9.91059Z" fill="#1F1D1C"/>
<path d="M12.2952 10.7867V12.5392H10.8604V8.63448H12.2952V10.1154H14.965V8.63448H16.3998V12.5392H14.965V10.7867H12.2952Z" fill="#1F1D1C"/>
<path d="M22.8466 9.32627H19.2083V10.1462H22.5494V10.838H19.2083V11.8475H23.0054V12.5392H17.8042V8.63448H22.8466V9.32627Z" fill="#1F1D1C"/>
<path d="M28.5445 9.91059C28.4318 9.67487 28.2114 9.23417 27.0277 9.23417C26.341 9.23417 25.3264 9.49551 25.3264 10.5973C25.3264 11.2993 25.8132 11.9296 27.0277 11.9296C27.822 11.9296 28.3754 11.6734 28.5445 11.1968H29.9742C29.6873 12.0423 28.7136 12.6368 26.997 12.6368C25.1727 12.6368 23.8608 11.9347 23.8608 10.587C23.8608 9.22392 25.2495 8.52701 27.0123 8.52701C29.0621 8.52701 29.8922 9.33153 29.9691 9.90546H28.5445V9.91059Z" fill="#1F1D1C"/>
<path d="M32.6082 12.5392H31.1733V8.63448H32.6082V10.223L35.2216 8.63448H37.0766L34.2787 10.2333L37.2355 12.5392H35.3958L33.2743 10.8277L32.6082 11.2172V12.5392Z" fill="#1F1D1C"/>
<path d="M42.4421 12.5392H41.0073V8.63448H42.4421V12.5392Z" fill="#1F1D1C"/>
<path d="M47.9556 8.63448H49.2931V12.5392H47.8634L45.0655 9.75671H45.045V12.5392H43.7075V8.63448H45.2192L47.9403 11.3504H47.9556V8.63448Z" fill="#1F1D1C"/>
<path d="M0.87793 38.2483V37.3105H65.1837V38.2483H0.87793Z" fill="#1F1D1C"/>
<path d="M53.6437 12.529H52.2089V9.32115H50.1387V8.62936H55.714V9.32115H53.6437V12.529Z" fill="#1F1D1C"/>
<path d="M59.2857 8.52701C60.1927 8.52701 62.5807 8.75248 62.5807 10.5819C62.5807 12.4113 60.1927 12.6368 59.2857 12.6368C58.3787 12.6368 55.9907 12.4113 55.9907 10.5819C55.9907 8.74736 58.3787 8.52701 59.2857 8.52701ZM59.2857 11.9655C60.0595 11.9655 61.1458 11.6939 61.1458 10.6024C61.1458 9.51089 60.0595 9.2393 59.2857 9.2393C58.5119 9.2393 57.4255 9.51089 57.4255 10.6024C57.4204 11.6939 58.5119 11.9655 59.2857 11.9655Z" fill="#1F1D1C"/>
<path fill-rule="evenodd" clip-rule="evenodd" d="M1.37012 44.4283C1.37524 44.8741 1.4726 45.2687 1.66221 45.6017C1.85181 45.9348 2.11828 46.1962 2.45648 46.3806C2.79469 46.5651 3.18414 46.6574 3.62996 46.6625C4.08091 46.6522 4.47549 46.5549 4.81369 46.3653C5.1519 46.1757 5.42349 45.9143 5.61309 45.5812C5.8027 45.2482 5.90518 44.8587 5.90518 44.4078C5.90006 43.9466 5.8027 43.5469 5.61309 43.2138C5.41837 42.8756 5.1519 42.6142 4.81369 42.4349C4.47549 42.2504 4.07578 42.1633 3.62996 42.1684C3.18927 42.1684 2.79469 42.2658 2.45648 42.4503C2.11828 42.6347 1.85181 42.8961 1.66221 43.2343C1.4726 43.5674 1.37524 43.9671 1.37012 44.4283ZM2.16952 44.377C2.16952 44.0901 2.23101 43.8338 2.354 43.6032C2.47698 43.3726 2.64609 43.1933 2.86643 43.0549C3.08678 42.9217 3.343 42.85 3.64021 42.85C3.93743 42.8551 4.19877 42.9217 4.41912 43.0549C4.63946 43.1882 4.80857 43.3726 4.93155 43.6032C5.05454 43.8338 5.11603 44.0901 5.11603 44.377C5.11091 44.8433 4.97767 45.2225 4.71121 45.5146C4.44986 45.8067 4.09116 45.9553 3.64021 45.9656C3.19439 45.9553 2.83569 45.8067 2.57434 45.5146C2.30788 45.2225 2.17464 44.8433 2.16952 44.377Z" fill="#25836B"/>
<path d="M6.57129 46.5498H7.29383V44.9664C7.29383 44.7665 7.34507 44.5974 7.44756 44.4539C7.55004 44.3105 7.72427 44.2387 7.95999 44.2285C8.12397 44.2336 8.24696 44.2848 8.32382 44.3771C8.40069 44.4693 8.44681 44.5872 8.46731 44.7153C8.4878 44.8434 8.49293 44.9664 8.49293 45.0791V46.5498H9.21546V44.7204C9.21546 44.5206 9.18472 44.3309 9.11298 44.1618C9.04636 43.9876 8.93362 43.8493 8.77477 43.7468C8.62104 43.6392 8.41094 43.5828 8.15472 43.5828C7.91387 43.5879 7.71915 43.6392 7.57567 43.7416C7.43218 43.8441 7.3297 43.9722 7.26308 44.1209H7.25283V43.6545H6.57129V46.5498Z" fill="#25836B"/>
<path fill-rule="evenodd" clip-rule="evenodd" d="M12.823 45.3507V45.1509C12.8179 44.6436 12.6897 44.2541 12.4489 43.9825C12.2029 43.7109 11.875 43.5777 11.465 43.5726C11.1678 43.5726 10.9013 43.6392 10.6656 43.7622C10.4299 43.8903 10.2403 44.0645 10.1019 44.2951C9.96358 44.5206 9.89184 44.787 9.88672 45.0945C9.89184 45.402 9.95846 45.6684 10.1019 45.8939C10.2403 46.1194 10.4299 46.2987 10.6656 46.4268C10.9013 46.5498 11.1678 46.6164 11.465 46.6164C11.6956 46.6164 11.916 46.5754 12.1261 46.4832C12.3362 46.391 12.5258 46.2424 12.6949 46.0374L12.1773 45.6428C12.0902 45.7555 11.9826 45.8529 11.8545 45.9247C11.7315 45.9964 11.5778 46.0323 11.3984 46.0374C11.1934 46.0374 11.0141 45.9759 10.8757 45.8529C10.7322 45.735 10.6502 45.5659 10.6195 45.3456H12.823V45.3507ZM10.6093 44.8075C10.64 44.5974 10.7169 44.4283 10.845 44.3054C10.9731 44.1824 11.1422 44.1209 11.3625 44.1158C11.5931 44.1158 11.7725 44.1824 11.9006 44.3002C12.0287 44.4232 12.0953 44.5923 12.1004 44.8024H10.6093V44.8075Z" fill="#25836B"/>
<path d="M18.0088 42.6041C17.8397 42.4504 17.6501 42.3377 17.44 42.2659C17.2299 42.1942 17.0095 42.1635 16.784 42.1635C16.5176 42.1635 16.2614 42.2096 16.0256 42.3018C15.7848 42.394 15.5901 42.5375 15.4415 42.7271C15.2929 42.9167 15.216 43.1627 15.2109 43.4548C15.216 43.7571 15.2877 43.9877 15.421 44.1517C15.5542 44.3157 15.7233 44.4387 15.9232 44.5258C16.123 44.6078 16.3229 44.6795 16.5227 44.741C16.7226 44.8025 16.8917 44.8794 17.0249 44.9716C17.1581 45.0638 17.2299 45.2022 17.235 45.3867C17.2247 45.5814 17.1428 45.73 16.9941 45.8274C16.8404 45.9247 16.6713 45.976 16.4868 45.976C16.3126 45.976 16.1538 45.935 16.0051 45.8581C15.8565 45.7813 15.7336 45.6685 15.6413 45.5302L15.0674 46.0836C15.2467 46.2886 15.4568 46.4423 15.6977 46.5294C15.9437 46.6217 16.1999 46.6627 16.4663 46.6627C16.7482 46.6627 17.0095 46.6114 17.2452 46.514C17.481 46.4167 17.6706 46.2629 17.814 46.0631C17.9575 45.8632 18.0293 45.607 18.0344 45.2996C18.0293 45.0024 17.9575 44.7666 17.8243 44.6027C17.6911 44.4335 17.522 44.3106 17.3221 44.2234C17.1223 44.1363 16.9224 44.0646 16.7226 44.0082C16.5227 43.9467 16.3536 43.875 16.2204 43.793C16.0871 43.7059 16.0154 43.5778 16.0103 43.4138C16.0205 43.2191 16.0923 43.0756 16.2306 42.9936C16.369 42.9065 16.5278 42.8655 16.7123 42.8655C16.8609 42.8655 17.0044 42.8911 17.1376 42.9475C17.2709 43.0038 17.3785 43.0858 17.4605 43.2037L18.0088 42.6041Z" fill="#25836B"/>
<path d="M19.0131 44.2643V45.5966C19.0029 45.94 19.0644 46.1962 19.1976 46.3653C19.3308 46.5344 19.5871 46.6215 19.9611 46.6215C20.0483 46.6215 20.1456 46.6164 20.2532 46.601C20.3608 46.5856 20.4531 46.56 20.5351 46.5242V45.9144C20.4889 45.9502 20.4275 45.9707 20.3506 45.9861C20.2788 46.0015 20.2071 46.0066 20.1405 46.0066C19.9816 46.0066 19.874 45.9605 19.8177 45.8785C19.7613 45.7965 19.7305 45.6786 19.7357 45.5352V44.2643H20.5299V43.6494H19.7408V42.809H19.0131V43.6494H18.4136V44.2643H19.0131Z" fill="#25836B"/>
<path fill-rule="evenodd" clip-rule="evenodd" d="M20.9658 45.0996C20.9709 45.4071 21.0427 45.6735 21.181 45.899C21.3194 46.1245 21.509 46.3038 21.7447 46.432C21.9804 46.5549 22.2469 46.6216 22.5441 46.6216C22.8413 46.6216 23.1078 46.5549 23.3435 46.432C23.5792 46.3038 23.7689 46.1296 23.9072 45.899C24.0456 45.6735 24.1173 45.4071 24.1224 45.0996C24.1224 44.7922 24.0507 44.5257 23.9072 44.3002C23.7689 44.0747 23.5792 43.8954 23.3435 43.7673C23.1078 43.6392 22.8413 43.5777 22.5441 43.5777C22.2469 43.5777 21.9856 43.6443 21.7447 43.7673C21.509 43.8954 21.3194 44.0696 21.181 44.3002C21.0376 44.5257 20.9709 44.7922 20.9658 45.0996ZM21.6884 45.0996C21.6884 44.8639 21.7652 44.664 21.9138 44.4949C22.0624 44.3258 22.2725 44.2387 22.539 44.2285C22.8055 44.2387 23.0156 44.3258 23.1642 44.4949C23.3128 44.664 23.3896 44.8639 23.3896 45.0996C23.3845 45.3353 23.3128 45.5352 23.1642 45.7043C23.0156 45.8734 22.8055 45.9605 22.539 45.9708C22.2725 45.9605 22.0624 45.8734 21.9138 45.7043C21.7652 45.5352 21.6935 45.3353 21.6884 45.0996Z" fill="#25836B"/>
<path fill-rule="evenodd" clip-rule="evenodd" d="M24.7986 47.9283H25.5211V46.1809H25.5416C25.6134 46.2834 25.7312 46.3807 25.8849 46.473C26.0438 46.5652 26.2539 46.6164 26.5255 46.6216C26.9457 46.6113 27.2839 46.4678 27.535 46.1809C27.7912 45.899 27.9193 45.5352 27.9244 45.0996C27.9193 44.6589 27.7912 44.3002 27.5452 44.0133C27.2942 43.7314 26.9457 43.5828 26.4947 43.5726C26.2898 43.5726 26.1002 43.6136 25.9208 43.6956C25.7466 43.7775 25.6031 43.9057 25.4955 44.0799H25.4801V43.6443H24.7935V47.9283H24.7986ZM27.2019 45.0996C27.1968 45.3354 27.125 45.5352 26.9764 45.7043C26.8278 45.8734 26.6177 45.9605 26.3513 45.9708C26.0848 45.9605 25.8747 45.8734 25.7261 45.7043C25.5775 45.5352 25.5006 45.3354 25.5006 45.0996C25.5006 44.8639 25.5775 44.6641 25.7261 44.495C25.8747 44.3259 26.0848 44.2387 26.3513 44.2285C26.6229 44.2387 26.8278 44.3259 26.9764 44.495C27.125 44.6641 27.2019 44.8639 27.2019 45.0996Z" fill="#25836B"/>
<path d="M30.4917 46.5499H31.2142V42.9936H31.2296L32.5312 46.5499H33.059L34.3606 42.9936H34.3709V46.5499H35.0985V42.271H33.9507L32.7925 45.2688L31.6549 42.271H30.4917V46.5499Z" fill="#CF0A2C"/>
<path fill-rule="evenodd" clip-rule="evenodd" d="M35.8569 45.0996C35.8569 45.4071 35.9338 45.6735 36.0722 45.899C36.2105 46.1245 36.4001 46.3038 36.6358 46.432C36.8716 46.5549 37.138 46.6216 37.4352 46.6216C37.7325 46.6216 37.9989 46.5549 38.2346 46.432C38.4704 46.3038 38.66 46.1296 38.7983 45.899C38.9367 45.6735 39.0084 45.4071 39.0136 45.0996C39.0084 44.7922 38.9367 44.5257 38.7983 44.3002C38.66 44.0747 38.4704 43.8954 38.2346 43.7673C37.9989 43.6392 37.7325 43.5777 37.4352 43.5777C37.138 43.5777 36.8767 43.6443 36.6358 43.7673C36.4001 43.8954 36.2105 44.0696 36.0722 44.3002C35.9338 44.5308 35.8621 44.7922 35.8569 45.0996ZM36.5846 45.0996C36.5846 44.8639 36.6615 44.664 36.8101 44.4949C36.9587 44.3258 37.1688 44.2387 37.4352 44.2285C37.7068 44.2387 37.9118 44.3258 38.0604 44.4949C38.209 44.664 38.2859 44.8639 38.2859 45.0996C38.2859 45.3353 38.209 45.5352 38.0604 45.7043C37.9118 45.8734 37.7017 45.9605 37.4352 45.9708C37.1688 45.9605 36.9587 45.8734 36.8101 45.7043C36.6615 45.5352 36.5846 45.3353 36.5846 45.0996Z" fill="#CF0A2C"/>
<path d="M39.6899 46.5498H40.4125V44.9664C40.4125 44.7665 40.4637 44.5974 40.5662 44.4539C40.6687 44.3105 40.8429 44.2387 41.0786 44.2285C41.2426 44.2336 41.3656 44.2848 41.4425 44.3771C41.5193 44.4693 41.5655 44.5872 41.586 44.7153C41.6065 44.8434 41.6116 44.9664 41.6116 45.0791V46.5498H42.3341V44.7204C42.3341 44.5206 42.3034 44.3309 42.2316 44.1618C42.165 43.9876 42.0523 43.8493 41.8934 43.7468C41.7397 43.6392 41.5296 43.5828 41.2734 43.5828C41.0325 43.5879 40.8429 43.6392 40.6994 43.7416C40.556 43.8441 40.4535 43.9722 40.3869 44.1209H40.3766V43.6545H39.6899V46.5498Z" fill="#CF0A2C"/>
<path fill-rule="evenodd" clip-rule="evenodd" d="M45.947 45.3507V45.1509C45.9419 44.6436 45.8189 44.2541 45.5729 43.9825C45.327 43.7109 44.999 43.5777 44.589 43.5726C44.2918 43.5726 44.0254 43.6392 43.7896 43.7622C43.5539 43.8903 43.3643 44.0645 43.226 44.2951C43.0876 44.5206 43.0159 44.787 43.0107 45.0945C43.0107 45.402 43.0876 45.6684 43.226 45.8939C43.3643 46.1194 43.5539 46.2987 43.7896 46.4268C44.0254 46.5498 44.2918 46.6164 44.589 46.6164C44.8196 46.6164 45.04 46.5754 45.2501 46.4832C45.4602 46.391 45.6447 46.2424 45.8189 46.0374L45.3013 45.6428C45.2142 45.7555 45.1066 45.8529 44.9785 45.9247C44.8555 45.9964 44.7018 46.0323 44.5224 46.0374C44.3175 46.0374 44.1432 45.9759 43.9997 45.8529C43.8563 45.735 43.7743 45.5659 43.7435 45.3456H45.947V45.3507ZM43.7333 44.8075C43.7589 44.5974 43.8409 44.4283 43.969 44.3054C44.0971 44.1824 44.2713 44.1209 44.4866 44.1158C44.7172 44.1158 44.8914 44.1824 45.0246 44.3002C45.1527 44.4232 45.2193 44.5923 45.2245 44.8024H43.7333V44.8075Z" fill="#CF0A2C"/>
<path d="M47.4637 46.5755L47.3254 46.9188C47.269 47.0675 47.2024 47.1802 47.1255 47.2468C47.0487 47.3134 46.9206 47.3493 46.7514 47.3493C46.69 47.3493 46.6233 47.3442 46.5618 47.3288C46.5004 47.3134 46.4389 47.2981 46.3825 47.2776L46.2903 47.9283C46.4747 47.9745 46.6592 48.0001 46.8488 48.0001C47.1614 48.0001 47.3971 47.9283 47.5611 47.79C47.7251 47.6516 47.8532 47.4467 47.9557 47.1699L49.329 43.6444H48.5757L47.8532 45.6583H47.8429L47.0333 43.6444H46.2339L47.4637 46.5755Z" fill="#CF0A2C"/>
<path d="M54.2739 42.6041C54.1048 42.4504 53.9152 42.3377 53.7051 42.2659C53.495 42.1942 53.2746 42.1635 53.0492 42.1635C52.7827 42.1635 52.5265 42.2096 52.2856 42.3018C52.0499 42.394 51.8552 42.5375 51.7015 42.7271C51.5529 42.9167 51.4709 43.1627 51.4709 43.4548C51.476 43.7571 51.5477 43.9877 51.681 44.1517C51.8142 44.3157 51.9833 44.4387 52.1832 44.5258C52.383 44.6078 52.5829 44.6795 52.7827 44.741C52.9826 44.8025 53.1517 44.8794 53.2849 44.9716C53.4181 45.0638 53.4899 45.2022 53.495 45.3867C53.4847 45.5814 53.4028 45.73 53.2542 45.8274C53.1004 45.9247 52.9313 45.976 52.7468 45.976C52.5726 45.976 52.4138 45.935 52.2652 45.8581C52.1165 45.7813 51.9936 45.6685 51.8962 45.5302L51.3223 46.0836C51.5016 46.2886 51.7117 46.4423 51.9526 46.5294C52.1985 46.6217 52.4548 46.6627 52.7212 46.6627C53.0031 46.6627 53.2644 46.6114 53.5001 46.514C53.7358 46.4167 53.9254 46.2629 54.0689 46.0631C54.2124 45.8632 54.2841 45.607 54.2893 45.2996C54.2841 45.0024 54.2124 44.7666 54.0792 44.6027C53.9459 44.4335 53.7768 44.3106 53.577 44.2234C53.3771 44.1363 53.1773 44.0646 52.9774 44.0082C52.7776 43.9467 52.6085 43.875 52.4752 43.793C52.342 43.7059 52.2703 43.5778 52.2652 43.4138C52.2754 43.2191 52.3471 43.0756 52.4855 42.9936C52.6239 42.9065 52.7827 42.8655 52.9672 42.8655C53.1158 42.8655 53.2593 42.8911 53.3925 42.9475C53.5257 43.0038 53.6334 43.0858 53.7153 43.2037L54.2739 42.6041Z" fill="#CF0A2C"/>
<path d="M55.7445 41.9789H55.022V46.5499H55.7445V44.9665C55.7445 44.7666 55.7958 44.5975 55.8982 44.454C56.0007 44.3105 56.175 44.2388 56.4107 44.2285C56.5747 44.2337 56.6976 44.2849 56.7745 44.3772C56.8514 44.4694 56.8975 44.5872 56.918 44.7154C56.9385 44.8435 56.9487 44.9665 56.9436 45.0792V46.5499H57.6661V44.7205C57.6661 44.5206 57.6354 44.331 57.5637 44.1619C57.497 43.9877 57.3843 43.8493 57.2255 43.7469C57.0717 43.6392 56.8616 43.5829 56.6054 43.5829C56.3799 43.588 56.1955 43.6392 56.052 43.7315C55.9085 43.8237 55.806 43.9365 55.7496 44.0594H55.7394V41.9789H55.7445Z" fill="#CF0A2C"/>
<path fill-rule="evenodd" clip-rule="evenodd" d="M58.3379 45.0996C58.3379 45.4071 58.4148 45.6735 58.5531 45.899C58.6915 46.1245 58.8811 46.3038 59.1168 46.432C59.3525 46.5549 59.619 46.6216 59.9162 46.6216C60.2134 46.6216 60.4799 46.5549 60.7156 46.432C60.9513 46.3038 61.1409 46.1296 61.2793 45.899C61.4176 45.6735 61.4894 45.4071 61.4945 45.0996C61.4894 44.7922 61.4176 44.5257 61.2793 44.3002C61.1409 44.0747 60.9513 43.8954 60.7156 43.7673C60.4799 43.6392 60.2134 43.5777 59.9162 43.5777C59.619 43.5777 59.3525 43.6443 59.1168 43.7673C58.8811 43.8954 58.6915 44.0696 58.5531 44.3002C58.4148 44.5257 58.343 44.7922 58.3379 45.0996ZM59.0604 45.0996C59.0655 44.8639 59.1373 44.664 59.2859 44.4949C59.4345 44.3258 59.6446 44.2387 59.9111 44.2285C60.1775 44.2387 60.3876 44.3258 60.5362 44.4949C60.6849 44.664 60.7617 44.8639 60.7617 45.0996C60.7617 45.3353 60.6849 45.5352 60.5362 45.7043C60.3876 45.8734 60.1775 45.9605 59.9111 45.9708C59.6446 45.9605 59.4345 45.8734 59.2859 45.7043C59.1424 45.5352 59.0655 45.3353 59.0604 45.0996Z" fill="#CF0A2C"/>
<path fill-rule="evenodd" clip-rule="evenodd" d="M62.1709 47.9283H62.8934V46.1809H62.9139C62.9857 46.2834 63.1035 46.3807 63.2573 46.473C63.4161 46.5652 63.6262 46.6164 63.8978 46.6216C64.318 46.6113 64.6562 46.4678 64.9073 46.1809C65.1635 45.899 65.2916 45.5352 65.2968 45.0996C65.2916 44.6589 65.1687 44.3002 64.9176 44.0133C64.6665 43.7314 64.318 43.5828 63.8671 43.5726C63.6621 43.5726 63.4725 43.6136 63.2931 43.6956C63.1189 43.7775 62.9754 43.9057 62.8678 44.0799H62.8576V43.6443H62.1709V47.9283ZM64.5742 45.0996C64.5742 45.3354 64.4974 45.5352 64.3488 45.7043C64.2002 45.8734 63.9901 45.9605 63.7236 45.9708C63.4571 45.9605 63.247 45.8734 63.0984 45.7043C62.9498 45.5352 62.8729 45.3354 62.8729 45.0996C62.8781 44.8639 62.9498 44.6641 63.0984 44.495C63.247 44.3259 63.4571 44.2387 63.7236 44.2285C63.9901 44.2387 64.2002 44.3259 64.3488 44.495C64.4974 44.6641 64.5742 44.8639 64.5742 45.0996Z" fill="#CF0A2C"/>
<path d="M0.867867 41.8405C0.88324 41.8354 0.888364 41.8405 0.888364 41.8457C0.888364 41.8508 0.888364 41.8508 0.88324 41.8559C0.878116 41.8559 0.878116 41.861 0.878116 41.861C0.760255 41.943 0.668016 42.0301 0.596275 42.1121C0.524534 42.1941 0.463041 42.2659 0.422047 42.3376C0.370803 42.4196 0.334932 42.4964 0.314435 42.5682C0.299062 42.6041 0.288813 42.6348 0.288813 42.6656C0.288813 42.6912 0.288813 42.7117 0.288813 42.7322C0.299062 42.7783 0.314435 42.8039 0.340057 42.8142C0.365679 42.8244 0.401549 42.8244 0.442544 42.8142C0.55528 42.7937 0.662892 42.7475 0.765379 42.6758C0.867867 42.6041 0.960105 42.5169 1.0421 42.4145C1.12409 42.312 1.20095 42.2044 1.27269 42.0916C1.33931 41.9789 1.4008 41.8713 1.44692 41.7739C1.49304 41.6766 1.53404 41.5894 1.56478 41.5126C1.59553 41.4408 1.6109 41.3947 1.62115 41.3742C1.66727 41.2564 1.71851 41.1334 1.76463 41.0155C1.81075 40.8925 1.85687 40.7849 1.89274 40.6824C1.93886 40.5646 1.98498 40.4518 2.02597 40.3442C2.0311 40.334 2.0311 40.3288 2.02597 40.3186C2.02597 40.3135 2.02597 40.3135 2.02085 40.3135C2.01573 40.3135 2.0106 40.3186 2.0106 40.3237L2.00548 40.3288C1.83637 40.5748 1.68777 40.7747 1.56478 40.9284C1.4418 41.077 1.33418 41.1949 1.24707 41.2717C1.15996 41.3486 1.08821 41.405 1.03697 41.4306C0.985727 41.4562 0.949857 41.4716 0.929359 41.4767C0.898613 41.4818 0.878116 41.4767 0.857618 41.4665C0.837121 41.4562 0.821748 41.4408 0.811499 41.4255C0.80125 41.4101 0.796126 41.3947 0.791001 41.3793C0.785877 41.364 0.785877 41.3588 0.785877 41.3537C0.780753 41.3281 0.780753 41.2922 0.785877 41.2461C0.791001 41.2 0.80125 41.1539 0.811499 41.1026C0.821748 41.0514 0.837121 41.0001 0.857618 40.9438C0.878116 40.8874 0.893489 40.8362 0.913986 40.7798C0.960105 40.6517 1.01647 40.5184 1.07797 40.3801C1.13433 40.2571 1.17533 40.1597 1.20608 40.088C1.23682 40.0163 1.25732 39.965 1.26757 39.924C1.28294 39.8881 1.28807 39.8625 1.28807 39.842C1.28807 39.8267 1.28807 39.8113 1.28807 39.7959C1.28294 39.7754 1.27269 39.76 1.25732 39.7549C1.24195 39.7498 1.22145 39.7498 1.20095 39.7549C1.13946 39.7652 1.07284 39.7908 1.00622 39.8318C0.934484 39.8728 0.862743 39.9189 0.791001 39.9753C0.71926 40.0316 0.652643 40.088 0.586026 40.1495C0.51941 40.211 0.463042 40.2725 0.411798 40.334C0.360554 40.3903 0.324683 40.4416 0.293937 40.4928C0.263191 40.5389 0.252942 40.5748 0.258067 40.5953C0.263191 40.6158 0.27344 40.6312 0.288813 40.6414C0.304186 40.6517 0.324684 40.6568 0.345181 40.6568C0.365679 40.6568 0.3913 40.6568 0.411798 40.6568C0.432295 40.6517 0.452793 40.6517 0.468166 40.6466C0.514285 40.6363 0.565529 40.6261 0.616773 40.6056C0.668016 40.5902 0.714136 40.5697 0.750006 40.5543C0.791001 40.5389 0.821748 40.5236 0.84737 40.5082C0.872991 40.4928 0.888364 40.4877 0.888364 40.4877C0.898613 40.4826 0.908862 40.4877 0.908862 40.4928C0.908862 40.5031 0.898613 40.5236 0.872991 40.5543C0.847369 40.5851 0.806374 40.6209 0.744882 40.6619C0.683389 40.7029 0.611648 40.7439 0.514285 40.7798C0.422047 40.8208 0.304186 40.8515 0.170952 40.8771C0.145331 40.8823 0.119709 40.8823 0.0992113 40.8771C0.0787138 40.872 0.0633405 40.8669 0.0479674 40.8567C0.0325943 40.8464 0.0223456 40.831 0.0172212 40.8003C0.00697249 40.7439 0.0223457 40.6773 0.0633407 40.6004C0.104336 40.5184 0.160704 40.4365 0.237569 40.3493C0.309311 40.2622 0.396425 40.1751 0.493788 40.0829C0.591151 39.9958 0.693638 39.9138 0.796126 39.8369C0.898613 39.76 1.00622 39.6985 1.10359 39.6473C1.20608 39.5961 1.29831 39.5602 1.37518 39.5448C1.41617 39.5397 1.45717 39.5397 1.49304 39.5499C1.53404 39.5602 1.55966 39.5961 1.56991 39.6524C1.56991 39.6627 1.57503 39.6832 1.57503 39.7139C1.57503 39.7395 1.56991 39.7754 1.55453 39.8215C1.52891 39.8933 1.50329 39.9701 1.47254 40.0573C1.44692 40.1341 1.41105 40.2212 1.37006 40.3237C1.32906 40.4262 1.28294 40.5389 1.22657 40.6619C1.20095 40.7132 1.18045 40.7644 1.15996 40.8105C1.14458 40.8515 1.12921 40.8925 1.11896 40.9386C1.10871 40.9796 1.10359 41.0155 1.10871 41.0411C1.11384 41.0719 1.13433 41.0872 1.17533 41.0821C1.1907 41.0821 1.20608 41.0719 1.2317 41.0565C1.25219 41.0411 1.28294 41.0206 1.31369 40.9848C1.3803 40.9181 1.46229 40.8259 1.55966 40.708C1.64165 40.6056 1.73901 40.4774 1.85687 40.3135C1.97473 40.1495 2.10284 39.9496 2.25657 39.7037C2.26682 39.6934 2.27194 39.6832 2.28219 39.6678C2.29244 39.6575 2.30782 39.6422 2.32319 39.6319C2.33856 39.6217 2.35906 39.6063 2.38468 39.5961C2.40005 39.5909 2.4103 39.5858 2.42568 39.5756C2.43592 39.5704 2.4513 39.5653 2.46667 39.5602C2.48204 39.5551 2.50254 39.5499 2.52304 39.5448C2.53329 39.5397 2.54866 39.5397 2.55378 39.5397C2.56403 39.5397 2.57428 39.5397 2.58453 39.5397C2.58453 39.5397 2.58966 39.5397 2.59478 39.5397C2.5999 39.5448 2.60503 39.5499 2.60503 39.5551C2.60503 39.5653 2.60503 39.5807 2.59478 39.5909L2.48717 39.8523C2.4513 39.9394 2.40518 40.047 2.35393 40.1751C2.30269 40.3032 2.24632 40.4518 2.17971 40.6209C2.11821 40.7798 2.0516 40.9489 1.97986 41.118C1.90811 41.2871 1.83125 41.4511 1.74926 41.6151C1.66727 41.779 1.57503 41.9328 1.47254 42.0865C1.39568 42.2505 1.28294 42.3837 1.16508 42.5067C1.0421 42.6297 0.908862 42.727 0.765379 42.8142C0.621897 42.8962 0.463042 42.9525 0.293937 42.9833C0.217072 42.9986 0.155579 42.9986 0.0992113 42.9884C0.0479676 42.9781 0.012097 42.932 0.00184826 42.8603C-0.00327611 42.8244 0.00184824 42.7629 0.0223457 42.6809C0.0428432 42.5989 0.0787137 42.5118 0.145331 42.4093C0.206823 42.312 0.299062 42.2095 0.411798 42.1121C0.524534 42.0045 0.678265 41.9174 0.867867 41.8405Z" fill="#1F1D1C"/>
<path d="M3.5222 40.5338C3.49146 40.5491 3.46071 40.5696 3.43509 40.5901C3.40947 40.6106 3.38897 40.626 3.3736 40.6414C3.3531 40.6619 3.3326 40.6772 3.32235 40.6977C3.3121 40.7131 3.30698 40.7234 3.30698 40.7387C3.30698 40.749 3.30186 40.7592 3.30186 40.7695C3.27623 40.9386 3.23011 41.0821 3.16862 41.205C3.10713 41.328 3.04051 41.4305 2.96365 41.5176C2.89191 41.5996 2.81504 41.6662 2.7433 41.7072C2.67156 41.7482 2.61007 41.779 2.55882 41.7841C2.47683 41.7995 2.41534 41.7841 2.36922 41.738C2.32822 41.6919 2.3026 41.6355 2.29235 41.574C2.28211 41.5279 2.28211 41.4664 2.29235 41.3895C2.3026 41.3127 2.31285 41.2307 2.33847 41.1436C2.35897 41.0564 2.39484 40.9642 2.43071 40.872C2.47171 40.7797 2.51783 40.6926 2.57419 40.6157C2.63056 40.5389 2.69718 40.4671 2.76892 40.4159C2.84066 40.3595 2.92265 40.3237 3.01489 40.3083C3.05076 40.3032 3.08151 40.3032 3.11738 40.3134C3.13788 40.3185 3.15837 40.3288 3.17887 40.339C3.19424 40.3493 3.20962 40.3595 3.22499 40.38C3.24036 40.4005 3.25061 40.421 3.25574 40.4518C3.25574 40.4671 3.25574 40.4774 3.25574 40.4876V40.4928C3.25061 40.4979 3.24549 40.503 3.24549 40.503C3.24036 40.503 3.23011 40.4979 3.22499 40.4876C3.21474 40.4825 3.20449 40.4774 3.19424 40.4671C3.18399 40.462 3.17375 40.4569 3.15837 40.4518C3.143 40.4466 3.12763 40.4466 3.11225 40.4518C3.07126 40.4569 3.02514 40.4825 2.97902 40.5235C2.9329 40.5645 2.88678 40.6157 2.84579 40.6772C2.80479 40.7387 2.7638 40.8053 2.7228 40.8822C2.68181 40.954 2.65106 41.0308 2.62544 41.1077C2.59982 41.1845 2.57932 41.2614 2.56907 41.3332C2.5537 41.4049 2.5537 41.4664 2.56395 41.5228C2.56907 41.5484 2.57932 41.574 2.58957 41.5996C2.60494 41.6201 2.62544 41.6304 2.66131 41.6252C2.7228 41.615 2.77405 41.5791 2.82529 41.5228C2.87653 41.4664 2.91753 41.3998 2.9534 41.3332C2.98927 41.2665 3.02002 41.1999 3.04051 41.1333C3.06101 41.0718 3.06613 41.0308 3.06613 41.0103C3.06613 41.0052 3.06101 41.0001 3.05076 40.9949C3.04564 40.9949 3.03539 40.9898 3.02514 40.9796C3.00977 40.9693 2.99952 40.9488 2.99439 40.9232C2.99439 40.9078 2.99439 40.8873 2.99952 40.8515C3.00464 40.831 3.01489 40.8053 3.03539 40.7746C3.05589 40.7387 3.08151 40.708 3.11738 40.6721C3.15325 40.6362 3.19937 40.6004 3.25061 40.5696C3.30698 40.5389 3.36847 40.5133 3.44534 40.503C3.45046 40.503 3.47096 40.4979 3.49658 40.4979C3.5222 40.4928 3.53758 40.4979 3.5427 40.5081C3.53758 40.5184 3.53245 40.5286 3.5222 40.5338Z" fill="#1F1D1C"/>
<path d="M3.9682 41.3741C3.97333 41.3331 3.98358 41.2921 3.99895 41.2511C4.0092 41.2101 4.02457 41.1742 4.03995 41.1384C4.05532 41.0974 4.07069 41.0615 4.09119 41.0256C4.09119 41.0205 4.09631 41.0205 4.09119 41.0154C4.09119 41.0103 4.08606 41.0103 4.08094 41.0154C4.07582 41.0205 4.07582 41.0205 4.07582 41.0205C4.06557 41.0359 4.05019 41.0564 4.03995 41.0718C4.0297 41.0923 4.01945 41.1076 4.0092 41.123C3.99895 41.1384 3.98358 41.1537 3.97333 41.1691C3.90671 41.2614 3.85034 41.3331 3.79398 41.3895C3.73761 41.4458 3.69149 41.4868 3.65049 41.5176C3.6095 41.5483 3.57363 41.5637 3.54801 41.5791C3.52238 41.5893 3.50189 41.5944 3.49164 41.5996C3.45064 41.6047 3.4199 41.5944 3.40452 41.5739C3.38915 41.5534 3.3789 41.5329 3.37378 41.5073C3.36865 41.4766 3.36865 41.4458 3.36865 41.4202C3.37378 41.4048 3.37378 41.3895 3.37378 41.3792C3.38915 41.287 3.4199 41.1845 3.46089 41.0769C3.50189 40.9641 3.54288 40.8617 3.58388 40.7643C3.63512 40.6516 3.68636 40.5388 3.74273 40.421C3.75298 40.4005 3.77348 40.3748 3.81447 40.3492C3.85547 40.3236 3.90159 40.3082 3.95283 40.298C3.9682 40.298 3.97845 40.2928 3.99383 40.2928C4.0092 40.2928 4.01432 40.2928 4.01945 40.298C4.01945 40.3082 4.01945 40.3236 4.00407 40.3441C3.94771 40.4568 3.89646 40.5696 3.85034 40.6721C3.80935 40.7643 3.77348 40.8617 3.73248 40.9641C3.69149 41.0666 3.66587 41.1537 3.65049 41.2306C3.64537 41.2306 3.64537 41.2409 3.65049 41.246C3.65049 41.2511 3.65049 41.2665 3.65049 41.2819C3.65562 41.2921 3.65562 41.3024 3.66587 41.3126C3.67099 41.3228 3.68124 41.3228 3.69661 41.3177C3.70686 41.3177 3.72223 41.3126 3.73248 41.3024C3.7581 41.2921 3.78373 41.2614 3.81447 41.2152C3.88109 41.1384 3.94771 41.0461 4.01432 40.9436C4.07069 40.8565 4.13731 40.7489 4.20905 40.6259C4.28079 40.5029 4.35766 40.3646 4.4294 40.2006C4.4294 40.1955 4.43452 40.1904 4.44477 40.1801C4.45502 40.1699 4.47039 40.1545 4.49601 40.1391L4.53701 40.1186C4.55238 40.1135 4.56776 40.1084 4.58313 40.1032C4.5985 40.0981 4.619 40.093 4.6395 40.0879C4.64975 40.0879 4.65999 40.0827 4.67024 40.0827C4.68049 40.0827 4.69074 40.0827 4.70099 40.0827C4.70099 40.0827 4.70611 40.0827 4.71124 40.0827C4.71636 40.0879 4.72149 40.093 4.72149 40.093C4.72149 40.0981 4.72149 40.1032 4.71636 40.1135C4.67024 40.2006 4.62925 40.2928 4.58313 40.3902C4.54213 40.4722 4.50114 40.5593 4.45502 40.6567C4.4089 40.754 4.3679 40.8463 4.33203 40.9385C4.28079 41.0513 4.2398 41.164 4.1988 41.2716C4.16293 41.3792 4.13731 41.4766 4.12194 41.5534C4.11681 41.5893 4.11169 41.6252 4.10656 41.6611C4.10144 41.6969 4.10144 41.7379 4.10144 41.7789C4.10144 41.825 4.10656 41.8712 4.11681 41.9224C4.12194 41.9378 4.11681 41.948 4.11169 41.948C4.10656 41.948 4.10144 41.948 4.09631 41.9429L4.08606 41.9378C4.06044 41.9173 4.03995 41.8917 4.01945 41.8609C3.99895 41.8302 3.9887 41.8045 3.97333 41.7789C3.96308 41.7533 3.95283 41.7277 3.94771 41.7021C3.94258 41.6816 3.93746 41.6662 3.93746 41.6559C3.92721 41.6098 3.92721 41.5637 3.92721 41.5176C3.95283 41.4663 3.95796 41.4202 3.9682 41.3741Z" fill="#1F1D1C"/>
<path d="M5.649 39.8471C5.66438 39.8471 5.67975 39.8471 5.69512 39.8523C5.71562 39.8574 5.72587 39.883 5.73099 39.9189C5.74637 40.0111 5.73612 40.0982 5.70537 40.1802C5.6695 40.2622 5.62851 40.3288 5.58239 40.3852C5.52602 40.4518 5.46453 40.5184 5.38766 40.5748C5.38254 40.5748 5.37741 40.5799 5.37229 40.5799C5.36204 40.5799 5.35691 40.5799 5.35691 40.5697V40.5594V40.5543C5.40816 40.4569 5.4389 40.3852 5.44915 40.334C5.4594 40.2827 5.46453 40.252 5.4594 40.2315C5.4594 40.2263 5.4594 40.2212 5.45428 40.2212C5.45428 40.2212 5.45428 40.2161 5.44915 40.2161V40.211C5.4389 40.2007 5.42866 40.2007 5.41841 40.2007C5.40816 40.2058 5.39279 40.211 5.37741 40.2212C5.36716 40.2263 5.36204 40.2315 5.35179 40.2366C5.27492 40.3083 5.19806 40.3954 5.12632 40.4928C5.05458 40.5902 4.98796 40.6875 4.92647 40.7849C4.88547 40.8464 4.8496 40.9079 4.81886 40.9643C4.78811 41.0206 4.76249 41.0719 4.73687 41.118C4.71124 41.1692 4.69075 41.2153 4.66513 41.2615C4.64463 41.2973 4.62925 41.3281 4.60876 41.3537C4.58826 41.3793 4.56776 41.3947 4.54214 41.4101C4.51652 41.4254 4.49602 41.4306 4.4704 41.4357C4.44478 41.4408 4.41916 41.4459 4.39353 41.4511H4.37816C4.36279 41.4511 4.35766 41.4511 4.35254 41.4408C4.35254 41.4357 4.35254 41.4306 4.35254 41.4306V41.4254C4.36279 41.4049 4.37304 41.3691 4.39353 41.3281C4.41403 41.2871 4.43453 41.2358 4.45503 41.1795C4.48065 41.1231 4.50115 41.0616 4.53189 40.995C4.55751 40.9284 4.58314 40.8669 4.61388 40.8003C4.67537 40.6517 4.74712 40.4877 4.82398 40.3083C4.83935 40.2776 4.8496 40.2468 4.86498 40.2212C4.87522 40.1956 4.88547 40.1751 4.89572 40.1546C4.90597 40.1341 4.91622 40.1136 4.92647 40.1034C4.95209 40.0675 4.99308 40.0419 5.0392 40.0265C5.08532 40.0111 5.13144 40.0009 5.17244 39.9906C5.17756 39.9906 5.17756 39.9906 5.18269 39.9906C5.18781 39.9906 5.18781 39.9906 5.18781 39.9906C5.18781 39.9906 5.19294 39.9906 5.19294 39.9957C5.19294 40.0009 5.19294 40.0111 5.18781 40.0214C5.14682 40.1034 5.11095 40.1751 5.0802 40.2468C5.04945 40.3032 5.02383 40.3596 4.99821 40.4159C4.97259 40.4723 4.95721 40.5031 4.95209 40.5184L4.94697 40.5287C4.94697 40.5287 4.94184 40.5389 4.94697 40.5441C4.94697 40.5492 4.95209 40.5492 4.95721 40.5492C4.95721 40.5492 4.96234 40.5492 4.96746 40.5441C4.97259 40.5389 4.97771 40.5389 4.97771 40.5338C4.98284 40.5287 4.98796 40.5236 4.98796 40.5184L5.00846 40.4826C5.09045 40.3749 5.16731 40.2725 5.24418 40.1802C5.27492 40.1444 5.3108 40.1034 5.34667 40.0675C5.38254 40.0265 5.41328 39.9957 5.44915 39.965C5.48502 39.9343 5.51577 39.9035 5.54652 39.8881C5.59776 39.8625 5.62338 39.8523 5.649 39.8471Z" fill="#1F1D1C"/>
<path d="M1.62589 32.9907C1.62589 32.6064 1.91798 32.3194 2.28694 32.3194C2.65077 32.3194 2.94286 32.6064 2.94286 32.9907C2.94286 33.3802 2.65077 33.6671 2.28694 33.6671C1.91286 33.6671 1.62589 33.3802 1.62589 32.9907ZM2.28694 33.8004C2.72763 33.8004 3.10684 33.457 3.10684 32.9907C3.10684 32.5244 2.72763 32.1862 2.28694 32.1862C1.84112 32.1862 1.46191 32.5295 1.46191 32.9907C1.46191 33.457 1.84112 33.8004 2.28694 33.8004ZM2.11783 33.0522H2.28181L2.52778 33.457H2.68664L2.42017 33.0471C2.55853 33.0317 2.66102 32.96 2.66102 32.7908C2.66102 32.6064 2.54828 32.5244 2.33306 32.5244H1.97435V33.457H2.11783V33.0522ZM2.11783 32.9343V32.6422H2.30743C2.4048 32.6422 2.51241 32.6627 2.51241 32.7806C2.51241 32.9241 2.4048 32.9343 2.28694 32.9343H2.11783Z" fill="white"/>
<path d="M65.3529 41.2613C65.3529 40.7028 65.7731 40.2877 66.3112 40.2877C66.839 40.2877 67.2643 40.7028 67.2643 41.2613C67.2643 41.825 66.8441 42.2401 66.3112 42.2401C65.7731 42.2401 65.3529 41.825 65.3529 41.2613ZM66.3112 42.4348C66.9517 42.4348 67.5 41.9377 67.5 41.2562C67.5 40.5849 66.9517 40.0878 66.3112 40.0878C65.6655 40.0878 65.1172 40.5849 65.1172 41.2562C65.1172 41.9429 65.6655 42.4348 66.3112 42.4348ZM66.0601 41.3536H66.2958L66.6494 41.9429H66.88L66.4956 41.3433C66.6955 41.3177 66.8441 41.2152 66.8441 40.9692C66.8441 40.7028 66.6852 40.5849 66.3675 40.5849H65.8551V41.9377H66.0601V41.3536ZM66.0601 41.1793V40.7591H66.3368C66.4803 40.7591 66.634 40.7899 66.634 40.959C66.634 41.1691 66.4803 41.1793 66.306 41.1793H66.0601Z" fill="#1F1D1C"/>
</svg>
