<svg xmlns="http://www.w3.org/2000/svg" fill="none" viewBox="0 0 38 38"><circle cx="19" cy="19" r="19" fill="#25836B"/><path fill="#fff" d="M26.1 26.04a.269.269 0 0 1 .24.08c.067.067.073.153.02.26-.093.573-.48 1.067-1.16 1.48-.68.413-1.467.62-2.36.62a5.082 5.082 0 0 1-1.92-.38 8.128 8.128 0 0 1-1.6-.8 9.134 9.134 0 0 0-1.58-.8 5.275 5.275 0 0 0-1.9-.36c-.267 0-.547.02-.84.06l-.64.12c-.133.04-.333.107-.6.2l-.38.12c-.213.04-.347-.047-.4-.26-.053-.213-.007-.427.14-.64.56-.707 1.293-1.167 2.2-1.38a6.889 6.889 0 0 1-2.7-2.62c-.667-1.133-1-2.4-1-3.8 0-2.16.647-3.92 1.94-5.28 1.307-1.373 3-2.06 5.08-2.06 2 0 3.667.713 5 2.14 1.333 1.413 2 3.16 2 5.24 0 1.96-.6 3.613-1.8 4.96-1.187 1.333-2.687 2.08-4.5 2.24a16.879 16.879 0 0 1 .7.38c.067.027.18.08.34.16.173.093.3.153.38.18l.38.16c.173.08.313.133.42.16.107.027.247.06.42.1.173.053.327.087.46.1.147.027.307.047.48.06a7.928 7.928 0 0 0 1.56-.04c.32-.04.56-.08.72-.12.16-.04.333-.093.52-.16.2-.067.327-.107.38-.12zM17.56 11.9c-.92 0-1.653.333-2.2 1-.533.667-.8 1.553-.8 2.66 0 1.36.213 2.68.64 3.96.44 1.28 1.047 2.333 1.82 3.16.773.813 1.613 1.22 2.52 1.22.92 0 1.66-.34 2.22-1.02.56-.68.84-1.547.84-2.6 0-1.307-.22-2.6-.66-3.88-.44-1.293-1.053-2.367-1.84-3.22-.787-.853-1.633-1.28-2.54-1.28z"/></svg>