<svg width="24" height="24" viewBox="0 0 24 24" fill="none" xmlns="http://www.w3.org/2000/svg">
<path d="M4.55005 10.16V19C4.55005 19.0709 4.56402 19.1411 4.59115 19.2067C4.61829 19.2722 4.65807 19.3317 4.70821 19.3818C4.75835 19.432 4.81788 19.4718 4.8834 19.4989C4.94892 19.526 5.01913 19.54 5.09005 19.54C5.16096 19.54 5.23118 19.526 5.2967 19.4989C5.36221 19.4718 5.42174 19.432 5.47189 19.3818C5.52203 19.3317 5.56181 19.2722 5.58894 19.2067C5.61608 19.1411 5.63005 19.0709 5.63005 19V16.54H18.55V19C18.55 19.1432 18.6069 19.2806 18.7082 19.3818C18.8095 19.4831 18.9468 19.54 19.09 19.54C19.2333 19.54 19.3706 19.4831 19.4719 19.3818C19.5732 19.2806 19.63 19.1432 19.63 19V10.16H4.55005ZM7.09005 14C6.89227 14 6.69893 13.9414 6.53448 13.8315C6.37003 13.7216 6.24186 13.5654 6.16617 13.3827C6.09048 13.2 6.07068 12.9989 6.10926 12.8049C6.14785 12.6109 6.24309 12.4327 6.38294 12.2929C6.52279 12.153 6.70098 12.0578 6.89496 12.0192C7.08894 11.9806 7.29001 12.0004 7.47273 12.0761C7.65546 12.1518 7.81164 12.28 7.92152 12.4444C8.0314 12.6089 8.09005 12.8022 8.09005 13C8.09005 13.2652 7.98469 13.5196 7.79716 13.7071C7.60962 13.8946 7.35527 14 7.09005 14ZM17.09 14C16.8923 14 16.6989 13.9414 16.5345 13.8315C16.37 13.7216 16.2419 13.5654 16.1662 13.3827C16.0905 13.2 16.0707 12.9989 16.1093 12.8049C16.1478 12.6109 16.2431 12.4327 16.3829 12.2929C16.5228 12.153 16.701 12.0578 16.895 12.0192C17.0889 11.9806 17.29 12.0004 17.4727 12.0761C17.6555 12.1518 17.8116 12.28 17.9215 12.4444C18.0314 12.6089 18.09 12.8022 18.09 13C18.09 13.2652 17.9847 13.5196 17.7972 13.7071C17.6096 13.8946 17.3553 14 17.09 14Z" fill="#9DE2FF"/>
<path d="M8.14879 4.72168C7.91396 4.86646 7.72394 5.07359 7.59989 5.32L5.88989 8.7H18.2899L16.5799 5.32C16.4558 5.07359 16.2658 4.86646 16.031 4.72168C15.7962 4.5769 15.5258 4.50016 15.2499 4.5H8.92989C8.65402 4.50016 8.38361 4.5769 8.14879 4.72168Z" fill="white"/>
<path d="M21.09 8.72H19.98L17.92 4.64C17.6693 4.14712 17.2873 3.73312 16.8161 3.44371C16.345 3.1543 15.803 3.00074 15.25 3L8.93 3C8.37704 3.00074 7.83504 3.1543 7.36387 3.44371C6.89269 3.73312 6.51067 4.14712 6.26 4.64L4.2 8.7H3.09C2.80091 8.7 2.52367 8.81484 2.31925 9.01925C2.11484 9.22367 2 9.50091 2 9.79C2 10.0791 2.11484 10.3563 2.31925 10.5607C2.52367 10.7652 2.80091 10.88 3.09 10.88V19C3.09052 19.2681 3.14493 19.5334 3.25 19.78C3.34696 20.0182 3.49354 20.2329 3.68 20.41C3.95065 20.6895 4.29906 20.8811 4.68 20.96C4.81462 20.9894 4.95223 21.0029 5.09 21C5.22289 21.0153 5.35711 21.0153 5.49 21C5.87094 20.9211 6.21935 20.7295 6.49 20.45C6.67646 20.2729 6.82304 20.0582 6.92 19.82C7.0339 19.5617 7.09183 19.2823 7.09 19V18H17.09V19C17.09 19.5304 17.3007 20.0391 17.6758 20.4142C18.0509 20.7893 18.5596 21 19.09 21C19.6204 21 20.1291 20.7893 20.5042 20.4142C20.8793 20.0391 21.09 19.5304 21.09 19V10.88C21.3764 10.88 21.6511 10.7662 21.8537 10.5637C22.0562 10.3611 22.17 10.0864 22.17 9.8C22.17 9.51357 22.0562 9.23886 21.8537 9.03632C21.6511 8.83379 21.3764 8.72 21.09 8.72ZM7.6 5.32C7.72405 5.07359 7.91407 4.86646 8.1489 4.72168C8.38372 4.5769 8.65413 4.50016 8.93 4.5H15.25C15.5259 4.50016 15.7963 4.5769 16.0311 4.72168C16.2659 4.86646 16.456 5.07359 16.58 5.32L18.29 8.7H5.89L7.6 5.32ZM19.6 15V19C19.6 19.1432 19.5431 19.2806 19.4418 19.3818C19.3406 19.4831 19.2032 19.54 19.06 19.54C18.9168 19.54 18.7794 19.4831 18.6782 19.3818C18.5769 19.2806 18.52 19.1432 18.52 19V16.54H5.63V19C5.63 19.0709 5.61603 19.1411 5.58889 19.2066C5.56176 19.2722 5.52198 19.3317 5.47184 19.3818C5.42169 19.432 5.36216 19.4718 5.29665 19.4989C5.23113 19.526 5.16091 19.54 5.09 19.54C5.01909 19.54 4.94887 19.526 4.88335 19.4989C4.81784 19.4718 4.75831 19.432 4.70816 19.3818C4.65802 19.3317 4.61824 19.2722 4.5911 19.2066C4.56397 19.1411 4.55 19.0709 4.55 19V10.16H19.63V15H19.6Z" fill="#026AB9"/>
<path d="M21.09 8.72H19.98L17.92 4.64C17.6693 4.14712 17.2873 3.73312 16.8161 3.44371C16.345 3.1543 15.803 3.00074 15.25 3L8.93 3C8.37704 3.00074 7.83504 3.1543 7.36387 3.44371C6.89269 3.73312 6.51067 4.14712 6.26 4.64L4.2 8.7H3.09C2.80091 8.7 2.52367 8.81484 2.31925 9.01925C2.11484 9.22367 2 9.50091 2 9.79C2 10.0791 2.11484 10.3563 2.31925 10.5607C2.52367 10.7652 2.80091 10.88 3.09 10.88V19C3.09052 19.2681 3.14493 19.5334 3.25 19.78C3.34696 20.0182 3.49354 20.2329 3.68 20.41C3.95065 20.6895 4.29906 20.8811 4.68 20.96C4.81462 20.9894 4.95223 21.0029 5.09 21C5.22289 21.0153 5.35711 21.0153 5.49 21C5.87094 20.9211 6.21935 20.7295 6.49 20.45C6.67646 20.2729 6.82304 20.0582 6.92 19.82C7.0339 19.5617 7.09183 19.2823 7.09 19V18H17.09V19C17.09 19.5304 17.3007 20.0391 17.6758 20.4142C18.0509 20.7893 18.5596 21 19.09 21C19.6204 21 20.1291 20.7893 20.5042 20.4142C20.8793 20.0391 21.09 19.5304 21.09 19V10.88C21.3764 10.88 21.6511 10.7662 21.8537 10.5637C22.0562 10.3611 22.17 10.0864 22.17 9.8C22.17 9.51357 22.0562 9.23886 21.8537 9.03632C21.6511 8.83379 21.3764 8.72 21.09 8.72ZM7.6 5.32C7.72405 5.07359 7.91407 4.86646 8.1489 4.72168C8.38372 4.5769 8.65413 4.50016 8.93 4.5H15.25C15.5259 4.50016 15.7963 4.5769 16.0311 4.72168C16.2659 4.86646 16.456 5.07359 16.58 5.32L18.29 8.7H5.89L7.6 5.32ZM19.6 15V19C19.6 19.1432 19.5431 19.2806 19.4418 19.3818C19.3406 19.4831 19.2032 19.54 19.06 19.54C18.9168 19.54 18.7794 19.4831 18.6782 19.3818C18.5769 19.2806 18.52 19.1432 18.52 19V16.54H5.63V19C5.63 19.0709 5.61603 19.1411 5.58889 19.2066C5.56176 19.2722 5.52198 19.3317 5.47184 19.3818C5.42169 19.432 5.36216 19.4718 5.29665 19.4989C5.23113 19.526 5.16091 19.54 5.09 19.54C5.01909 19.54 4.94887 19.526 4.88335 19.4989C4.81784 19.4718 4.75831 19.432 4.70816 19.3818C4.65802 19.3317 4.61824 19.2722 4.5911 19.2066C4.56397 19.1411 4.55 19.0709 4.55 19V10.16H19.63V15H19.6Z" fill="#026AB9"/>
<path d="M7.09009 14C7.64237 14 8.09009 13.5523 8.09009 13C8.09009 12.4477 7.64237 12 7.09009 12C6.5378 12 6.09009 12.4477 6.09009 13C6.09009 13.5523 6.5378 14 7.09009 14Z" fill="#026AB9"/>
<path d="M17.0901 14C17.6424 14 18.0901 13.5523 18.0901 13C18.0901 12.4477 17.6424 12 17.0901 12C16.5378 12 16.0901 12.4477 16.0901 13C16.0901 13.5523 16.5378 14 17.0901 14Z" fill="#026AB9"/>
</svg>
