<svg xmlns="http://www.w3.org/2000/svg" fill="none" viewBox="0 0 24 24"><path fill="#25836B" d="M12 2C6.488 2 2 6.488 2 12s4.488 10 10 10 10-4.488 10-10S17.512 2 12 2zm0 2c4.43 0 8 3.57 8 8s-3.57 8-8 8-8-3.57-8-8 3.57-8 8-8zM9.594 7.406l-.5 4.688 1.5.406c0-.102.418-.5 1.219-.5.3 0 1.5-.008 1.5 1.594 0 .199-.012 1.719-1.313 1.719-1 0-1.313-.82-1.313-1.22h-1.78c-.102.9.695 2.72 3.093 2.72 2.102 0 3.094-1.524 3.094-3.125 0-.5-.082-3.094-2.781-3.094-.801 0-1.305.312-1.407.312l.188-2h3.719v-1.5h-5.22z"/></svg>