<svg width="24" height="24" viewBox="0 0 24 24" fill="none" xmlns="http://www.w3.org/2000/svg">
<g clip-path="url(#clip0)">
<path d="M1.65 6.74091H16.35V10.6364C16.35 11.382 15.7456 11.9864 15 11.9864H3C2.25442 11.9864 1.65 11.382 1.65 10.6364V6.74091Z" fill="#68FF58" stroke="#008300" stroke-width="1.3"/>
<path d="M1.75 3C1.75 2.30964 2.30964 1.75 3 1.75H15C15.6904 1.75 16.25 2.30964 16.25 3V3.15909H1.75V3Z" fill="#ABFFE8" stroke="#008300" stroke-width="1.45455"/>
<path d="M7.65 16.7409H22.35V20.6364C22.35 21.382 21.7456 21.9864 21 21.9864H9C8.25442 21.9864 7.65 21.382 7.65 20.6364V16.7409Z" fill="#FFBDFF" stroke="#7F41DB" stroke-width="1.3"/>
<path d="M23 14.5591H23.65V13.9091V13C23.65 11.5364 22.4636 10.35 21 10.35H9C7.53645 10.35 6.35 11.5364 6.35 13V13.9091V14.5591H7H23Z" fill="#7F41DB" stroke="white" stroke-width="1.3"/>
<path d="M21.5 3V9L19 6L21.5 3Z" fill="#008300"/>
<path d="M2 21V15L4.5 18L2 21Z" fill="#7F41DB"/>
</g>
<defs>
<clipPath id="clip0">
<rect width="24" height="24" fill="white"/>
</clipPath>
</defs>
</svg>
