<svg xmlns="http://www.w3.org/2000/svg" fill="none" viewBox="0 0 24 24"><path fill="#fff" d="M5.931 2.398l1.42 5.13V9.99h1.23V7.53l1.44-5.13H8.78l-.515 2.334a26.553 26.553 0 0 0-.28 1.455H7.95c-.06-.404-.154-.893-.28-1.465l-.497-2.325h-1.24zm5.524 1.936c-.417 0-.754.082-1.01.249-.256.165-.444.43-.565.792-.12.362-.181.84-.181 1.438v.804c0 .59.053 1.064.159 1.42.106.356.282.62.533.788.25.169.596.254 1.036.255.428 0 .769-.084 1.018-.25.25-.167.431-.427.543-.786.11-.36.167-.834.167-1.425v-.806c0-.597-.058-1.074-.172-1.433-.114-.359-.294-.624-.542-.792-.247-.17-.577-.254-.986-.254zm2.347.11v4.142c0 .513.088.89.262 1.131.175.241.446.361.814.361.53 0 .93-.256 1.194-.769h.027l.109.679h.977V4.444h-1.247v4.403a.612.612 0 0 1-.222.255.55.55 0 0 1-.313.1.283.283 0 0 1-.272-.16c-.054-.105-.08-.28-.08-.528v-4.07H13.8zm-2.375.75c.174 0 .298.092.367.276.07.184.103.474.103.872V8.07c0 .41-.034.705-.103.886-.069.181-.192.271-.366.272-.174 0-.296-.09-.362-.272-.067-.18-.1-.476-.1-.886V6.342c0-.397.036-.688.104-.872.07-.183.188-.276.357-.276zM5.2 11.119a2 2 0 0 0-2 2v6.4a2 2 0 0 0 2 2h13.6a2 2 0 0 0 2-2v-6.4a2 2 0 0 0-2-2H5.2zm6.847 1.839h1.016v2.467h.007a1.11 1.11 0 0 1 .39-.431.978.978 0 0 1 .543-.164c.25 0 .445.066.586.198.142.132.246.347.31.642.063.296.095.706.095 1.23v.74c0 .697-.084 1.21-.252 1.538-.168.329-.431.494-.787.494-.198 0-.38-.046-.542-.138a.888.888 0 0 1-.366-.375h-.023l-.107.443h-.87v-6.644zm-6.3.237h3.124v.849H7.824v5.558H6.792v-5.558H5.747v-.849zm11.147 1.638c.36 0 .64.065.833.197.193.133.33.34.41.618.078.28.116.668.116 1.161v.803h-1.762v.238c0 .3.008.525.026.675.019.15.055.26.111.328.056.069.143.103.26.103.157 0 .265-.061.325-.183.058-.121.09-.326.095-.61l.908.053c.005.04.008.097.008.168 0 .433-.118.756-.355.97-.237.213-.572.321-1.005.321-.519 0-.882-.163-1.092-.49-.21-.325-.312-.83-.312-1.512v-.817c0-.702.109-1.215.325-1.539.216-.324.585-.484 1.109-.484zm-6.534.086h1.054V19.6h-.003v.002h-.825l-.09-.574h-.024c-.224.434-.56.65-1.008.65-.31 0-.54-.1-.687-.305-.148-.203-.222-.522-.222-.954V14.92H9.61v3.438c0 .208.023.359.069.447.046.09.122.133.23.133a.46.46 0 0 0 .262-.085.523.523 0 0 0 .188-.214v-3.72zm6.512.625c-.112 0-.196.033-.25.098-.053.067-.09.175-.106.325a6.2 6.2 0 0 0-.027.683v.336h.77v-.336c0-.3-.01-.528-.03-.683-.02-.156-.055-.264-.108-.328-.054-.063-.136-.095-.249-.095zm-3.344.034a.405.405 0 0 0-.283.122.666.666 0 0 0-.182.313v2.657a.465.465 0 0 0 .18.183c.073.04.153.063.24.063.112 0 .2-.04.267-.122.067-.082.114-.22.14-.413.029-.192.043-.46.043-.801v-.603c0-.367-.011-.65-.034-.849-.023-.198-.065-.34-.122-.423a.286.286 0 0 0-.249-.127z"/></svg>