<svg xmlns="http://www.w3.org/2000/svg" fill="none" viewBox="0 0 24 24"><path fill="#C4040C" d="M21.42 9.777l-.158.173-.078.11-.188.218-.188.22-.078.094-.11.203-.11.203-.11.22-.093.203-.062.313-.094.453-.078.376-.079.407-.078.407-.078.36-.095.455-.062.313-.031.438-.048.439-.03.454-.048.438.031.33.016.328.016.329.031.329.063.375.093.455.095.485.062.33.095.438.078.39.047.283.11.532-.564.062-.548.047-.564.047-.564.047-.517.048-.532.03-.517.048-.517.031-.532.032-.516.047-.517.03-.533.034-.517.03-.533.032-.516.031-.517.016-.532.032-.517.03-.532.032-.517.016h-.016l.031-.079.016-.047-.03-.062-.08-.11-.03-.047-.063-.157-.047-.062-.078-.016h-.063l-.14-.047-.517-.079-.126-.047-.062-.047-.048-.047-.11-.204-.015-.078-.016-.157-.016-.078-.031-.047-.094-.11-.031-.062-.031-.094v-.171l-.016-.047-.016-.047-.016-.157-.016-.126-.03-.28.016-.142.14-.219.063-.125-.016-.157-.078-.079-.25-.093-.048-.031-.016-.047-.016-.094-.015-.047-.016-.047-.046-.078-.016-.031-.016-.047v-.11l.016-.094v-.047l-.016-.062-.016-.094v-.235l-.032-.095v-.047l.032-.219-.016-.062-.016-.079v-.047l-.03-.031-.031-.031-.016-.032-.015-.03-.016-.048v-.234l-.016-.094-.016-.047-.03-.048-.032-.016-.031-.031-.125-.047-.032-.047-.062-.078-.032-.063v-.03l-.016-.017-.016-.031-.016-.016-.03-.016h-.126l-.03-.016-.174-.126-.016-.016-.281.016-.031-.016-.032-.016-.36-.281-.11-.047-.062-.079-.235-.422-.11-.172-.453-.39-.157-.048-.345-.047-.03-.016-.032-.031-.031-.048-.079-.172-.094-.11-.094-.062-.093-.047-.455-.047-.125-.078-.016-.032-.016-.03-.016-.032-.063-.031-.202-.203-.173-.11-.078-.062.11-.25.015-.11-.016-.047-.016-.14v-.032l.048-.078v-.031l-.016-.157-.032-.172-.078-.188-.016-.079.031-.047.063-.016.03-.062.017-.079v-.094l-.063-.126-.016-.016.016-.047.016-.094-.016-.172.016-.079.016-.062.048-.047.047-.047.031-.048.016-.062.016-.093.078-.141v-.079l-.016-.078-.047-.063-.047-.045-.047-.063-.031-.062-.048-.157-.03-.047-.11-.047-.141.016-.126-.031-.047-.141v-.298l.016-.078.016-.047.235-.236.079-.125-.016-.126.11-.219.062-.094.094-.047.047-.017.157-.094.062-.016.032-.016.016-.016.03-.062v-.013l.017-.031.031-.016h.016l.126-.016.03-.016.063-.11.047-.031H4.021l.031-.031.016-.047.032-.062.031-.047.031-.016.063-.016-.016-.141v-.313l-.016-.25-.016-.25v-.252l-.016-.25-.016-.267v-.25l-.016-.25v-.095h.016l.047.016h.048l.047-.016h.047l.016-.016v-.032l.016-.016v-.093l.016-.03V5.03l.016-.016L4.414 5l.016-.016.048-.016h.016v-.016l.03-.078.017-.032.047-.03.031-.032.094.031.14.048.171.064.126-.063.14-.093.157-.095.157-.11.156-.094.157-.093.14-.095.157-.093.157-.095.266-.22.281-.202.267-.204.266-.204.267-.203.281-.203.267-.22.266-.202h.721l.235-.016h.721l.249-.017-.079.188-.062.172-.063.173-.062.172-.062.188-.079.172-.062.173-.063.171-.062.188-.078.173-.063.172-.062.172-.063.188-.078.172-.064.173-.062.172-.032.063.032.078v.047l.016.016h.016l.03.016.032-.016h.016l.047-.031h.047l.032.062.016.016h.047l.031.016.031.016.016.032h.063l.03.016.032.016.031.03.047.048.032.062.047.11.093.173.048.11.03.078v.016l.017.016.078.03h.031l.094.017.126.031.172.031.204.048.218.048.235.047.25.047.251.047.235.063.235.03.204.048.156.031.141.031.079.016h.03l.11.032.063.016.172.093.173.079.172.078.17.074.062.048h.062l.032-.016h.047l.016.016.031.016.032-.016.047-.016.031-.016h.016l.031.016.047.016.063.016.11.047h.047l.062-.047.016-.016h.079l.031-.016.032-.016h.032l.03.016.032.016.047.03h.063l.016-.015h.016l.016.016.11.03.03.017h.016l.063-.031h.016l.031.016.078.047.016.016h.189l.063.031.047.016h.047l.031-.016h.047l.079.063h.016l.047.016.031.016.016.03.089.156.016.016v.047l-.016.016v.031l-.063.078v.016l-.016.031v.031l.016.016.031.048.016.016.047.016.047.015h.11l.062-.032h.016l.016.016.048.048h.016l.016.016.016.016h.172l.016.016h.016l.016.016.016.016.048.047.016.016.062.031.031.031.047.047.032.032.03.016v.048l-.015.016-.031.03v.048l.03.047.048.079.016.016v.03l.016.063-.017.03v.017l-.016.016-.016.016h-.015l-.016.016v.047l.031.078.031.126v.062l-.016.032-.016.047-.016.016v.016l-.093.078-.016.016v.047l.016.063v.047l-.031.094v.031l.016.017.016.03.047.017h.047l.031-.016.016-.016h.016l.079.016h.046l.017-.016.203-.126h.048l.016.031.031.031.016.032.016.016v.03l-.016.017-.031.062-.031.032-.047.172-.048.157V10.303l.016.047.048.048.078.062.031.031.016.031.016.016.041.022.172.062.157.047.125.032.11.03.047-.234.031-.236.22-.235.235-.235.078-.172.079-.173.078-.172.062-.172.267-.016.266-.03.439-.032.093.047.095.047.093.047.094.048.093.047.094.047.094.047.11.048.094.047.093.047.094.047.094.047.094.047.094.048.094.047.094.046z"/></svg>