<svg width="24" height="24" viewBox="0 0 24 24" fill="none" xmlns="http://www.w3.org/2000/svg">
<path d="M12.0004 2.3999C6.70793 2.3999 2.40039 6.70744 2.40039 11.9999C2.40039 17.2924 6.70793 21.5999 12.0004 21.5999C17.2928 21.5999 21.6004 17.2924 21.6004 11.9999C21.6004 6.70744 17.2928 2.3999 12.0004 2.3999ZM11.202 4.03896C11.212 4.24403 11.3005 4.43738 11.4491 4.57902C11.5977 4.72066 11.7951 4.79975 12.0004 4.7999C12.2057 4.79975 12.4031 4.72066 12.5517 4.57902C12.7003 4.43738 12.7888 4.24403 12.7988 4.03896C16.5864 4.41246 19.5878 7.41386 19.9613 11.2015C19.7563 11.2115 19.5629 11.3 19.4213 11.4486C19.2796 11.5972 19.2005 11.7946 19.2004 11.9999C19.2005 12.2052 19.2796 12.4026 19.4213 12.5512C19.5629 12.6998 19.7563 12.7883 19.9613 12.7983C19.5878 16.5859 16.5864 19.5873 12.7988 19.9608C12.7888 19.7558 12.7003 19.5624 12.5517 19.4208C12.4031 19.2791 12.2057 19.2001 12.0004 19.1999C11.7951 19.2001 11.5977 19.2791 11.4491 19.4208C11.3005 19.5624 11.212 19.7558 11.202 19.9608C7.41435 19.5873 4.41295 16.5859 4.03945 12.7983C4.24451 12.7883 4.43787 12.6998 4.57951 12.5512C4.72115 12.4026 4.80023 12.2052 4.80039 11.9999C4.80023 11.7946 4.72115 11.5972 4.57951 11.4486C4.43787 11.3 4.24451 11.2115 4.03945 11.2015C4.41295 7.41386 7.41435 4.41246 11.202 4.03896ZM12.0004 5.5999C8.46599 5.5999 5.60039 8.4655 5.60039 11.9999C5.60039 15.5343 8.46599 18.3999 12.0004 18.3999C15.5348 18.3999 18.4004 15.5343 18.4004 11.9999C18.4004 8.4655 15.5348 5.5999 12.0004 5.5999ZM12.0004 7.1999C12.4428 7.1999 12.8004 7.5583 12.8004 7.9999V11.6687L14.966 13.8343C15.2788 14.1471 15.2788 14.6527 14.966 14.9655C14.81 15.1215 14.6052 15.1999 14.4004 15.1999C14.1956 15.1999 13.9908 15.1215 13.8348 14.9655L11.2004 12.3312V7.9999C11.2004 7.5583 11.558 7.1999 12.0004 7.1999Z" fill="#484644"/>
</svg>
