<svg xmlns="http://www.w3.org/2000/svg" fill="none" viewBox="0 0 24 24"><path fill="#757372" fill-rule="evenodd" d="M7.2 4.8V4c0-.48.32-.8.8-.8h.8c.48 0 .8.32.8.8v.8h5.6V4c0-.48.32-.8.8-.8h.8c.48 0 .8.32.8.8v.8h1.6c.88 0 1.6.72 1.6 1.6v12.8c0 .88-.72 1.6-1.6 1.6H5.6c-.88 0-1.6-.72-1.6-1.6V6.4c0-.88.72-1.6 1.6-1.6h1.6zm-.8 4h12c.48 0 .8-.32.8-.8 0-.48-.32-.8-.8-.8h-12c-.48 0-.8.32-.8.8 0 .48.32.8.8.8zm12 3.198h-12c-.48 0-.8-.32-.8-.8 0-.48.32-.8.8-.8h12c.48 0 .8.32.8.8 0 .48-.32.8-.8.8zM6.4 15.6h2c.48 0 .8-.32.8-.8 0-.48-.32-.8-.8-.8h-2c-.48 0-.8.32-.8.8 0 .48.32.8.8.8z" clip-rule="evenodd"/></svg>