<svg xmlns="http://www.w3.org/2000/svg" fill="none" viewBox="0 0 38 38"><mask id="a" fill="#fff"><path fill-rule="evenodd" d="M19 37c9.941 0 18-8.059 18-18S28.941 1 19 1 1 9.059 1 19s8.059 18 18 18zm0 1c10.493 0 19-8.507 19-19S29.493 0 19 0 0 8.507 0 19s8.507 19 19 19z" clip-rule="evenodd"/></mask><path fill="#8D8C8A" fill-rule="evenodd" d="M19 37c9.941 0 18-8.059 18-18S28.941 1 19 1 1 9.059 1 19s8.059 18 18 18zm0 1c10.493 0 19-8.507 19-19S29.493 0 19 0 0 8.507 0 19s8.507 19 19 19z" clip-rule="evenodd"/><path fill="#8D8C8A" d="M36 19c0 9.389-7.611 17-17 17v2c10.493 0 19-8.507 19-19h-2zM19 2c9.389 0 17 7.611 17 17h2C38 8.507 29.493 0 19 0v2zM2 19C2 9.611 9.611 2 19 2V0C8.507 0 0 8.507 0 19h2zm17 17C9.611 36 2 28.389 2 19H0c0 10.493 8.507 19 19 19v-2zm18-17c0 9.941-8.059 18-18 18v2c11.046 0 20-8.954 20-20h-2zM19 1c9.941 0 18 8.059 18 18h2C39 7.954 30.046-1 19-1v2zM1 19C1 9.059 9.059 1 19 1v-2C7.954-1-1 7.954-1 19h2zm18 18C9.059 37 1 28.941 1 19h-2c0 11.046 8.954 20 20 20v-2z" mask="url(#a)"/><path fill="#026B54" d="M25.88 24.08c.133.32.347.613.64.88.307.267.46.48.46.64v.06c0 .227-.147.34-.44.34h-4.38c-.293 0-.44-.113-.44-.34v-.06c0-.133.087-.267.26-.4.187-.147.347-.307.48-.48.133-.187.153-.4.06-.64l-.6-1.6h-5.58l-.58 1.6c-.093.24-.073.453.06.64.133.173.287.333.46.48.187.133.28.267.28.4v.06c0 .227-.153.34-.46.34h-2.62c-.293 0-.44-.113-.44-.34v-.06c0-.16.147-.367.44-.62.293-.267.507-.567.64-.9l3.98-10.22c.107-.28.013-.607-.28-.98-.28-.373-.42-.6-.42-.68v-.08c0-.213.133-.32.4-.32h2.08c.56 0 .967.287 1.22.86l4.78 11.42zm-9.06-2.9h4.62l-2.34-6.22-2.28 6.22z"/></svg>