<svg xmlns="http://www.w3.org/2000/svg" fill="none" viewBox="0 0 24 24"><g clip-path="url(#clip0)"><path fill="#25836B" d="M20.34 4.59L16.405.655a2.25 2.25 0 0 0-1.589-.66H5.25A2.258 2.258 0 0 0 3 2.25v19.5A2.25 2.25 0 0 0 5.25 24h13.5A2.25 2.25 0 0 0 21 21.75V6.183c0-.596-.24-1.172-.66-1.594zM18.566 6H15V2.433L18.567 6zM5.25 21.75V2.25h7.5v4.875c0 .623.502 1.125 1.125 1.125h4.875v13.5H5.25zm11.728-6.736c-.572-.563-2.203-.408-3.019-.305-.806-.492-1.345-1.171-1.725-2.17.183-.755.474-1.903.254-2.625-.197-1.228-1.772-1.106-1.997-.277-.207.755-.02 1.805.328 3.146-.469 1.12-1.167 2.625-1.66 3.487-.937.483-2.203 1.228-2.39 2.166-.155.74 1.218 2.587 3.567-1.463 1.05-.346 2.194-.773 3.206-.942.886.478 1.922.797 2.616.797 1.195 0 1.312-1.322.82-1.814zm-9.286 3.647c.24-.642 1.149-1.383 1.425-1.64-.89 1.42-1.425 1.673-1.425 1.64zm3.825-8.934c.347 0 .314 1.504.085 1.912-.207-.651-.202-1.912-.085-1.912zm-1.144 6.403c.455-.792.844-1.735 1.158-2.564.39.707.886 1.275 1.411 1.664-.975.201-1.823.614-2.569.9zm6.17-.235s-.235.282-1.75-.365c1.646-.122 1.918.253 1.75.365z"/></g><defs><clipPath id="clip0"><path fill="#fff" d="M0 0h24v24H0z"/></clipPath></defs></svg>