<svg width="24" height="24" viewBox="0 0 24 24" fill="none" xmlns="http://www.w3.org/2000/svg">
<circle cx="11.5" cy="11.5" r="9.5" fill="#ABFFE8"/>
<circle cx="11.5" cy="11.5" r="6.5" fill="white"/>
<path d="M10.8951 7.84905V6.5H12.1049V7.85603C13.1641 8.0796 13.8636 8.8814 13.8842 9.98354H12.4818C12.4485 9.48568 12.0477 9.13811 11.5142 9.13811C10.9806 9.13811 10.6293 9.43684 10.6293 9.90541C10.6293 10.2911 10.8939 10.5144 11.5224 10.6616L12.2916 10.8373C13.47 11.1059 14 11.7368 14 12.8546C14.0006 14.1182 13.2942 14.9465 12.1049 15.1565V16.5H10.8951V15.1621C9.73365 14.9671 9.02178 14.1851 9 13.0151H10.4485C10.486 13.5279 10.9188 13.8563 11.5473 13.8563C12.1141 13.8563 12.5031 13.5338 12.5031 13.0695C12.5031 12.6788 12.2426 12.4685 11.5603 12.3078L10.7746 12.1222C9.6827 11.8779 9.12051 11.1744 9.12051 10.0658C9.12051 8.89228 9.80321 8.06834 10.8951 7.84905Z" fill="#25836B"/>
<path fill-rule="evenodd" clip-rule="evenodd" d="M11.5 2.34043C6.44131 2.34043 2.34043 6.44131 2.34043 11.5H1C1 5.70101 5.70101 1 11.5 1C14.5028 1 17.212 2.26132 19.1249 4.28117L18.1516 5.20287C16.4814 3.43919 14.1195 2.34043 11.5 2.34043ZM11.5 20.6596C16.5587 20.6596 20.6596 16.5587 20.6596 11.5H22C22 17.299 17.299 22 11.5 22C8.48083 22 5.75842 20.7249 3.84384 18.6857L4.82105 17.7682C6.49285 19.5488 8.86617 20.6596 11.5 20.6596Z" fill="#25836B"/>
<path d="M19.8 6L20 3.5L17 5.55557L19.8 6Z" fill="#25836B"/>
<path d="M3.5 17.5L3.66664 20L6 17.6666L3.5 17.5Z" fill="#25836B"/>
</svg>
