<svg width="64" height="64" viewBox="0 0 64 64" fill="none" xmlns="http://www.w3.org/2000/svg">
<path d="M31 8C34.2 8 35 10.6667 35 12C34.1667 12.1667 32.4 12.9 32 14.5C31.6 16.1 31.8333 20.1667 32 22C31.1667 20.8333 28.8467 18.5693 28.5 18.5C26 18 24 20.5 25 22C25.1538 22.2308 31.5 29 31.5 29V40.5C31.5 40.5 24.8333 43.5 19.5 39.5C17.62 38.09 14.5 34.5 14.5 30C14.5 24.8 18.8333 21.1667 21 20C18.5 18 18.5 14.9 20.5 12.5C22.5 10.1 25.6667 10.8333 27 11.5C27 10.3333 27.8 8 31 8Z" fill="#D7FFF4"/>
<path fill-rule="evenodd" clip-rule="evenodd" d="M34 15C34.5523 15 35 15.4477 35 16L35 55C35 55.5523 34.5523 56 34 56C33.4477 56 33 55.5523 33 55L33 16C33 15.4477 33.4477 15 34 15Z" fill="#757372"/>
<path fill-rule="evenodd" clip-rule="evenodd" d="M34.1056 22.5528C33.6116 22.3058 33.4114 21.7051 33.6584 21.2111L37.764 13C38.011 12.506 38.6116 12.3058 39.1056 12.5528C39.5996 12.7998 39.7998 13.4005 39.5528 13.8944L35.4472 22.1056C35.2003 22.5996 34.5996 22.7998 34.1056 22.5528Z" fill="#757372"/>
<path fill-rule="evenodd" clip-rule="evenodd" d="M33.6061 33.0809C33.3885 32.5732 33.6237 31.9853 34.1313 31.7678L39.293 29.5556C39.8006 29.3381 40.3885 29.5732 40.6061 30.0809C40.8236 30.5885 40.5885 31.1764 40.0809 31.3939L34.9191 33.6061C34.4115 33.8236 33.8236 33.5885 33.6061 33.0809Z" fill="#757372"/>
<path fill-rule="evenodd" clip-rule="evenodd" d="M34.2474 28.6585C33.8318 29.0222 33.2001 28.9801 32.8364 28.5644L27.1534 22.0696C26.7897 21.654 26.8318 21.0222 27.2474 20.6585C27.6631 20.2948 28.2948 20.3369 28.6585 20.7526L34.3415 27.2474C34.7052 27.6631 34.6631 28.2948 34.2474 28.6585Z" fill="#757372"/>
<path fill-rule="evenodd" clip-rule="evenodd" d="M34 12C34 10.3431 32.6569 9 31 9C29.3431 9 28 10.3431 28 12C28 12.5523 27.5523 13 27 13C26.4477 13 26 12.5523 26 12C26 9.23858 28.2386 7 31 7C33.7614 7 36 9.23858 36 12C36 12.5523 35.5523 13 35 13C34.4477 13 34 12.5523 34 12Z" fill="#25836B"/>
<path fill-rule="evenodd" clip-rule="evenodd" d="M26.258 12.687C24.4484 11.4199 21.9542 11.8597 20.6871 13.6693C19.42 15.479 19.8598 17.9731 21.6694 19.2402C22.1218 19.557 22.2317 20.1806 21.915 20.633C21.5982 21.0854 20.9746 21.1953 20.5222 20.8786C17.8078 18.9779 17.1481 15.2366 19.0488 12.5222C20.9494 9.80775 24.6907 9.14806 27.4051 11.0487C27.8576 11.3655 27.9675 11.9891 27.6507 12.4415C27.3339 12.8939 26.7104 13.0038 26.258 12.687Z" fill="#25836B"/>
<path fill-rule="evenodd" clip-rule="evenodd" d="M21.5007 20.9063C16.4487 23.2621 14.2709 29.3476 16.6805 34.5149C19.09 39.6822 25.1516 41.9256 30.2036 39.5698C30.7042 39.3364 31.2992 39.5529 31.5326 40.0535C31.766 40.554 31.5494 41.149 31.0489 41.3824C24.969 44.2175 17.7316 41.5015 14.8678 35.3601C12.0041 29.2188 14.5756 21.9288 20.6555 19.0937C21.156 18.8603 21.751 19.0768 21.9844 19.5774C22.2178 20.0779 22.0012 20.6729 21.5007 20.9063Z" fill="#25836B"/>
<path fill-rule="evenodd" clip-rule="evenodd" d="M42 31C42 30.4477 42.4477 30 43 30H46C46.5523 30 47 30.4477 47 31C47 31.5523 46.5523 32 46 32H43C42.4477 32 42 31.5523 42 31Z" fill="#992B00"/>
<path fill-rule="evenodd" clip-rule="evenodd" d="M41.1297 29.0432C40.649 28.7713 40.4797 28.1611 40.7516 27.6804L41.7669 25.8857C42.0388 25.405 42.649 25.2357 43.1297 25.5076C43.6104 25.7796 43.7796 26.3897 43.5077 26.8704L42.4924 28.6652C42.2205 29.1459 41.6104 29.3151 41.1297 29.0432Z" fill="#992B00"/>
<path fill-rule="evenodd" clip-rule="evenodd" d="M8 60C8 59.4477 8.44772 59 9 59H55C55.5523 59 56 59.4477 56 60C56 60.5523 55.5523 61 55 61H9C8.44772 61 8 60.5523 8 60Z" fill="#757372"/>
</svg>
