<svg xmlns="http://www.w3.org/2000/svg" fill="none" viewBox="0 0 24 24"><path fill="#fff" d="M12 2.398c-5.302 0-9.6 4.299-9.6 9.6 0 5.302 4.298 9.6 9.6 9.6s9.6-4.298 9.6-9.6c0-5.301-4.299-9.6-9.6-9.6zm5.171 7.628c.005.107.007.212.007.318 0 3.254-2.476 7.005-7.005 7.005A6.958 6.958 0 0 1 6.4 16.242c.193.024.389.034.588.034a4.926 4.926 0 0 0 3.057-1.054 2.465 2.465 0 0 1-2.3-1.71 2.458 2.458 0 0 0 1.112-.042 2.463 2.463 0 0 1-1.975-2.414v-.031c.332.185.71.295 1.115.308a2.461 2.461 0 0 1-.763-3.287 6.99 6.99 0 0 0 5.075 2.573 2.463 2.463 0 0 1 4.195-2.246 4.948 4.948 0 0 0 1.564-.597 2.472 2.472 0 0 1-1.083 1.362 4.92 4.92 0 0 0 1.414-.387 4.962 4.962 0 0 1-1.228 1.275z"/></svg>