<svg width="19" height="19" viewBox="0 0 19 19" fill="none" xmlns="http://www.w3.org/2000/svg">
<path d="M13.78 11.911C13.4552 11.7206 13.056 11.7246 12.7328 11.9166L11.096 12.8918C10.7296 13.1102 10.272 13.0846 9.93601 12.8222C9.35521 12.3686 8.42001 11.6054 7.60641 10.7918C6.79281 9.97818 6.02961 9.04299 5.57601 8.46219C5.31361 8.12619 5.28801 7.66859 5.50641 7.30219L6.48161 5.66539C6.67441 5.34219 6.67601 4.93979 6.48561 4.61499L4.08401 0.512586C3.85121 0.115786 3.38881 -0.0794136 2.94161 0.0301864C2.50721 0.135786 1.94321 0.393386 1.35201 0.985386C-0.499194 2.83659 -1.48239 5.95899 5.47921 12.9206C12.4408 19.8822 15.5624 18.8998 17.4144 17.0478C18.0072 16.455 18.264 15.8902 18.3704 15.455C18.4784 15.0086 18.2864 14.5494 17.8904 14.3174C16.9016 13.739 14.7688 12.4902 13.78 11.911Z" fill="white"/>
</svg>
