<svg width="89" height="88" viewBox="0 0 89 88" fill="none" xmlns="http://www.w3.org/2000/svg">
<mask id="mask0" mask-type="alpha" maskUnits="userSpaceOnUse" x="25" y="19" width="39" height="46">
<path d="M25.25 19.25H63.75V64.625H25.25V19.25Z" fill="#C4C4C4"/>
</mask>
<g mask="url(#mask0)">
<path fill-rule="evenodd" clip-rule="evenodd" d="M44.5 24.75C34.6279 24.75 26.625 32.7529 26.625 42.625C26.625 52.4971 34.6279 60.5 44.5 60.5C54.3721 60.5 62.375 52.4971 62.375 42.625C62.375 32.7529 54.3721 24.75 44.5 24.75ZM23.875 42.625C23.875 31.2341 33.1091 22 44.5 22C55.8909 22 65.125 31.2341 65.125 42.625C65.125 54.0159 55.8909 63.25 44.5 63.25C33.1091 63.25 23.875 54.0159 23.875 42.625Z" fill="#68FF58"/>
</g>
<path d="M58.6625 8.25H30.3375C27.5875 8.25 25.25 10.5875 25.25 13.3375V19.25V64.625V74.6625C25.25 77.4125 27.5875 79.75 30.3375 79.75H58.6625C61.4125 79.75 63.75 77.4125 63.75 74.6625V64.625V19.25V13.3375C63.75 10.5875 61.4125 8.25 58.6625 8.25ZM30.3375 11H58.6625C59.9 11 61 12.1 61 13.3375V16.5H28V13.3375C28 12.1 29.1 11 30.3375 11ZM61 64.625H28V19.25H61V64.625ZM58.6625 77H30.3375C29.1 77 28 75.9 28 74.6625V67.375H61V74.6625C61 75.9 59.9 77 58.6625 77Z" fill="#DAD8D6"/>
<path d="M51.5125 72.875H37.4875C36.8 72.875 36.25 72.325 36.25 71.6375V71.5C36.25 70.675 36.8 70.125 37.4875 70.125H51.375C52.0625 70.125 52.6125 70.675 52.6125 71.3625V71.5C52.75 72.325 52.2 72.875 51.5125 72.875Z" fill="#DAD8D6"/>
<path d="M44.5 15.125C45.2594 15.125 45.875 14.5094 45.875 13.75C45.875 12.9906 45.2594 12.375 44.5 12.375C43.7406 12.375 43.125 12.9906 43.125 13.75C43.125 14.5094 43.7406 15.125 44.5 15.125Z" fill="#DAD8D6"/>
<path d="M47.3845 49.3552C46.9811 49.5912 46.618 49.5387 46.2952 49.1979C45.9456 48.8571 45.9322 48.5163 46.2549 48.1754C47.0617 47.3889 47.6265 46.7597 47.9493 46.2878C48.272 45.8159 48.4737 45.3047 48.5544 44.7541C48.6351 44.256 48.4872 44.007 48.1106 44.007C47.3845 44.007 46.7659 43.7055 46.2549 43.1025C45.7439 42.4995 45.4884 41.7261 45.4884 40.7823C45.4884 39.6812 45.8111 38.7898 46.4566 38.1081C47.1021 37.4527 47.9627 37.125 49.0385 37.125C50.0605 37.125 50.9346 37.492 51.6608 38.2261C52.3869 38.9864 52.75 40.0089 52.75 41.2935C52.75 44.4657 50.9615 47.153 47.3845 49.3552ZM38.1057 49.3552C37.7023 49.5912 37.3392 49.5387 37.0165 49.1979C36.6669 48.8571 36.6669 48.5163 37.0165 48.1754C37.8233 47.3889 38.3881 46.7597 38.7109 46.2878C39.0336 45.8159 39.2219 45.3047 39.2757 44.7541C39.3564 44.256 39.2084 44.007 38.8319 44.007C38.1057 44.007 37.5006 43.7055 37.0165 43.1025C36.5055 42.4995 36.25 41.7261 36.25 40.7823C36.25 39.6812 36.5727 38.7898 37.2182 38.1081C37.8637 37.4527 38.7109 37.125 39.7598 37.125C40.8087 37.125 41.6962 37.492 42.4224 38.2261C43.1216 38.9864 43.4713 40.0089 43.4713 41.2935C43.4713 44.4657 41.6828 47.153 38.1057 49.3552Z" fill="#68FF58"/>
</svg>
