<svg width="24" height="24" viewBox="0 0 24 24" fill="none" xmlns="http://www.w3.org/2000/svg">
<circle cx="12.5" cy="12" r="7.5" fill="#ABFFE8"/>
<path d="M6.51433 0C5.56719 0 4.80005 0.767143 4.80005 1.71429V22.2857C4.80005 23.2329 5.56719 24 6.51433 24H18.5143C19.4615 24 20.2286 23.2329 20.2286 22.2857V1.71429C20.2286 0.767143 19.4615 0 18.5143 0H6.51433ZM11.2286 0.857143H12.9429C13.1795 0.857143 13.3715 1.04914 13.3715 1.28571C13.3715 1.52229 13.1795 1.71429 12.9429 1.71429H11.2286C10.992 1.71429 10.8 1.52229 10.8 1.28571C10.8 1.04914 10.992 0.857143 11.2286 0.857143ZM14.6572 0.857143C14.8938 0.857143 15.0858 1.04914 15.0858 1.28571C15.0858 1.52229 14.8938 1.71429 14.6572 1.71429C14.4206 1.71429 14.2286 1.52229 14.2286 1.28571C14.2286 1.04914 14.4206 0.857143 14.6572 0.857143ZM6.51433 1.71429H9.08576L9.44067 2.0692C9.7621 2.39062 10.1984 2.57143 10.6527 2.57143H14.3759C14.8302 2.57143 15.2666 2.39062 15.588 2.0692L15.9429 1.71429H18.5143V22.2857H6.51433V1.71429ZM11.6572 6V7.61886C10.11 7.882 9.14268 8.87073 9.14268 10.279C9.14268 11.6093 9.93929 12.4535 11.4864 12.7467L12.5997 12.9693C13.5666 13.1622 13.9357 13.4145 13.9357 13.8834C13.9357 14.4405 13.3844 14.8276 12.5813 14.8276C11.6907 14.8276 11.0775 14.4335 11.0244 13.8181H8.97193C9.00278 15.2221 10.0115 16.1605 11.6572 16.3945V18H13.3715V16.3878C15.0566 16.1358 16.0576 15.1418 16.0567 13.6256C16.0567 12.2841 15.3057 11.5271 13.636 11.2048L12.5461 10.9939C11.6556 10.8173 11.2805 10.5494 11.2805 10.0865C11.2805 9.52421 11.7784 9.16574 12.5344 9.16574C13.2904 9.16574 13.8584 9.58282 13.9055 10.1802H15.8927C15.8635 8.85767 14.8723 7.89552 13.3715 7.62723V6H11.6572Z" fill="#25836B"/>
</svg>
