<svg width="24" height="24" viewBox="0 0 24 24" fill="none" xmlns="http://www.w3.org/2000/svg">
<rect y="2" width="24" height="20" rx="2" fill="white"/>
<rect y="6" width="24" height="12" fill="#1F1D1C"/>
<rect x="0.65" y="2.65" width="22.7" height="18.7" rx="1.35" stroke="#A6A4A3" stroke-width="1.3"/>
<path d="M2.8 8H2L4.10379 15.75H4.89062L2.8 8Z" fill="#FFDE2E"/>
<path d="M4.26074 8H3.5L5.60379 15.75H6.37012L4.26074 8Z" fill="#FFDE2E"/>
<path d="M4.97803 8H6.66392L7.83614 12.5639L9.27705 8H10.8786L12.3117 12.5639L13.5339 8H15.1777L13.1546 15.75H11.7216L10.0357 10.7556L8.5184 15.75H7.08539L4.97803 8Z" fill="#FFDE2E"/>
<path d="M16.1049 8H16.832C16.8495 9.14815 16.832 11.7337 16.832 12.8908C16.832 14.3372 18.0437 14.2 18.8866 14.2C19.561 14.2 19.8139 13.2698 19.856 12.8908V8H21.4998V13.1667C21.4998 14.8889 20.0106 15.6065 19.3081 15.75H17.6222C15.9363 15.75 15.2901 14.0278 15.1777 13.1667V11.4444L16.1049 8Z" fill="#FFDE2E"/>
</svg>
