<svg width="64" height="64" viewBox="0 0 64 64" fill="none" xmlns="http://www.w3.org/2000/svg">
<g clip-path="url(#clip0)">
<path d="M53.9335 25.7578C55.6616 27.3766 57.0616 29.3125 58.0241 31.5H61.2507C62.2132 31.5 63.0007 32.2875 63.0007 33.25V47.25C63.0007 48.2125 62.2132 49 61.2507 49H55.9241C54.9398 50.3016 53.7913 51.45 52.5007 52.4234V61.25C52.5007 62.2125 51.7132 63 50.7507 63H43.7507C42.7882 63 42.0007 62.2125 42.0007 61.25V56H28.0007V61.25C28.0007 62.2125 27.2132 63 26.2507 63H19.2507C18.2882 63 17.5007 62.2125 17.5007 61.25V52.4234C13.2788 49.2297 10.5007 44.2094 10.5007 38.5H6.12571C2.48352 38.5 -0.425854 35.3063 0.0553956 31.5656C0.449146 28.4813 3.22727 26.25 6.34446 26.25C6.7054 26.25 7.00071 26.5453 7.00071 26.9062V29.0938C7.00071 29.4547 6.7054 29.75 6.34446 29.75H6.23508C4.96633 29.75 3.79602 30.6031 3.5554 31.85C3.22727 33.5234 4.50696 35 6.12571 35H10.8507C12.4804 27.0156 19.5351 21 28.0007 21H42.0007C42.7926 21 43.5478 21.1103 44.3084 21.2213L44.5163 21.2516C46.4413 18.9766 49.2851 17.5 52.5007 17.5H56.0007L53.9335 25.7578Z" fill="#FFDEDA"/>
<path fill-rule="evenodd" clip-rule="evenodd" d="M56.7191 33.5L56.1935 32.3055C55.3446 30.3762 54.1064 28.6601 52.5662 27.2175L51.7077 26.4133L53.4383 19.5H52.5007C49.9183 19.5 47.6181 20.6821 46.0431 22.5434L45.327 23.3897L44.2298 23.2309C44.1684 23.222 44.108 23.2133 44.0487 23.2046C43.2563 23.0894 42.641 23 42.0007 23H28.0007C20.5068 23 14.2542 28.3257 12.8103 35.4L12.5007 36.9168V38.5C12.5007 43.539 14.9492 47.9855 18.7073 50.8284L19.5007 51.4286V61H26.0007V54H44.0007V61H50.5007V51.4268L51.2964 50.8267C52.4379 49.9657 53.4551 48.949 54.329 47.7936L54.9292 47H61.0007V33.5H56.7191ZM56.0007 17.5L53.9335 25.7578C55.6616 27.3766 57.0616 29.3125 58.0241 31.5H61.2507C62.2132 31.5 63.0007 32.2875 63.0007 33.25V47.25C63.0007 48.2125 62.2132 49 61.2507 49H55.9241C54.9398 50.3016 53.7913 51.45 52.5007 52.4234V61.25C52.5007 62.2125 51.7132 63 50.7507 63H43.7507C42.7882 63 42.0007 62.2125 42.0007 61.25V56H28.0007V61.25C28.0007 62.2125 27.2132 63 26.2507 63H19.2507C18.2882 63 17.5007 62.2125 17.5007 61.25V52.4234C13.2788 49.2297 10.5007 44.2094 10.5007 38.5H6.12571C2.48352 38.5 -0.425854 35.3063 0.0553956 31.5656C0.449146 28.4813 3.22727 26.25 6.34446 26.25C6.7054 26.25 7.00071 26.5453 7.00071 26.9062V29.0938C7.00071 29.4547 6.7054 29.75 6.34446 29.75H6.23508C4.96633 29.75 3.79602 30.6031 3.5554 31.85C3.22727 33.5234 4.50696 35 6.12571 35H10.8507C12.4804 27.0156 19.5351 21 28.0007 21H42.0007C42.7926 21 43.5478 21.1103 44.3084 21.2213C44.3776 21.2314 44.4469 21.2415 44.5163 21.2516C46.4413 18.9766 49.2851 17.5 52.5007 17.5H56.0007ZM47.2507 40.5C45.1836 40.5 43.5007 38.8171 43.5007 36.75C43.5007 34.6829 45.1836 33 47.2507 33C49.3178 33 51.0007 34.6829 51.0007 36.75C51.0007 38.8171 49.3178 40.5 47.2507 40.5ZM45.5007 36.75C45.5007 37.7125 46.2882 38.5 47.2507 38.5C48.2132 38.5 49.0007 37.7125 49.0007 36.75C49.0007 35.7875 48.2132 35 47.2507 35C46.2882 35 45.5007 35.7875 45.5007 36.75Z" fill="#757372"/>
<path d="M45.5007 36.75C45.5007 37.7125 46.2882 38.5 47.2507 38.5C48.2132 38.5 49.0007 37.7125 49.0007 36.75C49.0007 35.7875 48.2132 35 47.2507 35C46.2882 35 45.5007 35.7875 45.5007 36.75Z" fill="white"/>
<path fill-rule="evenodd" clip-rule="evenodd" d="M26.3 26.0189C26.3 25.4666 26.7478 25.0189 27.3 25.0189H41.475C42.0273 25.0189 42.475 25.4666 42.475 26.0189C42.475 26.5712 42.0273 27.0189 41.475 27.0189H27.3C26.7478 27.0189 26.3 26.5712 26.3 26.0189Z" fill="#757372"/>
</g>
<path fill-rule="evenodd" clip-rule="evenodd" d="M33.5 17C37.0909 17 40 14.0909 40 10.5C40 6.90914 37.0909 4 33.5 4C29.9091 4 27 6.90914 27 10.5C27 14.0909 29.9091 17 33.5 17ZM33.5 19C38.1954 19 42 15.1954 42 10.5C42 5.80457 38.1954 2 33.5 2C28.8046 2 25 5.80457 25 10.5C25 15.1954 28.8046 19 33.5 19Z" fill="#A57F00"/>
<path d="M33.5 17C37.0909 17 40 14.0909 40 10.5C40 6.90914 37.0909 4 33.5 4C29.9091 4 27 6.90914 27 10.5C27 14.0909 29.9091 17 33.5 17Z" fill="#F7E6AE"/>
<path fill-rule="evenodd" clip-rule="evenodd" d="M34.9534 8.54845C34.736 8.44038 34.4944 8.38635 34.2367 8.38635H32.6706C32.3082 8.38635 32.0143 8.64698 32.0143 8.968C32.0143 9.22863 32.2156 9.46066 32.5015 9.5274L35.0097 10.1218C36.0445 10.3665 36.7692 11.1516 36.7692 12.032C36.7692 13.1127 35.7063 13.9867 34.3897 14.0153V14.5493C34.3897 14.8417 34.0918 15.0769 33.7214 15.0769H33.2745C32.9041 15.0769 32.6061 14.8417 32.6061 14.5493V14.009C31.9821 13.9835 31.3782 13.8151 30.8749 13.5195C30.6494 13.3892 30.6253 13.1286 30.8266 12.976L31.4828 12.4833C31.6358 12.3657 31.8653 12.3626 32.0465 12.4515C32.2639 12.5596 32.5055 12.6136 32.7632 12.6136H34.3293C34.6917 12.6136 34.9856 12.353 34.9856 12.032C34.9856 11.7714 34.7843 11.5393 34.4984 11.4726L31.9901 10.8782C30.9554 10.6335 30.2307 9.84842 30.2307 8.968C30.2347 7.88734 31.2936 7.01327 32.6102 6.98467V6.45069C32.6102 6.15828 32.9081 5.92308 33.2785 5.92308H33.7254C34.0958 5.92308 34.3937 6.15828 34.3937 6.45069V6.99103C35.0178 7.01645 35.6217 7.18491 36.125 7.4805C36.3505 7.61082 36.3746 7.87145 36.1733 8.02401L35.517 8.51667C35.364 8.63427 35.1346 8.63745 34.9534 8.54845Z" fill="#A57F00"/>
<defs>
<clipPath id="clip0">
<rect width="63" height="56" fill="white" transform="translate(0 7)"/>
</clipPath>
</defs>
</svg>
