<svg xmlns="http://www.w3.org/2000/svg" fill="none" viewBox="0 0 24 24"><path fill="#25836B" d="M12 2C6.488 2 2 6.488 2 12s4.488 10 10 10 10-4.488 10-10S17.512 2 12 2zm0 2c4.43 0 8 3.57 8 8s-3.57 8-8 8-8-3.57-8-8 3.57-8 8-8zm-.094 3.188c-1.199 0-3 .699-3 2.5h1.906c0-.2.188-1 1.188-1 .3 0 1.313.117 1.313 1.218 0 1.2-.907 1.281-1.407 1.281h-1.094V12.5h1c.2 0 1.5.008 1.5 1.406 0 .2-.105 1.281-1.406 1.281-1.199 0-1.508-.886-1.406-1.187H8.687c-.101 1 .727 2.688 3.126 2.688 1.398 0 3.28-.586 3.28-2.688 0-1.5-1-1.988-1.5-2.188.2-.101 1.407-.699 1.407-2 0-.699-.293-2.624-3.094-2.624z"/></svg>