<svg xmlns="http://www.w3.org/2000/svg" fill="none" viewBox="0 0 24 24"><path fill="#AA041F" d="M17.92 21.6l-.06-.012-.12-.012-.108-.012-.108-.012-.108-.024-.12-.012-.108-.012-.108-.024-.108-.012-.12-.012-.108-.024-.108-.012-.108-.012-.12-.024-.108-.012-.106-.012-.108-.024-.12-.012-.108-.011-.108-.024-.108-.012-.108-.012-.12-.024-.108-.012-.108-.012-.108-.024-.12-.012-.108-.024-.108-.012-.108-.012-.12-.024-.108-.012-.108-.024-.108-.012-.12-.012-.108-.024-.108-.012-.108-.024-.108-.012-.12-.012-.108-.024-.108-.012-.108-.024-.12-.012-.108-.024-.144-.024-.156-.036-.072-.048-.12-.072-.132-.06-.12-.072-.12-.072-.132-.072-.12-.072-.132-.072-.12-.072-.995-.563-.982-.564-.983-.563-.982-.575-.97-.563-.972-.587-.966-.576-.96-.587-.083-.048-.012-.012.036-.024.06-.12.012-.06-.012-.072.06-.072.024-.011.06-.048.024-.012.036-.048.036-.048.036-.072.012-.036.108-.048.264.108.107-.012.036-.036.012-.048.012-.06.012-.048.048-.036.108-.048.036-.036.012-.06v-.204l.012-.036.012-.024v-.072l-.048-.12-.072-.06-.228-.06-.096-.06-.048-.12.024-.108.06-.108.036-.12.012-.18-.012-.048-.06-.108.012-.048.036-.072.036-.024.012-.024-.012-.036-.012-.036-.012-.036-.012-.036.036-.012.12.012h.06l.06-.036.12-.156.048-.06.024-.036.06-.036.048-.036.012-.024.012-.036v-.072l.012-.036.024-.012.012-.012v-.036l.012-.06.036-.072.036-.036.036-.036.024-.036-.024-.06v-.032l.012-.012.012-.012.012-.036v-.06l-.024-.036v-.072l.024-.084v-.036l.048-.036.024-.024.012-.024-.036-.072-.024-.036v-.036l.036-.06.048-.036.108-.048.048-.036.048-.036.036-.048.048-.132.036-.048.048-.036.096-.012.287-.132h.06l.096-.084.096-.072.096-.048.024-.036v-.108l-.06-.06-.024-.048-.024-.024-.036-.024-.18-.192-.024-.06-.012-.012-.048-.036-.012-.012-.012-.024V9.9l-.012-.012h-.013l-.036-.012h-.012l-.012-.024V9.84l-.012-.048.012-.024.024-.048.012-.036-.012-.036h-.012v-.072l-.012-.036-.036-.024-.012-.06v-.024l.012-.072V9.324l-.012-.012-.096-.36-.06-.023-.048-.048-.024-.06.012-.084v-.048L5.73 8.64l-.012-.048-.036-.024-.036-.024-.012-.036.048-.36v-.156l.072-.06.012-.035v-.033l-.036-.072v-.024l.012-.036.024-.012.036.012h.036l.036-.012.012-.012.048-.108.012-.072.012-.12V7.182l.024-.085-.012-.072-.048-.168-.012-.155-.024-.132.084-.132.012-.132.036-.06-.012-.059-.036-.228v-.155l.036-.168.024-.036.06-.072.012-.024.012-.036-.012-.036-.072-.144-.024-.072-.012-.084.012-.084.048-.036.024-.036.012-.036v-.072l.012-.024V4.82l.012-.012.024-.024.012-.012.012-.012.084-.012.096-.036.144-.012.036-.012h.024l.024.012.12.06.012.012h.012l.012.024.024.024.036.012.012.012h.048l.072-.024h.012l.024-.012h.012l.012.012h.024l.012.012.024.024.024.024.012.036.012.036.036.132.012.036.024.048.036.048.048.036.072.012.12.012.096-.036.06-.12.048-.108.048-.096.06-.048.06-.06.012-.024.012-.036.024-.12v-.024l.012-.072.024-.108.024-.144.036-.168.036-.192.036-.204.048-.204.036-.216.036-.192.036-.192.036-.168.024-.144.024-.108.012-.072.01-.02.372.072.372.072.371.072.371.06.384.072.372.072.37.072.372.06.383.072.372.06.371.072.372.06.383.06.372.072.371.06.383.06.371.06.372.072.372.06.383.06.371.06.383.048.371.06.372.06.384.06.37.048.373.06.383.06.371.048.383.06.372.048.383.06-.084.527-.072.54-.072.538-.072.54-.072.539-.084.54-.072.538-.072.527-.072.54-.072.539-.072.54-.084.538-.074.54-.072.527-.072.539-.072.54-.084.538-.072.54-.072.539-.072.539-.072.527-.072.54-.084.538-.072.54-.072.539-.072.54-.072.538-.084.527-.072.54-.072.539-.072.54-.072.538.009.014z"/></svg>