<svg width="64" height="64" viewBox="0 0 64 64" fill="none" xmlns="http://www.w3.org/2000/svg">
<path fill-rule="evenodd" clip-rule="evenodd" d="M39 35C46.1797 35 52 29.1797 52 22C52 14.8203 46.1797 8.99997 39 8.99997C31.8203 8.99997 26 14.8203 26 22C26 29.1797 31.8203 35 39 35Z" fill="#DCF5FF"/>
<path fill-rule="evenodd" clip-rule="evenodd" d="M39 33C45.0751 33 50 28.0751 50 22C50 15.9248 45.0751 11 39 11C32.9249 11 28 15.9248 28 22C28 28.0751 32.9249 33 39 33ZM39 35C46.1797 35 52 29.1797 52 22C52 14.8203 46.1797 8.99997 39 8.99997C31.8203 8.99997 26 14.8203 26 22C26 29.1797 31.8203 35 39 35Z" fill="#1281D3"/>
<path fill-rule="evenodd" clip-rule="evenodd" d="M57 22C57 31.9411 48.9411 40 39 40C29.0589 40 21 31.9411 21 22C21 12.0588 29.0589 3.99997 39 3.99997C48.9411 3.99997 57 12.0588 57 22ZM39 38C47.8366 38 55 30.8365 55 22C55 13.1634 47.8366 5.99997 39 5.99997C30.1634 5.99997 23 13.1634 23 22C23 30.8365 30.1634 38 39 38Z" fill="#757372"/>
<path fill-rule="evenodd" clip-rule="evenodd" d="M27.4328 32.9642L24.7545 36.156L23.6055 35.1919L26.2838 32L27.4328 32.9642Z" fill="#757372"/>
<path fill-rule="evenodd" clip-rule="evenodd" d="M30.8798 35.8567L28.2016 39.0486L27.0525 38.0844L29.7308 34.8926L30.8798 35.8567Z" fill="#757372"/>
<path d="M27.2697 43.2707L15.0568 57.8255C13.2818 59.9409 10.128 60.2168 8.01262 58.4418C5.89725 56.6668 5.62133 53.513 7.39634 51.3976L19.6093 36.8428C21.3843 34.7274 24.5381 34.4515 26.6535 36.2265C28.7688 38.0015 29.0448 41.1553 27.2697 43.2707Z" fill="#7F41DB"/>
</svg>
