<svg xmlns="http://www.w3.org/2000/svg" fill="none" viewBox="0 0 24 24"><path fill="#25836B" fill-rule="evenodd" d="M19.402 5.276A9.963 9.963 0 0 1 22 12c0 5.523-4.477 10-10 10a9.969 9.969 0 0 1-7.071-2.929A9.969 9.969 0 0 1 2 12C2 6.477 6.477 2 12 2a9.969 9.969 0 0 1 7.402 3.276zM12 24c6.628 0 12-5.372 12-12 0-6.627-5.372-12-12-12C5.373 0 0 5.373 0 12c0 6.628 5.373 12 12 12z" clip-rule="evenodd"/><path fill="#25836B" d="M13.414 12l3.293 3.293a.999.999 0 1 1-1.414 1.414L12 13.414l-3.293 3.293a.999.999 0 1 1-1.414-1.414L10.586 12 7.293 8.707a.999.999 0 1 1 1.414-1.414L12 10.586l3.293-3.293a.999.999 0 1 1 1.414 1.414L13.414 12z"/></svg>