<svg xmlns="http://www.w3.org/2000/svg" viewBox="0 0 56 56"><path fill="#fff" d="M28 55.5c-2.7 0-5.4-.4-7.9-1.3-3.8-1.3-7-3.3-9.8-6.1-1-1-2.1-2.2-3.1-3.7-.6-.7-1-1.4-1.4-2.1-.8-1.4-1.4-2.9-1.9-4.5-.7-2.8-1.1-5.2-1.1-7.5 0-5.7 1.9-11.2 5.4-15.5C11.4 11 15.4 8.2 20 6.7V6c0-.9.2-1.8.7-2.7l-.1-.1.5-.6c.1-.2.3-.4.5-.5.1-.1.3-.2.4-.3l.7-.7.1.1c.8-.5 1.7-.7 2.7-.7h4.9c1.5 0 2.8.5 4 1.6 1.1 1 1.7 2.4 1.7 3.9v.8c1.2.4 2.4.9 3.6 1.5 0 0 .8-1.5 1.6-2.3.7-.9 2.7-1.2 3.7-.4.9.7 5.6 5.2 6.3 6.4.9 1.5.3 2.8-.3 3.5-.6.7-1.6 1.6-1.6 1.6.6 1 1.2 2.1 1.7 3.2 1.6 3.6 2.3 7.4 2.1 11.3-.1 3.8-1.2 7.6-3.1 11.1-1.9 3.4-4.5 6.2-7.7 8.5-3.1 2.2-6.8 3.6-10.8 4.2-1.2 0-2.4.1-3.6.1z"/><path fill="#25836b" d="M47.5 15c-.6.6-1.7.6-2.3 0l-2.7-2.7c-.6-.6-.6-1.7 0-2.3.6-.6 1.7-.6 2.3 0l2.7 2.7c.6.8.6 1.6 0 2.3z"/><circle cx="28.1" cy="30.1" r="21" fill="#fff"/><path fill="#abffe8" d="M41.7 46.2c-3.5 2.9-8.6 5-13.6 5-11.7 0-21-9.4-21-21s9.4-21 21-21h.2V22h-.2c-4.6 0-8.3 3.7-8.3 8.3s3.7 8.3 8.3 8.3c1.7 0 3.3-.6 4.8-1.5l8.8 9.1z"/><path fill="#25836b" d="M32.5 9.5V6.6c0-1-1-2.1-2.1-2.1h-5.2c-1 0-2.1 1-2.1 2.1v3.1c-9.2 2.3-16 10.4-16 20.4 0 11.7 9.4 21 21 21s21-9.4 21-21c0-10.2-7-18.5-16.6-20.6zm8.7 32.1L31.4 32c.2-.6.4-1 .4-1.9 0-2.1-1.7-3.7-3.7-3.7s-3.7 1.7-3.7 3.7 1.7 3.7 3.7 3.7c.2 0 .6 0 .8-.2l10 10c-2.9 2.3-6.7 3.7-10.8 3.7-9.6 0-17.5-7.9-17.5-17.5s7.9-17.5 17.5-17.5 17.5 7.9 17.5 17.5c-.2 4.7-1.9 8.7-4.4 11.8z"/></svg>