<svg width="64" height="64" viewBox="0 0 64 64" fill="none" xmlns="http://www.w3.org/2000/svg">
<path d="M62 4.8H18C17.8895 4.8 17.8 4.88954 17.8 5V13H16V5C16 3.89543 16.8954 3 18 3H62C63.1046 3 64 3.89543 64 5V59C64 60.1046 63.1046 61 62 61H18C16.8954 61 16 60.1046 16 59V43H17.8V59C17.8 59.1105 17.8895 59.2 18 59.2H62C62.1105 59.2 62.2 59.1105 62.2 59V5C62.2 4.88954 62.1105 4.8 62 4.8Z" fill="#757372"/>
<path fill-rule="evenodd" clip-rule="evenodd" d="M5 13H3C1.346 13 0 14.346 0 16V40C0 41.654 1.346 43 3 43H45C46.654 43 48 41.654 48 40V38V36V16C48 14.346 46.654 13 45 13H7H5ZM46 40C46 40.551 45.552 41 45 41H3C2.448 41 2 40.551 2 40V16C2 15.449 2.448 15 3 15H45C45.552 15 46 15.449 46 16V40Z" fill="#25836B"/>
<path fill-rule="evenodd" clip-rule="evenodd" d="M46 40C46 40.551 45.552 41 45 41H3C2.448 41 2 40.551 2 40V16C2 15.449 2.448 15 3 15H45C45.552 15 46 15.449 46 16V40Z" fill="#D7FFF4"/>
<path d="M24 21C20.141 21 17 24.14 17 28C17 31.86 20.141 35 24 35C27.859 35 31 31.86 31 28C31 24.14 27.859 21 24 21ZM24 33C21.243 33 19 30.757 19 28C19 25.243 21.243 23 24 23C26.757 23 29 25.243 29 28C29 30.757 26.757 33 24 33Z" fill="#25836B"/>
<path d="M40 18V17H8V18C8 19.387 6.689 21 5 21H4V35H5C6.689 35 8 36.613 8 38V39H40V38C40 36.613 41.311 35 43 35H44V21H43C41.311 21 40 19.387 40 18ZM42 33.11C40.104 33.53 38.53 35.103 38.11 37H9.89C9.47 35.103 7.897 33.53 6 33.11V22.89C7.896 22.47 9.47 20.897 9.89 19H38.11C38.53 20.897 40.103 22.47 42 22.89V33.11Z" fill="#25836B"/>
<path d="M24 31C25.6569 31 27 29.6569 27 28C27 26.3431 25.6569 25 24 25C22.3431 25 21 26.3431 21 28C21 29.6569 22.3431 31 24 31Z" fill="#25836B"/>
<path fill-rule="evenodd" clip-rule="evenodd" d="M59 52H41V50.2H59V52Z" fill="#1281D3"/>
<path fill-rule="evenodd" clip-rule="evenodd" d="M59 44H52V42.2H59V44Z" fill="#757372"/>
<path fill-rule="evenodd" clip-rule="evenodd" d="M59 40H52V38.2H59V40Z" fill="#757372"/>
<path fill-rule="evenodd" clip-rule="evenodd" d="M59 36H52V34.2H59V36Z" fill="#757372"/>
<path fill-rule="evenodd" clip-rule="evenodd" d="M59 32H52V30.2H59V32Z" fill="#757372"/>
</svg>
