<svg xmlns="http://www.w3.org/2000/svg" fill="none" viewBox="0 0 24 24"><g clip-path="url(#clip0)"><path fill="#2D9CDB" fill-rule="evenodd" d="M24 4.41a9.7 9.7 0 0 1-2.83.79 5 5 0 0 0 2.16-2.78 9.74 9.74 0 0 1-3.13 1.22 4.87 4.87 0 0 0-3.59-1.59 5 5 0 0 0-4.79 6.14A13.89 13.89 0 0 1 1.67 3a5.09 5.09 0 0 0 1.52 6.7A4.83 4.83 0 0 1 1 9v.06A5 5 0 0 0 4.91 14a4.839 4.839 0 0 1-2.22.09 4.94 4.94 0 0 0 4.6 3.49 9.76 9.76 0 0 1-6.12 2.15c-.39.01-.781-.004-1.17-.04a13.74 13.74 0 0 0 7.55 2.26c9.06 0 14-7.65 14-14.29v-.65A10.12 10.12 0 0 0 24 4.41z" clip-rule="evenodd"/></g><defs><clipPath id="clip0"><path fill="#fff" d="M0 0h24v24H0z"/></clipPath></defs></svg>