<svg xmlns="http://www.w3.org/2000/svg" viewBox="0 0 56 56"><path fill="#fff" d="M51.8 17.7h-3l-5-9.8c-.7-1.2-1.7-2.3-3-3.1-1.2-.8-2.8-1.2-4.2-1.2H19.8c-1.4 0-2.9.4-4.2 1.2s-2.3 1.9-3 3.2l-4.9 9.6H4.9c-.8 0-2.2 1.1-2.6 1.7-.5.7-1.1 1.7-1.3 2.6-.1.8.1 3.1.6 3.8.5.8 1.7 1.5 2.4 1.5v19.6c0 .7.1 1.4.4 2.1.2.7.6 1.3 1.1 1.7 1.6 1.3 5.1 2.7 8.6 1.6s4.3-4.1 4.4-5.3l.1-1.7h18.6l.2 1.8c0 1.4.8 2.5 1.8 3.5s2.8 2.1 4.2 2.1c3 .1 4.6-.5 5.8-1.2 1.7-1 2.9-3.1 2.9-4.5L52 27.2c.8 0 2.2-1.1 2.4-1.8.6-.9.6-2.8.6-3.5 0-.8-.4-1.9-.9-2.6-.2-.7-1.6-1.6-2.3-1.6z"/><path fill="#026ab9" d="M28 6.7h-7.2c-1.4 0-2.7.2-3.7 1s-2.1 1.7-2.7 2.7l-5 9.7H6.7c-.6 0-1.4.2-1.9.8-.4.4-.6 1-.6 1.9 0 .6.2 1.4.6 1.9.4.4 1.2.6 1.9.6v19.2c0 1.2.4 2.3 1.4 3.3s2.1 1.4 3.3 1.4 2.3-.4 3.3-1.4 1.4-2.1 1.4-3.3v-2.3h23.5v2.3c0 1.2.4 2.3 1.4 3.3s2.1 1.4 3.3 1.4 2.3-.4 3.3-1.4 1.4-2.1 1.4-3.3V25.3c.6 0 1.4-.2 1.9-.6.4-.4.6-1.2.6-1.9 0-.6-.2-1.4-.6-1.9-.4-.4-1.2-.6-1.9-.6h-2.7l-5-9.7c-.6-1.2-1.4-2.1-2.7-2.9-1.2-.6-2.3-1-3.7-1H28"/><path fill="#9de2ff" d="M25.9 38.5H13.1v6c0 .4-.2.8-.4 1-.2.2-.6.4-1 .4s-.8-.2-1-.4c-.2-.2-.4-.6-.4-1V23.6h35.5L45.6 35v9.5c0 .4-.2.8-.4 1-.2.2-.6.4-1 .4s-.8-.2-1-.4c-.2-.2-.4-.6-.4-1v-6H25.9z"/><path fill="#fdfeff" d="M28 20.2H13.5l4.1-8.1c.2-.4.6-1.2 1.2-1.4.6-.4 1.2-.4 1.9-.4h14.5c.8 0 1.2.2 1.9.4.4.2 1 1 1.2 1.4l4.1 8.1H28z"/><circle cx="16" cy="30.3" r="2.5" fill="#026ab9"/><circle cx="40" cy="30.3" r="2.5" fill="#026ab9"/></svg>