<svg width="64" height="64" viewBox="0 0 64 64" fill="none" xmlns="http://www.w3.org/2000/svg">
<path d="M50.371 40.706L46.707 37.042L45.293 38.456L48.957 42.12C49.541 42.704 50.311 42.999 51.082 42.999C51.794 42.999 52.507 42.748 53.076 42.242L60.664 35.497L59.336 34.002L51.748 40.747C51.353 41.1 50.748 41.083 50.371 40.706Z" fill="#757372"/>
<path d="M60 39C60 43.962 55.963 48 51 48C46.037 48 42 43.962 42 39C42 34.038 46.037 30 51 30C53.372 30 55.609 30.914 57.302 32.574L58.702 31.146C57.368 29.837 55.754 28.914 54 28.419V22.887C54 21.362 52.837 20.079 51.294 19.902C45.297 19.217 39.885 14.84 37.825 9.01C37.399 7.808 36.264 7 34.997 7H29.003C27.736 7 26.601 7.808 26.174 9.011C24.115 14.84 18.703 19.217 12.706 19.903C11.163 20.08 10 21.363 10 22.888V34.509C10 46.62 19.624 56.707 31.454 56.994C31.637 56.998 31.817 57 31.998 57C38.28 57 44.193 54.35 48.382 49.672C49.223 49.878 50.096 50 51 50C57.065 50 62 45.065 62 39H60ZM31.503 54.994C20.749 54.733 12 45.543 12 34.508V22.888C12 22.372 12.393 21.952 12.933 21.89C19.673 21.119 25.752 16.211 28.06 9.677C28.203 9.272 28.582 9 29.003 9H34.997C35.418 9 35.797 9.272 35.939 9.677C38.248 16.211 44.327 21.119 51.067 21.89C51.607 21.952 52 22.372 52 22.888V28.049C51.669 28.018 51.336 28 51 28C44.935 28 40 32.935 40 39C40 43.394 42.596 47.184 46.33 48.945C42.448 52.937 37.108 55.128 31.503 54.994Z" fill="#757372"/>
<path d="M51 46C54.866 46 58 42.866 58 39C58 35.134 54.866 32 51 32C47.134 32 44 35.134 44 39C44 42.866 47.134 46 51 46Z" fill="#25836B"/>
<path d="M28.933 14.895C25.615 19.885 20.204 23.625 14.813 24.655L14 24.81V35C14 44.925 22.075 53 32 53H33V14H30.594C29.926 14 29.305 14.335 28.933 14.895ZM31 50.969C22.642 50.451 16 43.487 16 35V26.445C21.625 25.115 27.158 21.174 30.594 15.999H31V50.969Z" fill="#A57F00"/>
<path d="M31 50.969C22.642 50.451 16 43.487 16 35V26.445C21.625 25.115 27.158 21.174 30.594 15.999H31V50.969Z" fill="#F7E6AE"/>
<path fill-rule="evenodd" clip-rule="evenodd" d="M57.2542 35.8516L51.748 40.746C51.353 41.099 50.748 41.082 50.371 40.705L46.707 37.041L45.293 38.455L48.957 42.119C49.541 42.703 50.311 42.998 51.082 42.998C51.794 42.998 52.507 42.747 53.076 42.241L57.9197 37.9354C57.8071 37.1965 57.5789 36.4955 57.2542 35.8516Z" fill="white"/>
</svg>
