<svg width="64" height="64" viewBox="0 0 64 64" fill="none" xmlns="http://www.w3.org/2000/svg">
<path fill-rule="evenodd" clip-rule="evenodd" d="M52.4286 4H11.5714C9.72257 4 8 5.71148 8 7.625V56.375C8 58.2885 9.72257 60 11.5714 60H52.4286C54.2774 60 56 58.2885 56 56.375V7.625C56 5.71148 54.2774 4 52.4286 4ZM52.4286 2H11.5714C8.6 2 6 4.625 6 7.625V56.375C6 59.375 8.6 62 11.5714 62H52.4286C55.4 62 58 59.375 58 56.375V7.625C58 4.625 55.4 2 52.4286 2Z" fill="#757372"/>
<path fill-rule="evenodd" clip-rule="evenodd" d="M49.3966 23.3275C49.5352 23.1876 49.5713 23.0531 49.5713 23V11C49.5713 10.9469 49.5352 10.8124 49.3966 10.6725C49.2574 10.5319 49.1284 10.5 49.0856 10.5H14.9142C14.8714 10.5 14.7424 10.5319 14.6032 10.6725C14.4646 10.8124 14.4285 10.9469 14.4285 11V23C14.4285 23.0531 14.4646 23.1876 14.6032 23.3275C14.7424 23.4681 14.8714 23.5 14.9142 23.5H49.0856C49.1284 23.5 49.2574 23.4681 49.3966 23.3275ZM50.8175 24.735C50.3996 25.1569 49.7857 25.5 49.0856 25.5H14.9142C14.2141 25.5 13.6002 25.1569 13.1823 24.735C12.7637 24.3124 12.4285 23.6969 12.4285 23V11C12.4285 10.3031 12.7637 9.68758 13.1823 9.26503C13.6002 8.84308 14.2141 8.5 14.9142 8.5H49.0856C49.7857 8.5 50.3996 8.84308 50.8175 9.26504C51.236 9.68759 51.5713 10.3031 51.5713 11V23C51.5713 23.6969 51.236 24.3124 50.8175 24.735Z" fill="#7F41DB"/>
<path fill-rule="evenodd" clip-rule="evenodd" d="M49.3966 23.3275C49.5352 23.1876 49.5713 23.0531 49.5713 23V11C49.5713 10.9469 49.5352 10.8124 49.3966 10.6725C49.2574 10.5319 49.1284 10.5 49.0856 10.5H14.9142C14.8714 10.5 14.7424 10.5319 14.6032 10.6725C14.4646 10.8124 14.4285 10.9469 14.4285 11V23C14.4285 23.0531 14.4646 23.1876 14.6032 23.3275C14.7424 23.4681 14.8714 23.5 14.9142 23.5H49.0856C49.1284 23.5 49.2574 23.4681 49.3966 23.3275Z" fill="#FFE6FF"/>
<path fill-rule="evenodd" clip-rule="evenodd" d="M51.0996 55.4387C50.5423 56.0013 49.6859 56.5 48.6572 56.5H44.2001C43.1714 56.5 42.315 56.0013 41.7577 55.4387C41.1992 54.8748 40.7144 54.0187 40.7144 53V33.5C40.7144 32.4813 41.1992 31.6252 41.7577 31.0613C42.315 30.4987 43.1714 30 44.2001 30H48.6572C49.6859 30 50.5423 30.4987 51.0996 31.0613C51.6581 31.6252 52.1429 32.4813 52.1429 33.5V53C52.1429 54.0187 51.6581 54.8748 51.0996 55.4387ZM50.1429 53C50.1429 53.75 49.4001 54.5 48.6572 54.5H44.2001C43.4572 54.5 42.7144 53.75 42.7144 53V33.5C42.7144 32.75 43.4572 32 44.2001 32H48.6572C49.4001 32 50.1429 32.75 50.1429 33.5V53Z" fill="#757372"/>
<path fill-rule="evenodd" clip-rule="evenodd" d="M21.3852 55.4387C20.828 56.0013 19.9715 56.5 18.9429 56.5H14.4857C13.457 56.5 12.6006 56.0013 12.0433 55.4387C11.4848 54.8748 11 54.0187 11 53V48.5C11 47.4813 11.4848 46.6252 12.0433 46.0613C12.6006 45.4987 13.457 45 14.4857 45H18.9429C19.9715 45 20.828 45.4987 21.3852 46.0613C21.9437 46.6252 22.4286 47.4813 22.4286 48.5V53C22.4286 54.0187 21.9437 54.8748 21.3852 55.4387ZM18.9429 54.5C19.6857 54.5 20.4286 53.75 20.4286 53V48.5C20.4286 47.75 19.6857 47 18.9429 47H14.4857C13.7429 47 13 47.75 13 48.5V53C13 53.75 13.7429 54.5 14.4857 54.5H18.9429Z" fill="#CF0A2C"/>
<path fill-rule="evenodd" clip-rule="evenodd" d="M21.3852 40.4387C20.828 41.0013 19.9715 41.5 18.9429 41.5H14.4857C13.457 41.5 12.6006 41.0013 12.0433 40.4387C11.4848 39.8748 11 39.0187 11 38V33.5C11 32.4813 11.4848 31.6252 12.0433 31.0613C12.6006 30.4987 13.457 30 14.4857 30H18.9429C19.9715 30 20.8279 30.4987 21.3852 31.0613C21.9437 31.6252 22.4286 32.4813 22.4286 33.5V38C22.4286 39.0187 21.9437 39.8748 21.3852 40.4387ZM36.2424 55.4387C35.6851 56.0013 34.8287 56.5 33.8 56.5H29.3429C28.3142 56.5 27.4578 56.0013 26.9005 55.4387C26.342 54.8748 25.8571 54.0187 25.8571 53V48.5C25.8571 47.4813 26.342 46.6252 26.9005 46.0613C27.4578 45.4987 28.3142 45 29.3429 45H33.8C34.8287 45 35.6851 45.4987 36.2424 46.0613C36.8009 46.6252 37.2857 47.4813 37.2857 48.5V53C37.2857 54.0187 36.8009 54.8748 36.2424 55.4387ZM36.2424 40.4387C35.6851 41.0013 34.8287 41.5 33.8 41.5H29.3429C28.3142 41.5 27.4578 41.0013 26.9005 40.4387C26.342 39.8748 25.8571 39.0187 25.8571 38V33.5C25.8571 32.4813 26.342 31.6252 26.9005 31.0613C27.4578 30.4987 28.3142 30 29.3429 30H33.8C34.8287 30 35.6851 30.4987 36.2424 31.0613C36.8009 31.6252 37.2857 32.4813 37.2857 33.5V38C37.2857 39.0187 36.8009 39.8748 36.2424 40.4387ZM18.9429 39.5C19.6857 39.5 20.4286 38.75 20.4286 38V33.5C20.4286 32.75 19.6857 32 18.9429 32H14.4857C13.7429 32 13 32.75 13 33.5V38C13 38.75 13.7429 39.5 14.4857 39.5H18.9429ZM35.2857 53C35.2857 53.75 34.5429 54.5 33.8 54.5H29.3429C28.6 54.5 27.8571 53.75 27.8571 53V48.5C27.8571 47.75 28.6 47 29.3429 47H33.8C34.5429 47 35.2857 47.75 35.2857 48.5V53ZM33.8 39.5C34.5429 39.5 35.2857 38.75 35.2857 38V33.5C35.2857 32.75 34.5429 32 33.8 32H29.3429C28.6 32 27.8571 32.75 27.8571 33.5V38C27.8571 38.75 28.6 39.5 29.3429 39.5H33.8Z" fill="#757372"/>
</svg>
