<svg width="24" height="24" viewBox="0 0 24 24" fill="none" xmlns="http://www.w3.org/2000/svg">
<rect x="0.65" y="3.65" width="22.7" height="15.7" rx="1.35" fill="#026AB9" stroke="#026AB9" stroke-width="1.3"/>
<path d="M16.2741 7.34905V6H17.7259V7.35603C18.9969 7.5796 19.8364 8.3814 19.8611 9.48354H18.1782C18.1382 8.98568 17.6573 8.63811 17.017 8.63811C16.3768 8.63811 15.9551 8.93684 15.9551 9.40541C15.9551 9.79113 16.2727 10.0144 17.0269 10.1616L17.9499 10.3373C19.364 10.6059 20 11.2368 20 12.3546C20.0007 13.6182 19.153 14.4465 17.7259 14.6565V16H16.2741V14.6621C14.8804 14.4671 14.0261 13.6851 14 12.5151H15.7382C15.7832 13.0279 16.3025 13.3563 17.0567 13.3563C17.7369 13.3563 18.2037 13.0338 18.2037 12.5695C18.2037 12.1788 17.8911 11.9685 17.0723 11.8078L16.1295 11.6222C14.8192 11.3779 14.1446 10.6744 14.1446 9.56585C14.1446 8.39228 14.9639 7.56834 16.2741 7.34905Z" fill="white"/>
<path fill-rule="evenodd" clip-rule="evenodd" d="M6.7999 3L6.7999 12L5.3999 12L5.3999 3L6.7999 3Z" fill="#9DE2FF"/>
<path fill-rule="evenodd" clip-rule="evenodd" d="M6.7999 13L6.7999 20L5.3999 20L5.3999 13L6.7999 13Z" fill="#9DE2FF"/>
<path fill-rule="evenodd" clip-rule="evenodd" d="M13 11.6L13 13L6 13L6 11.6L13 11.6Z" fill="#9DE2FF"/>
<path fill-rule="evenodd" clip-rule="evenodd" d="M24 11.6L24 13L21 13L21 11.6L24 11.6Z" fill="#9DE2FF"/>
<path fill-rule="evenodd" clip-rule="evenodd" d="M6 11.6L6 13L0 13L-6.11957e-08 11.6L6 11.6Z" fill="#9DE2FF"/>
<path fill-rule="evenodd" clip-rule="evenodd" d="M10.667 14.8991L9.53564 16.0305L6.00011 12.495L6.60642 11.3986L10.667 14.8991Z" fill="#9DE2FF"/>
<path fill-rule="evenodd" clip-rule="evenodd" d="M10.667 14.8991L9.53564 16.0305L6.00011 12.495L6.60642 11.3986L10.667 14.8991Z" fill="#9DE2FF"/>
<path fill-rule="evenodd" clip-rule="evenodd" d="M1.42949 15.0406L2.41944 16.0305L5.95497 12.495L5.45508 11.505L1.42949 15.0406Z" fill="#9DE2FF"/>
<path fill-rule="evenodd" clip-rule="evenodd" d="M1.42949 15.0406L2.41944 16.0305L5.95497 12.495L5.45508 11.505L1.42949 15.0406Z" fill="#9DE2FF"/>
<path fill-rule="evenodd" clip-rule="evenodd" d="M7.3 11.3C8.10156 11.3 9 11 9.5 10.5C9.94141 10.0586 9.90052 9.63665 9.8 9.5C9.70285 9.36792 9.65381 9.19995 9.00007 9.2C8.71835 9.20002 8.24632 9.32963 7.79 9.9C7.44328 10.3334 7.40019 10.6451 7.3 11.3ZM6.98458 9.18762C7.52826 8.50805 8.28167 8.00006 8.99999 8C9.84621 7.99993 10.4732 8.26425 10.8225 8.7392C11.1685 9.20959 11.1651 9.78784 10.9473 10.2236C10.3444 11.4293 8.64498 12.5 6.5 12.5L6 12.5V12C6 10.8744 6.42148 9.89146 6.98458 9.18762Z" fill="#9DE2FF"/>
<path fill-rule="evenodd" clip-rule="evenodd" d="M4.79888 11.3C3.99731 11.3 3.09888 11 2.59888 10.5C2.15747 10.0586 2.19836 9.63665 2.29888 9.5C2.39603 9.36792 2.44506 9.19995 3.09881 9.2C3.38052 9.20002 3.85256 9.32963 4.30888 9.9C4.65559 10.3334 4.69869 10.6451 4.79888 11.3ZM5.1143 9.18762C4.57061 8.50805 3.8172 8.00006 3.09889 8C2.25266 7.99993 1.62569 8.26425 1.27633 8.7392C0.930338 9.20959 0.933738 9.78784 1.15161 10.2236C1.75448 11.4293 3.45389 12.5 5.59888 12.5L6.09888 12.5V12C6.09888 10.8744 5.6774 9.89146 5.1143 9.18762Z" fill="#9DE2FF"/>
</svg>
