<svg width="64" height="64" viewBox="0 0 64 64" fill="none" xmlns="http://www.w3.org/2000/svg">
<path fill-rule="evenodd" clip-rule="evenodd" d="M59 32C59 46.9117 46.9117 59 32 59C17.0883 59 5 46.9117 5 32C5 17.0883 17.0883 5 32 5C46.9117 5 59 17.0883 59 32ZM32 54C44 54 54 41.5 54 32C54 20.5 42.5 10 32 10C20.5 10 10 21.5 10 32C10 44.5 22 54 32 54Z" fill="#D7FFF4"/>
<path fill-rule="evenodd" clip-rule="evenodd" d="M54 32C54 44.1503 44.1503 54 32 54C19.8497 54 10 44.1503 10 32C10 19.8497 19.8497 10 32 10C44.1503 10 54 19.8497 54 32ZM32 52C43.0457 52 52 43.0457 52 32C52 20.9543 43.0457 12 32 12C20.9543 12 12 20.9543 12 32C12 43.0457 20.9543 52 32 52Z" fill="#757372"/>
<path fill-rule="evenodd" clip-rule="evenodd" d="M29 17H33V30.5L41 35.5L38.5 39L29 33V17Z" fill="#25836B"/>
<path fill-rule="evenodd" clip-rule="evenodd" d="M49 33H46V31H49V33Z" fill="#757372"/>
<path fill-rule="evenodd" clip-rule="evenodd" d="M18 33H15V31H18V33Z" fill="#757372"/>
<path fill-rule="evenodd" clip-rule="evenodd" d="M33.5 46V49H31.5V46H33.5Z" fill="#757372"/>
<path fill-rule="evenodd" clip-rule="evenodd" d="M59 32C59 46.9117 46.9117 59 32 59C17.0883 59 5 46.9117 5 32C5 17.0883 17.0883 5 32 5C46.9117 5 59 17.0883 59 32ZM32 57C45.8071 57 57 45.8071 57 32C57 18.1929 45.8071 7 32 7C18.1929 7 7 18.1929 7 32C7 45.8071 18.1929 57 32 57Z" fill="#25836B"/>
</svg>
