<svg width="24" height="22" viewBox="0 0 24 22" fill="none" xmlns="http://www.w3.org/2000/svg">
<path d="M12 2.25C6.47659 2.25 2.00003 5.88672 2.00003 10.375C2.00003 12.2344 2.77737 13.9375 4.06644 15.3086C3.4844 16.8477 2.27347 18.1523 2.25394 18.168C1.99612 18.4414 1.92581 18.8398 2.07425 19.1836C2.22269 19.5273 2.56253 19.75 2.93753 19.75C5.33987 19.75 7.2344 18.7461 8.37112 17.9414C9.50003 18.2969 10.7188 18.5 12 18.5C17.5235 18.5 22 14.8633 22 10.375C22 5.88672 17.5235 2.25 12 2.25ZM12 16.625C10.9571 16.625 9.92581 16.4648 8.93753 16.1523L8.05081 15.8711L7.28909 16.4102C6.7305 16.8047 5.96487 17.2461 5.043 17.543C5.32815 17.0703 5.6055 16.5391 5.82034 15.9727L6.2344 14.875L5.42972 14.0234C4.72269 13.2695 3.87503 12.0234 3.87503 10.375C3.87503 6.92969 7.51956 4.125 12 4.125C16.4805 4.125 20.125 6.92969 20.125 10.375C20.125 13.8203 16.4805 16.625 12 16.625Z" fill="#8D8C8A"/>
</svg>