<svg xmlns="http://www.w3.org/2000/svg" fill="none" viewBox="0 0 24 24"><path fill="#B90C2F" d="M11.397 2.4l-.267.05-.252.034-.267.033-.269.05-.251.034-.27.033-.266.05-.252.035-.267.032-.252.035-.268.033-.27.05-.25.034-.268.033-.269.034-.25.033-.318.034-.32.016-.25.017H6.17l-.436.067-.436.05-.436.05-.435.05-.436.052-.435.05-.436.05-.436.034v.033l.033.067.017.118.05.15.052.184.067.234.066.252.084.284.1.302.084.336.1.351.102.353.117.385.1.386.117.384.118.402.117.386.101.403.116.384.102.369.117.369.1.334.084.336.1.301.084.285.068.269.067.217.05.184.05.152.033.115.017.068.017.034.05.167-.017.034.151.302v.117l.018.033.015.033.017.034.035.017.065.068.035.032-.035.05.018.033.05.035.034.05.033.151.051.083v.117l.033.052.05.015.033.035-.016.05.285.301.05.068.017.05.033.134.034.066.05.051.034.067v.033l.016.033-.016-.016v.05l-.017.05v.05l.017.05-.067.085.016.082.084.068.185.067.032.034.035.033.017.017h.016l.017.033-.017.034-.016.018-.034.017-.033.015.033.052v.033l-.033.034-.035.033-.067-.017-.05.017v.033l.05.034-.033.033-.05.034-.067.033-.05.017-.017.018-.017.032-.05.152v.033l.017.1v.067l-.034.067v.102l.034.1v.117l-.017.067-.017.017-.083.183-.05.169-.017.15v.101l-.017.1.034.083.15.469.033.067.151.152.033.067.017.067.017.117.016.017.034.083.018.067-.018.1-.017.085-.017.082.052.12-.068.116v.15l.016.335-.016.034-.051.085v.032l.017.035.034.083.016.05v.151l.017.066.05.051.067.016.118.134.117.168.067.201.034.035.016.05-.016.032-.017.035v.015l-.017.017.017.05.017.018.066.034.034.016.018.051.05.116.032.034.052.1.048.085.02.184.1.284.184.152.017-.017H7.66l.117-.017h.15l.186-.018h.217l.252-.017.284-.015.302-.018.336-.017.351-.017.367-.016.386-.034.403-.017.402-.033.419-.016.401-.017.42-.034.42-.033.401-.017.402-.033.401-.017.369-.035.369-.015.335-.035.318-.017.301-.015.269-.035.252-.017.2-.016h.184l.134-.017.15-.017v.05l-.015.034v.033l.015.017.018.035.101.1.016.017.034.033v.017l.017.033v.034l-.017.067v.1l.017.035.083.15.017.032.017.018h.033l.017.017h.033l.169-.05h.033l.067.015h.017l.017-.015.1-.035.016-.017.017-.015v-.065l-.033-.12v-.083l.033-.268.017-.285-.017-.05v-.05l-.017-.017-.016-.033-.084-.084-.034-.034-.016-.05v-.018l-.017-.048v-.034l.017-.1V20.092l-.033-.1v-.083l.016-.017.034-.05v-.084l.016-.017.017-.018h.1l.017-.015v-.017l.017-.035v-.015l-.017-.018.017-.033v-.017l.018-.017.032-.015h.068l.032-.018h.05l.068.033.034.017.05.017.353.1.033-.017h.083l.051.018.016.032.052.018.05.017.184.017h.033l.05-.017h.017l.05.033h.051l.15.017.033-.017.119-.05.066.017h.034l-.017-.05v-.202l-.035-.05-.05-.05-.017-.033-.015-.067v-.051l-.035-.033-.05-.017v-.033H19.673l.035.015-.017-.065-.018-.017-.017-.018-.015-.05v-.1l.015-.067.102-.134.017-.067-.052-.018-.117.018-.083-.018v-.032l.168-.067.05-.05v-.085l-.033-.067-.167-.133-.068-.067.1.016.102.068.083.083.067.067h.017l.016-.301v-.117l-.067.082-.016.05.016.085-.05-.017-.1-.083-.1-.035-.035-.05.033-.033.134.05.018-.067-.018-.084-.067-.15v-.067l.035-.05.082-.035.035.052.017.2v.05l.05.017h.083l.05-.067.067-.133.1-.236.084.035.035-.068.015-.1-.032-.067-.05-.051-.185-.083-.05-.017h-.319l-.15-.05-.101-.067.034-.033h.033l.084.033.083.034.386.015.15-.015.035-.052-.035-.082-.05-.052-.134-.1-.033-.067v-.05l.033-.033.017-.017.034.017.016.033v.05l.017.034.034.033.033.033.033.017.035-.017.015-.033-.015-.05v-.033l.2-.42.034-.15-.117.017-.102.083-.183.168.016-.067.033-.051v-.05l-.033-.033-.117.017-.017-.017-.033-.017-.017-.017-.033-.033.067-.017.05-.05.067-.018.084.035h.066l.05-.05.084-.117-.05-.05-.1-.068-.05-.051.083-.016.068.016.05.051.05.05.067.15.017.018.017-.018.017-.05.033-.284.016-.1-.033-.101-.05-.033-.067.015-.018.052.052.05v.033l-.219.05-.067.017.117-.184v-.066l-.117-.067-.117-.018-.05-.017-.033-.067.033-.033h.05l.05.033.034.017.1.05h.135l.184-.033.034-.034.049-.05.084-.167.035-.119.015-.05h-.067l-.1-.05-.017-.015h-.2l.033-.052.134-.067v-.033l-.084-.05-.033-.034.033-.033.05-.017.034.032.033.052.017.016.067.017.167.017.068.033.05-.016.062-.05.022-.017.1-.152h-.1l-.067-.067-.017-.083.034-.032.016-.018.017-.034.017-.033.05-.017v.017l.017.033.033.034.033.018.169-.17.05-.1-.068-.066-.05-.018-.05.018-.051-.018h-.083l-.067-.015-.05-.034-.035-.05-.032-.035-.15-.033-.085-.017-.201.05h-.033l-.134-.117-.016-.017-.052-.016-.017-.017-.015-.034v-.016l.015-.017-.015-.018-.085-.117v-.083l.017-.067v-.034l-.017-.117v-.083l.017-.067v-.05l-.017-.085-.05-.067-.05-.05h-.051l-.168-.336-.015-.133-.017-.067-.068-.017-.05-.017-.017-.033-.015-.051-.02-.032-.015-.017-.1-.034v.017l-.034-.017-.05-.05-.034-.035-.033-.015h-.035l-.115-.018-.067-.017-.085-.032-.05-.052-.05-.05v-.066l.017-.067v-.084l-.017-.033-.017-.034-.033-.016-.017-.017-.017-.017.017-.033v-.067l.017-.035-.017-.05-.017-.067-.05-.05-.035-.066-.015-.051-.018-.067-.05-.117-.235-.285-.049-.034v-.235l-.019-.067-.048-.083-.052-.067-.05-.017h-.084l-.067-.033-.1-.084-.167-.05-.336-.083-.133-.084-.034-.068-.033-.167-.035-.017h-.082l-.068-.017-.067-.05-.067-.085.05-.032v-.05l-.033-.05-.067-.035.052-.033v-.034h-.035l-.05-.016h-.034l-.016.033v.017l-.034-.017-.185-.168-.032-.049.05-.034-.068-.1.018-.035.05-.017-.05-.067-.018-.016.018-.1-.068-.067-.15-.067-.084-.067-.184-.167-.067-.052-.085-.016-.167-.034-.083-.017-.101-.05-.066-.066-.085-.119-.034-.082-.067-.085-.083-.184-.101-.1-.2-.134-.17-.1-.15-.068-.116-.032-.117-.052-.1-.083-.068-.084-.067-.05h-.134l-.05-.05-.033-.102-.05-.1-.052-.117-.05-.033-.084-.034-.033-.05-.05-.117-.033-.033-.051-.052-.05-.033-.085-.017-.067-.083h-.033l-.034-.067-.116-.353-.034-.083-.252-.286-.032-.032-.068-.135-.034-.117-.05-.1-.167-.084-.235.034-.167.033-.117-.05-.067-.05-.067-.102-.085-.033-.082-.082-.135-.068-.033-.051-.017-.05h-.034l-.067.034-.135-.034-.334-.167-.135-.152v-.183l.052-.084.016-.034v-.1l.017-.033.017-.05.033-.052.051-.048.05-.052.018-.05.032-.151.016-.066.034-.05.135-.119.05-.033.083-.034.034-.048.017-.052.016-.05V2.4z"/></svg>