<svg width="64" height="64" viewBox="0 0 64 64" fill="none" xmlns="http://www.w3.org/2000/svg">
<path fill-rule="evenodd" clip-rule="evenodd" d="M45.8387 23.0682H3.16129C2.55021 23.0682 2.05484 23.5668 2.05484 24.1818V52.8182C2.05484 53.4332 2.55021 53.9318 3.16129 53.9318H25.2903H45.8387C46.4498 53.9318 46.9452 53.4332 46.9452 52.8182V24.1818C46.9452 23.5668 46.4498 23.0682 45.8387 23.0682ZM3.16129 21C1.41536 21 0 22.4245 0 24.1818V52.8182C0 54.5754 1.41536 56 3.16129 56H23.7097H45.8387C47.5846 56 49 54.5755 49 52.8182V24.1818C49 22.4245 47.5846 21 45.8387 21H3.16129Z" fill="#7F41DB"/>
<path fill-rule="evenodd" clip-rule="evenodd" d="M45.8388 23.0682H3.16138C2.55031 23.0682 2.05493 23.5668 2.05493 24.1818V52.8182C2.05493 53.4332 2.55031 53.9318 3.16138 53.9318H25.2904H45.8388C46.4499 53.9318 46.9453 53.4332 46.9453 52.8182V24.1818C46.9453 23.5668 46.4499 23.0682 45.8388 23.0682Z" fill="#FFE6FF"/>
<path d="M52.8387 16.0091H10.1613C9.55021 16.0091 8.92157 16.4934 8.92157 17.0909V21.5556H7V17.0909C7 15.3838 8.41536 14 10.1613 14H52.8387C54.5846 14 56 15.3838 56 17.0909V44.9091C56 46.6162 54.5846 48 52.8387 48H48.3137V45.9909H52.8387C53.4498 45.9909 53.9452 45.5066 53.9452 44.9091V17.0909C53.9452 16.4934 53.4498 16.0091 52.8387 16.0091Z" fill="#757372"/>
<path d="M60.8387 8.06818H18.1613C17.5502 8.06818 16.9216 8.56677 16.9216 9.18182V13.7778H15V9.18182C15 7.42455 16.4154 6 18.1613 6H60.8387C62.5846 6 64 7.42455 64 9.18182V37.8182C64 39.5755 62.5846 41 60.8387 41H56.3137V38.9318H60.8387C61.4498 38.9318 61.9452 38.4332 61.9452 37.8182V9.18182C61.9452 8.56677 61.4498 8.06818 60.8387 8.06818Z" fill="#757372"/>
<path fill-rule="evenodd" clip-rule="evenodd" d="M13 21L13 39L11 39L11 21L13 21Z" fill="#7F41DB"/>
<path fill-rule="evenodd" clip-rule="evenodd" d="M13 37L13 54L11 54L11 37L13 37Z" fill="#7F41DB"/>
<path fill-rule="evenodd" clip-rule="evenodd" d="M47 38L47 40L42 40L42 38L47 38Z" fill="#7F41DB"/>
<path fill-rule="evenodd" clip-rule="evenodd" d="M28 38L28 40L0 40L-8.78924e-08 38L28 38Z" fill="#7F41DB"/>
<path fill-rule="evenodd" clip-rule="evenodd" d="M21.8412 44.384L19.6057 46.6075L12.62 39.6591L13.818 37.5044L21.8412 44.384Z" fill="#7F41DB"/>
<path fill-rule="evenodd" clip-rule="evenodd" d="M21.8412 44.384L19.6057 46.6075L12.62 39.6591L13.818 37.5044L21.8412 44.384Z" fill="#7F41DB"/>
<path fill-rule="evenodd" clip-rule="evenodd" d="M3.58939 44.6619L5.54539 46.6075L12.5311 39.6591L11.5434 37.7135L3.58939 44.6619Z" fill="#7F41DB"/>
<path fill-rule="evenodd" clip-rule="evenodd" d="M3.58939 44.6619L5.54539 46.6075L12.5311 39.6591L11.5434 37.7135L3.58939 44.6619Z" fill="#7F41DB"/>
<path fill-rule="evenodd" clip-rule="evenodd" d="M15.5496 37.6C17.1217 37.6 18.8837 37 19.8643 36C20.73 35.1172 20.6498 34.2733 20.4527 34C20.2622 33.7358 20.166 33.3999 18.8838 33.4C18.3313 33.4001 17.4056 33.6593 16.5106 34.8C15.8306 35.6668 15.7461 36.2901 15.5496 37.6ZM14.931 33.3753C15.9973 32.0161 17.4749 31.0001 18.8837 31C20.5433 30.9999 21.773 31.5285 22.4581 32.4784C23.1367 33.4192 23.1301 34.5757 22.7028 35.4472C21.5204 37.8586 18.1874 40 13.9806 40L13 40V39C13 36.7489 13.8266 34.7829 14.931 33.3753Z" fill="#7F41DB"/>
<path fill-rule="evenodd" clip-rule="evenodd" d="M10.4504 37.6C8.87834 37.6 7.11629 37 6.13567 36C5.26997 35.1172 5.35017 34.2733 5.5473 34C5.73784 33.7358 5.83401 33.3999 7.11616 33.4C7.66867 33.4001 8.59443 33.6593 9.48939 34.8C10.1694 35.6668 10.2539 36.2901 10.4504 37.6ZM11.069 33.3753C10.0027 32.0161 8.5251 31.0001 7.11632 31C5.45667 30.9999 4.22703 31.5285 3.54185 32.4784C2.86327 33.4192 2.86994 34.5757 3.29724 35.4472C4.47961 37.8586 7.81256 40 12.0194 40L13 40V39C13 36.7489 12.1734 34.7829 11.069 33.3753Z" fill="#7F41DB"/>
<path d="M33.4112 33.1585V31H35.5888V33.1696C37.4954 33.5274 38.7546 34.8102 38.7916 36.5737H36.2672C36.2074 35.7771 35.4859 35.221 34.5255 35.221C33.5652 35.221 32.9327 35.6989 32.9327 36.4487C32.9327 37.0658 33.4091 37.4231 34.5404 37.6585L35.9249 37.9397C38.0459 38.3694 39 39.3788 39 41.1674C39.0011 43.1891 37.7295 44.5144 35.5888 44.8504V47H33.4112V44.8594C31.3206 44.5474 30.0392 43.2961 30 41.4241H32.6073C32.6748 42.2447 33.4538 42.7701 34.5851 42.7701C35.6053 42.7701 36.3055 42.254 36.3055 41.5112C36.3055 40.886 35.8367 40.5496 34.6085 40.2924L33.1942 39.9955C31.2289 39.6047 30.2169 38.4791 30.2169 36.7054C30.2169 34.8276 31.4458 33.5093 33.4112 33.1585Z" fill="#25836B"/>
</svg>
