<svg xmlns="http://www.w3.org/2000/svg" fill="none" viewBox="0 0 24 24"><path fill="#25836B" d="M12 2.4c-5.292 0-9.6 4.307-9.6 9.6 0 5.292 4.308 9.6 9.6 9.6 5.293 0 9.6-4.308 9.6-9.6 0-5.293-4.308-9.6-9.6-9.6zm-.798 1.639a.8.8 0 0 0 1.597 0 7.989 7.989 0 0 1 7.162 7.162.8.8 0 0 0 0 1.597 7.989 7.989 0 0 1-7.162 7.163.8.8 0 0 0-1.597 0 7.989 7.989 0 0 1-7.163-7.163.8.8 0 0 0 0-1.597 7.989 7.989 0 0 1 7.163-7.162zM12 5.599A6.4 6.4 0 1 0 12 18.4a6.4 6.4 0 0 0 0-12.8zm0 1.6a.8.8 0 0 1 .8.8v3.67l2.166 2.165a.8.8 0 1 1-1.132 1.132L11.2 12.33V8a.8.8 0 0 1 .8-.8z"/></svg>