<svg width="27" height="27" viewBox="0 0 27 27" fill="none" xmlns="http://www.w3.org/2000/svg">
<ellipse cx="9.50008" cy="18.2917" rx="6.92708" ry="6.92708" fill="white"/>
<path d="M9.4999 21.0625C8.76503 21.0625 8.06025 20.7706 7.54062 20.2509C7.02099 19.7313 6.72906 19.0265 6.72906 18.2917C6.72906 17.5568 7.02099 16.852 7.54062 16.3324C8.06025 15.8128 8.76503 15.5208 9.4999 15.5208V12.3542C8.54775 12.3523 7.6091 12.5794 6.76314 13.0164C5.91718 13.4533 5.18872 14.0873 4.63919 14.8649C4.08967 15.6425 3.73521 16.5408 3.60571 17.4841C3.47621 18.4274 3.57547 19.388 3.89511 20.2849C4.21476 21.1818 4.74542 21.9887 5.44232 22.6375C6.13923 23.2863 6.98194 23.7579 7.89938 24.0127C8.81681 24.2674 9.78206 24.2978 10.7137 24.1013C11.6454 23.9047 12.5161 23.487 13.2524 22.8833L10.9882 20.6192C10.5453 20.9074 10.0284 21.0614 9.4999 21.0625Z" fill="#ABFFE8"/>
<path d="M11.0833 11.3488V10.375C11.0833 10.165 10.9999 9.96368 10.8515 9.81521C10.703 9.66674 10.5016 9.58334 10.2917 9.58334H8.70833C8.49837 9.58334 8.29701 9.66674 8.14854 9.81521C8.00008 9.96368 7.91667 10.165 7.91667 10.375V11.3488C6.3432 11.7074 4.9381 12.5895 3.93136 13.8508C2.92462 15.1121 2.37589 16.6779 2.375 18.2917C2.37467 19.0107 2.4814 19.7257 2.69167 20.4133C2.83271 20.8546 3.01562 21.2814 3.23792 21.6879C3.34616 21.8894 3.46508 22.085 3.59417 22.2738C3.84693 22.6541 4.13879 23.007 4.465 23.3267C5.24508 24.1099 6.19668 24.7008 7.24456 25.0528C8.29243 25.4047 9.40782 25.5081 10.5025 25.3546C11.5972 25.2011 12.6412 24.795 13.5518 24.1684C14.4625 23.5418 15.2149 22.712 15.7495 21.7444C16.2841 20.7769 16.5863 19.6983 16.6321 18.5938C16.6779 17.4894 16.4661 16.3894 16.0134 15.3809C15.5607 14.3725 14.8796 13.4831 14.024 12.7833C13.1683 12.0835 12.1616 11.5924 11.0833 11.3488ZM9.5 24.2292C8.14747 24.2331 6.83393 23.7763 5.77562 22.9341C4.71732 22.0919 3.97734 20.9144 3.67753 19.5955C3.37772 18.2766 3.53594 16.895 4.12615 15.678C4.71635 14.461 5.70336 13.4813 6.92466 12.9001C8.14597 12.319 9.52876 12.171 10.8454 12.4806C12.162 12.7901 13.334 13.5388 14.1683 14.6033C15.0027 15.6679 15.4497 16.9847 15.4358 18.3372C15.4218 19.6897 14.9478 20.9971 14.0917 22.0442L10.64 18.5925C10.6718 18.4954 10.6878 18.3938 10.6875 18.2917C10.6875 18.0568 10.6179 17.8272 10.4874 17.6319C10.3569 17.4366 10.1714 17.2844 9.95444 17.1946C9.73745 17.1047 9.49868 17.0812 9.26833 17.127C9.03798 17.1728 8.82639 17.2859 8.66031 17.452C8.49424 17.6181 8.38114 17.8296 8.33532 18.06C8.2895 18.2904 8.31301 18.5291 8.40289 18.7461C8.49277 18.9631 8.64498 19.1486 8.84026 19.279C9.03554 19.4095 9.26514 19.4792 9.5 19.4792C9.60217 19.4795 9.70373 19.4634 9.80083 19.4317L10.9883 20.6192L13.2525 22.8833C12.1961 23.7545 10.8692 24.2304 9.5 24.2292Z" fill="#25836B"/>
<path d="M15.1842 13.3358C15.2955 13.4472 15.4464 13.5098 15.6038 13.51C15.7606 13.5066 15.9103 13.4444 16.0234 13.3358C16.1346 13.2245 16.197 13.0736 16.197 12.9162C16.197 12.7589 16.1346 12.608 16.0234 12.4966L14.8992 11.3725C14.8449 11.3141 14.7793 11.2673 14.7065 11.2349C14.6337 11.2024 14.555 11.185 14.4753 11.1836C14.3956 11.1822 14.3164 11.1968 14.2425 11.2267C14.1685 11.2566 14.1014 11.301 14.045 11.3574C13.9886 11.4138 13.9442 11.4809 13.9143 11.5549C13.8844 11.6288 13.8698 11.708 13.8712 11.7877C13.8726 11.8674 13.89 11.9461 13.9225 12.0189C13.9549 12.0917 14.0017 12.1573 14.0601 12.2116L15.1842 13.3358Z" fill="#25836B"/>
<g clip-path="url(#clip0)">
<path d="M13.829 4.50002C18.3431 4.73945 22.0419 8.43666 22.2815 12.9525C22.2905 13.1222 22.1561 13.2601 21.9865 13.2571L21.0837 13.2408C20.9219 13.2379 20.7874 13.1071 20.7781 12.9452C20.564 9.24188 17.5389 6.21758 13.8364 6.00348C13.6745 5.99418 13.5436 5.85989 13.5408 5.6979L13.5245 4.79516C13.5214 4.62536 13.6593 4.49101 13.829 4.50002Z" fill="#25836B"/>
<path d="M13.854 7.48763C16.7276 7.70421 19.077 10.0507 19.2939 12.9275C19.3069 13.0994 19.1716 13.2408 18.9993 13.237L18.0936 13.2183C17.9357 13.2152 17.801 13.0906 17.7873 12.9328C17.6081 10.8641 15.922 9.17385 13.8485 8.99408C13.6907 8.98034 13.5663 8.84548 13.563 8.68772L13.5443 7.78203C13.5407 7.60984 13.6818 7.47462 13.854 7.48763Z" fill="#25836B"/>
</g>
<defs>
<clipPath id="clip0">
<rect width="16" height="9" fill="white" transform="translate(15.364) rotate(45)"/>
</clipPath>
</defs>
</svg>
