<svg width="24" height="24" viewBox="0 0 24 24" fill="none" xmlns="http://www.w3.org/2000/svg">
<path d="M12 5C8.134 5 5 8.134 5 12C5 15.866 8.134 19 12 19C15.866 19 19 15.866 19 12C19 8.134 15.866 5 12 5ZM10 9C10.2558 9 10.5115 9.09747 10.707 9.29297L12 10.5859L13.293 9.29297C13.684 8.90197 14.316 8.90197 14.707 9.29297C15.098 9.68397 15.098 10.316 14.707 10.707L13.4141 12L14.707 13.293C15.098 13.684 15.098 14.316 14.707 14.707C14.512 14.902 14.256 15 14 15C13.744 15 13.488 14.902 13.293 14.707L12 13.4141L10.707 14.707C10.512 14.902 10.256 15 10 15C9.744 15 9.48797 14.902 9.29297 14.707C8.90197 14.316 8.90197 13.684 9.29297 13.293L10.5859 12L9.29297 10.707C8.90197 10.316 8.90197 9.68397 9.29297 9.29297C9.48847 9.09747 9.74425 9 10 9Z" fill="#CF0A2C"/>
</svg>
