<svg width="24" height="24" viewBox="0 0 24 24" fill="none" xmlns="http://www.w3.org/2000/svg">
<g clip-path="url(#clip0_5675_1481)">
<path d="M0 9H24V19C24 20.1046 23.1046 21 22 21H2C0.89543 21 0 20.1046 0 19V9Z" fill="#F5F3F1"/>
<path fill-rule="evenodd" clip-rule="evenodd" d="M22.7 10.3H1.3V19C1.3 19.3866 1.6134 19.7 2 19.7H22C22.3866 19.7 22.7 19.3866 22.7 19V10.3ZM0 9V19C0 20.1046 0.89543 21 2 21H22C23.1046 21 24 20.1046 24 19V9H0Z" fill="#757372"/>
<path d="M24 8H25V7V5C25 3.34315 23.6569 2 22 2H2C0.343146 2 -1 3.34315 -1 5V7V8H0H24Z" fill="#1F1D1C" stroke="white" stroke-width="2"/>
<circle cx="10" cy="12" r="8" fill="url(#paint0_radial_5675_1481)"/>
</g>
<defs>
<radialGradient id="paint0_radial_5675_1481" cx="0" cy="0" r="1" gradientUnits="userSpaceOnUse" gradientTransform="translate(11.4815 9.33333) rotate(126.573) scale(11.4372)">
<stop offset="0.265625" stop-color="#8CFF3F"/>
<stop offset="0.911458" stop-color="#06B01D"/>
</radialGradient>
<clipPath id="clip0_5675_1481">
<rect width="24" height="24" fill="white"/>
</clipPath>
</defs>
</svg>
