<svg width="24" height="24" viewBox="0 0 24 24" fill="none" xmlns="http://www.w3.org/2000/svg">
<path d="M16.78 14.911C16.4552 14.7206 16.056 14.7246 15.7328 14.9166L14.096 15.8918C13.7296 16.1102 13.272 16.0846 12.936 15.8222C12.3552 15.3686 11.42 14.6054 10.6064 13.7918C9.79281 12.9782 9.02961 12.043 8.57601 11.4622C8.31361 11.1262 8.28801 10.6686 8.50641 10.3022L9.48161 8.66539C9.67441 8.34219 9.67601 7.93979 9.48561 7.61499L7.08401 3.51259C6.85121 3.11579 6.38881 2.92059 5.94161 3.03019C5.50721 3.13579 4.94321 3.39339 4.35201 3.98539C2.50081 5.83659 1.51761 8.95899 8.47921 15.9206C15.4408 22.8822 18.5624 21.8998 20.4144 20.0478C21.0072 19.455 21.264 18.8902 21.3704 18.455C21.4784 18.0086 21.2864 17.5494 20.8904 17.3174C19.9016 16.739 17.7688 15.4902 16.78 14.911Z" fill="#ABFFE8"/>
</svg>
