<svg xmlns="http://www.w3.org/2000/svg" fill="none" viewBox="0 0 80 80"><g clip-path="url(#clip0)"><path fill="#35484F" d="M0 0h80v80H0z"/><path fill="#203339" d="M-79.777 76.033l.688.347.061.03c14.394 7.223 23.679 9.386 39.377 10.629l.297.023a132.012 132.012 0 0 1 .438.035l.674.052c16.08 1.254 24.327 2.84 37.741 8.572l.698.3-.364.844c-13.72-5.928-21.881-7.53-38.146-8.798l-1.41-.111c-16.08-1.273-25.525-3.516-40.47-11.103l.416-.82zm121.535-8.884c16.08 1.254 24.327 2.84 37.74 8.572l.7.3-.183.421.208-.41.688.348.061.03c14.146 7.099 23.357 9.31 38.571 10.564l.806.065.297.023c.299.024.623.05 1.112.087 16.08 1.254 24.327 2.84 37.741 8.572l.698.3-.364.844c-13.72-5.928-21.881-7.53-38.146-8.798l-1.41-.111a234.97 234.97 0 0 1-2.403-.202l-.78-.072a176.045 176.045 0 0 1-3.598-.374l-.33-.038a111.769 111.769 0 0 1-6.464-.938l-.703-.127a85.029 85.029 0 0 1-3.973-.83 78.762 78.762 0 0 1-8.933-2.653 89.416 89.416 0 0 1-3.661-1.413 115.434 115.434 0 0 1-4.645-2.032 136.805 136.805 0 0 1-2.893-1.382 169.18 169.18 0 0 1-1.321-.655l-.75-.378-.683-.294c-13.307-5.685-21.464-7.255-37.454-8.501l-1.41-.111a215.844 215.844 0 0 1-5.322-.487 151.06 151.06 0 0 1-2.93-.338 111.769 111.769 0 0 1-5.27-.79 82.53 82.53 0 0 1-8.207-1.863 78.161 78.161 0 0 1-1.355-.396 81.318 81.318 0 0 1-5.81-1.998 108.28 108.28 0 0 1-6.926-2.962A144.14 144.14 0 0 1 .572 57.24l-.137-.07-.619-.31-.003-.002-.423-.182-.32-.137-.614-.26a164.059 164.059 0 0 0-.954-.4l.383.16a146.25 146.25 0 0 0-2.605-1.06l.645.257a135.32 135.32 0 0 0-.764-.304l-.679-.265-.78-.298a135.66 135.66 0 0 0-1.814-.67 96.847 96.847 0 0 0-2.264-.781l-.436-.143-.316-.102a85.883 85.883 0 0 0-2.218-.68l.788.234a81.79 81.79 0 0 0-.924-.274l.136.04c-.273-.08-.545-.157-.817-.234l.681.194a80.967 80.967 0 0 0-1.846-.51l-.699-.182a62.916 62.916 0 0 0-.847-.211l.7.173a82.904 82.904 0 0 0-.892-.22l.192.047a80.108 80.108 0 0 0-.727-.174l.535.127a83.48 83.48 0 0 0-.71-.168l.084.02a83.093 83.093 0 0 0-2.073-.454l-.533-.108-.727-.142-.172-.032a94.781 94.781 0 0 0-.506-.094l.506.094a93.123 93.123 0 0 0-.744-.137l.238.043c-.26-.048-.52-.094-.783-.14l.545.097a97.865 97.865 0 0 0-1.57-.27l.358.06a104.243 104.243 0 0 0-1.637-.261l.364.056-.791-.12.427.064c-.226-.034-.452-.068-.68-.1l.253.036c-.393-.057-.79-.114-1.19-.169l.168.023a132.976 132.976 0 0 0-3.498-.437c-.848-.096-1.716-.187-2.608-.276l-.105-.01.105.01-.822-.08.717.07a232.71 232.71 0 0 0-1.004-.096l.287.027a255.204 255.204 0 0 0-2.483-.224l.47.04a314.446 314.446 0 0 0-3.133-.258c-.654-.05-1.012-.079-1.41-.11-15.807-1.252-25.203-3.44-39.715-10.722l-.755-.38.416-.821c14.825 7.525 24.157 9.741 40.126 11.006l.297.023.178.014.284.023.022.001h.004l.132.01.172.014.32.025c16.08 1.254 24.327 2.84 37.741 8.572l.698.3-.182.422.208-.41.69.348.06.03c14.145 7.098 23.356 9.309 38.569 10.563l.806.065.297.023.162.013-.162-.013.344.027.065.005.012.001.017.002.049.003-.03-.002.148.012-.042-.004.55.043zm-80.812 13.493l-.013-.001h-.014.027zM-79.777 49.59c14.825 7.525 24.157 9.741 40.126 11.006l.297.023.348.028h.018l.025.003h.007l-.008-.001.037.003h.007-.003l.007.002h-.002l.022.001.137.01-.046-.003.16.013.204.016.2.015c16.08 1.254 24.326 2.84 37.74 8.57l.698.3-.168.39-.014.032.208-.41c14.825 7.527 24.157 9.743 40.125 11.008l.297.023 1.113.087c16.08 1.254 24.327 2.841 37.741 8.572l.698.3-.365.844c-13.72-5.928-21.88-7.53-38.145-8.799l-1.411-.11C24.47 80.26 15.074 78.073.562 70.79l-.157-.08-.589-.296-.676-.29c-13.306-5.685-21.464-7.254-37.453-8.5l-1.41-.111c-15.807-1.252-25.203-3.44-39.715-10.722l-.755-.38.416-.821zM25.955 86.197h.009l.034.008-.043-.008zM-79.777 62.476C-64.952 70-55.62 72.217-39.65 73.482l.297.023.13.01.048.004.084.007.058.004.142.011.023.002h.003l.132.01.172.014.12.01.2.015c16.08 1.254 24.327 2.84 37.741 8.572l.698.3-.364.844c-13.72-5.928-21.881-7.53-38.146-8.799-.654-.05-1.012-.079-1.41-.11-15.807-1.252-25.203-3.44-39.715-10.722l-.755-.38.416-.821zm40.832 18.175l-.013-.001h.014v.001zm-.038-.003H-38.974h-.01zm-.071-.006l.009.001-.008-.001h-.001zM2.18 78.035l.067.033.058.028-.125-.061zm38.465-4.53l.162.013-.048-.004-.114-.009zm79.704-12.91l.297.024 1.113.087c16.08 1.254 24.326 2.84 37.74 8.57l.698.3-.364.845c-13.72-5.928-21.881-7.53-38.146-8.798l-1.41-.11a232.982 232.982 0 0 1-4.028-.355 176.219 176.219 0 0 1-3.083-.331 111.458 111.458 0 0 1-6.411-.929 92.515 92.515 0 0 1-3.509-.69 80.534 80.534 0 0 1-5.545-1.417 75.936 75.936 0 0 1-2.332-.727 81.708 81.708 0 0 1-2.185-.752 88.81 88.81 0 0 1-3.83-1.478 103.318 103.318 0 0 1-3.04-1.306 126.008 126.008 0 0 1-3.033-1.404 154.379 154.379 0 0 1-2.708-1.327l-.756-.381-.51-.22-.066-.028-.116-.05-.115-.05-.554-.234a143.666 143.666 0 0 0-4.207-1.7l.491.19c-.253-.1-.505-.197-.756-.292l.265.101-.98-.372-.012-.004-.156-.058-.446-.166-.074-.026.074.026-.512-.186.184.067a94.731 94.731 0 0 0-.911-.327l.317.113a98.26 98.26 0 0 0-2.923-.991l.378.122a86.058 86.058 0 0 0-4.747-1.394l-.356-.092-.137-.035a66.4 66.4 0 0 0-.287-.072l.286.072a79.22 79.22 0 0 0-.493-.124l.15.037a81.93 81.93 0 0 0-1.477-.354l.155.036a83.71 83.71 0 0 0-3.85-.8 96.343 96.343 0 0 0-1.966-.34l-.507-.082-.507-.08-.225-.033.226.034-.647-.097.421.063-.652-.097.231.034c-.876-.13-1.771-.25-2.69-.366l-.206-.026.206.026-.52-.064.314.038-.708-.086.394.047a151.09 151.09 0 0 0-.774-.092l.139.017a171.997 171.997 0 0 0-2.776-.303l.372.038c-.303-.032-.608-.063-.917-.093l.545.054-.754-.075.21.021c-.227-.022-.455-.045-.685-.066l.475.045a241.538 241.538 0 0 0-2.551-.235l.528.046a298.596 298.596 0 0 0-3.722-.31 1106.92 1106.92 0 0 1-2.313-.183l.903.073c-.558-.044-1.108-.09-1.65-.136l.637.054a231.723 231.723 0 0 1-3.427-.314 143.39 143.39 0 0 1-4.125-.47l-.1-.013-.431-.056a123.82 123.82 0 0 1-1.607-.225l-.697-.106-.12-.018a103.206 103.206 0 0 1-1.882-.31l-.12-.021a93.957 93.957 0 0 1-1.898-.354l1.142.218a88.871 88.871 0 0 1-3.935-.82 76.097 76.097 0 0 1-1.49-.363l-.201-.052-.17-.044-.225-.06-.18-.046-.204-.054.608.16a77.792 77.792 0 0 1-1.658-.449l-.19-.054-.1-.029-.429-.124a80.66 80.66 0 0 1-1.385-.42l-.06-.019a82.19 82.19 0 0 1-1.635-.532l-.907-.313-.914-.326a91.085 91.085 0 0 1-.917-.339l-.36-.137-.34-.13-.037-.014.737.281a92.204 92.204 0 0 1-2.111-.824l-.209-.084-.092-.038-.194-.08-.14-.056a84.17 84.17 0 0 1-.244-.102l.578.238c-.317-.129-.634-.26-.954-.395l-.018-.007-.371-.157a129.2 129.2 0 0 1-.247-.105l-.084-.037-.207-.088-.194-.084.485.209a111.878 111.878 0 0 1-1.543-.674l.357.158A117.25 117.25 0 0 1 4.286 32.6c-.344-.161-.691-.325-1.04-.493l.745.354a142.13 142.13 0 0 1-3.418-1.664l-.286-.145-.47-.237-.004-.001-.673-.29c-13.306-5.684-21.464-7.254-37.453-8.5l-1.41-.111c-15.807-1.252-25.203-3.44-39.715-10.722l-.755-.38.416-.821c14.825 7.525 24.157 9.741 40.126 11.006l.297.023.178.014.284.023.022.001h.004l.132.01.172.014.092.008c.01 0 .019 0 .028.002l.2.015c16.08 1.254 24.327 2.84 37.741 8.572l.698.3-.178.413.204-.401c14.573 7.398 23.839 9.665 39.319 10.94l.806.066.297.023.176.014.262.02.045.004.026.002.04.003.243.02.09.006.03.003.2.015c16.08 1.254 24.328 2.84 37.742 8.572l.698.3-.179.414.205-.402c14.825 7.525 24.157 9.741 40.126 11.006zM39.542 33.418l.806.065.297.023.176.014.262.02.045.004.026.002.04.003.243.02.32.024c16.08 1.254 24.328 2.84 37.742 8.572l.698.3-.182.421.208-.41c14.825 7.527 24.157 9.743 40.126 11.007l1.41.11c16.08 1.254 24.326 2.841 37.74 8.572l.698.3-.364.844c-13.72-5.928-21.881-7.53-38.146-8.798-.653-.051-1.012-.08-1.41-.11-.818-.065-1.618-.133-2.403-.203l-.78-.071c-2.136-.2-4.157-.425-6.098-.686a112.82 112.82 0 0 1-4.28-.662 96.164 96.164 0 0 1-3.025-.587 81.454 81.454 0 0 1-4.268-1.027 78.755 78.755 0 0 1-6.22-1.959 91.532 91.532 0 0 1-3.899-1.505 113.66 113.66 0 0 1-4.517-1.98 136.812 136.812 0 0 1-2.895-1.383c-.435-.213-.875-.431-1.32-.654l-.755-.381-.182-.08-.026-.01-.141-.061-.217-.093-.286-.122-.51-.216-.015-.007-.025-.01-.007-.003-.812-.34-.482-.2-.624-.254a135.587 135.587 0 0 0-2.263-.895l-.115-.044.115.044-.555-.212.44.168c-.48-.184-.953-.362-1.422-.535l-.101-.037.1.037c-.424-.156-.845-.308-1.262-.455l.25.089a96.663 96.663 0 0 0-2.798-.949l.31.1a83.185 83.185 0 0 0-4.072-1.214l.794.22a81.077 81.077 0 0 0-3.765-.963l.162.037a83.275 83.275 0 0 0-3.277-.693l-.6-.112a96.343 96.343 0 0 0-1.965-.342l-.507-.081-.507-.08-.225-.033.226.034-.647-.097.421.063-.652-.097.231.034a126.585 126.585 0 0 0-2.987-.403l.297.037-.52-.065.223.028-.617-.075.394.047a151.09 151.09 0 0 0-.774-.092l.139.017a171.997 171.997 0 0 0-2.776-.303l.372.038c-.303-.032-.608-.063-.917-.093l.545.054-.754-.075.21.021-.685-.067.475.046a264.188 264.188 0 0 0-3.7-.334c-.668-.055-1.349-.11-2.045-.164a1106.92 1106.92 0 0 1-2.281-.182l-.121-.01-.022-.001-.056-.005.199.016c-.7-.057-1.385-.117-2.06-.18-1.255-.115-2.471-.24-3.654-.374l-.302-.035c-.566-.066-1.126-.134-1.678-.205l-.07-.01-.461-.06-.215-.029-.229-.03-.585-.083.524.074c-.38-.052-.755-.106-1.128-.161l-.78-.118-.026-.004a106.357 106.357 0 0 1-2.743-.465l-.252-.05-.851-.16a3.439 3.439 0 0 1-.032-.007l1.135.217a89.003 89.003 0 0 1-3.958-.826 74.386 74.386 0 0 1-1.466-.357l-.202-.052a90.159 90.159 0 0 1-.222-.057l-.301-.08-.039-.01a56.61 56.61 0 0 1-.14-.036l.48.126a79.793 79.793 0 0 1-1.607-.436l-.188-.054-.063-.017a81.948 81.948 0 0 1-.895-.262l.304.09a78.838 78.838 0 0 1-3.793-1.223l.958.329a82.727 82.727 0 0 1-2.737-.973l-.177-.066-.057-.022-.312-.12-.306-.116a90.08 90.08 0 0 1-1.671-.663l-.305-.126-.059-.023-.156-.064.52.213c-.295-.12-.592-.243-.89-.368l-.094-.04-.171-.071a110.71 110.71 0 0 1-1.575-.68l-.505-.224a121.736 121.736 0 0 1-1.98-.905l-.09-.042-.093-.043-.17-.08a144.762 144.762 0 0 1-3.474-1.691l-.105-.054-.642-.324-.004-.001-.673-.29c-13.306-5.684-21.464-7.254-37.453-8.5l-1.41-.111c-15.807-1.252-25.203-3.44-39.715-10.722l-.755-.38.416-.821C-64.952 10-55.62 12.217-39.65 13.482l.297.023.178.014.284.022.022.002h.004l.132.01.172.014.32.025c16.08 1.254 24.327 2.84 37.741 8.572l.698.3-.182.422.208-.41c14.573 7.398 23.839 9.665 39.319 10.94zm1.515 27.234l.018.002h.002-.007l-.013-.002zm-80.049-.004l.017.002h.002-.007l-.008-.002h-.004zm102.657-3.022l.297.075-.165-.042-.107-.027.108.027c-.045-.01-.089-.022-.133-.033zM39.542 26.974l.806.065.297.023.176.014.262.02.045.004.026.002.04.003.243.02.12.009.2.015c16.08 1.254 24.328 2.84 37.742 8.572l.698.3-.168.389-.015.033.057-.111.152-.3c14.574 7.399 23.839 9.666 39.32 10.942l.806.065.297.023.186.015.276.022.022.001h.003l.133.01.172.014.32.025c16.08 1.254 24.327 2.84 37.741 8.572l.698.3-.364.844c-13.72-5.928-21.881-7.53-38.146-8.799-.654-.05-1.012-.079-1.41-.11a175.145 175.145 0 0 1-8.618-.872 107.223 107.223 0 0 1-5.66-.88 83.443 83.443 0 0 1-5.425-1.182 78.404 78.404 0 0 1-6.529-1.963 93.568 93.568 0 0 1-6.05-2.352 117.426 117.426 0 0 1-3.958-1.78c-1.124-.53-2.277-1.092-3.464-1.687l-.114-.058-.643-.324-.676-.29c-13.307-5.685-21.464-7.255-37.454-8.501l-1.41-.111-.389-.031-.027-.002-.021-.002-.434-.036-.03-.002-.453-.038a62.42 62.42 0 0 1-.204-.017l.687.057a216.144 216.144 0 0 1-3.846-.353l-.177-.018a155.207 155.207 0 0 1-3.671-.423l-.031-.005-.5-.065-.215-.029-.229-.03-.372-.053-.237-.033a112.568 112.568 0 0 1-2.671-.414 95.734 95.734 0 0 1-2.53-.462l1.072.205a88.763 88.763 0 0 1-4.2-.883 82.929 82.929 0 0 1-1.224-.3l-.462-.119a70.355 70.355 0 0 1-1.019-.272l-.148-.041a76.36 76.36 0 0 1-.402-.113l-.188-.053-.063-.018a81.948 81.948 0 0 1-1.22-.36l-.076-.024-.261-.08a72.538 72.538 0 0 1-1.87-.602c-.32-.108-.64-.218-.96-.33l.96.33a82.727 82.727 0 0 1-2.736-.973l-.17-.063-.064-.025-.293-.112-.3-.114a94.143 94.143 0 0 1-1.418-.56l-.026-.01-.42-.172-.136-.055c-.382-.158-.766-.319-1.153-.483l-.321-.14-.07-.028-.122-.053.513.22a109.512 109.512 0 0 1-3.044-1.349l-.141-.065-.23-.106-.452-.211-.143-.067-.102-.048-.51-.242-.114-.054-.033-.015.657.311a146.262 146.262 0 0 1-3.473-1.69l-.188-.096-.56-.282-.003-.001-.673-.29c-13.306-5.684-21.464-7.254-37.453-8.5l-1.41-.111C-55.53 6.704-64.926 4.516-79.438-2.766l-.755-.38.416-.821C-64.952 3.558-55.62 5.774-39.65 7.039l.297.023.13.01.048.004.084.007.058.004.142.011.022.002h.004l.132.01.172.014.12.01.2.015C-22.162 8.403-13.915 9.99-.5 15.721l.698.3-.134.311-.048.11.208-.41c14.573 7.399 23.839 9.666 39.319 10.942zm19.493 29.63l.082.017.289.056-.34-.066-.031-.006zm-.036-.006h-.001l.012.002-.011-.002zm-2.954-.515l.018.003.026.004-.044-.007zm-81.514-.23l.168.024-.168-.024zm74.247-.708l-.089-.01-.155-.015.244.025zm-84.148-.394l.312.027.469.042-.781-.069zm74.912-34.22l.806.065.297.023.176.014.262.02.045.004.026.002.04.003.243.02.09.006.03.003.2.015c16.08 1.254 24.328 2.84 37.742 8.572l.698.3-.178.413.204-.401c14.574 7.398 23.839 9.665 39.32 10.94l.806.066.297.023.186.015.276.022.022.001h.003l.133.01.172.014.32.025c16.08 1.254 24.327 2.84 37.741 8.572l.698.3-.364.844c-13.72-5.928-21.881-7.53-38.146-8.798l-1.41-.111a175.145 175.145 0 0 1-8.618-.872 107.57 107.57 0 0 1-5.66-.88 83.443 83.443 0 0 1-5.425-1.182 78.546 78.546 0 0 1-2.873-.788l-.628-.188a80.512 80.512 0 0 1-5.069-1.726 93.253 93.253 0 0 1-4.003-1.61 117.569 117.569 0 0 1-4.01-1.806 154.914 154.914 0 0 1-3.418-1.664l-.132-.067-.625-.315-.676-.29c-13.307-5.685-21.464-7.255-37.454-8.502l-1.41-.11-.812-.066-.801-.067a209.98 209.98 0 0 1-2.632-.243 168.759 168.759 0 0 1-2.99-.325 134.96 134.96 0 0 1-1.282-.158l-.048-.006-.1-.014-.431-.056a123.82 123.82 0 0 1-.476-.064l-.03-.004a114.175 114.175 0 0 1-3.218-.491 95.734 95.734 0 0 1-2.6-.475l1.142.218a88.871 88.871 0 0 1-3.935-.82 76.097 76.097 0 0 1-1.49-.363l-.218-.056-.154-.04-.17-.045-.232-.06a75.473 75.473 0 0 1-.258-.069l.66.174a78.776 78.776 0 0 1-2.473-.684l-.036-.01-.058-.018a77.258 77.258 0 0 1-2.89-.915l-.664-.23-.244-.083a85.381 85.381 0 0 1-1.707-.619l-.27-.102-.554-.21-.01-.005-.217-.084.217.085c-.464-.18-.93-.364-1.4-.554l-.209-.084-.092-.038-.221-.091-.112-.045-.153-.064.486.2c-.507-.207-1.018-.42-1.534-.64l-.117-.051-.23-.098-.212-.092.559.24c-.414-.176-.83-.357-1.251-.543l-.015-.006-.39-.173.405.18a120.542 120.542 0 0 1-3.564-1.642l.746.354a142.13 142.13 0 0 1-3.418-1.664l-.286-.145-.47-.237-.677-.29C-14.166 4.44-22.324 2.87-38.313 1.622l-1.41-.11C-55.53.26-64.926-1.927-79.438-9.21l-.755-.38.416-.821C-64.952-2.885-55.62-.67-39.65.596l.297.023a895.286 895.286 0 0 0 .348.027l.023.002h.01l-.019-.001.028.002.013.001h.01l.025.004.05.003.115.01.18.013.33.026c16.08 1.254 24.326 2.841 37.74 8.572l.698.3-.178.413.204-.401c14.573 7.398 23.839 9.665 39.319 10.94zM-79.777-17.524C-64.952-10-55.62-7.783-39.65-6.518l.297.023a588.232 588.232 0 0 0 .462.036l.022.002.004.001.132.01.172.013.32.025C-22.162-5.154-13.915-3.568-.5 2.164l.698.3-.182.422.208-.41c14.573 7.398 23.839 9.665 39.319 10.94l.806.066.297.023.176.014.262.02.045.004.026.002.04.003.243.02.12.009.2.015c16.08 1.254 24.328 2.84 37.742 8.572l.698.3-.168.389-.015.033.085-.166.124-.244c14.574 7.398 23.839 9.665 39.32 10.94l.806.066.297.023.186.015.276.021.022.002h.003l.133.01.172.014.12.01.2.015c16.08 1.254 24.327 2.84 37.741 8.572l.698.3-.364.844c-13.72-5.928-21.881-7.53-38.146-8.798l-1.41-.111-.389-.031a172.477 172.477 0 0 1-8.229-.841 107.522 107.522 0 0 1-5.66-.879 83.443 83.443 0 0 1-5.425-1.183 78.053 78.053 0 0 1-6.529-1.963 93.365 93.365 0 0 1-6.08-2.365 117.487 117.487 0 0 1-3.974-1.79 154.914 154.914 0 0 1-3.418-1.664l-.154-.078-.603-.304-.676-.29c-13.307-5.685-21.464-7.255-37.454-8.502l-1.41-.11-.389-.031c-.46-.037-.916-.075-1.367-.114l.743.063a234.126 234.126 0 0 1-1.789-.156l-.216-.02-.803-.076-.223-.022a191.091 191.091 0 0 1-2.75-.293c-.598-.07-1.188-.141-1.771-.216l-.07-.01-.461-.06-.215-.029-.229-.03-.606-.085.545.076c-.38-.052-.755-.106-1.128-.161l-.78-.118-.026-.004a106.357 106.357 0 0 1-1.285-.208l-.053-.009-.018-.003a96.207 96.207 0 0 1-1.387-.245l-.252-.05-.851-.16a3.439 3.439 0 0 1-.032-.007l1.135.217a89.003 89.003 0 0 1-3.958-.826 74.386 74.386 0 0 1-1.466-.357l-.202-.052a90.159 90.159 0 0 1-.222-.057l-.301-.08-.039-.01a56.61 56.61 0 0 1-.14-.036l.48.126a79.793 79.793 0 0 1-1.607-.436l-.188-.053-.063-.019a81.948 81.948 0 0 1-.895-.261l.304.09a78.838 78.838 0 0 1-3.793-1.223l.958.329a83.483 83.483 0 0 1-2.737-.973l-.177-.066-.057-.022-.293-.112-.245-.093a77.135 77.135 0 0 1-.086-.033l.624.238a91.715 91.715 0 0 1-2.037-.797l-.25-.1a105.856 105.856 0 0 1-4.418-1.92l-.04-.018-.045-.02a131.457 131.457 0 0 1-.804-.374l-.093-.043a133.624 133.624 0 0 1-1.764-.843 161.516 161.516 0 0 1-1.88-.928L.46 3.625l-.642-.324-.004-.001-.673-.29c-13.306-5.684-21.464-7.254-37.453-8.5l-1.41-.111c-15.807-1.252-25.203-3.44-39.715-10.722l-.755-.38.416-.821zm80 13.557C15.048 3.558 24.38 5.774 40.348 7.039l.297.023a763.996 763.996 0 0 0 .438.035l.019.001.148.012-.056-.005.151.012.413.032c16.08 1.254 24.327 2.84 37.74 8.572l.7.3-.178.41.203-.398c14.825 7.525 24.157 9.741 40.126 11.006l.297.023.186.015.276.021.022.002h.003l.133.01.172.014.12.01.2.015c16.08 1.254 24.327 2.84 37.741 8.572l.698.3-.364.844c-13.72-5.928-21.881-7.53-38.146-8.799-.654-.05-1.012-.078-1.41-.11-15.807-1.252-25.203-3.44-39.715-10.722l-.103-.052-.643-.324-.676-.29-.18-.077-.518-.22-.661-.277a145.958 145.958 0 0 0-2.313-.941 120.904 120.904 0 0 0-2.559-.983 103.18 103.18 0 0 0-2.538-.902 89.642 89.642 0 0 0-4.422-1.378 84.01 84.01 0 0 0-3.216-.836 88.555 88.555 0 0 0-6.577-1.297 110.524 110.524 0 0 0-3.104-.452c-.684-.091-1.38-.178-2.09-.261a186.159 186.159 0 0 0-5.237-.54 324.506 324.506 0 0 0-4.039-.338 1110.3 1110.3 0 0 1-1.41-.11C24.469 6.704 15.074 4.516.562-2.766l-.755-.38.416-.821zm0-6.444C15.048-2.885 24.38-.67 40.348.596l.297.023.147.012.021.001.178.014.047.004.126.01.1.008.112.008.382.03C57.838 1.96 66.085 3.547 79.5 9.278l.698.3-.178.413.204-.401c14.825 7.525 24.157 9.741 40.126 11.006l.297.023.186.015.276.021.022.002h.003l.133.01.172.014.12.01.2.015c16.08 1.254 24.327 2.84 37.741 8.572l.698.3-.364.844c-13.72-5.928-21.881-7.53-38.146-8.799-.654-.05-1.012-.079-1.41-.11-15.807-1.252-25.203-3.44-39.715-10.722l-.121-.061-.625-.315-.676-.29-.182-.078.167.071a167.632 167.632 0 0 0-3.17-1.314 129.634 129.634 0 0 0-2.523-.981 108.175 108.175 0 0 0-2.804-1.01 93.63 93.63 0 0 0-1.606-.536l-.583-.186-.195-.061a82.923 82.923 0 0 0-6.562-1.762 85.878 85.878 0 0 0-2.65-.55l-.6-.112a95.706 95.706 0 0 0-2.346-.403 111.115 111.115 0 0 0-3.033-.441c-.674-.09-1.36-.175-2.06-.258a185.855 185.855 0 0 0-5.26-.542c-1.295-.117-2.64-.229-4.046-.339l-1.411-.11C24.47.26 15.074-1.927.562-9.21l-.755-.38.416-.821zm0-7.113C15.048-10 24.38-7.783 40.348-6.518l.297.023.176.014.262.02.045.004.026.003.04.002a675.466 675.466 0 0 0 .364.029l.2.015c16.08 1.254 24.327 2.84 37.74 8.572l.7.3-.169.389-.015.033.085-.166.124-.244c14.574 7.398 23.839 9.665 39.32 10.94l.806.066.297.023.186.015.276.021.022.002h.003l.133.01.172.014.32.025c16.08 1.254 24.327 2.84 37.741 8.572l.698.3-.364.844c-13.72-5.928-21.881-7.53-38.146-8.799-.654-.05-1.012-.079-1.41-.11a175.145 175.145 0 0 1-8.618-.872 107.522 107.522 0 0 1-5.66-.88 83.377 83.377 0 0 1-5.425-1.182 78.053 78.053 0 0 1-6.389-1.914 85.865 85.865 0 0 1-4.327-1.626 102.73 102.73 0 0 1-1.862-.775 117.201 117.201 0 0 1-3.959-1.78c-1.124-.53-2.277-1.092-3.464-1.687l-.156-.079-.601-.303-.676-.29C65.833-2.674 57.676-4.244 41.686-5.491a1110.3 1110.3 0 0 1-1.41-.11C24.469-6.853 15.074-9.041.562-16.323l-.755-.38.416-.821zm80 13.557C95.048 3.558 104.38 5.774 120.35 7.039l.297.023c.299.024.623.05 1.112.087 16.08 1.254 24.327 2.84 37.741 8.572l.698.3-.364.844c-13.72-5.928-21.881-7.53-38.146-8.799-.654-.05-1.012-.079-1.41-.11-15.807-1.252-25.203-3.44-39.715-10.722l-.755-.38.416-.821zm0-6.444C95.048-2.885 104.38-.67 120.35.596l.297.023 1.113.087c16.08 1.254 24.326 2.841 37.74 8.572l.698.3-.364.844c-13.72-5.928-21.881-7.53-38.146-8.799l-1.41-.11C104.47.26 95.074-1.927 80.562-9.21l-.755-.38.416-.821zm0-7.113C95.048-10 104.38-7.783 120.35-6.518l.297.023.186.015.276.021.022.002.003.001.133.01.172.013.12.01.2.015c16.08 1.254 24.327 2.84 37.741 8.572l.698.3-.364.844c-13.72-5.928-21.881-7.53-38.146-8.799-.654-.05-1.012-.079-1.41-.11-15.807-1.252-25.203-3.44-39.715-10.722l-.755-.38.416-.821zM-38.826.66l-.04-.004-.024-.001.064.005zm-.114-.01l-.012-.001h-.006.018zm-.002 80h-.002l-.003-.001h.009-.004zm-.233-.018l.064.005.03.002-.094-.007zm-.476-13.594l.297.023.187.015.252.02.023.002.022.001h.004l.088.007.048.004.106.008.182.015.2.015c16.08 1.254 24.327 2.84 37.741 8.572l.698.3-.11.256-.066.153.202-.397c14.825 7.525 24.157 9.741 40.125 11.006l.297.023c.299.024.623.05 1.113.087 16.08 1.254 24.327 2.84 37.74 8.572l.7.3-.365.844c-13.72-5.928-21.882-7.53-38.147-8.798a1106.92 1106.92 0 0 1-2.283-.182l.873.07a245.107 245.107 0 0 1-3.183-.273 189.535 189.535 0 0 1-2.139-.213l-.05-.005a156.095 156.095 0 0 1-1.578-.175l-.059-.007-.027-.003-.043-.005a132.227 132.227 0 0 1-1.15-.14l-.024-.004-.023-.002-.814-.106.837.108a125.854 125.854 0 0 1-2.046-.275l-.054-.008-.182-.026.236.034a108.7 108.7 0 0 1-.555-.081l-.161-.025a104.556 104.556 0 0 1-1.635-.259l-.17-.028-.702-.121-.242-.043-.05-.009-.304-.055-.194-.036-.054-.01a82.09 82.09 0 0 1-.166-.03l-.012-.003-.2-.037-.133-.026.109.02-.116-.021-.24-.046-.122-.024.045.008-.117-.022.037.007-.035-.007-.172-.034-.215-.043a86.144 86.144 0 0 1-.413-.084l.628.127a85.96 85.96 0 0 1-1.865-.392l-.063-.014a133.843 133.843 0 0 1-.517-.117l.238.054c-.226-.051-.45-.103-.676-.156l-.102-.024-.08-.02a78.608 78.608 0 0 1-.263-.063l-.178-.043a88.564 88.564 0 0 1-.156-.038l.334.081c-.29-.07-.581-.142-.87-.215l-.181-.046a79.396 79.396 0 0 1-.43-.112c-.042-.01-.085-.022-.129-.034l-.223-.059-.164-.044a76.848 76.848 0 0 1-2.271-.649l-.164-.05-.132-.04a79.732 79.732 0 0 1-3.027-.994l-.152-.053a87.018 87.018 0 0 1-2.217-.816l.012.005-.13-.05-.003-.001-.15-.058-.095-.037-.084-.033-.05-.02-.112-.043-.013-.005-.041-.016-.366-.144-.121-.049a99.125 99.125 0 0 1-1.823-.747L8.4 80.88l-.1-.042-.113-.048a109.072 109.072 0 0 1-.71-.305l-.365-.159-.212-.093.578.252a116.236 116.236 0 0 1-1.466-.648l-.164-.073-.296-.135a130.396 130.396 0 0 1-1.003-.462l-.094-.044-.002-.001-.174-.081-.12-.056-.014-.007-.104-.049.008.004-.013-.006-.422-.2-.109-.051c-.29-.138-.58-.278-.874-.42l-.089-.043-.138-.067-.002-.001-.098-.048.03.015-.088-.043-.068-.033-.147-.072.013.006-.035-.017-.008-.004-.11-.054-.52-.256-.294-.146-.77-.385-.491-.249h-.003.002l-.003-.001-.673-.29-.6-.255-.098-.04-.661-.278-.053-.022a144.897 144.897 0 0 0-3.348-1.345l.172.066c-.423-.164-.842-.324-1.257-.479l.137.052c-.473-.178-.942-.351-1.407-.519l-.04-.014a95.859 95.859 0 0 0-2.813-.964l-.153-.05.153.05a85.823 85.823 0 0 0-2.75-.844l.335.097a82.126 82.126 0 0 0-1.877-.526l.184.05a76.73 76.73 0 0 0-.38-.102l.17.045a80.625 80.625 0 0 0-1.09-.282l-.177-.045a83.2 83.2 0 0 0-1.509-.361l-.21-.048.21.048a84.145 84.145 0 0 0-1.988-.43l.584.12-.873-.179.289.058a88.872 88.872 0 0 0-1.059-.209l-.599-.112-.64-.116a99.18 99.18 0 0 0-.918-.158l.232.039a100.669 100.669 0 0 0-2.569-.404l.351.052-.57-.083.105.015c-.436-.063-.877-.124-1.323-.183l-.458-.06c-.402-.052-.809-.103-1.22-.153l-.118-.014.118.014a158.339 158.339 0 0 0-3.094-.343c-.431-.044-.869-.087-1.313-.13l-.157-.015a266.69 266.69 0 0 0-3.997-.35c-.387-.031-.778-.063-1.174-.093l-1.41-.111c-15.807-1.252-25.203-3.44-39.715-10.722l-.755-.38.416-.821c14.825 7.525 24.157 9.741 40.126 11.006zm96.757-10.782l-.064-.01c-.295-.05-.592-.1-.89-.147l-.09-.014-.636-.1a108.264 108.264 0 0 0-.885-.132l.607.09a120.672 120.672 0 0 0-2.671-.371l.329.042c-.416-.054-.837-.107-1.263-.159l.108.013a155.88 155.88 0 0 0-2.873-.324 196.674 196.674 0 0 0-3.052-.297l-.282-.025.282.025a268.761 268.761 0 0 0-1.783-.155l.316.026a338.363 338.363 0 0 0-2.572-.21l-1.411-.11a181.701 181.701 0 0 1-7.766-.764 128.408 128.408 0 0 1-2.524-.336 107.231 107.231 0 0 1-3.909-.636 88.594 88.594 0 0 1-2.486-.493 79.374 79.374 0 0 1-10.549-3.023 90.068 90.068 0 0 1-3.02-1.155 102.37 102.37 0 0 1-2.057-.855 119.917 119.917 0 0 1-3.571-1.6A145.073 145.073 0 0 1 .42 43.605l-.604-.305-.003-.001-.35-.15-.404-.174-.24-.102a167.217 167.217 0 0 0-2.33-.968c-.07-.03-.142-.058-.212-.087l.213.087-.653-.264.44.177-.847-.339.407.162a128.134 128.134 0 0 0-1.456-.572l-.785-.3-.107-.04c-.239-.09-.477-.179-.714-.266l.714.266c-.265-.1-.529-.198-.791-.295l.077.029c-.272-.1-.541-.199-.81-.295l-.081-.03a93.601 93.601 0 0 0-3.46-1.167l.016.005a84.412 84.412 0 0 0-1.996-.603l.236.068a83.58 83.58 0 0 0-.835-.239l.599.171a81.18 81.18 0 0 0-1.924-.53l-1-.255-.175-.044c-.327-.08-.655-.159-.983-.235l.983.235a80.958 80.958 0 0 0-1.121-.267l.084.019a83.093 83.093 0 0 0-2.445-.53l-.107-.021a91.603 91.603 0 0 0-3.268-.592l.383.063a105.682 105.682 0 0 0-1.66-.264l.39.06-.818-.124.427.064c-.226-.034-.452-.068-.68-.1l.253.036c-.366-.054-.736-.106-1.108-.157l.07.01a128.471 128.471 0 0 0-2.808-.358l-.675-.078c-.847-.096-1.715-.187-2.607-.276l-.105-.01.105.01-.822-.08.717.07a232.71 232.71 0 0 0-1.004-.097l.287.028a255.204 255.204 0 0 0-2.483-.224l.47.04a314.446 314.446 0 0 0-3.133-.258c-.654-.05-1.012-.078-1.41-.11-15.807-1.252-25.203-3.44-39.715-10.722l-.755-.38.416-.821C-64.952 30-55.62 32.217-39.65 33.482l.297.023.178.014.137.011.147.011.023.002h.003l.132.01.172.014.12.01.2.015c16.08 1.254 24.327 2.84 37.741 8.572l.698.3-.103.239-.004.01-.021.048-.054.124.208-.41c14.825 7.527 24.157 9.743 40.125 11.007l1.41.11c16.08 1.254 24.327 2.841 37.74 8.572l.7.3-.169.389-.015.033.085-.166.124-.244C95.048 70 104.38 72.217 120.35 73.482l.297.023.186.015.276.022.022.001h.003l.133.01.172.014.12.01.2.015c16.08 1.254 24.327 2.84 37.741 8.572l.698.3-.364.844c-13.72-5.928-21.881-7.53-38.146-8.799-.654-.05-1.012-.079-1.41-.11-15.807-1.252-25.203-3.44-39.715-10.722l-.143-.072-.603-.304-.012-.005-.664-.285a166.637 166.637 0 0 0-1.865-.784l.214.089c-.205-.085-.408-.17-.611-.252l.397.163c-.396-.163-.787-.323-1.174-.479l-.15-.06-.32-.128-.122-.048-.348-.138-.17-.067c-.557-.218-1.104-.428-1.646-.631l-.415-.155-.015-.005c-.266-.099-.53-.196-.793-.29l-.445-.16a96.85 96.85 0 0 0-3.513-1.175 88.606 88.606 0 0 0-2.212-.657l.457.13c-.285-.082-.57-.162-.854-.241l.397.11c-.32-.09-.64-.178-.96-.264l-.083-.022a79.156 79.156 0 0 0-.947-.247l-.84-.21-.224-.053c-.225-.054-.45-.108-.677-.16l.677.16a82.67 82.67 0 0 0-1.35-.313l.07.016c-.548-.122-1.1-.24-1.655-.352l-.128-.026-.202-.04.105.02h-.006l-.285-.057.159.032-.54-.106-.031-.006-.036-.007-.032-.006c-.291-.055-.584-.11-.878-.163l-.157-.028.053.01a97.043 97.043 0 0 0-.88-.154zm1.879.339l.013.002-.013-.002zm21.035-.165l.099-.193.104-.205c14.574 7.398 23.839 9.665 39.32 10.94l.806.066.297.023c.299.024.623.05 1.112.087 16.08 1.254 24.327 2.84 37.741 8.572l.698.3-.364.844c-13.72-5.928-21.881-7.53-38.146-8.798l-1.41-.111a201.213 201.213 0 0 1-5.554-.511 153.012 153.012 0 0 1-2.698-.314 111.769 111.769 0 0 1-5.323-.8 85.029 85.029 0 0 1-4.676-.956 78.762 78.762 0 0 1-8.933-2.653 89.472 89.472 0 0 1-3.71-1.433 115.658 115.658 0 0 1-4.596-2.012 136.805 136.805 0 0 1-2.859-1.365c-.447-.219-.898-.443-1.355-.672l-.756-.381-.182-.08-.026-.01-.055-.024-.414-.177-.32-.137-.371-.157-.721-.302a148.572 148.572 0 0 0-1.725-.706l-.85-.338a167.7 167.7 0 0 0-.773-.301l.41.158-.879-.338.469.18c-.374-.145-.744-.285-1.111-.423l-.012-.004-.16-.06a111.85 111.85 0 0 0-.58-.214l.138.05-.544-.198.16.059a106.36 106.36 0 0 0-2.097-.736l.675.23a93.78 93.78 0 0 0-2.039-.68l.378.123a86.115 86.115 0 0 0-2.92-.893l.718.208a82.024 82.024 0 0 0-1.739-.494l.658.182a81.098 81.098 0 0 0-1.265-.344l.032.008a80.999 80.999 0 0 0-2.526-.624l.162.037a83.275 83.275 0 0 0-2.074-.454l-.474-.096a88.91 88.91 0 0 0-.73-.143l-.598-.112a96.343 96.343 0 0 0-1.966-.342l-.5-.08-.514-.08-.225-.034.226.034-.647-.097.421.063-.652-.097.231.034c-.388-.057-.78-.113-1.176-.168l.13.018-.667-.09-.434-.057-.543-.07-.206-.025.206.026-.52-.065.314.04c-.234-.03-.47-.059-.708-.087l.394.047a151.09 151.09 0 0 0-.774-.092l.139.017a171.997 171.997 0 0 0-2.776-.303l.372.038c-.303-.032-.608-.063-.917-.093l.545.055-.754-.076.21.021c-.227-.022-.455-.045-.685-.066l.475.045a264.188 264.188 0 0 0-3.7-.334c-.668-.055-1.349-.11-2.045-.165a1106.92 1106.92 0 0 1-2.225-.176l.815.066a213.689 213.689 0 0 1-5.686-.525c-.99-.107-1.955-.221-2.901-.343l-.086-.012-.423-.055-.093-.012a156.97 156.97 0 0 1-.936-.13l.524.074c-.38-.052-.755-.106-1.128-.161l-.67-.102-.12-.018a103.206 103.206 0 0 1-1.301-.21l-.352-.06-.35-.061c-.253-.044-.505-.09-.756-.136l-.231-.045-.872-.166a84.866 84.866 0 0 1-4.31-.97l-.011-.002a77.408 77.408 0 0 1-2.03-.545l-.21-.06-.042-.011a81.948 81.948 0 0 1-.895-.262l.304.09a78.838 78.838 0 0 1-.7-.21l-.103-.032-.165-.05a120.15 120.15 0 0 1-.336-.105l-.121-.038-.205-.065a110.296 110.296 0 0 1-1.205-.394l-.077-.027-.833-.285-.051-.018.96.33a82.727 82.727 0 0 1-2.736-.973l-.172-.064-.062-.024-.293-.112-.245-.093-.076-.03.614.235a90.454 90.454 0 0 1-2.593-1.023c-.382-.158-.766-.319-1.153-.483l-.34-.147-.052-.021-.084-.037.476.205c-.389-.166-.78-.335-1.175-.509l-.137-.06a9.47 9.47 0 0 0-.04-.018l-.754-.336c-.31-.14-.623-.282-.938-.427l-.137-.063-.17-.079c-.046-.02-.092-.042-.137-.063l.444.205c-.353-.162-.71-.328-1.068-.497l-.51-.242-.01-.004-.063-.03.583.276a145.962 145.962 0 0 1-3.322-1.615l-.142-.071-.197-.1-.56-.282-.003-.001-.673-.29c-13.306-5.684-21.464-7.254-37.453-8.5l-1.41-.111c-15.807-1.252-25.203-3.44-39.715-10.722l-.755-.38.416-.821c14.825 7.525 24.157 9.741 40.126 11.006l.297.023.178.014.284.023.022.001h.004l.132.01.172.014.32.025c16.08 1.254 24.327 2.84 37.741 8.572l.698.3-.182.422.208-.41c14.573 7.398 23.839 9.665 39.319 10.94l.806.066.297.023.176.014.262.02.045.004.026.002.04.003.243.02.12.009.2.015c16.08 1.254 24.328 2.84 37.742 8.572l.698.3-.168.389-.01.02zm-84.327 5.154l-.063-.025-.03-.012-.015-.006-.015-.006-.03-.012-.03-.012-.334-.132-.133-.052a134.514 134.514 0 0 0-.662-.258l-.078-.03-.157-.06c-.244-.094-.487-.186-.728-.277l.09.034c-.374-.14-.746-.279-1.114-.413l-.897-.322-.127-.045a99.27 99.27 0 0 0-.83-.288l.83.288a96.77 96.77 0 0 0-.985-.342l.156.054a90.215 90.215 0 0 0-.73-.247l.574.194a91.983 91.983 0 0 0-1.545-.512l.419.136c-.472-.154-.94-.303-1.408-.446l-.187-.058-.809-.242-.075-.022c-.23-.068-.46-.134-.691-.2l.691.2a81.916 81.916 0 0 0-1.788-.503l-.13-.035a80.664 80.664 0 0 0-4.033-.966l-.054-.012.108.023-.198-.042c-.282-.06-.566-.118-.85-.175l-.074-.015-.868-.17-.058-.01c-.294-.056-.59-.11-.887-.163h.006l-.407-.071-.44-.076-.068-.011a103.348 103.348 0 0 0-1.977-.315l.55.084a109.12 109.12 0 0 0-.743-.113l.087.013a118.955 118.955 0 0 0-2.007-.28l.381.05c-.289-.04-.58-.077-.873-.115l.492.064c-.324-.043-.65-.084-.98-.125l-.086-.011-.323-.04-.074-.009a148.54 148.54 0 0 0-.284-.034l.284.034a157.376 157.376 0 0 0-1.648-.19l.29.032a179.837 179.837 0 0 0-1.715-.184l-.16-.016a236.804 236.804 0 0 0-3.623-.34l-.196-.017a316.497 316.497 0 0 0-2.747-.224c-.653-.051-1.012-.08-1.41-.11-15.807-1.252-25.203-3.44-39.715-10.723l-.755-.38.416-.821c14.825 7.526 24.157 9.742 40.126 11.006l1.41.11c16.08 1.254 24.326 2.841 37.74 8.572l.698.3-.182.422.208-.41c14.573 7.398 23.839 9.665 39.319 10.94l.806.066.297.023.08.007.034.002.053.004.177.014.065.005.012.001.017.002.049.003-.03-.002.148.012-.042-.004.55.043c16.08 1.254 24.327 2.84 37.74 8.572l.7.3-.365.844c-13.72-5.928-21.882-7.53-38.147-8.799l-1.41-.11C24.469 73.147 15.074 70.959.562 63.677l-.143-.072-.603-.304-.012-.005-.081-.035-.583-.25-.08-.035.08.035a165.948 165.948 0 0 0-1.833-.77l.312.129-.667-.276.355.146c-.423-.174-.84-.344-1.253-.51l-.273-.11-.116-.046.028.01zM.019 49.992l.204-.402c14.825 7.525 24.157 9.741 40.125 11.006l.297.023.147.012.021.001.178.014.052.004.018.002h.01l.04.004h.012l.033.003.02.002.04.003.047.004.113.008.182.015.2.015c16.08 1.254 24.327 2.84 37.74 8.57l.7.3-.18.415.205-.402c14.574 7.398 23.839 9.665 39.32 10.942l.806.065.297.023 1.113.087c16.08 1.254 24.326 2.841 37.74 8.572l.698.3-.364.844c-13.72-5.928-21.881-7.53-38.146-8.799l-1.41-.11c-15.807-1.252-25.203-3.44-39.715-10.723l-.738-.372-.241-.104-.443-.19c-13.306-5.685-21.464-7.254-37.453-8.5l-1.411-.111a236.999 236.999 0 0 1-4.028-.355 169.319 169.319 0 0 1-2.997-.321 111.733 111.733 0 0 1-6.564-.95l-.58-.105a83.759 83.759 0 0 1-6.34-1.413 77.308 77.308 0 0 1-2.562-.726 81.451 81.451 0 0 1-5.823-2.002 108.224 108.224 0 0 1-6.926-2.962c-.675-.315-1.36-.641-2.057-.98a165.46 165.46 0 0 1-2.096-1.038l-.487-.246-.003-.001-.18-.077-.583-.25a190.374 190.374 0 0 0-1.13-.478l.51.215c-.247-.105-.494-.209-.739-.31l.228.095a150.259 150.259 0 0 0-3.515-1.416l-.704-.27a173.192 173.192 0 0 0-.991-.37l-.672-.244-.61-.218a96.028 96.028 0 0 0-1.803-.617l-.436-.143-.316-.102a86.125 86.125 0 0 0-2.054-.632l.707.21a84.601 84.601 0 0 0-1.528-.447l.327.093a82.1 82.1 0 0 0-1.883-.516l-.993-.252-.062-.016a81.313 81.313 0 0 0-.897-.216l.897.216a80.666 80.666 0 0 0-1.191-.284l.18.042a83.545 83.545 0 0 0-2.512-.546l-.107-.021a91.603 91.603 0 0 0-3.268-.592l.391.065a104.708 104.708 0 0 0-1.669-.266l.39.06a116.85 116.85 0 0 0-.834-.126l.444.066c-.226-.034-.452-.068-.68-.1l.236.034-.652-.094.178.025a98.108 98.108 0 0 0-.6-.084l.038.005a124.122 124.122 0 0 0-2.793-.355l-.675-.078c-.847-.096-1.715-.187-2.607-.276l-.105-.01.105.01-.822-.08.717.07a232.71 232.71 0 0 0-1.004-.096l.287.027a255.204 255.204 0 0 0-2.483-.224l.47.04a314.446 314.446 0 0 0-3.133-.258c-.654-.05-1.012-.078-1.41-.11-15.807-1.252-25.203-3.44-39.715-10.722l-.755-.38.416-.821c14.825 7.525 24.157 9.741 40.126 11.006l.297.023.178.014.284.023.022.001h.004l.132.01.172.014.32.025c16.08 1.254 24.327 2.84 37.741 8.572l.698.3-.178.414zM-38.916.654L-39 .647l.11.009-.026-.002zm-.07 79.994l-.014-.001h.014zm.003 0h-.003.003zm.067.005l-.084-.006.174.014-.09-.008zm-.02-.001l-.001-.001h.014l.005.002h-.015l-.002-.001zm-.022-.002l-.007-.001h.01-.003zm0 0l.023.002h.018l.166.014.18.014.13.01.186.015.014.001c16.08 1.254 24.326 2.841 37.74 8.572l.698.3-.364.844c-13.72-5.928-21.88-7.53-38.146-8.799l-1.41-.11c-15.807-1.252-25.203-3.44-39.715-10.723l-.755-.38.416-.821c14.825 7.526 24.157 9.742 40.126 11.007l.297.023.18.014.107.008h.014l.065.007H-38.97l.006.002h.005z"/></g><defs><clipPath id="clip0"><path fill="#fff" d="M0 0h80v80H0z"/></clipPath></defs></svg>